<svg width="71" height="22" viewBox="0 0 71 22" fill="none" xmlns="http://www.w3.org/2000/svg">
<path d="M2.96379 16.0603C3.14561 15.424 3.72137 14.1209 4.72138 12.7573C5.56988 11.636 7.41839 10.2118 7.41839 10.2118V16.0603H2.96379ZM44.1461 9.636V8.36326H51.0856V9.6663L44.1461 9.636ZM17.7822 21.2422V10.7875H16.4185V21.2422H17.7822ZM47.5401 7.15112C49.5098 7.15112 51.1159 5.54504 51.1159 3.57531C51.1159 1.60559 49.5098 -0.000488281 47.5401 -0.000488281C45.5704 -0.000488281 43.9643 1.60559 43.9643 3.57531C43.9643 5.54504 45.5704 7.15112 47.5401 7.15112ZM36.7218 12.0603V10.8481H23.4792V12.0603H25.752V21.2422H26.8732V12.0603H36.7218ZM70.3586 10.6057H63.8434V11.9088H66.3888V21.2422H67.7222V11.9694H70.3586V10.6057ZM8.78204 7.48446C8.78204 7.48446 5.23654 9.636 3.0547 12.8482C0.751636 16.2118 0.0849609 21.2422 0.0849609 21.2422H1.60013L2.05468 19.0907L2.50923 17.3634H7.479V21.2725H8.75174L8.78204 7.48446ZM12.57 10.939C11.6609 10.5754 10.0851 10.6966 10.0851 10.6966V21.2422H11.4184V18.0604H11.6306H11.8427C11.8427 18.0604 12.4791 19.7573 13.3276 20.4543C14.0245 21.0301 15.4791 21.3331 15.4791 21.3331V20.0301C15.4791 20.0301 14.2973 19.6058 13.7518 19.0907C13.3276 18.6664 13.1154 18.3331 12.9336 17.7573C14.3579 17.1209 15.0549 16.03 15.0852 14.4239C15.1761 12.2724 14.1457 11.6057 12.57 10.939ZM13.8427 14.2118C13.8427 16.3937 11.479 16.6967 11.479 16.6967V12.0603C11.479 12.03 13.8427 12.1512 13.8427 14.2118ZM31.2975 10.5451C32.3278 9.57539 33.7218 8.99963 35.2672 8.99963C38.4491 8.99963 41.0552 11.5754 41.0552 14.7573C41.0552 17.9391 38.4794 20.5149 35.2672 20.5149C32.0551 20.5149 29.4793 17.9391 29.4793 14.7573C29.4793 13.9088 29.6308 13.1815 29.9338 12.4845H28.3581C28.0853 13.2118 28.055 13.9391 28.055 14.7573C28.055 18.727 31.2975 21.9392 35.2672 21.9392C39.237 21.9392 42.4794 18.727 42.4794 14.7573C42.4794 10.7875 39.237 7.57537 35.2672 7.57537C32.843 7.57537 30.6914 8.7269 29.3884 10.5451H31.2975ZM51.1159 19.9089C50.4189 20.3937 49.5704 20.6361 48.631 20.6361C46.1765 20.6361 44.1764 18.6664 44.1764 16.2118C44.1764 13.7573 46.1765 11.7875 48.631 11.7875C49.5401 11.7875 50.3886 12.0603 51.0856 12.5148V11.2421C50.3583 10.8784 49.5098 10.6663 48.631 10.6663C45.5704 10.6663 43.0552 13.1512 43.0552 16.2118C43.0552 19.2725 45.5401 21.7574 48.631 21.7574C49.5098 21.7574 50.4796 21.5452 51.2068 21.2119L51.1159 19.9089ZM55.3887 10.9087C54.4796 10.636 52.9038 10.6663 52.9038 10.6663V21.2725H54.2372V18.0604H54.4493H54.6614C54.6614 18.0604 55.2978 19.7573 56.1463 20.4543C56.8736 21.0301 58.3281 21.3331 58.3281 21.3331V20.0301C58.3281 20.0301 57.1463 19.6058 56.6008 19.0907C56.1766 18.6664 55.9645 18.3331 55.7827 17.7573C57.2069 17.1209 57.9039 16.03 57.9342 14.4239C57.9948 12.2118 56.8433 11.333 55.3887 10.9087ZM56.6614 14.1512C56.6614 16.3331 54.2978 16.6361 54.2978 16.6361V11.9997C54.2978 11.9694 56.6614 12.0906 56.6614 14.1512ZM59.2069 10.8784V21.2422H60.3888V18.424H63.8737C63.8737 18.424 63.9343 18.727 63.9949 18.9391C64.1464 19.3634 64.1161 19.6058 64.1464 20.0301C64.207 20.5149 64.207 21.2422 64.207 21.2422H65.51C65.51 21.2422 65.51 19.6664 65.2979 18.6967C65.0555 17.5452 64.6919 16.9694 64.2373 15.8785C62.813 12.5451 59.2069 10.8784 59.2069 10.8784ZM63.2979 17.0603L63.3282 17.1512H60.4191V13.0603C60.4191 13.0603 61.4494 13.9088 62.1161 14.8482C62.6312 15.6361 63.2979 17.0603 63.2979 17.0603ZM19.9337 17.1512C20.4186 17.6361 21.358 18.5452 21.358 19.2725C21.358 19.9998 20.9337 20.6664 20.4489 21.2422H22.0852C22.4489 20.6664 22.6913 19.9998 22.6913 19.2725C22.6913 17.9997 21.5398 16.8785 20.8428 16.2118C20.7216 16.0906 20.6004 15.9694 20.5398 15.9088C19.9034 15.1815 19.6307 14.4239 19.6307 13.5754C19.6307 12.3027 20.6913 12.1512 21.1155 12.1512C21.8731 12.1512 22.5095 12.636 22.964 13.1209V11.3936C22.4489 11.0603 21.8428 10.8178 21.1155 10.8178C19.4185 10.8178 18.267 11.9391 18.267 13.5754C18.267 14.727 18.6913 15.7876 19.5095 16.7573C19.661 16.8785 19.7822 16.9997 19.9337 17.1512Z" fill="#5097FF"/>
</svg>
