<svg width="75" height="29" viewBox="0 0 75 29" fill="none" xmlns="http://www.w3.org/2000/svg">
<path d="M7.83229 0L5.56967 9.43838L2.85451 6.65859L0.397949 16.7111L4.47068 13.9313L0.979767 28.3151H68.0181L74.6767 0H7.83229Z" fill="black"/>
<path d="M28.2926 12.1533L25.8037 22.3997H15.1371L17.5936 12.1533H20.0502L20.3088 11.3129H17.8199L20.2118 1.22803H30.9431L28.4865 11.3129H26.2239L25.9977 12.1533H28.2926ZM67.7916 22.3997H26.3855L28.8421 12.1533H32.6562L32.9148 11.3129H29.036L31.4603 1.22803H72.8017L67.7916 22.3997ZM42.6441 11.3129H35.9532L35.7269 12.1533H42.4179L42.6441 11.3129ZM14.7169 12.1533C14.7169 12.1533 14.6845 11.7977 14.6199 11.7654C14.5552 11.7331 14.5876 11.6684 14.6199 11.6361C14.7815 11.5715 14.8461 11.3129 14.8461 11.3129H17.2057L19.6623 1.22803H8.93099L6.47443 11.3129H8.60776L8.3815 12.1533H6.24817L3.75928 22.3997H14.4906L16.9795 12.1533H14.7169Z" fill="white"/>
<path d="M66.5312 21.0741H37.311L41.8686 2.6499H71.0565L66.5312 21.0741Z" fill="black"/>
<path d="M35.6625 25.73L35.7595 25.3421C35.7595 25.3421 35.7595 25.3421 35.7918 25.3421H37.3756C37.3756 25.3421 37.4079 25.3421 37.4079 25.3744C37.2786 25.8593 37.1494 26.3765 37.1494 26.3765C37.1494 26.3765 37.117 26.7643 36.5352 26.7643C35.9857 26.7643 34.4342 26.7643 34.4342 26.7643C34.4342 26.7643 33.917 26.829 34.0786 26.2149C34.2403 25.6007 34.4988 24.728 34.4988 24.728C34.4988 24.728 34.5635 24.3724 35.0483 24.3724H37.1817C37.1817 24.3724 37.6665 24.3078 37.5696 24.728C37.5696 24.7926 37.5372 24.8896 37.5049 25.0189C37.5049 25.0189 37.5049 25.0189 37.4726 25.0512L36.9877 25.1159C36.9877 25.1159 36.9554 25.1159 36.9554 25.0835L36.9877 24.7603C36.9877 24.7603 36.9877 24.728 36.9554 24.728H34.8867H34.8544L34.4019 26.3765C34.4019 26.3765 34.4019 26.4088 34.4342 26.4088H36.5029H36.5352L36.6645 25.8593C36.6645 25.8593 36.6645 25.827 36.6322 25.827H35.5978C35.6625 25.7623 35.6625 25.7623 35.6625 25.73ZM65.4322 25.7623H66.4665C66.4665 25.7623 66.4988 25.7623 66.4988 25.7946L66.3695 26.3441C66.3695 26.3441 66.3695 26.3441 66.3372 26.3441H64.2685C64.2685 26.3441 64.2362 26.3441 64.2362 26.3118L64.6887 24.6633C64.6887 24.6633 64.6887 24.6633 64.7211 24.6633H66.7897C66.7897 24.6633 66.8221 24.6633 66.8221 24.6957L66.7897 25.0189C66.7897 25.0189 66.7898 25.0512 66.8221 25.0512L67.3069 24.9866C67.3069 24.9866 67.3069 24.9866 67.3392 24.9542C67.3716 24.8249 67.3716 24.728 67.4039 24.6633C67.4685 24.2431 67.016 24.3078 67.016 24.3078H64.8827C64.3978 24.3078 64.3332 24.6633 64.3332 24.6633C64.3332 24.6633 64.0746 25.5361 63.913 26.1502C63.7514 26.7643 64.2685 26.6997 64.2685 26.6997C64.2685 26.6997 65.8201 26.6997 66.3695 26.6997C66.919 26.6997 66.9837 26.3118 66.9837 26.3118C66.9837 26.3118 67.113 25.7946 67.2423 25.3098C67.2423 25.3098 67.2423 25.2775 67.21 25.2775H65.6261H65.5938L65.4968 25.6654C65.4322 25.7623 65.4322 25.7623 65.4322 25.7623ZM42.515 24.3724H42.0625L39.9291 26.732V26.7643H40.317L40.8665 26.1502H42.612H42.6443L42.8059 26.7643C42.8059 26.7643 42.8059 26.7643 42.8382 26.7643H43.2908C43.2908 26.7643 43.3231 26.7643 43.3231 26.732L42.515 24.3724ZM41.1898 25.7946L42.1595 24.6633H42.1918L42.612 25.7946C42.612 25.7946 42.612 25.827 42.5797 25.827H41.1898C41.1898 25.827 41.1574 25.827 41.1898 25.7946ZM49.2706 26.7643H49.6261H49.6584L50.3049 24.4047C50.3049 24.4047 50.3049 24.3724 50.2726 24.3724H49.8847L48.2685 25.9239H48.2362L47.3635 24.3724C47.3635 24.3724 47.3635 24.3724 47.3312 24.3724H46.9756H46.9433L46.2968 26.732C46.2968 26.732 46.2968 26.7643 46.3291 26.7643H46.6847H46.717L47.2019 24.9542C47.2019 24.9219 47.2342 24.9219 47.2342 24.9542L48.01 26.3765C48.0423 26.4734 48.1716 26.4734 48.2362 26.4088L49.6908 24.9866C49.6908 24.9866 49.7231 24.9866 49.7231 25.0189L49.2706 26.7643ZM53.2786 26.7643H53.6665H53.6988L54.3453 24.4047C54.3453 24.4047 54.3453 24.3724 54.313 24.3724H53.9251H53.8928L53.2786 26.7643C53.2463 26.7643 53.2463 26.732 53.2786 26.7643ZM59.9695 26.7643H60.2928H60.3251L60.9069 24.4047C60.9069 24.4047 60.9069 24.3724 60.8746 24.3724H60.4867H60.4544L60.0342 26.0856C60.0342 26.0856 60.0019 26.1179 60.0019 26.0856L58.2887 24.3401H57.9009H57.8685L57.2867 26.6997C57.2867 26.6997 57.2867 26.732 57.319 26.732H57.7069H57.7392L58.1918 24.9866C58.1918 24.9866 58.2241 24.9542 58.2241 24.9866L59.9695 26.7643Z" fill="white"/>
<path d="M1.85254 14.674L3.33941 8.72648L6.08688 11.6033L1.85254 14.674ZM39.8323 11.7972L42.5152 14.9002L44.099 8.62952L39.8323 11.7972ZM49.5939 16.8719C49.5616 17.0659 49.4323 17.2921 49.4323 17.5184C49.4323 17.777 49.3677 18.0032 49.4323 18.2618C49.497 18.5204 49.5616 18.7467 49.6909 18.9729C50.0141 19.6517 50.596 19.975 51.4364 19.975C52.2768 19.975 53.2788 19.6194 53.8929 18.9406C54.1515 18.6497 54.3778 18.3265 54.5717 18.0032C54.7657 17.6477 54.895 17.1628 54.9273 16.8719L57.3838 6.94871C57.4162 6.75477 57.6424 6.17295 57.6424 5.97901C57.6424 5.30022 57.4162 4.71841 57.0283 4.26588C56.6081 3.84568 56.0909 3.71638 55.4121 3.71638C55.0566 3.71638 54.701 3.78103 54.3778 3.94265C54.0222 4.10426 53.7313 4.2982 53.4404 4.55679C53.1495 4.81538 52.8263 5.13861 52.6323 5.49416C52.4384 5.84972 52.2768 6.2376 52.2121 6.6578L49.5939 16.8719ZM53.0525 17.2275C52.9232 17.7447 52.503 18.1972 51.7919 18.1972C51.501 18.1972 51.2748 17.9386 51.2748 17.583C51.2748 17.5184 51.2748 17.4861 51.2748 17.4214C51.2748 17.3891 51.2748 17.3245 51.3071 17.2275L53.9576 6.56083C54.0545 6.01133 54.701 5.52649 55.1212 5.52649C55.4444 5.52649 55.7354 5.8174 55.7354 6.17295C55.7354 6.20527 55.7354 6.26992 55.7354 6.30224C55.7354 6.33457 55.7354 6.39921 55.703 6.46386L53.0525 17.2275ZM63.6869 3.74871H59.0646L54.9919 20.0073H56.8343L58.6444 12.7992H61.4242L61.8768 10.9891H59.097L60.3899 5.52649H63.299L63.6869 3.74871ZM67.4364 5.49416H69.0202C69.0202 5.49416 69.4404 3.78103 69.4727 3.74871H64.3333L63.8485 5.49416H65.6586L62.0384 19.9426H63.8485L67.4364 5.49416ZM45.0687 17.6477C44.9717 17.2598 45.4242 16.0639 45.4242 16.0639H43.5818C43.5818 16.0639 43.2586 17.2275 43.1939 17.6154C43.0647 18.3588 43.2909 18.8437 43.5818 19.2639C43.9051 19.6841 44.5838 20.0396 45.198 20.0719C45.9091 20.1043 46.5879 19.878 47.2667 19.3285C47.5576 19.0699 47.8485 18.779 48.0748 18.4558C48.301 18.1649 48.4626 17.874 48.495 17.6154C48.7212 16.7426 49.4323 14.4477 49.4323 13.7043C49.4323 13.3164 49.3677 12.8315 49.1737 12.379C49.0121 11.9265 48.8505 11.7325 48.2364 11.2477C47.6222 10.7305 47.3636 10.1164 47.2667 9.79315C47.1374 9.46992 47.2667 8.98507 47.299 8.59719C47.299 8.53255 47.6869 7.01335 47.8485 6.46386C47.9455 6.17295 48.0748 5.97901 48.204 5.81739C48.3657 5.62345 48.6889 5.55881 48.7535 5.55881C49.0768 5.55881 49.7556 5.59113 49.497 6.69012L49.2061 7.6275L50.9838 7.65982C50.9838 7.65982 51.3394 6.43154 51.404 6.2376C51.404 6.2376 51.6303 5.13861 51.0162 4.39517C50.6283 3.94265 49.9818 3.74871 49.4 3.71638C48.6566 3.65174 47.9455 3.94265 47.299 4.52446C47.0081 4.78305 46.7495 5.07396 46.5556 5.36487C46.3616 5.65578 46.2 5.94669 46.1354 6.20527C46.1354 6.20527 45.3596 9.08204 45.3273 9.3083C45.295 9.50224 45.2626 9.69618 45.2626 9.8578C45.2303 10.278 45.2303 10.6659 45.3273 10.9891C45.4242 11.3123 45.5859 11.6033 45.8444 11.8618C46.103 12.1527 46.8141 12.7346 46.9758 12.9932C47.1374 13.2194 47.2667 13.4457 47.3636 13.6719C47.4606 13.8982 47.4606 14.1245 47.4606 14.5447C47.4606 14.9972 46.7818 17.2598 46.7818 17.2598C46.3616 18.3911 45.2626 18.4558 45.0687 17.6477Z" fill="#FDDF00"/>
<path d="M33.1735 19.9754H31.3957L35.0159 5.23598H33.2058L33.6907 3.49053H38.8301C38.8301 3.52285 38.3776 5.23598 38.3776 5.23598H36.7937L33.1735 19.9754ZM24.1553 5.23598L22.8301 10.7633H25.7069L25.2866 12.6057H22.3452L20.9877 18.1329H23.8644L23.4119 19.8784H18.7897L22.8301 3.39355H27.517L27.0967 5.20366H24.1553V5.23598ZM14.8462 9.8582C14.7493 10.2138 14.3291 11.2158 13.8766 11.5067C13.8119 11.539 13.7796 11.636 13.8442 11.7006C14.3614 12.1855 14.1351 13.3168 14.1351 13.3168L13.424 16.4521C13.2624 17.3249 12.5836 19.943 9.51292 19.9107H7.15332L11.1291 3.42588H14.0058C14.523 3.42588 15.1372 3.74911 15.3957 4.04002C15.6543 4.33093 15.9129 5.20366 15.8159 5.75315C15.5897 6.91679 14.8462 9.8582 14.8462 9.8582ZM9.3513 18.1329L9.99776 18.1653C10.4826 18.1976 10.9351 18.0037 11.1291 17.842C11.2907 17.6804 11.3877 17.4865 11.4523 17.2602L12.2604 13.834C12.2604 13.834 12.3897 13.2198 12.3897 13.1552C12.3897 12.8966 12.1311 12.5734 11.8079 12.5734C11.5493 12.5734 10.8058 12.5734 10.8058 12.5734L9.3513 18.1329ZM11.226 10.6986C11.226 10.6986 11.9048 10.7309 12.1311 10.6986C12.519 10.6016 12.8745 10.4077 13.0361 9.8582L13.9735 5.94709C14.0382 5.42992 13.521 5.17133 13.1978 5.13901H12.5513L11.226 10.6986Z" fill="black"/>
</svg>
