<svg width="74" height="28" viewBox="0 0 74 28" fill="none" xmlns="http://www.w3.org/2000/svg">
<path d="M63.0347 9.37493V6.53049H73.2812V9.37493H69.661V22.4012H66.6549V9.37493H63.0347ZM58.4771 16.4537V6.49817H61.4832V22.3366H58.768L52.4004 12.284V22.3366H49.4266V6.49817H52.1418L58.4771 16.4537ZM39.2125 0.744629V6.49817H47.5519V9.34261H40.2792V12.9305H46.4852V15.8396H40.2792V19.5244H47.5519V22.3366H39.2125V27.8638H38.8569V22.4335V6.4012V0.744629H39.2125Z" fill="#68A511"/>
<path d="M26.1215 9.37579V6.53135H36.4972V9.37579H32.7801V22.4021H29.8063V9.37579H26.1215ZM9.21642 16.4546V6.49902H12.1902V22.3374H9.47501L3.2043 12.2849V22.3374H0.198242V6.49902H2.91339L9.21642 16.4546ZM14.1296 22.3374V6.49902H24.4083V9.34347H17.1033V12.9313H23.3094V15.8404H17.1033V19.5253H24.376V22.3374H14.1296Z" fill="#AAAAAA"/>
</svg>
