<svg width="107" height="69" viewBox="0 0 107 69" fill="none" xmlns="http://www.w3.org/2000/svg">
<g clip-path="url(#clip0_472_55749)">
<path d="M7.6068 68.1564C3.47613 68.1564 0.11377 64.8036 0.11377 60.6847V7.58643C0.11377 3.46752 3.47613 0.114746 7.6068 0.114746H98.8925C103.023 0.114746 106.386 3.46752 106.386 7.58643V60.6847C106.386 64.8036 103.023 68.1564 98.8925 68.1564H7.6068Z" fill="url(#paint0_linear_472_55749)"/>
<path d="M98.8929 0.227564C100.855 0.227564 102.704 0.993697 104.104 2.38942C105.503 3.78515 106.272 5.62842 106.272 7.58547V60.6838C106.272 62.6408 105.503 64.4841 104.104 65.8798C102.704 67.2755 100.855 68.0417 98.8929 68.0417H7.60714C5.6445 68.0417 3.79596 67.2755 2.39625 65.8798C0.996536 64.4841 0.228214 62.6408 0.228214 60.6838V7.58547C0.228214 5.62842 0.996536 3.78515 2.39625 2.38942C3.79596 0.993697 5.6445 0.227564 7.60714 0.227564H98.8929ZM98.8929 0H7.60714C3.42321 0 0 3.41346 0 7.58547V60.6838C0 64.8558 3.42321 68.2692 7.60714 68.2692H98.8929C103.077 68.2692 106.5 64.8558 106.5 60.6838V7.58547C106.5 3.41346 103.077 0 98.8929 0Z" fill="#BCBEC0"/>
<path d="M58.0124 28.9385H54.4446C54.1023 28.9385 53.7828 29.1054 53.5926 29.3861L48.6708 36.6074L46.5865 29.6667C46.4571 29.2343 46.054 28.9309 45.5975 28.9309H42.0906C41.6646 28.9309 41.368 29.3481 41.5049 29.7426L45.4302 41.2346L41.7407 46.4306C41.4516 46.8402 41.7407 47.4015 42.2428 47.4015H45.8029C46.1376 47.4015 46.4571 47.2347 46.6473 46.9616L58.5068 29.8943C58.8035 29.4923 58.5068 28.9385 58.0124 28.9385ZM34.1716 35.8261C33.8293 37.8439 32.2166 39.2017 30.1702 39.2017C29.1433 39.2017 28.3141 38.8679 27.7892 38.2459C27.2643 37.6239 27.0665 36.744 27.2339 35.7654C27.5534 33.7629 29.1889 32.3596 31.2124 32.3596C32.2166 32.3596 33.0381 32.6933 33.5782 33.3229C34.1107 33.9601 34.3237 34.8476 34.1716 35.8261ZM39.1162 28.9385H35.5713C35.267 28.9385 35.0084 29.1585 34.9627 29.4619L34.8106 30.448L34.5596 30.0915C33.7912 28.9764 32.0796 28.6048 30.368 28.6048C26.4503 28.6048 23.1032 31.5707 22.449 35.7199C22.1067 37.7908 22.5935 39.7706 23.7726 41.1587C24.8528 42.4255 26.3971 42.9565 28.238 42.9565C31.395 42.9565 33.1522 40.9311 33.1522 40.9311L32.9925 41.9173C32.9316 42.2889 33.2207 42.6303 33.6011 42.6303H36.7961C37.3057 42.6303 37.7317 42.2662 37.8154 41.7655L39.7324 29.6591C39.7857 29.2723 39.4966 28.9385 39.1162 28.9385ZM17.8238 29.022C17.4207 31.6769 15.3896 31.6769 13.4193 31.6769H12.3011L13.0846 26.7236C13.1302 26.4277 13.3889 26.2077 13.6932 26.2077H14.2028C15.5417 26.2077 16.8045 26.2077 17.4511 26.9663C17.8543 27.4138 17.976 28.0889 17.8238 29.022ZM16.9718 22.104H9.56249C9.05281 22.104 8.62681 22.4681 8.54313 22.9687L5.55353 41.9097C5.49267 42.2814 5.78174 42.6227 6.1621 42.6227H9.69942C10.2091 42.6227 10.6351 42.2586 10.7188 41.758L11.5251 36.6454C11.6012 36.1447 12.0348 35.7806 12.5445 35.7806H14.8875C19.7713 35.7806 22.5859 33.4291 23.3238 28.7565C23.6585 26.716 23.339 25.1154 22.3805 23.9928C21.3155 22.7564 19.4518 22.104 16.9718 22.104Z" fill="#283D7E"/>
<path d="M96.1393 22.6274L93.0965 41.9173C93.0356 42.2889 93.3247 42.6303 93.705 42.6303H96.7631C97.2728 42.6303 97.6988 42.2662 97.7825 41.7655L100.78 22.8246C100.841 22.4529 100.551 22.1116 100.171 22.1116H96.7479C96.4436 22.104 96.185 22.324 96.1393 22.6274ZM87.0107 35.8261C86.6684 37.8439 85.0557 39.2017 83.0094 39.2017C81.9824 39.2017 81.1532 38.8679 80.6284 38.2459C80.1035 37.6239 79.9057 36.744 80.073 35.7654C80.3925 33.7629 82.0281 32.3596 84.0516 32.3596C85.0557 32.3596 85.8773 32.6933 86.4174 33.3229C86.9575 33.9601 87.1705 34.8476 87.0107 35.8261ZM91.9554 28.9385H88.4105C88.1062 28.9385 87.8475 29.1585 87.8019 29.4619L87.6497 30.448L87.3987 30.0915C86.6304 28.9764 84.9188 28.6048 83.2072 28.6048C79.2895 28.6048 75.9424 31.5707 75.2881 35.7199C74.9458 37.7908 75.4327 39.7706 76.6118 41.1587C77.692 42.4255 79.2362 42.9565 81.0772 42.9565C84.2341 42.9565 85.9914 40.9311 85.9914 40.9311L85.8316 41.9173C85.7708 42.2889 86.0599 42.6303 86.4402 42.6303H89.6352C90.1449 42.6303 90.5709 42.2662 90.6546 41.7655L92.5716 29.6591C92.6248 29.2723 92.3357 28.9385 91.9554 28.9385ZM70.6706 29.022C70.2674 31.6769 68.2363 31.6769 66.2661 31.6769H65.1478L65.9314 26.7236C65.977 26.4277 66.2356 26.2077 66.5399 26.2077H67.0496C68.3885 26.2077 69.6512 26.2077 70.2979 26.9663C70.701 27.4138 70.8151 28.0889 70.6706 29.022ZM69.811 22.104H62.4016C61.892 22.104 61.466 22.4681 61.3823 22.9687L58.3851 41.9097C58.3242 42.2814 58.6133 42.6227 58.9936 42.6227H62.7972C63.1547 42.6227 63.4514 42.3648 63.5123 42.0159L64.3643 36.6454C64.4404 36.1447 64.874 35.7806 65.3836 35.7806H67.7266C72.6104 35.7806 75.4251 33.4291 76.163 28.7565C76.4977 26.716 76.1782 25.1154 75.2197 23.9928C74.1623 22.7564 72.2909 22.104 69.811 22.104Z" fill="#1D9BD4"/>
</g>
<defs>
<linearGradient id="paint0_linear_472_55749" x1="53.2497" y1="68.1564" x2="53.2497" y2="0.114746" gradientUnits="userSpaceOnUse">
<stop stop-color="#CDCCCC"/>
<stop offset="0.6582" stop-color="white"/>
</linearGradient>
<clipPath id="clip0_472_55749">
<rect width="106.5" height="68.2692" fill="white"/>
</clipPath>
</defs>
</svg>
