<svg width="55" height="46" viewBox="0 0 55 46" fill="none" xmlns="http://www.w3.org/2000/svg">
<path d="M7.17026 35.4415C6.87244 35.4415 4.37527 35.4415 4.37527 35.4415L4.192 36.7473H2.63413L3.0236 31.501H7.81174C8.06374 31.501 8.31575 31.5239 8.49903 31.5468C8.70522 31.5697 9.04886 31.7072 9.16341 31.7988C9.32378 31.9363 9.3696 32.1654 9.3696 32.3258C9.39251 32.7381 9.32378 33.6087 9.23214 34.0211C9.18632 34.296 9.00304 34.6396 8.33866 34.7084C8.52194 34.7542 8.72813 34.8229 8.84267 34.9146C9.07177 35.052 9.09468 35.2582 9.09468 35.4873C9.09468 35.6019 9.00304 36.6328 8.98013 36.7932H7.37645C7.42227 36.7473 7.67428 35.4415 7.17026 35.4415ZM7.78883 33.1963C7.81174 32.9901 7.69719 32.8985 7.58264 32.8985H4.51273L4.42109 34.0669H7.491C7.55973 34.0669 7.53682 34.0669 7.58264 34.0211C7.74301 33.8836 7.7201 33.6087 7.78883 33.1963ZM10.034 31.501H15.8301L15.7385 32.8069H11.5231V33.4483H15.4407L15.372 34.6396H11.4315L11.294 35.4644H15.4865L15.3949 36.7703H9.64452L10.034 31.501ZM46.9187 31.501H52.7148L52.6232 32.8069H48.3849V33.4483H52.3025L52.2337 34.6396H48.3162L48.1787 35.4644H52.3712L52.2796 36.7703H46.5292L46.9187 31.501ZM17.9149 35.8997L17.3193 36.7703H15.4178L18.648 31.5239H21.1452L23.4362 36.7703H21.5805L21.191 35.8997H17.9149ZM20.7099 34.7313L19.9768 32.8069H19.5873L18.4419 34.7313H20.7099ZM23.9631 31.501H25.6813L25.3606 35.3957H29.0033L28.9116 36.7473H23.4591L23.9631 31.501ZM30.4237 32.8527H28.1556L28.2472 31.501H34.5016L34.41 32.8527H32.1419L31.8212 36.7473H30.1029L30.4237 32.8527ZM35.0514 31.501H36.7697L36.2886 36.7473H34.5932L35.0514 31.501ZM44.307 32.9214L42.0847 36.7473H40.7789L39.1065 32.9214H38.8544L38.5566 36.7473H36.9988L37.3882 31.501H40.2978L41.5578 34.8229L43.3677 31.501H46.2772L45.7961 36.7473H44.1924L44.5361 32.9214H44.307ZM12.1417 41.3522L11.5689 42.2457H10.9046L13.5163 38.2365H14.4097L16.3342 42.2457H15.6698L15.3032 41.3522H12.1417ZM13.8141 38.7405L12.3937 40.9169H15.097L14.0661 38.7405H13.8141ZM26.3228 38.2594H27.3996L27.033 42.2228H26.4832L26.8039 38.7405H26.6436L24.1006 42.2228H23.6882L21.718 38.7405H21.5347L21.2139 42.2228H20.6412L21.0078 38.2594H22.1074L23.9402 41.5584L26.3228 38.2594ZM32.9666 38.1677L32.5543 42.2228H32.0273L32.4397 38.1677H32.9666ZM38.3046 42.2228H37.6861L38.0068 38.2594H38.8774L42.1076 41.7417L42.4513 38.2594H43.024L42.6575 42.2228H41.7411L38.5566 38.7176L38.3046 42.2228ZM7.12444 39.4278C7.17026 38.5114 6.96408 38.2365 5.8415 38.2365H3.68798C3.11524 38.2365 2.40504 38.4656 2.38213 39.5194L2.24467 41.0086C2.17594 42.177 2.84032 42.2457 3.41306 42.2457H5.26875C6.80371 42.2457 7.00989 41.8562 7.07862 40.7107C7.07862 40.5962 7.07862 40.2525 7.07862 40.2525L4.51273 40.2296L4.48982 40.6649H6.5517C6.5517 40.6649 6.52879 41.0315 6.50588 41.1689C6.43715 41.6729 6.00187 41.6959 5.40621 41.7188H3.5047C3.29852 41.7188 3.04651 41.6958 2.93196 41.5813C2.84032 41.4897 2.7945 41.2835 2.81741 40.9856L2.90905 39.6569C2.90905 39.2445 3.0236 38.7176 3.71089 38.7176H5.68113C6.16223 38.7176 6.62043 38.6947 6.64334 39.13C6.64334 39.2903 6.64334 39.4507 6.64334 39.4507L7.12444 39.4736C7.12444 39.4965 7.12444 39.4278 7.12444 39.4278ZM51.9817 39.4278C52.0276 38.5114 51.8214 38.2365 50.6988 38.2365H48.5453C47.9725 38.2365 47.2623 38.4656 47.2394 39.5194L47.102 41.0086C47.0332 42.177 47.6976 42.2457 48.2704 42.2457H50.126C51.661 42.2457 51.8672 41.8562 51.9359 40.7107C51.9359 40.5962 51.9359 40.2525 51.9359 40.2525L49.37 40.2296L49.3471 40.6649H51.409C51.409 40.6649 51.3861 41.0315 51.3632 41.1689C51.2944 41.6729 50.8592 41.6959 50.2635 41.7188H48.362C48.1558 41.7188 47.9038 41.6958 47.7893 41.5813C47.6976 41.4897 47.6518 41.2835 47.6747 40.9856L47.7663 39.6569C47.7663 39.2445 47.8809 38.7176 48.5682 38.7176H50.5384C51.0195 38.7176 51.4777 38.6947 51.5006 39.13C51.5006 39.2903 51.5006 39.4507 51.5006 39.4507L51.9817 39.4736V39.4278ZM52.165 37.6637H2.54249L2.58831 37.3659H52.2108L52.165 37.6637ZM36.7926 7.23958L35.2118 25.4987C35.2118 26.1172 34.7078 26.6212 34.0892 26.6212H22.6114C22.0387 26.6212 21.5805 26.2089 21.4889 25.6361C21.5576 25.6361 21.6034 25.659 21.6721 25.659H33.1499C33.7685 25.659 34.2725 25.155 34.2725 24.5364L35.8533 6.27738C35.8533 6.23156 35.8533 6.16283 35.8533 6.11701C36.3802 6.23156 36.7926 6.68975 36.7926 7.23958ZM34.3641 4.6966C34.3641 4.74242 34.3641 4.78824 34.3641 4.85697L32.7834 23.116C32.7834 23.7346 32.2793 24.2386 31.6608 24.2386H20.2059C20.1372 24.2386 20.0685 24.2386 20.0226 24.2157C20.0914 24.7655 20.5725 25.2008 21.1452 25.2008H32.623C33.2416 25.2008 33.7456 24.6968 33.7456 24.0783L35.3263 5.81918C35.3034 5.24644 34.8911 4.78824 34.3641 4.6966ZM28.3389 16.793C26.0479 19.8629 25.6355 22.0393 25.269 23.643H31.111C31.7295 23.643 32.2564 23.116 32.2564 22.4975L33.0583 13.2878C31.5462 13.7001 29.4156 15.3267 28.3389 16.793ZM22.2907 11.203C24.2151 9.80548 26.529 5.22353 26.7581 2.68055L20.9848 2.74927C20.3663 2.74927 19.8394 3.2762 19.8394 3.89476L19.0146 13.0128C20.5725 12.5776 21.7867 11.5695 22.2907 11.203ZM29.7593 10.7219C30.4007 11.3404 31.7295 12.7608 33.0583 13.0587L33.8601 3.7573C33.8601 3.13874 33.3332 2.61182 32.7146 2.61182L27.0559 2.68055C27.1476 5.59008 28.064 9.07237 29.7593 10.7219ZM22.3136 15.6475C21.6034 14.8456 20.4121 13.9063 19.0146 13.2878L18.2128 22.4975C18.2128 23.116 18.7397 23.643 19.3583 23.643H24.994C24.8566 21.7644 24.2838 17.801 22.3136 15.6475Z" stroke="#1E2123" stroke-width="0.343646" stroke-miterlimit="10"/>
<path d="M7.16992 35.4434C6.87209 35.4434 4.37493 35.4434 4.37493 35.4434L4.19165 36.7493H2.63379L3.02325 31.5029H7.81139C8.0634 31.5029 8.31541 31.5258 8.49868 31.5487C8.70487 31.5717 9.04852 31.7091 9.16307 31.8008C9.32344 31.9382 9.36926 32.1673 9.36926 32.3277C9.39217 32.7401 9.32344 33.6106 9.2318 34.023C9.18598 34.2979 9.0027 34.6416 8.33832 34.7103C8.52159 34.7561 8.72778 34.8248 8.84233 34.9165C9.07143 35.0539 9.09434 35.2601 9.09434 35.4892C9.09434 35.6038 9.0027 36.6347 8.97979 36.7951H7.37611C7.42193 36.7493 7.67393 35.4434 7.16992 35.4434ZM7.78848 33.1982C7.81139 32.9921 7.69684 32.9004 7.58229 32.9004H4.51239L4.42075 34.0688H7.49066C7.55939 34.0688 7.53647 34.0688 7.58229 34.023C7.74266 33.8855 7.71975 33.6106 7.78848 33.1982ZM10.0336 31.5029H15.8298L15.7382 32.8088H11.5228V33.4503H15.4403L15.3716 34.6416H11.4311L11.2937 35.4663H15.4862L15.3945 36.7722H9.64417L10.0336 31.5029ZM46.9183 31.5029H52.7145L52.6229 32.8088H48.3846V33.4503H52.3021L52.2334 34.6416H48.3158L48.1784 35.4663H52.3709L52.2792 36.7722H46.5289L46.9183 31.5029ZM17.9146 35.9016L17.3189 36.7722H15.4174L18.6477 31.5258H21.1449L23.4358 36.7722H21.5802L21.1907 35.9016H17.9146ZM20.7096 34.7332L19.9765 32.8088H19.587L18.4415 34.7332H20.7096ZM23.9628 31.5029H25.681L25.3603 35.3976H29.0029L28.9113 36.7493H23.4588L23.9628 31.5029ZM30.4233 32.8546H28.1552L28.2469 31.5029H34.5013L34.4096 32.8546H32.1415L31.8208 36.7493H30.1026L30.4233 32.8546ZM35.0511 31.5029H36.7693L36.2882 36.7493H34.5929L35.0511 31.5029ZM44.3066 32.9233L42.0844 36.7493H40.7785L39.1061 32.9233H38.8541L38.5563 36.7493H36.9984L37.3879 31.5029H40.2974L41.5575 34.8248L43.3673 31.5029H46.2769L45.7958 36.7493H44.1921L44.5357 32.9233H44.3066Z" fill="white"/>
<path d="M12.1412 41.3539L11.5684 42.2474H10.9041L13.5158 38.2382H14.4093L16.3337 42.2474H15.6693L15.3027 41.3539H12.1412ZM13.8136 38.7422L12.3932 40.9186H15.0966L14.0656 38.7422H13.8136ZM26.3223 38.2611H27.3991L27.0325 42.2245H26.4827L26.8034 38.7422H26.6431L24.1001 42.2245H23.6877L21.7175 38.7422H21.5342L21.2135 42.2245H20.6407L21.0073 38.2611H22.1069L23.9397 41.5601L26.3223 38.2611ZM32.9662 38.1694L32.5538 42.2245H32.0269L32.4392 38.1694H32.9662ZM38.3041 42.2245H37.6856L38.0063 38.2611H38.8769L42.1071 41.7434L42.4508 38.2611H43.0235L42.657 42.2245H41.7406L38.5561 38.7193L38.3041 42.2245ZM7.12396 39.4295C7.16978 38.5131 6.96359 38.2382 5.84101 38.2382H3.68749C3.11475 38.2382 2.40455 38.4673 2.38164 39.5211L2.24418 41.0102C2.17545 42.1786 2.83983 42.2474 3.41258 42.2474H5.26827C6.80322 42.2474 7.00941 41.8579 7.07814 40.7124C7.07814 40.5979 7.07814 40.2542 7.07814 40.2542L4.51224 40.2313L4.48933 40.6666H6.55121C6.55121 40.6666 6.5283 41.0332 6.50539 41.1706C6.43666 41.6746 6.00138 41.6975 5.40572 41.7204H3.50422C3.29803 41.7204 3.04602 41.6975 2.93147 41.583C2.83983 41.4913 2.79401 41.2852 2.81692 40.9873L2.90856 39.6586C2.90856 39.2462 3.02311 38.7193 3.7104 38.7193H5.68064C6.16175 38.7193 6.61994 38.6964 6.64285 39.1316C6.64285 39.292 6.64285 39.4524 6.64285 39.4524L7.12396 39.4753C7.12396 39.4982 7.12396 39.4295 7.12396 39.4295ZM51.9812 39.4295C52.0271 38.5131 51.8209 38.2382 50.6983 38.2382H48.5448C47.972 38.2382 47.2618 38.4673 47.2389 39.5211L47.1015 41.0102C47.0327 42.1786 47.6971 42.2474 48.2699 42.2474H50.1256C51.6605 42.2474 51.8667 41.8579 51.9354 40.7124C51.9354 40.5979 51.9354 40.2542 51.9354 40.2542L49.3695 40.2313L49.3466 40.6666H51.4085C51.4085 40.6666 51.3856 41.0332 51.3627 41.1706C51.294 41.6746 50.8587 41.6975 50.263 41.7204H48.3615C48.1553 41.7204 47.9033 41.6975 47.7888 41.583C47.6971 41.4913 47.6513 41.2852 47.6742 40.9873L47.7659 39.6586C47.7659 39.2462 47.8804 38.7193 48.5677 38.7193H50.5379C51.019 38.7193 51.4772 38.6964 51.5001 39.1316C51.5001 39.292 51.5001 39.4524 51.5001 39.4524L51.9812 39.4753V39.4295Z" fill="white"/>
<path d="M52.1645 37.665H2.54199L2.58781 37.3672H52.2103L52.1645 37.665Z" fill="#B62027"/>
<path d="M36.7927 7.24105L35.2119 25.5001C35.2119 26.1187 34.7079 26.6227 34.0893 26.6227H22.6116C22.0388 26.6227 21.5806 26.2103 21.489 25.6376C21.5577 25.6376 21.6035 25.6605 21.6723 25.6605H33.15C33.7686 25.6605 34.2726 25.1565 34.2726 24.5379L35.8534 6.27884C35.8534 6.23302 35.8534 6.16429 35.8534 6.11847C36.3803 6.23302 36.7927 6.69122 36.7927 7.24105ZM34.3643 4.69807C34.3643 4.74389 34.3643 4.78971 34.3643 4.85844L32.7835 23.1175C32.7835 23.7361 32.2795 24.2401 31.6609 24.2401H20.206C20.1373 24.2401 20.0686 24.2401 20.0228 24.2172C20.0915 24.767 20.5726 25.2023 21.1453 25.2023H32.6231C33.2417 25.2023 33.7457 24.6983 33.7457 24.0797L35.3265 5.82065C35.3036 5.2479 34.8912 4.78971 34.3643 4.69807ZM28.339 16.7944C26.048 19.8643 25.6356 22.0407 25.2691 23.6444H31.1111C31.7296 23.6444 32.2566 23.1175 32.2566 22.4989L33.0584 13.2892C31.5464 13.7016 29.4158 15.3282 28.339 16.7944ZM22.2908 11.2044C24.2152 9.80694 26.5291 5.22499 26.7582 2.68201L20.985 2.75074C20.3664 2.75074 19.8395 3.27766 19.8395 3.89623L19.0147 13.0143C20.5726 12.579 21.7868 11.571 22.2908 11.2044ZM29.7594 10.7233C30.4009 11.3419 31.7296 12.7623 33.0584 13.0601L33.8602 3.75877C33.8602 3.14021 33.3333 2.61328 32.7148 2.61328L27.0561 2.68201C27.1477 5.59155 28.0641 9.07383 29.7594 10.7233ZM22.3137 15.6489C21.6035 14.8471 20.4122 13.9078 19.0147 13.2892L18.2129 22.4989C18.2129 23.1175 18.7398 23.6444 19.3584 23.6444H24.9942C24.8567 21.7658 24.284 17.8024 22.3137 15.6489Z" fill="#B62027"/>
</svg>
