<svg width="108" height="72" viewBox="0 0 108 72" fill="none" xmlns="http://www.w3.org/2000/svg">
<g clip-path="url(#clip0_472_55762)">
<path fill-rule="evenodd" clip-rule="evenodd" d="M107.24 67.8479C107.24 69.9396 105.648 71.648 103.674 71.648H3.57756C1.60326 71.648 0.0117188 69.9396 0.0117188 67.8479V4.42051C0.0117188 2.32854 1.60326 0.620117 3.57756 0.620117H103.655C105.648 0.620117 107.24 2.32854 107.24 4.42051V67.8479Z" fill="#872165"/>
<path fill-rule="evenodd" clip-rule="evenodd" d="M72.3248 20.6681L77.6432 19.6645V41.2696H72.3248V20.6681ZM80.0812 20.6681V41.2696H85.3992V19.6645L80.0812 20.6681ZM64.7688 41.2696H70.068V25.4707H64.7688V41.2696ZM29.65 27.6922C28.9643 27.6484 27.4132 27.5421 27.4132 26.0687C27.4132 24.276 29.65 24.276 30.4959 24.276C31.9668 24.276 33.8803 24.724 35.2505 25.1731C35.2505 25.1731 36.016 25.4503 36.661 25.7494L36.7216 25.7714V25.7058V20.8597L36.6409 20.8391C35.0288 20.241 33.1548 19.6648 29.6699 19.6648C23.6858 19.6648 21.5698 23.3572 21.5698 26.5167C21.5698 28.3534 22.2953 32.6453 29.1658 33.1572C29.7503 33.1792 31.2813 33.2858 31.2813 34.8012C31.2813 36.0821 30.0325 36.8288 27.8967 36.8288C25.5796 36.8288 23.3033 36.1884 21.9327 35.5906V40.651C23.9881 41.2054 26.3051 41.5045 29.025 41.5045C34.8878 41.5045 37.5072 38.0033 37.5072 34.5446C37.5069 30.5953 34.5656 28.0542 29.65 27.6922ZM61.7665 25.2373C56.8504 25.408 54.3725 27.7348 54.3725 32.3679V41.2696H59.7115V34.0105C59.7115 31.2359 60.0737 30.0398 63.1775 29.9331V25.3218C62.6526 25.1932 61.7665 25.2373 61.7665 25.2373ZM47.359 25.4501C47.2379 25.7709 46.3732 28.3108 44.318 30.9587V19.6645L38.8371 20.8171V41.2696H44.318V34.9501C45.9093 37.4694 46.6956 41.2696 46.6956 41.2696H53.2629C52.6182 38.4089 49.7766 33.1354 49.7766 33.1354C52.3153 29.6982 53.4443 26.0484 53.6262 25.4503L47.359 25.4501ZM67.4082 23.955C68.8593 23.955 70.0267 22.7177 70.0267 21.1802C70.0267 19.6425 68.8593 18.4038 67.4082 18.4038C65.9778 18.4038 64.809 19.6423 64.809 21.1802C64.809 22.7177 65.9776 23.955 67.4082 23.955Z" fill="white"/>
<path fill-rule="evenodd" clip-rule="evenodd" d="M27.6552 51.9V48.5696C27.6552 48.186 27.514 47.9074 27.1511 47.9074C26.8689 47.9074 26.6075 48.0998 26.3253 48.3783V51.9H24.7744V48.5696C24.7744 48.186 24.6533 47.9074 24.2905 47.9074C24.0083 47.9074 23.7466 48.0998 23.4646 48.3783V51.9H21.9131V46.5638H23.2837L23.4041 47.2887C23.8474 46.8192 24.3108 46.4556 24.9556 46.4556C25.6405 46.4556 26.0232 46.819 26.2044 47.2887C26.6683 46.8192 27.1514 46.4556 27.7765 46.4556C28.7029 46.4556 29.2063 47.0756 29.2063 48.1216V51.9H27.6552Z" fill="white"/>
<path fill-rule="evenodd" clip-rule="evenodd" d="M32.3884 52.0063C30.9978 52.0063 29.9907 50.9399 29.9907 49.2535C29.9907 47.5454 31.0185 46.4556 32.4083 46.4556C33.799 46.4556 34.8266 47.5238 34.8266 49.232C34.8266 50.9402 33.7789 52.0063 32.3884 52.0063ZM32.4083 47.8006C31.8039 47.8006 31.4819 48.3565 31.4819 49.2318C31.4819 50.085 31.824 50.6833 32.4083 50.6833C32.9928 50.6833 33.315 50.107 33.315 49.2535C33.315 48.3783 32.9928 47.8006 32.4083 47.8006Z" fill="white"/>
<path fill-rule="evenodd" clip-rule="evenodd" d="M38.5552 51.9V48.5696C38.5552 48.186 38.4147 47.9074 38.0525 47.9074C37.75 47.9074 37.4675 48.0998 37.1851 48.3989V51.9H35.6338V46.5638H37.0044L37.1248 47.2887C37.5681 46.8408 38.0525 46.4556 38.6971 46.4556C39.6235 46.4556 40.1068 47.0756 40.1068 48.1216V51.9H38.5552Z" fill="white"/>
<path fill-rule="evenodd" clip-rule="evenodd" d="M45.4654 49.6373H42.4434C42.5437 50.4906 43.0078 50.8116 43.6922 50.8116C44.236 50.8116 44.7812 50.5988 45.3445 50.2555L45.4861 51.4097C44.9412 51.7712 44.2773 52.0063 43.4899 52.0063C41.9795 52.0063 40.9126 51.153 40.9126 49.2535C40.9126 47.5236 41.8984 46.4556 43.2696 46.4556C44.8198 46.4556 45.5056 47.6739 45.5056 49.232C45.5054 49.3807 45.4859 49.5514 45.4654 49.6373ZM43.2283 47.5236C42.8067 47.5236 42.4834 47.9289 42.4434 48.7403H44.0157C43.9744 47.9509 43.7127 47.5236 43.2283 47.5236Z" fill="white"/>
<path fill-rule="evenodd" clip-rule="evenodd" d="M49.0311 52.0061C48.5891 53.3935 47.9642 53.8649 46.8751 53.8649C46.5531 53.8649 46.4332 53.8429 46.2915 53.8007L46.0893 52.4976C46.2517 52.5403 46.4113 52.5822 46.7142 52.5822C47.0572 52.5822 47.3586 52.4335 47.5211 52.0703L47.5816 51.8996L45.7671 46.69L47.4194 46.4976L48.3873 49.8498L49.3137 46.5631H50.8255L49.0311 52.0061Z" fill="white"/>
<path fill-rule="evenodd" clip-rule="evenodd" d="M53.5842 51.965C52.78 51.965 52.0134 51.8161 51.4282 51.5813V44.3003L52.9811 44.0435V47.161C53.3033 46.8199 53.7261 46.4562 54.3305 46.4562C55.3578 46.4562 56.1231 47.2894 56.1231 49.0837C56.1233 51.0677 55.1375 51.965 53.5842 51.965ZM53.8266 47.9298C53.5044 47.9298 53.2428 48.1441 52.9811 48.4419V50.5556C53.182 50.6198 53.3033 50.6418 53.5457 50.6418C54.1488 50.6418 54.5727 50.2564 54.5727 49.19C54.5727 48.315 54.2699 47.9298 53.8266 47.9298Z" fill="white"/>
<path fill-rule="evenodd" clip-rule="evenodd" d="M59.1263 52.0063C57.7564 52.0063 56.7295 50.9399 56.7295 49.2535C56.7295 47.5454 57.7564 46.4556 59.1471 46.4556C60.5384 46.4556 61.5651 47.5238 61.5651 49.232C61.5651 50.9402 60.5387 52.0063 59.1263 52.0063ZM59.1473 47.8006C58.5416 47.8006 58.2399 48.3565 58.2399 49.2318C58.2399 50.085 58.5632 50.6833 59.1473 50.6833C59.7307 50.6833 60.0737 50.107 60.0737 49.2535C60.0737 48.3783 59.7307 47.8006 59.1473 47.8006Z" fill="white"/>
<path fill-rule="evenodd" clip-rule="evenodd" d="M64.5469 52.0063C63.156 52.0063 62.1289 50.9399 62.1289 49.2535C62.1289 47.5454 63.1563 46.4556 64.5469 46.4556C65.9374 46.4556 66.9641 47.5238 66.9641 49.232C66.9641 50.9402 65.9374 52.0063 64.5469 52.0063ZM64.5469 47.8006C63.9631 47.8006 63.6409 48.3565 63.6409 49.2318C63.6409 50.085 63.9629 50.6833 64.5469 50.6833C65.1509 50.6833 65.4731 50.107 65.4731 49.2535C65.4729 48.3783 65.1509 47.8006 64.5469 47.8006Z" fill="white"/>
<path fill-rule="evenodd" clip-rule="evenodd" d="M70.7915 51.965L69.3419 49.4237V51.9009H67.7905V44.3003L69.3419 44.0435V48.7629L70.6925 46.5647H72.3446L70.7723 48.9978L72.4054 51.7299L70.7915 51.965Z" fill="white"/>
<path fill-rule="evenodd" clip-rule="evenodd" d="M77.0771 49.6373H74.0567C74.136 50.4906 74.6198 50.8116 75.2843 50.8116C75.8489 50.8116 76.3927 50.5988 76.956 50.2555L77.0979 51.4097C76.5536 51.7712 75.8905 52.0063 75.1026 52.0063C73.5922 52.0063 72.5239 51.153 72.5239 49.2535C72.5239 47.5236 73.5321 46.4556 74.881 46.4556C76.4327 46.4556 77.1185 47.6739 77.1185 49.232C77.1185 49.3807 77.0981 49.5514 77.0771 49.6373ZM74.8414 47.5236C74.4184 47.5236 74.0951 47.9289 74.0567 48.7403H75.6259C75.5877 47.9509 75.3258 47.5236 74.8414 47.5236Z" fill="white"/>
<path fill-rule="evenodd" clip-rule="evenodd" d="M79.4971 48.9327V51.9H77.9458V46.5638H79.2947L79.4571 47.6301C79.7588 47.0115 80.1815 46.52 80.9278 46.4556L81.1892 48.1434C80.4429 48.1858 79.8799 48.5052 79.4971 48.9327Z" fill="white"/>
<path fill-rule="evenodd" clip-rule="evenodd" d="M83.6264 51.9841C82.8211 51.9841 82.075 51.7507 81.5518 51.4514L81.7321 50.1912C82.3365 50.5984 83.0622 50.8316 83.6266 50.8316C84.0699 50.8316 84.2712 50.6829 84.2712 50.4263C84.2712 50.1488 84.1307 50.0425 83.4246 49.8498C82.155 49.5084 81.632 49.145 81.632 48.1428C81.632 47.1598 82.3175 46.4976 83.5455 46.4976C84.231 46.4976 84.8756 46.6273 85.3985 46.8828L85.2181 48.1428C84.6743 47.822 84.0496 47.6295 83.5663 47.6295C83.1817 47.6295 83.022 47.7798 83.022 47.9924C83.022 48.2069 83.1625 48.3135 83.8672 48.5266C85.2179 48.9103 85.6818 49.2735 85.6818 50.2551C85.682 51.3655 84.9567 51.9841 83.6264 51.9841Z" fill="white"/>
</g>
<defs>
<clipPath id="clip0_472_55762">
<rect width="107.25" height="71.5" fill="white" transform="translate(0 0.384766)"/>
</clipPath>
</defs>
</svg>
