<svg width="33" height="32" viewBox="0 0 33 32" fill="none" xmlns="http://www.w3.org/2000/svg">
<g clip-path="url(#clip0_328_41463)">
<path d="M16 32C7.18563 32 0 24.8144 0 16C0 7.18563 7.18563 0 16 0C17.7245 0 19.4491 0.287431 21.0778 0.814377C21.7964 1.0539 22.1796 1.82035 21.9401 2.53892C21.7006 3.25748 20.9341 3.64072 20.2156 3.4012C18.8743 2.92216 17.4371 2.73054 16 2.73054C8.67066 2.68264 2.68264 8.67066 2.68264 16C2.68264 23.3293 8.67066 29.3174 16 29.3174C23.3293 29.3174 29.3174 23.3293 29.3174 16C29.3174 14.8503 29.1736 13.7006 28.8862 12.5988C28.6946 11.8802 29.1257 11.1617 29.8443 10.9701C30.5629 10.7784 31.2814 11.2096 31.4731 11.9281C31.8084 13.2695 32 14.6587 32 16.0479C32 24.8144 24.8144 32 16 32Z" fill="white" fill-opacity="0.6"/>
<path d="M13.3174 22.9459H10.6827V12.9818C9.7246 13.892 8.57491 14.5626 7.28149 14.9938V12.5986C7.95215 12.359 8.71861 11.9279 9.53298 11.3052C10.3474 10.6824 10.8743 9.96384 11.2096 9.10156H13.3653V22.9459H13.3174Z" fill="white" fill-opacity="0.6"/>
<path fill-rule="evenodd" clip-rule="evenodd" d="M10.8676 8.60156H13.8653V23.4459H10.1827V14.0541C9.36081 14.6641 8.43892 15.135 7.43961 15.4681L6.78149 15.6875V12.2462L7.11333 12.1277C7.7227 11.9101 8.44385 11.5086 9.22926 10.908C9.97168 10.3402 10.442 9.69601 10.7436 8.92034L10.8676 8.60156ZM11.5408 9.60156C11.1695 10.4111 10.6219 11.1019 9.83671 11.7023C9.11884 12.2513 8.42385 12.6668 7.78149 12.9396V14.2728C8.74228 13.8708 9.60168 13.3191 10.3383 12.6193L11.1827 11.8171V22.4459H12.8653V9.60156H11.5408Z" fill="white" fill-opacity="0.6"/>
<path d="M17.2933 15.4729C16.6226 15.1854 16.0957 14.8022 15.8083 14.2753C15.5208 13.7483 15.3292 13.2214 15.3292 12.5986C15.3292 11.5926 15.6646 10.7304 16.3831 10.0597C17.1017 9.38904 18.1077 9.05371 19.449 9.05371C20.7424 9.05371 21.7963 9.38904 22.5149 10.0597C23.2334 10.7304 23.6167 11.5926 23.6167 12.5986C23.6167 13.2214 23.4729 13.7962 23.1376 14.3232C22.8023 14.8022 22.3232 15.1854 21.7484 15.4729C22.5149 15.7603 23.0897 16.2393 23.4729 16.8142C23.8562 17.389 24.0478 18.0597 24.0478 18.8741C24.0478 20.1675 23.6646 21.1735 22.8502 21.9878C22.0358 22.8022 20.9819 23.1854 19.5927 23.1854C18.3472 23.1854 17.2933 22.8501 16.4789 22.1795C15.4729 21.413 14.9939 20.3591 14.9939 18.9699C14.9939 18.2034 15.1855 17.5327 15.5688 16.91C15.9041 16.3351 16.4789 15.8561 17.2933 15.4729ZM17.5807 18.7304C17.5807 19.4489 17.7723 20.0238 18.1556 20.4549C18.5388 20.8861 18.9699 21.0777 19.5448 21.0777C20.0717 21.0777 20.5508 20.886 20.8861 20.5028C21.2215 20.1196 21.4131 19.5447 21.4131 18.8262C21.4131 18.2034 21.2215 17.6765 20.8861 17.2932C20.5029 16.91 20.0718 16.7184 19.4969 16.7184C18.8741 16.7184 18.3472 16.9579 18.0598 17.389C17.7244 17.7244 17.5807 18.2034 17.5807 18.7304ZM17.8203 12.8381C17.8203 13.3651 17.964 13.7962 18.2514 14.0837C18.5388 14.3711 18.922 14.5148 19.449 14.5148C19.928 14.5148 20.3592 14.3711 20.6466 14.0837C20.934 13.7962 21.0777 13.3651 21.0777 12.8381C21.0777 12.3591 20.934 11.928 20.6466 11.6405C20.3592 11.3531 19.9759 11.2094 19.449 11.2094C18.922 11.2094 18.5388 11.3531 18.2514 11.6405C17.964 11.928 17.8203 12.3591 17.8203 12.8381Z" fill="white" fill-opacity="0.6"/>
<path fill-rule="evenodd" clip-rule="evenodd" d="M19.449 9.55371C18.1903 9.55371 17.3225 9.86693 16.7243 10.4252C16.1185 10.9906 15.8292 11.7147 15.8292 12.5986C15.8292 13.1091 15.9834 13.5522 16.2472 14.0358C16.4591 14.4243 16.871 14.7479 17.4903 15.0133L18.5129 15.4516L17.5062 15.9253C16.7519 16.2803 16.2698 16.7005 16.0006 17.1619L15.9947 17.1721L15.9946 17.172C15.6606 17.7147 15.4939 18.2944 15.4939 18.9699C15.4939 20.2246 15.9163 21.1222 16.782 21.7817L16.7895 21.7875L16.7968 21.7935C17.5044 22.3762 18.4386 22.6854 19.5927 22.6854C20.8806 22.6854 21.796 22.3349 22.4966 21.6343C23.2043 20.9267 23.5478 20.0545 23.5478 18.8741C23.5478 18.1438 23.3778 17.5729 23.0569 17.0915C22.7323 16.6046 22.2419 16.1919 21.5728 15.941L20.4992 15.5384L21.5248 15.0257C22.0373 14.7694 22.4435 14.4391 22.7217 14.0454C22.995 13.6119 23.1167 13.136 23.1167 12.5986C23.1167 11.7325 22.7919 11.0022 22.1737 10.4252C21.5771 9.86836 20.6626 9.55371 19.449 9.55371ZM16.042 9.69417C16.8809 8.91116 18.025 8.55371 19.449 8.55371C20.8222 8.55371 22.0155 8.90972 22.856 9.69417C23.675 10.4585 24.1167 11.4528 24.1167 12.5986C24.1167 13.3029 23.9526 13.9737 23.5594 14.5916L23.5535 14.6009L23.5472 14.6099C23.3298 14.9206 23.0639 15.1921 22.7623 15.4264C23.2265 15.7287 23.6032 16.1082 23.889 16.5368C24.3346 17.2052 24.5478 17.9756 24.5478 18.8741C24.5478 20.2805 24.1249 21.4203 23.2037 22.3414C22.2756 23.2695 21.0833 23.6854 19.5927 23.6854C18.2593 23.6854 17.0884 23.3259 16.1684 22.5714C15.0273 21.6985 14.4939 20.4903 14.4939 18.9699C14.4939 18.1144 14.7094 17.3543 15.1399 16.6529C15.4056 16.1994 15.787 15.8113 16.2672 15.4818C15.8975 15.2252 15.5844 14.909 15.3693 14.5147C15.0583 13.9444 14.8292 13.3337 14.8292 12.5986C14.8292 11.4706 15.2106 10.4701 16.042 9.69417ZM17.8978 11.287C18.3003 10.8846 18.8228 10.7094 19.449 10.7094C20.0752 10.7094 20.5977 10.8846 21.0002 11.287C21.4068 11.6937 21.5777 12.2675 21.5777 12.8381C21.5777 13.4493 21.4108 14.0266 21.0002 14.4372C20.5935 14.8439 20.0196 15.0148 19.449 15.0148C18.8228 15.0148 18.3003 14.8396 17.8978 14.4372C17.4872 14.0266 17.3203 13.4493 17.3203 12.8381C17.3203 12.2675 17.4912 11.6937 17.8978 11.287ZM19.449 11.7094C19.0213 11.7094 18.7774 11.8217 18.6049 11.9941C18.4368 12.1623 18.3203 12.4507 18.3203 12.8381C18.3203 13.2809 18.4407 13.5659 18.6049 13.7301C18.7774 13.9025 19.0213 14.0148 19.449 14.0148C19.8364 14.0148 20.1249 13.8983 20.293 13.7301C20.4573 13.5659 20.5777 13.2809 20.5777 12.8381C20.5777 12.4507 20.4612 12.1623 20.293 11.9941C20.1206 11.8217 19.8767 11.7094 19.449 11.7094ZM17.6719 17.0707C18.079 16.4942 18.7697 16.2184 19.4969 16.2184C20.2085 16.2184 20.7657 16.4657 21.2397 16.9397L21.2514 16.9515L21.2624 16.964C21.6883 17.4507 21.9131 18.0998 21.9131 18.8262C21.9131 19.6275 21.6996 20.3325 21.2624 20.8321C20.8193 21.3385 20.1952 21.5777 19.5448 21.5777C18.8282 21.5777 18.2607 21.3258 17.7819 20.7871C17.2987 20.2435 17.0807 19.5401 17.0807 18.7304C17.0807 18.1353 17.2391 17.526 17.6719 17.0707ZM19.4969 17.2184C18.9956 17.2184 18.6477 17.4085 18.4758 17.6664L18.4483 17.7076L18.4133 17.7426C18.2015 17.9544 18.0807 18.2871 18.0807 18.7304C18.0807 19.3577 18.246 19.8041 18.5293 20.1227C18.8169 20.4464 19.1117 20.5777 19.5448 20.5777C19.9483 20.5777 20.2823 20.4336 20.5098 20.1736C20.7433 19.9067 20.9131 19.462 20.9131 18.8262C20.9131 18.3146 20.7592 17.9141 20.5205 17.6348C20.2317 17.3506 19.9289 17.2184 19.4969 17.2184Z" fill="white" fill-opacity="0.6"/>
<path d="M30.7066 3.83241H29.0299V2.15576C29.0299 1.3893 28.4072 0.814453 27.6886 0.814453C26.9221 0.814453 26.3473 1.4372 26.3473 2.15576V3.83241H24.6707C23.9042 3.83241 23.3293 4.45516 23.3293 5.17372C23.3293 5.89229 23.9521 6.51505 24.6707 6.51505H26.3473V8.1917C26.3473 8.95816 26.9701 9.53301 27.6886 9.53301C28.4551 9.53301 29.0299 8.91026 29.0299 8.1917V6.51505H30.7066C31.4731 6.51505 32.0479 5.89229 32.0479 5.17372C32.0479 4.45516 31.4252 3.83241 30.7066 3.83241Z" fill="white" fill-opacity="0.6"/>
</g>
<defs>
<clipPath id="clip0_328_41463">
<rect width="32.0479" height="32" fill="white"/>
</clipPath>
</defs>
</svg>
