<svg width="13" height="12" viewBox="0 0 13 12" fill="none" xmlns="http://www.w3.org/2000/svg">
<g clip-path="url(#clip0_247_39841)">
<path d="M6.91309 12C10.2268 12 12.9131 9.31371 12.9131 6C12.9131 2.68629 10.2268 0 6.91309 0C3.59938 0 0.913086 2.68629 0.913086 6C0.913086 9.31371 3.59938 12 6.91309 12Z" fill="#F0F0F0"/>
<path d="M4.30444 8.08691L4.82619 11.6268C5.47615 11.868 6.17921 12 6.91313 12C9.4929 12 11.6922 10.3717 12.5399 8.08691H4.30444Z" fill="black"/>
<path d="M4.30444 3.91305L4.82619 0.373148C5.47615 0.131953 6.17921 0 6.91313 0C9.4929 0 11.6922 1.62825 12.5399 3.91305H4.30444Z" fill="#6DA544"/>
<path d="M0.913086 5.99985C0.913086 8.57964 2.54136 10.7789 4.82614 11.6267V0.373047C2.54136 1.2208 0.913086 3.42006 0.913086 5.99985Z" fill="#A2001D"/>
</g>
<defs>
<clipPath id="clip0_247_39841">
<rect width="12" height="12" fill="white" transform="translate(0.913086)"/>
</clipPath>
</defs>
</svg>
