<svg width="16" height="16" viewBox="0 0 16 16" fill="none" xmlns="http://www.w3.org/2000/svg">
<g clip-path="url(#clip0_348_74169)">
<path d="M9.67026 16C10.2052 16 10.6718 15.5334 10.6718 14.9985V12.6595H11.3405C11.7417 12.6595 12.0092 12.392 12.0092 11.9908V5.31055H3.99097V11.9909C3.99097 12.3921 4.25847 12.6596 4.65968 12.6596H5.32846V14.9985C5.32846 15.5335 5.79487 16 6.32996 16C6.86486 16 7.33136 15.5335 7.33136 14.9985V12.6596H8.66882V14.9985C8.66876 15.5334 9.13529 16 9.67026 16Z" fill="white"/>
<path d="M13.6795 11.9909C14.2144 11.9909 14.6809 11.5244 14.6809 10.9894V6.31161C14.6809 5.77945 14.2145 5.31055 13.6795 5.31055C13.1444 5.31055 12.678 5.77948 12.678 6.31161V10.9894C12.678 11.5244 13.1444 11.9909 13.6795 11.9909Z" fill="white"/>
<path d="M2.32074 11.9909C2.85577 11.9909 3.32223 11.5244 3.32223 10.9894V6.31161C3.32223 5.77945 2.85583 5.31055 2.32074 5.31055C1.78577 5.31055 1.31934 5.77948 1.31934 6.31161V10.9894C1.31937 11.5244 1.78577 11.9909 2.32074 11.9909Z" fill="white"/>
<path d="M11.2066 0.100898C11.0729 -0.0336327 10.8739 -0.0336327 10.7402 0.100898L9.84332 0.994801L9.80194 1.03611C9.27013 0.769802 8.67385 0.636802 8.00986 0.635521C8.00661 0.635521 8.00339 0.635427 8.00014 0.635427H8.00004C7.99667 0.635427 7.99358 0.635521 7.99023 0.635521C7.32627 0.636802 6.73002 0.769802 6.19824 1.03611L6.15677 0.994801L5.25987 0.100898C5.12609 -0.0336327 4.92715 -0.0336327 4.79346 0.100898C4.65968 0.234679 4.65968 0.433241 4.79346 0.566928L5.66105 1.43467C5.38149 1.62133 5.12799 1.84974 4.90756 2.11098C4.37981 2.73654 4.04315 3.5507 3.99687 4.43282C3.99644 4.44201 3.99553 4.45107 3.99512 4.46026C3.99228 4.52032 3.99097 4.58069 3.99097 4.64132H12.0092C12.0092 4.58072 12.0077 4.52035 12.005 4.46026C12.0046 4.45107 12.0037 4.44201 12.0031 4.43282C11.9569 3.5507 11.6202 2.73651 11.0924 2.11105C10.8721 1.8498 10.6185 1.62139 10.3389 1.43474L11.2066 0.56699C11.3404 0.43324 11.3404 0.23471 11.2066 0.100898ZM6.32865 3.47373C6.05199 3.47373 5.82768 3.24945 5.82768 2.97276C5.82768 2.69608 6.05196 2.4718 6.32865 2.4718C6.6053 2.4718 6.82961 2.69608 6.82961 2.97276C6.82961 3.24945 6.6053 3.47373 6.32865 3.47373ZM9.67144 3.47373C9.39479 3.47373 9.17048 3.24945 9.17048 2.97276C9.17048 2.69608 9.39476 2.4718 9.67144 2.4718C9.9481 2.4718 10.1724 2.69608 10.1724 2.97276C10.1724 3.24945 9.94813 3.47373 9.67144 3.47373Z" fill="white"/>
</g>
<defs>
<clipPath id="clip0_348_74169">
<rect width="16" height="16" fill="white"/>
</clipPath>
</defs>
</svg>
