<svg width="16" height="16" viewBox="0 0 16 16" fill="none" xmlns="http://www.w3.org/2000/svg">
<g clip-path="url(#clip0_348_74162)">
<path d="M10.9994 0C10.1464 0.0589997 9.14942 0.604996 8.56843 1.31599C8.03843 1.96099 7.60243 2.91898 7.77243 3.84998C8.70442 3.87898 9.66742 3.31998 10.2254 2.59698C10.7474 1.92399 11.1424 0.971994 10.9994 0Z" fill="white"/>
<path d="M14.3703 5.36713C13.5513 4.34014 12.4003 3.74414 11.3133 3.74414C9.87832 3.74414 9.27133 4.43114 8.27433 4.43114C7.24634 4.43114 6.46534 3.74614 5.22435 3.74614C4.00536 3.74614 2.70736 4.49114 1.88437 5.76513C0.727376 7.55912 0.925374 10.9321 2.80036 13.8051C3.47136 14.8331 4.36735 15.9891 5.53935 15.9991C6.58234 16.0091 6.87634 15.3301 8.28933 15.3231C9.70232 15.3151 9.97032 16.0081 11.0113 15.9971C12.1843 15.9881 13.1293 14.7071 13.8003 13.6791C14.2813 12.9421 14.4603 12.5711 14.8333 11.7391C12.1203 10.7061 11.6853 6.84812 14.3703 5.36713Z" fill="white"/>
</g>
<defs>
<clipPath id="clip0_348_74162">
<rect width="16" height="16" fill="white"/>
</clipPath>
</defs>
</svg>
