<svg width="16" height="17" viewBox="0 0 16 17" fill="none" xmlns="http://www.w3.org/2000/svg">
<path fill-rule="evenodd" clip-rule="evenodd" d="M14.6667 8.33317C14.9428 8.33317 15.1667 8.55703 15.1667 8.83317C15.1667 13.1158 12.0096 15.9998 8.12937 15.9998C5.01676 15.9998 2.43279 14.339 1.52641 11.6601C1.43791 11.3985 1.57822 11.1147 1.83979 11.0262C2.10137 10.9377 2.38516 11.078 2.47366 11.3396C3.22062 13.5473 5.37264 14.9998 8.12937 14.9998C11.4705 14.9998 14.1667 12.5505 14.1667 8.83317C14.1667 8.55703 14.3906 8.33317 14.6667 8.33317Z" fill="white"/>
<path fill-rule="evenodd" clip-rule="evenodd" d="M7.8707 2.6665C4.5296 2.6665 1.83337 5.11584 1.83337 8.83317C1.83337 9.10931 1.60951 9.33317 1.33337 9.33317C1.05723 9.33317 0.83337 9.10931 0.83337 8.83317C0.83337 4.5505 3.99047 1.6665 7.8707 1.6665C10.984 1.6665 13.5673 3.32736 14.4737 6.00626C14.5622 6.26784 14.4219 6.55163 14.1603 6.64013C13.8987 6.72863 13.6149 6.58833 13.5264 6.32675C12.7794 4.11898 10.6281 2.6665 7.8707 2.6665Z" fill="white"/>
<path fill-rule="evenodd" clip-rule="evenodd" d="M1.51497 11.3786C1.58194 11.1107 1.85341 10.9478 2.1213 11.0148L4.78797 11.6814C5.05587 11.7484 5.21875 12.0199 5.15177 12.2878C5.0848 12.5557 4.81333 12.7186 4.54544 12.6516L2.36384 12.1062L1.81844 14.2878C1.75147 14.5557 1.48 14.7186 1.2121 14.6516C0.944205 14.5846 0.781325 14.3131 0.848299 14.0452L1.51497 11.3786Z" fill="white"/>
<path fill-rule="evenodd" clip-rule="evenodd" d="M14.788 3.01477C15.0559 3.08174 15.2187 3.35321 15.1518 3.62111L14.4851 6.28777C14.4181 6.55567 14.1467 6.71855 13.8788 6.65158L11.2121 5.98491C10.9442 5.91793 10.7813 5.64647 10.8483 5.37857C10.9153 5.11067 11.1867 4.94779 11.4546 5.01477L13.6362 5.56016L14.1816 3.37857C14.2486 3.11067 14.5201 2.94779 14.788 3.01477Z" fill="white"/>
</svg>
