<svg width="40" height="12" viewBox="0 0 40 12" fill="none" xmlns="http://www.w3.org/2000/svg">
<g clip-path="url(#clip0_348_74208)">
<path d="M7.50003 5.75239C7.7242 5.44011 7.84138 5.07259 7.83629 4.69778L7.83142 1.9621C7.83629 1.90511 7.83629 1.84784 7.83142 1.79084C7.7946 1.30338 7.55536 0.847972 7.16378 0.519903C6.77695 0.18235 6.2628 -0.00202609 5.73103 0.00611814H3.76709V5.75239H7.50003ZM6.19399 1.47987C6.32445 1.59082 6.4031 1.74438 6.41329 1.90802L6.41816 1.9621L6.42304 4.69778C6.42342 4.78311 6.40553 4.86766 6.3704 4.94656C6.33528 5.02546 6.2836 5.09715 6.21836 5.15748C6.15312 5.21782 6.0756 5.26561 5.99029 5.2981C5.90497 5.33059 5.81354 5.34713 5.72128 5.34677H5.15598V1.30861H5.71153C5.89034 1.30537 6.06345 1.36682 6.19399 1.47987Z" fill="white"/>
<path d="M7.97275 7.1359C7.94763 6.81971 7.83704 6.51442 7.65112 6.24805H3.77197V11.9898H5.87236C6.14937 11.9941 6.42435 11.9455 6.68011 11.847C6.93586 11.7485 7.16689 11.6023 7.35872 11.4174C7.55654 11.2376 7.71326 11.0229 7.81958 10.786C7.9259 10.5491 7.97965 10.2948 7.97763 10.0383L7.97275 7.30266C7.97763 7.24716 7.97763 7.1914 7.97275 7.1359ZM6.56437 10.0383C6.56516 10.1248 6.547 10.2105 6.51098 10.2903C6.47496 10.3701 6.42184 10.4423 6.35482 10.5025C6.29224 10.5624 6.21728 10.61 6.1344 10.6425C6.05151 10.6751 5.9624 10.6918 5.87236 10.6918H5.17548V6.65367H5.87724C6.05136 6.65214 6.21924 6.7136 6.34507 6.82493C6.47507 6.93669 6.55506 7.08946 6.56924 7.25308L6.57412 7.30716L6.56437 10.0383Z" fill="white"/>
<path d="M34.3276 5.73861H35.7311V1.30835H36.9981L37.003 0.00585938H32.9289L32.9241 1.30835H34.3276V5.73861Z" fill="#FDE100"/>
<path d="M34.3274 6.23438V11.9897H35.7309V6.23438H34.3274Z" fill="#FDE100"/>
<path d="M32.3879 5.73861V5.34651H30.1266V1.30835H32.3879L32.3927 0.00585938L28.7183 0.0103663V5.73861H32.3879Z" fill="#FDE100"/>
<path d="M28.7183 6.23438V11.9897H30.1315L30.1364 6.64901H32.3976L32.3927 6.23438H28.7183Z" fill="#FDE100"/>
<path d="M24.9756 5.73884L24.9805 1.96208C24.9797 1.87562 24.9978 1.78992 25.0339 1.71013C25.0699 1.63035 25.123 1.55814 25.19 1.49787C25.317 1.37987 25.4886 1.31204 25.6685 1.30868C25.8485 1.30532 26.0229 1.36668 26.1549 1.47984C26.2849 1.5916 26.3649 1.74437 26.3791 1.90799L26.384 1.96208V5.73884H27.7777V1.95757C27.7826 1.90057 27.7826 1.84331 27.7777 1.78631C27.7388 1.29937 27.4999 0.84465 27.1101 0.515366C26.7253 0.181113 26.2149 -0.00153451 25.6871 0.00608876C25.4123 0.00242385 25.1398 0.0513842 24.8865 0.149889C24.6332 0.248394 24.4047 0.394312 24.2154 0.578463C24.0184 0.758886 23.8623 0.973736 23.7561 1.2105C23.6498 1.44727 23.5955 1.70122 23.5964 1.95757V5.73433L24.9756 5.73884Z" fill="#FDE100"/>
<path d="M26.3791 6.23438V10.0382C26.379 10.2099 26.3058 10.3747 26.1754 10.497C26.045 10.6193 25.8679 10.6892 25.6822 10.6917C25.5043 10.6944 25.3321 10.6337 25.2014 10.522C25.0707 10.4104 24.9916 10.2565 24.9804 10.0923C24.9804 10.0742 24.9756 10.0562 24.9756 10.0382L24.9804 6.23438H23.5964V10.0382C23.5916 10.0952 23.5916 10.1524 23.5964 10.2094C23.6354 10.6964 23.8742 11.1511 24.2641 11.4804C24.6601 11.8206 25.1839 12.0047 25.7243 11.9938C26.2647 11.9828 26.7792 11.7777 27.1588 11.4218C27.3557 11.2414 27.5118 11.0265 27.6181 10.7898C27.7244 10.553 27.7786 10.299 27.7777 10.0427V6.23888H26.3791V6.23438Z" fill="#FDE100"/>
<path d="M19.2348 5.73848H21.5253C21.2718 5.54468 21.0184 5.34638 20.765 5.15258C20.3118 4.7695 20.0584 4.28276 20.0048 3.69235C19.995 3.59771 19.9902 3.49856 19.9902 3.39039L19.9999 1.9572C19.9994 1.83171 20.0383 1.70878 20.112 1.60337C20.1856 1.49797 20.2908 1.41464 20.4148 1.36354C20.5387 1.31244 20.676 1.29577 20.81 1.31555C20.944 1.33533 21.0689 1.39072 21.1695 1.47497C21.2995 1.58673 21.3795 1.7395 21.3937 1.90312L21.3985 1.9572V2.86759H22.7923V1.96171C22.7972 1.90471 22.7972 1.84745 22.7923 1.79045C22.7555 1.30299 22.5163 0.847579 22.1247 0.51951C21.7285 0.179448 21.2048 -0.00461649 20.6645 0.00632029C20.1241 0.0172571 19.6096 0.222336 19.2299 0.578099C19.0324 0.75833 18.8755 0.973047 18.7685 1.20979C18.6614 1.44653 18.6062 1.70058 18.6061 1.9572L18.6013 3.78249C18.5964 3.92671 18.6013 4.07093 18.611 4.21065C18.6695 4.82358 18.8742 5.32835 19.2348 5.73848Z" fill="#FDE100"/>
<path d="M22.1149 6.23438H19.8196C20.0828 6.43718 20.3508 6.6445 20.6188 6.84731C21.072 7.2304 21.306 7.71714 21.3596 8.30754C21.3693 8.40218 21.3644 8.61401 21.3644 8.60499L21.3693 10.0382C21.3703 10.1251 21.3518 10.2112 21.3148 10.2911C21.2779 10.371 21.2235 10.443 21.1549 10.5024C21.0266 10.6199 20.8544 10.6873 20.6739 10.6906C20.4934 10.694 20.3184 10.633 20.1851 10.5204C20.0546 10.4095 19.976 10.2559 19.9658 10.0923C19.9658 10.0742 19.9609 10.0562 19.9609 10.0382L19.9755 9.12779H18.5818V10.0382C18.5769 10.0952 18.5769 10.1524 18.5818 10.2094C18.6167 10.6964 18.8543 11.1519 19.2445 11.4804C19.5462 11.7333 19.9206 11.8999 20.3225 11.9599C20.7244 12.02 21.1365 11.971 21.5089 11.8188C21.8813 11.6666 22.198 11.4179 22.4206 11.1026C22.6432 10.7874 22.7622 10.4192 22.7631 10.0427L22.7679 8.2174C22.7728 8.07318 22.7679 7.92896 22.7582 7.78925C22.6997 7.16279 22.4853 6.6445 22.1149 6.23438Z" fill="#FDE100"/>
<path d="M15.0195 5.73861H16.4181V1.30835H17.6803L17.6852 0.00585938L13.6257 0.0103663L13.6208 1.31286H15.0195V5.73861Z" fill="white"/>
<path d="M15.0195 6.23438L15.0146 11.9897H16.4133L16.4182 6.23438H15.0195Z" fill="white"/>
<path d="M12.6267 5.73861V5.34651H10.3801V1.30835L12.6169 1.31286L12.6218 0.0103663L8.9912 0.00585938L8.98633 5.73861H12.6267Z" fill="white"/>
<path d="M10.3898 6.64901L12.6218 6.65351V6.23438H8.98633V11.9897H12.6169L12.6267 10.6917L10.385 10.6872L10.3898 6.64901Z" fill="white"/>
<path d="M0 8.21331V3.71094L2.45614 5.98241L0 8.21331Z" fill="#FDE100"/>
<path d="M40.0001 8.24066V3.73828L37.5439 5.99172L40.0001 8.24066Z" fill="#FDE100"/>
</g>
<defs>
<clipPath id="clip0_348_74208">
<rect width="40" height="12" fill="white"/>
</clipPath>
</defs>
</svg>
