<svg width="32" height="32" viewBox="0 0 32 32" fill="none" xmlns="http://www.w3.org/2000/svg">
<g clip-path="url(#clip0_439_50063)">
<path d="M23.2497 13.9995C20.2174 13.9995 17.75 16.4669 17.75 19.4993C17.75 22.5317 20.2174 24.9991 23.2497 24.9991C26.2821 24.9991 28.7495 22.5317 28.7495 19.4993C28.7495 16.4669 26.2821 13.9995 23.2497 13.9995ZM25.5815 18.6168C23.9828 21.0153 24.4361 20.3353 23.5816 21.6167C23.2747 22.0771 22.6533 22.1992 22.1948 21.8936L20.6948 20.8936C20.2355 20.5874 20.1117 19.9668 20.418 19.5068C20.7242 19.0474 21.3448 18.9237 21.8048 19.2299L22.4723 19.6749C24.0671 17.283 23.9813 17.3492 24.2497 17.1962C25.1605 16.6694 26.1668 17.7377 25.5815 18.6168ZM18.7499 25.4953V30.9988C18.7499 31.765 19.5798 32.2479 20.2461 31.8669L23.2497 30.1508L26.2534 31.8669C26.917 32.2473 27.7496 31.7671 27.7496 30.9988V25.4953C25.0854 27.4997 21.4179 27.5026 18.7499 25.4953ZM25.2497 12.2708V2.17179C25.2497 0.974339 24.2753 0 23.0779 0H5.42228C4.22483 0 3.25049 0.974339 3.25049 2.17179V25.3272C3.25049 26.5246 4.22483 27.499 5.42228 27.499H16.75C16.75 23.1958 16.7433 23.4622 16.7656 23.2641C13.4181 17.5252 18.7485 10.4654 25.2497 12.2708ZM9.25027 4.99981H17.75C18.3024 4.99981 18.7499 5.4473 18.7499 5.99978C18.7499 6.55226 18.3024 6.99974 17.75 6.99974H9.25027C8.69779 6.99974 8.2503 6.55226 8.2503 5.99978C8.2503 5.4473 8.69779 4.99981 9.25027 4.99981ZM14.2501 14.9994H9.25027C8.69779 14.9994 8.2503 14.552 8.2503 13.9995C8.2503 13.447 8.69779 12.9995 9.25027 12.9995H14.2501C14.8026 12.9995 15.25 13.447 15.25 13.9995C15.25 14.552 14.8026 14.9994 14.2501 14.9994ZM9.25027 10.9996C8.69779 10.9996 8.2503 10.5521 8.2503 9.99963C8.2503 9.44715 8.69779 8.99967 9.25027 8.99967H17.75C18.3024 8.99967 18.7499 9.44715 18.7499 9.99963C18.7499 10.5521 18.3024 10.9996 17.75 10.9996H9.25027Z" fill="url(#paint0_linear_439_50063)"/>
</g>
<defs>
<linearGradient id="paint0_linear_439_50063" x1="3.25049" y1="15.9295" x2="28.7495" y2="15.9295" gradientUnits="userSpaceOnUse">
<stop stop-color="#F0C645"/>
<stop offset="0.495" stop-color="#FAF283"/>
<stop offset="1" stop-color="#EBC944"/>
</linearGradient>
<clipPath id="clip0_439_50063">
<rect width="32" height="32" fill="white"/>
</clipPath>
</defs>
</svg>
