<svg width="17" height="16" viewBox="0 0 17 16" fill="none" xmlns="http://www.w3.org/2000/svg">
<g clip-path="url(#clip0_333_69741)">
<path d="M16.1115 7.05714L15.0202 5.9661C14.7613 5.70711 14.549 5.19531 14.549 4.82827V3.28527C14.549 2.55127 13.9494 1.95165 13.2156 1.95126H11.672C11.3054 1.95126 10.793 1.73864 10.5339 1.47984L9.44291 0.388806C8.9245 -0.129602 8.07569 -0.129602 7.55729 0.388806L6.46625 1.48062C6.20703 1.73961 5.69405 1.95165 5.32822 1.95165H3.78522C3.0522 1.95165 2.4518 2.55127 2.4518 3.28527V4.82831C2.4518 5.1939 2.2396 5.70731 1.98058 5.96614L0.889344 7.05718C0.370544 7.57559 0.370544 8.42439 0.889344 8.94362L1.98058 10.0347C2.23976 10.2936 2.4518 10.8069 2.4518 11.1725V12.7155C2.4518 13.4487 3.0522 14.0492 3.78522 14.0492H5.32826C5.69487 14.0492 6.20726 14.2613 6.46629 14.5202L7.55732 15.6116C8.07573 16.1296 8.92454 16.1296 9.44295 15.6116L10.534 14.5202C10.7932 14.2612 11.3054 14.0492 11.672 14.0492H13.2156C13.9494 14.0492 14.5491 13.4487 14.5491 12.7155V11.1725C14.5491 10.8053 14.7615 10.2935 15.0203 10.0347L16.1115 8.94362C16.6295 8.42439 16.6295 7.57555 16.1115 7.05714ZM7.4417 11.0002L4.49984 8.05798L5.44267 7.11534L7.44193 9.1146L11.5574 5.00011L12.5 5.94274L7.4417 11.0002Z" fill="#54DB78"/>
</g>
<defs>
<clipPath id="clip0_333_69741">
<rect width="16" height="16" fill="white" transform="translate(0.5)"/>
</clipPath>
</defs>
</svg>
