<svg width="32" height="32" viewBox="0 0 32 32" fill="none" xmlns="http://www.w3.org/2000/svg">
<path d="M12.6475 6.5625H17.331C17.8483 6.5625 18.2671 6.1425 18.2671 5.625V0.9375C18.2671 0.42 17.8483 0 17.331 0H12.6475C12.1308 0 11.7114 0.42 11.7114 0.9375V5.625C11.7114 6.1425 12.1307 6.5625 12.6475 6.5625Z" fill="url(#paint0_linear_439_50065)"/>
<path d="M26.7313 18.5528C25.6504 18.5528 24.7743 19.4297 24.7743 20.5109V18.7484C24.7744 17.6667 23.8973 16.7904 22.8179 16.7903C21.737 16.7903 20.8609 17.6666 20.8609 18.7484V16.7903C20.8611 15.7088 19.9842 14.8314 18.9045 14.8316C17.8236 14.8316 16.9475 15.7084 16.9475 16.7903V10.6541C16.9491 9.55681 16.0408 8.66843 14.9437 8.69593C13.8747 8.72093 13.0341 9.62281 13.0341 10.6934V22.0222L11.051 20.0372C10.2761 19.2614 9.01551 19.2739 8.25458 20.0659C7.51258 20.8397 7.55314 22.0759 8.31076 22.8341L11.079 25.6047C12.3689 26.8959 12.852 28.4709 13.2969 30.2003C13.3811 30.4947 13.4404 30.8459 13.4866 31.1897C13.549 31.6541 13.9459 32.0003 14.414 32.0003H14.9893H25.8983C26.3247 32.0003 26.6976 31.7119 26.8042 31.2984C27.0762 30.2429 27.4488 29.0554 27.7909 28.4772C28.3725 27.4934 28.6876 26.3753 28.6876 25.2328V20.5109C28.6878 19.4292 27.8106 18.5529 26.7313 18.5528Z" fill="url(#paint1_linear_439_50065)"/>
<path d="M21.1435 10.5584H27.4445C28.1599 10.5809 28.6366 9.71282 28.2359 9.12026L25.0932 4.13713C24.7521 3.55195 23.8362 3.55195 23.4956 4.13713L20.3523 9.12026C19.9519 9.71257 20.4292 10.5809 21.1435 10.5584Z" fill="url(#paint2_linear_439_50065)"/>
<path d="M9.86812 8.125C9.86812 6.31562 8.39787 4.84375 6.59062 4.84375H6.59C4.78213 4.84437 3.3125 6.31562 3.3125 8.125C3.3125 9.93438 4.78213 11.4056 6.59 11.4062H6.59062C8.39787 11.4062 9.86812 9.93438 9.86812 8.125Z" fill="url(#paint3_linear_439_50065)"/>
<defs>
<linearGradient id="paint0_linear_439_50065" x1="11.7114" y1="3.2668" x2="18.2671" y2="3.2668" gradientUnits="userSpaceOnUse">
<stop stop-color="#F0C645"/>
<stop offset="0.495" stop-color="#FAF283"/>
<stop offset="1" stop-color="#EBC944"/>
</linearGradient>
<linearGradient id="paint1_linear_439_50065" x1="7.71973" y1="20.2965" x2="28.6876" y2="20.2965" gradientUnits="userSpaceOnUse">
<stop stop-color="#F0C645"/>
<stop offset="0.495" stop-color="#FAF283"/>
<stop offset="1" stop-color="#EBC944"/>
</linearGradient>
<linearGradient id="paint2_linear_439_50065" x1="20.2065" y1="7.11342" x2="28.3819" y2="7.11342" gradientUnits="userSpaceOnUse">
<stop stop-color="#F0C645"/>
<stop offset="0.495" stop-color="#FAF283"/>
<stop offset="1" stop-color="#EBC944"/>
</linearGradient>
<linearGradient id="paint3_linear_439_50065" x1="3.3125" y1="8.11055" x2="9.86812" y2="8.11055" gradientUnits="userSpaceOnUse">
<stop stop-color="#F0C645"/>
<stop offset="0.495" stop-color="#FAF283"/>
<stop offset="1" stop-color="#EBC944"/>
</linearGradient>
</defs>
</svg>
