<svg width="32" height="33" viewBox="0 0 32 33" fill="none" xmlns="http://www.w3.org/2000/svg">
<path d="M31 13.6143V18.6143C31 19.9932 29.8789 21.1143 28.5 21.1143H27.8193C26.8633 26.7803 21.9346 31.1143 16 31.1143C15.4473 31.1143 15 30.667 15 30.1143C15 29.5615 15.4473 29.1143 16 29.1143C21.5137 29.1143 26 24.6279 26 19.1143V13.1143C26 7.60059 21.5137 3.11426 16 3.11426C10.4863 3.11426 6 7.60059 6 13.1143V20.1143C6 20.667 5.55273 21.1143 5 21.1143H3.5C2.12109 21.1143 1 19.9932 1 18.6143V13.6143C1 12.2354 2.12109 11.1143 3.5 11.1143H4.18066C5.13672 5.44824 10.0654 1.11426 16 1.11426C21.9346 1.11426 26.8633 5.44824 27.8193 11.1143H28.5C29.8789 11.1143 31 12.2354 31 13.6143ZM16 5.11426C11.5889 5.11426 8 8.70312 8 13.1143V18.1143C8 22.5254 11.5889 26.1143 16 26.1143C20.4111 26.1143 24 22.5254 24 18.1143V13.1143C24 8.70312 20.4111 5.11426 16 5.11426Z" fill="url(#paint0_linear_439_50101)"/>
<defs>
<linearGradient id="paint0_linear_439_50101" x1="1" y1="16.0482" x2="31" y2="16.0482" gradientUnits="userSpaceOnUse">
<stop stop-color="#F0C645"/>
<stop offset="0.495" stop-color="#FAF283"/>
<stop offset="1" stop-color="#EBC944"/>
</linearGradient>
</defs>
</svg>
