<svg width="16" height="16" viewBox="0 0 16 16" fill="none" xmlns="http://www.w3.org/2000/svg">
<g clip-path="url(#clip0_348_74151)">
<path d="M8.1145 5.48125C8.45072 5.14348 8.87181 4.90264 9.33341 4.78408V1.33333C9.33341 0.979711 9.19294 0.640573 8.94289 0.390524C8.69284 0.140476 8.3537 0 8.00008 0L2.00008 0C1.64646 0 1.30732 0.140476 1.05727 0.390524C0.807224 0.640573 0.666748 0.979711 0.666748 1.33333V7.33333C0.666748 7.68696 0.807224 8.02609 1.05727 8.27614C1.30732 8.52619 1.64646 8.66667 2.00008 8.66667H4.92908L8.1145 5.48125ZM6.66675 2C6.7986 2 6.9275 2.0391 7.03713 2.11235C7.14676 2.18561 7.23221 2.28973 7.28267 2.41154C7.33313 2.53336 7.34633 2.66741 7.32061 2.79673C7.29488 2.92605 7.23139 3.04484 7.13815 3.13807C7.04492 3.23131 6.92613 3.2948 6.79681 3.32052C6.66749 3.34625 6.53344 3.33304 6.41163 3.28259C6.28981 3.23213 6.18569 3.14668 6.11244 3.03705C6.03918 2.92741 6.00008 2.79852 6.00008 2.66667C6.00008 2.48986 6.07032 2.32029 6.19534 2.19526C6.32037 2.07024 6.48994 2 6.66675 2ZM6.66675 4.66667C6.7986 4.66667 6.9275 4.70577 7.03713 4.77902C7.14676 4.85227 7.23221 4.95639 7.28267 5.07821C7.33313 5.20003 7.34633 5.33407 7.32061 5.46339C7.29488 5.59271 7.23139 5.7115 7.13815 5.80474C7.04492 5.89797 6.92613 5.96147 6.79681 5.98719C6.66749 6.01291 6.53344 5.99971 6.41163 5.94925C6.28981 5.89879 6.18569 5.81335 6.11244 5.70371C6.03918 5.59408 6.00008 5.46519 6.00008 5.33333C6.00008 5.15652 6.07032 4.98695 6.19534 4.86193C6.32037 4.7369 6.48994 4.66667 6.66675 4.66667ZM3.33341 2C3.46527 2 3.59416 2.0391 3.70379 2.11235C3.81343 2.18561 3.89888 2.28973 3.94933 2.41154C3.99979 2.53336 4.013 2.66741 3.98727 2.79673C3.96155 2.92605 3.89805 3.04484 3.80482 3.13807C3.71158 3.23131 3.5928 3.2948 3.46347 3.32052C3.33415 3.34625 3.20011 3.33304 3.07829 3.28259C2.95648 3.23213 2.85236 3.14668 2.7791 3.03705C2.70585 2.92741 2.66675 2.79852 2.66675 2.66667C2.66675 2.48986 2.73699 2.32029 2.86201 2.19526C2.98703 2.07024 3.1566 2 3.33341 2ZM3.33341 6.66667C3.20156 6.66667 3.07267 6.62757 2.96303 6.55431C2.8534 6.48106 2.76795 6.37694 2.7175 6.25512C2.66704 6.13331 2.65383 5.99926 2.67956 5.86994C2.70528 5.74062 2.76878 5.62183 2.86201 5.5286C2.95525 5.43536 3.07403 5.37187 3.20335 5.34614C3.33268 5.32042 3.46672 5.33362 3.58854 5.38408C3.71035 5.43454 3.81447 5.51999 3.88773 5.62962C3.96098 5.73925 4.00008 5.86815 4.00008 6C4.00008 6.17681 3.92984 6.34638 3.80482 6.4714C3.67979 6.59643 3.51023 6.66667 3.33341 6.66667Z" fill="white"/>
<path d="M14.714 9.25286L11.3027 5.84144C11.1899 5.72827 11.0577 5.63633 10.9123 5.57002C10.068 5.18727 9.17528 5.36344 8.58587 5.95336L5.17445 9.36436C5.06128 9.47715 4.96934 9.6094 4.90303 9.75478C4.52028 10.599 4.69645 11.4918 5.28637 12.0812L8.6977 15.4926C8.81049 15.6058 8.94274 15.6977 9.08812 15.764C9.93237 16.1468 10.8251 15.9706 11.4145 15.3807L14.8259 11.9694C14.9391 11.8566 15.0311 11.7243 15.0974 11.5789C15.4798 10.735 15.3036 9.84202 14.714 9.25286ZM10 11.3337C9.86818 11.3337 9.73928 11.2946 9.62965 11.2213C9.52002 11.1481 9.43457 11.044 9.38411 10.9221C9.33365 10.8003 9.32045 10.6663 9.34618 10.537C9.3719 10.4076 9.43539 10.2889 9.52863 10.1956C9.62186 10.1024 9.74065 10.0389 9.86997 10.0132C9.99929 9.98744 10.1333 10.0006 10.2552 10.0511C10.377 10.1016 10.4811 10.187 10.5543 10.2966C10.6276 10.4063 10.6667 10.5352 10.6667 10.667C10.6667 10.8438 10.5965 11.0134 10.4714 11.1384C10.3464 11.2635 10.1768 11.3337 10 11.3337Z" fill="white"/>
</g>
<defs>
<clipPath id="clip0_348_74151">
<rect width="16" height="16" fill="white"/>
</clipPath>
</defs>
</svg>
