<svg width="75" height="32" viewBox="0 0 75 32" fill="none" xmlns="http://www.w3.org/2000/svg">
<g clip-path="url(#clip0_328_41468)">
<path d="M63.0024 19.2303H65.5789L64.272 14.9736L63.0024 19.2303Z" fill="white" fill-opacity="0.6"/>
<path d="M17.672 14.5996H16.7759V21.0594H17.672C18.4188 21.0594 18.9789 20.9847 19.315 20.798C19.651 20.6113 19.8751 20.3499 20.0618 19.9018C20.2485 19.4911 20.3231 18.7816 20.3231 17.8482C20.3231 16.5786 20.1364 15.7198 19.7257 15.2717C19.315 14.8236 18.6429 14.5996 17.672 14.5996Z" fill="white" fill-opacity="0.6"/>
<path d="M70.6196 4.33105H7.44107C8.5986 5.26454 9.34539 6.68345 9.38273 8.51308H7.06767C6.99299 6.38473 5.42473 4.70445 3.52042 4.70445C1.76546 4.70445 0.271875 6.16069 0.010498 8.10235V9.74529H10.3536C10.9883 9.74529 11.4737 10.2307 11.4737 10.8655V24.6438C11.4737 25.2412 10.9883 25.764 10.3536 25.764H0.0478376V28.2657C0.0478376 30.3194 1.72812 31.9997 3.78179 31.9997H70.6196C72.6733 31.9997 74.3536 30.3194 74.3536 28.2657V8.02767C74.3536 6.01133 72.6733 4.33105 70.6196 4.33105ZM23.5718 20.7231C23.273 21.4326 22.8996 21.9927 22.3769 22.4781C21.8541 22.9635 21.3314 23.2622 20.7339 23.4116C19.9498 23.6356 19.203 23.7476 18.5683 23.7476H13.1167V11.911H18.5683C19.6511 11.911 20.5099 12.0603 21.182 12.3591C21.8541 12.6578 22.3769 13.0685 22.825 13.6286C23.273 14.1887 23.5718 14.7861 23.7585 15.5329C23.9452 16.2424 24.0572 17.0265 24.0572 17.8106C24.0198 19.0428 23.8705 20.051 23.5718 20.7231ZM38.3582 23.7476H35.3711V14.7115L33.056 23.7476H30.3302L28.0525 14.7115V23.7476H25.0653V11.911H29.8821L31.7491 19.1175L33.5788 11.911H38.3956V23.7476H38.3582ZM53.4807 25.8386C52.0618 26.6601 50.4936 27.0708 48.8506 27.0708C47.2077 27.0708 45.6394 26.6601 44.2205 25.8386C42.8016 25.0172 41.6441 23.897 40.8226 22.4407C40.0012 21.0218 39.5904 19.4536 39.5904 17.8106C39.5904 16.1677 40.0012 14.5994 40.8226 13.1805C41.6441 11.7243 42.8016 10.6041 44.2205 9.78263C45.6394 8.96116 47.2077 8.55042 48.8506 8.55042C50.4936 8.55042 52.0618 8.96116 53.4807 9.78263C54.8996 10.6041 56.0572 11.7243 56.8786 13.1805C57.7001 14.6368 58.1108 16.1677 58.1108 17.8106C58.1108 19.4536 57.7001 21.0218 56.8786 22.4407C56.0572 23.8596 54.937 25.0172 53.4807 25.8386ZM66.9603 23.7476L66.3629 21.806H62.2182L61.6581 23.7476H57.9241L62.3676 11.911H66.3629L70.8063 23.7476H66.9603Z" fill="white" fill-opacity="0.6"/>
<path d="M48.8507 10.3057C46.797 10.3057 45.0047 11.0525 43.5485 12.5087C42.0923 13.9649 41.3455 15.7199 41.3455 17.8109C41.3455 19.8646 42.0923 21.6569 43.5485 23.1131C45.0047 24.5694 46.7597 25.3162 48.8507 25.3162C50.9417 25.3162 52.6967 24.5694 54.1529 23.1131C55.6092 21.6569 56.356 19.9019 56.356 17.8109C56.356 15.7572 55.6092 13.9649 54.1529 12.5087C52.6967 11.0525 50.9044 10.3057 48.8507 10.3057ZM52.2486 21.8062C51.3898 22.6277 50.2696 23.0385 48.9254 23.0385C47.4318 23.0385 46.2369 22.553 45.2661 21.5822C44.3326 20.6114 43.8472 19.3418 43.8472 17.7736C43.8472 16.28 44.3326 15.0478 45.3035 14.077C46.2743 13.1061 47.4691 12.6207 48.9254 12.6207C50.0829 12.6207 51.0911 12.9194 51.8752 13.5542C52.6593 14.189 53.1821 14.9731 53.4061 15.9813L51.0164 16.3547C50.867 15.6826 50.6057 15.1971 50.2323 14.8984C49.8589 14.5997 49.3735 14.413 48.8134 14.413C48.1786 14.413 47.6558 14.6744 47.2078 15.2345C46.7597 15.7572 46.573 16.616 46.573 17.7736C46.573 18.9311 46.7224 19.7526 47.0211 20.238C47.4318 20.9474 48.0666 21.3208 48.8507 21.3208C49.3361 21.3208 49.7842 21.1341 50.1949 20.7607C50.6057 20.3873 50.867 19.7899 51.0537 18.9684L53.5555 19.5659C53.2194 20.4994 52.7714 21.2835 52.2486 21.8062Z" fill="white" fill-opacity="0.6"/>
<path d="M3.22168 0.0371094H4.86462C5.23802 0.0371094 5.49939 0.111788 5.68609 0.298486C5.87279 0.485184 5.94747 0.709221 5.94747 1.04528C5.94747 1.38133 5.83545 1.60537 5.64875 1.79207C5.46205 1.97877 5.16334 2.05345 4.7526 2.05345H4.19251V3.24831H3.22168V0.0371094ZM4.22985 1.41867H4.49122C4.67792 1.41867 4.82728 1.38133 4.90196 1.30665C4.97664 1.23198 5.01398 1.1573 5.01398 1.04528C5.01398 0.933259 4.97664 0.85858 4.90196 0.7839C4.82728 0.709221 4.71526 0.671882 4.52856 0.671882H4.22985V1.41867Z" fill="white" fill-opacity="0.6"/>
<path d="M6.54492 3.24831V0.0371094H8.18786C8.48658 0.0371094 8.71062 0.0744489 8.89731 0.111788C9.08401 0.149128 9.19603 0.261147 9.27071 0.410505C9.34539 0.559863 9.42007 0.709221 9.42007 0.933259C9.42007 1.11996 9.38273 1.26931 9.30805 1.38133C9.23337 1.49335 9.12135 1.60537 9.00933 1.68005C8.93465 1.71739 8.82264 1.75473 8.67328 1.79207C8.7853 1.82941 8.85997 1.86675 8.93465 1.90409C8.97199 1.94143 9.00933 1.97877 9.08401 2.09079C9.15869 2.16546 9.19603 2.24014 9.23337 2.27748L9.71878 3.21097H8.5986L8.07584 2.24014C8.00116 2.12812 7.96383 2.01611 7.88915 1.97877C7.81447 1.94143 7.73979 1.90409 7.62777 1.90409H7.51575V3.21097H6.54492V3.24831ZM7.51575 1.34399H7.92649C7.96383 1.34399 8.07584 1.34399 8.18786 1.30665C8.26254 1.30665 8.29988 1.26931 8.33722 1.19464C8.37456 1.11996 8.4119 1.08262 8.4119 1.00794C8.4119 0.895919 8.37456 0.82124 8.29988 0.7839C8.2252 0.746561 8.11318 0.709221 7.92649 0.709221H7.51575V1.34399Z" fill="white" fill-opacity="0.6"/>
<path d="M9.86816 1.64294C9.86816 1.12019 10.0175 0.709452 10.3162 0.410735C10.615 0.112019 10.9884 0 11.5111 0C12.0339 0 12.4446 0.149358 12.7433 0.448075C13.042 0.746791 13.1914 1.12019 13.1914 1.64294C13.1914 2.01634 13.1167 2.31505 13.0047 2.57643C12.8927 2.83781 12.6686 2.98716 12.4446 3.09918C12.2206 3.2112 11.9218 3.28588 11.5484 3.28588C11.175 3.28588 10.8763 3.2112 10.6523 3.09918C10.4283 2.98716 10.2416 2.83781 10.0922 2.61377C9.94284 2.38973 9.86816 2.05368 9.86816 1.64294ZM10.839 1.68028C10.839 2.01634 10.9137 2.24037 11.0257 2.38973C11.1377 2.53909 11.3244 2.61377 11.5111 2.61377C11.7351 2.61377 11.8845 2.53909 11.9965 2.38973C12.1085 2.24037 12.1832 2.01634 12.1832 1.64294C12.1832 1.34422 12.1085 1.12019 11.9965 0.970829C11.8845 0.82147 11.7351 0.746791 11.5111 0.746791C11.3244 0.746791 11.1377 0.82147 11.0257 0.970829C10.9137 1.12019 10.839 1.34422 10.839 1.68028Z" fill="white" fill-opacity="0.6"/>
<path d="M13.4153 0.0371094H16.4398V0.82124H15.4316V3.24831H14.4235V0.85858H13.4153V0.0371094Z" fill="white" fill-opacity="0.6"/>
<path d="M16.9626 0.0371094H19.6138V0.746561H17.9335V1.26931H19.4644V1.94143H17.9335V2.5762H19.6511V3.28565H16.9626V0.0371094Z" fill="white" fill-opacity="0.6"/>
<path d="M22.3768 1.94166L23.2357 2.20303C23.161 2.46441 23.0863 2.65111 22.9743 2.80047C22.8623 2.94983 22.6756 3.09918 22.4889 3.17386C22.3022 3.24854 22.0781 3.32322 21.7794 3.32322C21.4434 3.32322 21.1446 3.28588 20.9206 3.17386C20.6966 3.06184 20.5099 2.91249 20.3605 2.65111C20.2112 2.38973 20.1365 2.05368 20.1365 1.68028C20.1365 1.15753 20.2858 0.746791 20.5472 0.448075C20.8459 0.149358 21.2193 0 21.7421 0C22.1528 0 22.4515 0.0746791 22.7129 0.261377C22.9743 0.448075 23.1236 0.672112 23.2357 1.00817L22.3768 1.19487C22.3395 1.08285 22.3022 1.00817 22.2648 0.970829C22.2275 0.896149 22.1528 0.82147 22.0781 0.784131C22.0035 0.746791 21.8914 0.746791 21.7794 0.746791C21.5554 0.746791 21.3687 0.82147 21.2567 1.00817C21.182 1.15753 21.1073 1.34422 21.1073 1.64294C21.1073 2.01634 21.1446 2.24037 21.2567 2.38973C21.3687 2.53909 21.518 2.57643 21.7047 2.57643C21.8914 2.57643 22.0408 2.53909 22.1528 2.42707C22.2648 2.31505 22.3395 2.16569 22.3768 1.94166Z" fill="white" fill-opacity="0.6"/>
<path d="M23.5718 0.0371094H26.5589V0.82124H25.5508V3.24831H24.5426V0.85858H23.5718V0.0371094Z" fill="white" fill-opacity="0.6"/>
<path d="M27.0815 0.0371094H29.7327V0.746561H28.0524V1.26931H29.5833V1.94143H28.0524V2.5762H29.77V3.28565H27.0815V0.0371094Z" fill="white" fill-opacity="0.6"/>
<path d="M30.4048 0.0371094H31.861C32.1597 0.0371094 32.3838 0.0744489 32.5705 0.149128C32.7572 0.223807 32.9065 0.373165 33.0186 0.522524C33.1306 0.671882 33.2053 0.85858 33.2799 1.04528C33.3546 1.23198 33.3546 1.45601 33.3546 1.68005C33.3546 2.01611 33.3173 2.27748 33.2426 2.46418C33.1679 2.65088 33.0559 2.80024 32.9065 2.91226C32.7572 3.02427 32.6078 3.13629 32.4585 3.17363C32.2344 3.24831 32.0477 3.24831 31.861 3.24831H30.4048V0.0371094ZM31.3756 0.7839V2.53886H31.637C31.861 2.53886 31.973 2.50152 32.0851 2.46418C32.1971 2.42684 32.2344 2.35216 32.3091 2.24014C32.3838 2.12812 32.3838 1.94143 32.3838 1.68005C32.3838 1.34399 32.3464 1.11996 32.2344 0.970598C32.1224 0.82124 31.9357 0.7839 31.6743 0.7839H31.3756Z" fill="white" fill-opacity="0.6"/>
<path d="M38.0222 1.71762L38.7317 1.86698C38.6944 1.979 38.657 2.09102 38.6197 2.16569C38.5823 2.24037 38.545 2.35239 38.4703 2.42707L38.8064 2.65111C38.8437 2.68845 38.8811 2.72579 38.9557 2.76313L38.4703 3.32322C38.3956 3.28588 38.2836 3.2112 38.2089 3.17386C38.1343 3.13652 38.0222 3.06184 37.9476 3.0245C37.7982 3.13652 37.6488 3.2112 37.4995 3.24854C37.2755 3.32322 37.0514 3.36056 36.7527 3.36056C36.342 3.36056 36.0059 3.28588 35.7819 3.09918C35.5578 2.91249 35.4832 2.68845 35.4832 2.46441C35.4832 2.27771 35.5578 2.09102 35.6699 1.94166C35.7819 1.7923 36.0059 1.64294 36.2673 1.53092C36.1553 1.38156 36.0806 1.26955 36.0432 1.15753C36.0059 1.04551 35.9686 0.933489 35.9686 0.82147C35.9686 0.597433 36.0432 0.410735 36.2299 0.261377C36.4166 0.112019 36.6407 0 37.0141 0C37.3875 0 37.6488 0.0746791 37.7982 0.224037C37.9476 0.373396 38.0596 0.522754 38.0596 0.709452C38.0596 0.82147 38.0222 0.933489 37.9849 1.00817C37.9476 1.08285 37.8729 1.19487 37.7982 1.26955C37.7235 1.34422 37.6115 1.4189 37.4248 1.56826C37.5742 1.71762 37.7609 1.86698 37.9102 2.01634C37.9476 1.90432 37.9849 1.7923 38.0222 1.71762ZM36.678 1.90432C36.566 1.979 36.4913 2.05368 36.4166 2.12835C36.342 2.20303 36.342 2.24037 36.342 2.31505C36.342 2.42707 36.3793 2.50175 36.4913 2.61377C36.6033 2.72579 36.7154 2.72579 36.8647 2.72579C37.0141 2.72579 37.2008 2.65111 37.3875 2.53909C37.2008 2.42707 36.9767 2.20303 36.678 1.90432ZM36.9767 1.15753C37.0888 1.08285 37.1634 1.00817 37.2381 0.970829C37.3128 0.933489 37.3501 0.82147 37.3501 0.746791C37.3501 0.672112 37.3128 0.634773 37.2755 0.560093C37.2381 0.485414 37.1634 0.485414 37.0514 0.485414C36.9767 0.485414 36.9021 0.522754 36.8274 0.560093C36.7527 0.597433 36.7527 0.672112 36.7527 0.746791C36.7527 0.82147 36.8274 0.970829 36.9767 1.15753Z" fill="white" fill-opacity="0.6"/>
<path d="M41.0466 0.0371094H42.3535L42.8389 1.97877L43.3243 0.0371094H44.6312V3.24831H43.8098V0.82124L43.175 3.28565H42.4282L41.8681 0.82124V3.28565H41.0466V0.0371094Z" fill="white" fill-opacity="0.6"/>
<path d="M45.2288 1.64294C45.2288 1.12019 45.3781 0.709452 45.6768 0.410735C45.9755 0.112019 46.3489 0 46.8717 0C47.3945 0 47.8052 0.149358 48.1039 0.448075C48.4026 0.746791 48.552 1.12019 48.552 1.64294C48.552 2.01634 48.4773 2.31505 48.3653 2.57643C48.2533 2.83781 48.0666 2.98716 47.8052 3.13652C47.5438 3.28588 47.2824 3.32322 46.909 3.32322C46.5356 3.32322 46.2369 3.24854 46.0129 3.13652C45.7889 3.0245 45.6022 2.83781 45.4528 2.61377C45.3034 2.38973 45.2288 2.05368 45.2288 1.64294ZM46.2369 1.68028C46.2369 2.01634 46.3116 2.24037 46.4236 2.38973C46.5356 2.53909 46.7223 2.61377 46.909 2.61377C47.1331 2.61377 47.2824 2.53909 47.3945 2.38973C47.5065 2.24037 47.5812 2.01634 47.5812 1.64294C47.5812 1.34422 47.5065 1.12019 47.3945 0.970829C47.2824 0.82147 47.0957 0.746791 46.8717 0.746791C46.685 0.746791 46.4983 0.82147 46.3863 0.970829C46.2743 1.12019 46.2369 1.34422 46.2369 1.68028Z" fill="white" fill-opacity="0.6"/>
<path d="M49.1494 0.0371094H50.0829L51.2778 1.82941V0.0371094H52.2113V3.24831H51.2778L50.0829 1.49335V3.24831H49.1494V0.0371094Z" fill="white" fill-opacity="0.6"/>
<path d="M52.9954 0.0371094H54.0035V3.24831H52.9954V0.0371094Z" fill="white" fill-opacity="0.6"/>
<path d="M54.5261 0.0371094H57.5506V0.82124H56.5425V3.24831H55.5343V0.85858H54.5261V0.0371094Z" fill="white" fill-opacity="0.6"/>
<path d="M57.7747 1.64294C57.7747 1.12019 57.924 0.709452 58.2227 0.410735C58.5214 0.112019 58.8948 0 59.4176 0C59.9404 0 60.3511 0.149358 60.6498 0.448075C60.9485 0.746791 61.0979 1.12019 61.0979 1.64294C61.0979 2.01634 61.0232 2.31505 60.9112 2.57643C60.7992 2.83781 60.6125 2.98716 60.3511 3.13652C60.0897 3.28588 59.8283 3.32322 59.4549 3.32322C59.0815 3.32322 58.7828 3.24854 58.5588 3.13652C58.3347 3.0245 58.1481 2.83781 57.9987 2.57643C57.8493 2.31505 57.7747 2.05368 57.7747 1.64294ZM58.7455 1.68028C58.7455 2.01634 58.8202 2.24037 58.9322 2.38973C59.0442 2.53909 59.2309 2.61377 59.4176 2.61377C59.6416 2.61377 59.791 2.53909 59.903 2.38973C60.015 2.24037 60.0897 2.01634 60.0897 1.64294C60.0897 1.34422 60.015 1.12019 59.903 0.970829C59.791 0.82147 59.6043 0.746791 59.4176 0.746791C59.2309 0.746791 59.0442 0.82147 58.9322 0.970829C58.8202 1.12019 58.7455 1.34422 58.7455 1.68028Z" fill="white" fill-opacity="0.6"/>
<path d="M61.6953 3.24831V0.0371094H63.3383C63.637 0.0371094 63.861 0.0744489 64.0477 0.111788C64.2344 0.149128 64.3464 0.261147 64.4211 0.410505C64.4958 0.559863 64.5705 0.709221 64.5705 0.933259C64.5705 1.11996 64.5331 1.26931 64.4584 1.38133C64.3838 1.49335 64.2717 1.60537 64.1597 1.68005C64.085 1.71739 63.973 1.75473 63.8237 1.79207C63.9357 1.82941 64.0104 1.86675 64.085 1.90409C64.1224 1.94143 64.1597 1.97877 64.2344 2.09079C64.3091 2.16546 64.3464 2.24014 64.3838 2.27748L64.8692 3.21097H63.749L63.2262 2.24014C63.1516 2.12812 63.1142 2.01611 63.0395 1.97877C62.9649 1.94143 62.8902 1.90409 62.7782 1.90409H62.7035V3.21097H61.6953V3.24831ZM62.6661 1.34399H63.0769C63.1142 1.34399 63.2262 1.34399 63.3383 1.30665C63.4129 1.30665 63.4503 1.26931 63.4876 1.19464C63.5249 1.11996 63.5623 1.08262 63.5623 1.00794C63.5623 0.895919 63.5249 0.82124 63.4503 0.7839C63.3756 0.746561 63.2636 0.709221 63.0769 0.709221H62.6288V1.34399H62.6661Z" fill="white" fill-opacity="0.6"/>
<path d="M65.2053 0.0371094H67.8564V0.746561H66.1762V1.26931H67.7071V1.94143H66.1762V2.5762H67.8938V3.28565H65.2053V0.0371094Z" fill="white" fill-opacity="0.6"/>
<path d="M68.5286 0.0371094H69.9848C70.2835 0.0371094 70.5076 0.0744489 70.6943 0.149128C70.881 0.223807 71.0303 0.335826 71.1423 0.485184C71.2544 0.634542 71.329 0.82124 71.4037 1.00794C71.4784 1.19464 71.4784 1.41867 71.4784 1.64271C71.4784 1.97877 71.4411 2.24014 71.3664 2.42684C71.2917 2.61354 71.1797 2.7629 71.0303 2.91226C70.881 3.06161 70.7316 3.13629 70.5822 3.17363C70.3582 3.24831 70.1715 3.24831 69.9848 3.24831H68.5286V0.0371094ZM69.4994 0.7839V2.53886H69.7608C69.9848 2.53886 70.0968 2.50152 70.2088 2.46418C70.3209 2.42684 70.3582 2.35216 70.4329 2.24014C70.5076 2.12812 70.5076 1.94143 70.5076 1.68005C70.5076 1.34399 70.4702 1.11996 70.3582 0.970598C70.2462 0.82124 70.0595 0.7839 69.7981 0.7839H69.4994Z" fill="white" fill-opacity="0.6"/>
<path d="M5.91008 21.9556L4.2298 17.4375C4.90191 17.1014 5.34998 16.392 5.34998 15.5705C5.34998 14.413 4.4165 13.4795 3.25897 13.4795C2.10144 13.4795 1.16795 14.413 1.16795 15.5705C1.16795 16.4667 1.72805 17.2134 2.51218 17.5122L1.13062 21.9556H5.91008Z" fill="white" fill-opacity="0.6"/>
</g>
<defs>
<clipPath id="clip0_328_41468">
<rect width="74.3057" height="32" fill="white" transform="translate(0.0478516)"/>
</clipPath>
</defs>
</svg>
