<svg width="32" height="33" viewBox="0 0 32 33" fill="none" xmlns="http://www.w3.org/2000/svg">
<path d="M24.6804 7.99662C25.0465 8.36274 25.64 8.36274 26.0062 7.99662L28.2159 5.78693C28.582 5.4208 28.582 4.82724 28.2159 4.46112C27.8497 4.09499 27.2562 4.09499 26.89 4.46112L24.6804 6.6708C24.3142 7.03693 24.3142 7.63049 24.6804 7.99662Z" fill="url(#paint0_linear_439_50094)"/>
<path d="M25.7636 10.6698C25.8976 11.1699 26.4117 11.4667 26.9118 11.3327L29.9303 10.5239C30.4304 10.3899 30.7272 9.87586 30.5932 9.37574C30.4592 8.87561 29.9452 8.5788 29.4451 8.71286L26.4266 9.52167C25.9264 9.65561 25.6296 10.1697 25.7636 10.6698Z" fill="url(#paint1_linear_439_50094)"/>
<path d="M22.0071 6.91356C22.5072 7.04756 23.0213 6.75074 23.1553 6.25062L23.9641 3.23212C24.0981 2.73199 23.8013 2.21793 23.3012 2.08393C22.8011 1.94993 22.287 2.24674 22.153 2.74687L21.3442 5.76537C21.2101 6.26549 21.507 6.77956 22.0071 6.91356Z" fill="url(#paint2_linear_439_50094)"/>
<path d="M29.8906 13.3021H19.0848C18.4684 13.3021 18.0197 12.7174 18.1793 12.122L19.2676 8.06012C19.5691 6.93487 18.9013 5.77819 17.7761 5.47669C16.6508 5.17519 15.4942 5.843 15.1926 6.96825L14.6746 8.90137C13.9792 11.4971 11.6269 13.3021 8.9395 13.3021H6.25V27.6771H7.96875L8.4375 28.3021C9.32275 29.4824 10.7121 30.1771 12.1875 30.1771H20.3906C21.5556 30.1771 22.5 29.2327 22.5 28.0677C22.5 26.9027 21.5556 25.9584 20.3906 25.9584H21.6406C22.8056 25.9584 23.75 25.014 23.75 23.849C23.75 22.684 22.8056 21.7396 21.6406 21.7396H22.8906C24.0556 21.7396 25 20.7952 25 19.6302C25 18.4652 24.0556 17.5209 22.8906 17.5209H29.8906C31.0556 17.5209 32 16.5765 32 15.4115C32 14.2465 31.0556 13.3021 29.8906 13.3021Z" fill="url(#paint3_linear_439_50094)"/>
<path d="M3.4375 11.4268H0.9375C0.41975 11.4268 0 11.8465 0 12.3643V28.6143C0 29.132 0.41975 29.5518 0.9375 29.5518H3.4375C3.95525 29.5518 4.375 29.132 4.375 28.6143V12.3643C4.375 11.8465 3.95525 11.4268 3.4375 11.4268Z" fill="url(#paint4_linear_439_50094)"/>
<defs>
<linearGradient id="paint0_linear_439_50094" x1="24.4058" y1="6.21987" x2="28.4904" y2="6.21987" gradientUnits="userSpaceOnUse">
<stop stop-color="#F0C645"/>
<stop offset="0.495" stop-color="#FAF283"/>
<stop offset="1" stop-color="#EBC944"/>
</linearGradient>
<linearGradient id="paint1_linear_439_50094" x1="25.7314" y1="10.0169" x2="30.6254" y2="10.0169" gradientUnits="userSpaceOnUse">
<stop stop-color="#F0C645"/>
<stop offset="0.495" stop-color="#FAF283"/>
<stop offset="1" stop-color="#EBC944"/>
</linearGradient>
<linearGradient id="paint2_linear_439_50094" x1="21.312" y1="4.48796" x2="23.9963" y2="4.48796" gradientUnits="userSpaceOnUse">
<stop stop-color="#F0C645"/>
<stop offset="0.495" stop-color="#FAF283"/>
<stop offset="1" stop-color="#EBC944"/>
</linearGradient>
<linearGradient id="paint3_linear_439_50094" x1="6.25" y1="17.7361" x2="32" y2="17.7361" gradientUnits="userSpaceOnUse">
<stop stop-color="#F0C645"/>
<stop offset="0.495" stop-color="#FAF283"/>
<stop offset="1" stop-color="#EBC944"/>
</linearGradient>
<linearGradient id="paint4_linear_439_50094" x1="3.87773e-10" y1="20.4493" x2="4.375" y2="20.4493" gradientUnits="userSpaceOnUse">
<stop stop-color="#F0C645"/>
<stop offset="0.495" stop-color="#FAF283"/>
<stop offset="1" stop-color="#EBC944"/>
</linearGradient>
</defs>
</svg>
