<svg width="100" height="32" viewBox="0 0 100 32" fill="none" xmlns="http://www.w3.org/2000/svg">
<g clip-path="url(#clip0_328_41511)">
<path d="M90.6056 24.8486C90.0574 24.8486 89.5396 24.8397 89.023 24.8576C88.9459 24.8576 88.8251 24.9771 88.8059 25.0579C88.6344 25.8028 88.4813 26.5526 88.3217 27.2999C88.299 27.4058 88.2715 27.5099 88.2458 27.6175H85.9474C86.1369 26.6931 86.3223 25.7933 86.5125 24.8672H83.3185C83.175 25.5374 83.0262 26.213 82.8862 26.8904C82.7325 27.6354 82.7362 27.6366 81.9894 27.636C81.5111 27.636 81.0328 27.6344 80.5545 27.6313C80.5118 27.6239 80.4698 27.6132 80.4289 27.599C80.6136 26.7021 80.7989 25.8005 80.9898 24.8726H78.9509C78.8092 25.5189 78.6579 26.1741 78.5234 26.8325C78.3596 27.6348 78.3662 27.6372 77.5519 27.636C77.0736 27.636 76.5952 27.6338 76.1169 27.6294C76.0871 27.6233 76.0581 27.6134 76.0308 27.6002L76.618 24.8498C75.8933 24.8498 75.1974 24.8438 74.5019 24.86C74.4422 24.86 74.3501 24.9952 74.331 25.08C74.1403 25.9225 73.9615 26.7673 73.7774 27.6229H71.4713C71.665 26.7039 71.8551 25.8047 72.056 24.8516C71.4958 24.8516 70.9642 24.8432 70.4333 24.8617C70.3646 24.8617 70.2809 24.9975 70.2372 25.0866C69.8187 25.938 69.2806 26.7009 68.4968 27.254C67.4804 27.9756 66.3838 28.2052 65.2018 27.7161C64.745 27.5266 64.6248 27.3634 64.1943 26.64C63.8117 28.421 63.4416 30.146 63.0679 31.8852H60.7576C61.2581 29.5457 61.7555 27.2217 62.2631 24.8481H60.7325C60.1514 24.8481 60.1562 24.8481 60.0426 25.4053C59.9081 26.0677 59.7687 26.7254 59.6187 27.3831C59.5995 27.4663 59.4991 27.5942 59.4393 27.5953C58.7344 27.6109 58.0288 27.6049 57.2725 27.6049C57.4668 26.6776 57.6528 25.7892 57.8501 24.8457C57.4142 24.8457 56.9993 24.8761 56.5909 24.8373C56.1431 24.7942 55.9105 24.9222 55.6988 25.3628C54.8349 27.1565 53.0084 28.1311 51.0394 27.9009C50.6101 27.8506 50.1684 27.7664 49.7725 27.6019C48.7627 27.1834 48.3173 26.3308 48.1583 25.2965C48.1367 25.1589 48.117 25.0214 48.0913 24.8475C47.512 24.8475 46.9373 24.8391 46.364 24.8582C46.2976 24.8582 46.2002 25.0065 46.1792 25.0974C46.01 25.8429 45.8474 26.5921 45.7009 27.3412C45.6602 27.5505 45.5759 27.6133 45.3667 27.6091C44.6492 27.5965 43.9353 27.6043 43.1653 27.6043L43.7363 24.8438H43.4115C41.7973 24.8438 40.183 24.8481 38.5686 24.8391C38.3354 24.8391 38.2476 24.8989 38.2039 25.1416C38.0694 25.8836 37.905 26.6202 37.7376 27.3538C37.7178 27.4429 37.6329 27.587 37.5761 27.5881C36.8019 27.6037 36.0276 27.5984 35.2258 27.5984L35.8536 24.6436H98.5068C98.4727 24.7632 98.4524 24.866 98.4141 24.9623C97.6171 26.9658 95.6967 28.1186 93.5502 27.9057C92.6445 27.8166 91.8361 27.5565 91.2615 26.8002C90.9154 26.3446 90.7473 25.819 90.6636 25.26C90.6457 25.1392 90.6284 25.0119 90.6056 24.8486ZM96.111 24.8654H92.8884C92.8083 25.6372 93.2662 26.1879 94.01 26.2304C94.1391 26.2375 94.2684 26.2375 94.3975 26.2304C95.2154 26.1873 95.9783 25.5584 96.111 24.8654ZM53.6008 24.8654H50.3723C50.3011 25.6629 50.7578 26.1969 51.525 26.231C51.6446 26.2364 51.7641 26.2358 51.8838 26.231C52.6747 26.1927 53.4215 25.6074 53.6014 24.866L53.6008 24.8654ZM64.7217 24.8654C64.7432 25.7252 65.2496 26.2459 66.0232 26.2292C66.6941 26.2142 67.5096 25.5835 67.7661 24.8654H64.7217Z" fill="white" fill-opacity="0.6"/>
<path d="M12.9644 4.44343H10.488C10.3714 4.00996 10.299 3.58546 10.1436 3.19384C9.85179 2.45843 9.25868 2.08355 8.48799 2.00941C6.98489 1.86352 5.70959 2.36815 4.72545 3.49757C3.20024 5.2452 2.65256 7.27206 3.19186 9.55063C3.48363 10.7811 4.33264 11.4567 5.59718 11.4579C7.30476 11.4579 8.61953 10.7207 9.52773 9.27082C9.58752 9.17994 9.62758 9.08009 9.70172 8.9372H7.31015C7.46081 8.23826 7.60132 7.58596 7.74182 6.93067H12.458C12.293 7.70434 12.1322 8.46008 11.9707 9.21521C11.713 10.4194 11.4499 11.6223 11.2036 12.8288C11.1654 13.0172 11.1002 13.0746 10.9142 13.068C10.4874 13.0555 10.0593 13.0645 9.58752 13.0645C9.62997 12.5264 9.67063 12.0103 9.71367 11.4668C9.66046 11.4938 9.62997 11.4997 9.61502 11.5177C8.31999 13.1236 6.59806 13.6228 4.61784 13.4369C3.69051 13.3508 2.83492 13.0435 2.08755 12.4756C1.0233 11.6647 0.501344 10.5461 0.389537 9.24571C0.157555 6.53845 1.052 4.20488 2.90069 2.25037C4.18017 0.899724 5.79449 0.182253 7.65633 0.031584C8.50712 -0.0371737 9.34478 -0.000702217 10.1729 0.210952C11.6676 0.587027 12.5124 1.57056 12.8 3.05453C12.8861 3.49757 12.9094 3.95555 12.9644 4.44343Z" fill="white" fill-opacity="0.6"/>
<path d="M34.3768 13.0565H32.069C32.2005 12.4138 32.3321 11.7872 32.4576 11.1588C32.717 9.86432 32.9807 8.56991 33.2235 7.27248C33.2521 7.06669 33.2344 6.85709 33.1714 6.65905C33.0435 6.20883 32.6687 6.03485 32.1437 6.15084C31.762 6.23724 31.4195 6.44745 31.1697 6.74874C30.6507 7.34662 30.4248 8.07246 30.2681 8.83C29.9931 10.1627 29.7103 11.493 29.4311 12.8246C29.4149 12.9005 29.3916 12.9752 29.3713 13.0505H27.1393C27.2589 12.458 27.3785 11.8864 27.4939 11.3166C27.7522 10.0515 28.0113 8.78675 28.2711 7.52241C28.2883 7.43461 28.2994 7.3457 28.304 7.25635C28.3238 6.85396 28.2861 6.45935 27.8914 6.23993C27.4861 6.01452 27.0772 6.11137 26.7016 6.33379C26.1952 6.63274 25.8915 7.11105 25.7343 7.65513C25.4952 8.47305 25.3158 9.3089 25.128 10.1412C24.9122 11.108 24.7185 12.0795 24.5146 13.0541H22.2031C22.7897 10.2918 23.3727 7.54572 23.9604 4.77868H26.0876C26.0404 5.07343 25.9956 5.35146 25.9393 5.70481L26.4774 5.13203C27.2547 4.30873 28.728 4.22861 29.5405 4.55806C30.0893 4.78047 30.3883 5.22411 30.5318 5.8208C31.1895 5.03696 32.0205 4.61485 32.9766 4.45282C33.3682 4.38541 33.7677 4.37796 34.1616 4.43071C35.0464 4.55506 35.5768 5.20078 35.6515 6.11258C35.7167 6.91256 35.508 7.67188 35.349 8.43898C35.0315 9.97381 34.7033 11.5068 34.3768 13.0565Z" fill="white" fill-opacity="0.6"/>
<path d="M72.072 5.68777C72.1444 5.35714 72.2066 5.07134 72.2718 4.7718H74.4714C74.3823 5.19511 74.2962 5.59689 74.2131 5.99927C73.7252 8.36155 73.2475 10.7262 72.7477 13.0855C72.2156 15.5966 70.438 16.9892 67.845 16.8929C67.2409 16.869 66.6434 16.7572 66.0716 16.5611C65.0551 16.2113 64.5237 15.2516 64.6696 14.1964C64.6809 14.1145 64.8004 13.9853 64.8722 13.9835C65.5681 13.9674 66.2648 13.974 66.9648 13.974C66.9843 14.0146 66.9982 14.0576 67.0061 14.1019C67.0061 14.7596 67.4688 15.0585 68.1289 15.0508C68.3868 15.0518 68.6444 15.0319 68.899 14.991C69.4903 14.8846 69.9316 14.5467 70.1493 13.9931C70.3723 13.4257 70.5283 12.832 70.7298 12.1994C70.2641 12.5295 69.9017 12.8571 69.4814 13.0712C68.4165 13.6128 67.3487 13.6093 66.3646 12.8679C65.6967 12.3633 65.3888 11.6302 65.329 10.8243C65.1975 9.05211 65.628 7.42166 66.7538 6.02319C67.5556 5.02769 68.5738 4.40529 69.9011 4.39752C70.8027 4.39213 71.4944 4.75625 71.9591 5.53352C71.9811 5.57178 72.0122 5.60765 72.072 5.68777ZM67.6841 9.78812C67.6763 10.2664 67.757 10.722 67.9968 11.1394C68.2719 11.6177 68.6934 11.8413 69.2195 11.6942C69.5328 11.6069 69.8712 11.4515 70.0936 11.2237C71.1639 10.1277 71.6152 8.79801 71.4006 7.27398C71.2811 6.42378 70.7154 5.97536 69.9502 6.0782C69.4855 6.13798 69.1167 6.39568 68.8207 6.74844C68.0835 7.62673 67.7547 8.66049 67.6841 9.78812Z" fill="white" fill-opacity="0.6"/>
<path d="M38.778 12.1246C38.7278 12.4014 38.6716 12.7075 38.6112 13.0399H36.4067C37.2904 8.81085 38.1757 4.57976 39.0625 0.34668H41.3734C41.0058 2.09193 40.6416 3.81446 40.2589 5.63265C40.4383 5.47241 40.5532 5.36539 40.6715 5.26017C41.462 4.55823 42.391 4.25092 43.4272 4.42312C44.5441 4.61025 45.1611 5.38931 45.4469 6.42486C45.8917 8.03916 45.5067 9.53748 44.6792 10.9378C44.0813 11.9422 43.3041 12.7757 42.1937 13.2169C41.2694 13.5858 40.3475 13.5099 39.52 12.9461C39.2252 12.7469 39.0255 12.4062 38.778 12.1246ZM43.1803 7.81974C43.1157 7.56563 43.0488 7.13157 42.8921 6.73277C42.8091 6.52729 42.6623 6.35396 42.4732 6.23842C42.2841 6.12289 42.0629 6.07127 41.8422 6.09123C41.404 6.13548 41.0051 6.28554 40.696 6.60662C39.5995 7.74979 39.2402 9.13929 39.4525 10.6722C39.5648 11.4818 40.1394 11.8537 40.9436 11.6887C41.2717 11.6162 41.5739 11.4556 41.8177 11.2241C42.7205 10.3488 43.0696 9.22479 43.1803 7.81794V7.81974Z" fill="white" fill-opacity="0.6"/>
<path d="M37.9012 14.9355H40.3419C39.9915 16.5959 39.6465 18.2323 39.2944 19.8981C39.4307 19.904 39.5371 19.913 39.6441 19.913C41.228 19.913 42.813 19.9017 44.3956 19.9196C44.7118 19.9232 44.8141 19.8197 44.8739 19.5249C45.1633 18.0745 45.4748 16.6288 45.7803 15.1813C45.7965 15.1042 45.824 15.0294 45.8514 14.9355H48.3106C48.1097 15.9012 47.913 16.8596 47.7126 17.8162C47.3008 19.7683 46.8822 21.7198 46.4763 23.6756C46.4356 23.871 46.362 23.9368 46.1636 23.9338C45.4389 23.9237 44.7137 23.9296 43.9424 23.9296C44.0775 23.2642 44.2043 22.6376 44.3352 21.9919C44.2156 21.9865 44.1301 21.9781 44.0422 21.9781C42.4184 21.9781 40.7944 21.9823 39.1712 21.9728C38.932 21.9728 38.8466 22.0421 38.8077 22.2764C38.7293 22.7548 38.6217 23.2331 38.5088 23.7036C38.4872 23.7916 38.3724 23.9195 38.2982 23.9212C37.5527 23.9374 36.8071 23.9309 36.0054 23.9309C36.6355 20.9216 37.2633 17.9459 37.9012 14.9355Z" fill="white" fill-opacity="0.6"/>
<path d="M20.7605 13.0497H18.2792C18.2506 12.7161 18.223 12.3956 18.1943 12.0555C17.8715 12.3269 17.5964 12.6001 17.2807 12.8172C16.2721 13.5119 15.1743 13.6028 14.039 13.1951C13.3071 12.9326 12.9395 12.3514 12.8844 11.5993C12.7505 9.7679 13.8919 8.37062 15.7107 8.11233C16.5657 7.98976 17.423 7.88035 18.2774 7.75359C18.463 7.71931 18.6437 7.66249 18.8155 7.5844C19.1677 7.4379 19.3441 7.1856 19.3237 6.88904C19.298 6.51775 19.102 6.22299 18.7139 6.18054C18.2233 6.12802 17.7283 6.13083 17.2383 6.18891C16.7146 6.2487 16.4957 6.66723 16.3773 7.14553H14.2249C14.2847 6.9285 14.3152 6.72701 14.3887 6.54047C14.824 5.44334 15.6622 4.79761 16.7803 4.53693C17.9881 4.25532 19.1946 4.29 20.3342 4.83588C21.0684 5.18864 21.5073 5.78115 21.4182 6.62657C21.3225 7.53357 21.1826 8.43698 21.023 9.33502C20.8663 10.2145 20.6571 11.0838 20.4765 11.9586C20.3832 12.4297 20.4179 12.5552 20.7605 13.0497ZM18.9004 8.72218C18.8474 8.73748 18.7956 8.75626 18.7449 8.77838C18.1321 9.12856 17.4561 9.3541 16.7558 9.44204C15.8159 9.56162 15.3154 10.1254 15.3167 10.9367C15.3167 11.335 15.4907 11.561 15.8793 11.6716C16.3124 11.7957 16.7736 11.7789 17.1964 11.6233C17.6192 11.4677 17.9815 11.1816 18.2308 10.8065C18.6565 10.1859 18.7605 9.47194 18.9004 8.72218Z" fill="white" fill-opacity="0.6"/>
<path d="M59.1399 4.73043C59.0867 5.08617 59.0395 5.40365 58.9916 5.72114L59.0418 5.75402C59.1979 5.59139 59.3409 5.41621 59.5112 5.26793C60.5533 4.35255 61.7659 4.19173 63.0561 4.54628C63.8429 4.76272 64.3152 5.42877 64.2681 6.3286C64.2244 7.16564 64.0768 8.00269 63.9195 8.83077C63.6636 10.1766 63.364 11.5135 63.0824 12.854C63.0633 12.9224 63.0404 12.9896 63.0137 13.0555H60.7232C61.0287 11.5859 61.3324 10.1294 61.6343 8.67293C61.7127 8.29387 61.7731 7.91122 61.8622 7.53694C62.1306 6.40094 61.2595 5.83713 60.2281 6.17553C59.5244 6.40632 59.0521 6.90975 58.8027 7.56982C58.5594 8.21554 58.407 8.89834 58.2533 9.57336C57.9913 10.7243 57.7594 11.8824 57.5118 13.0519H55.2046C55.3116 12.5216 55.4144 12.0008 55.5227 11.4818C55.9747 9.31347 56.4287 7.14631 56.8846 4.98035C56.9038 4.89007 56.9852 4.74119 57.0401 4.74119C57.7325 4.72325 58.4255 4.73043 59.1399 4.73043Z" fill="white" fill-opacity="0.6"/>
<path d="M48.5569 13.0569H46.2449C47.1494 8.81659 48.0511 4.59008 48.9557 0.348633H51.2684C50.3625 4.59427 49.4609 8.82077 48.5569 13.0569Z" fill="white" fill-opacity="0.6"/>
<path d="M48.0725 23.9294C48.2107 23.4248 48.2949 22.9657 48.4605 22.5376C49.086 20.9233 50.1347 19.7 51.8178 19.1296C52.6829 18.8402 53.6158 18.8221 54.4915 19.0775C55.7549 19.4303 56.5172 20.4701 56.5029 21.8476C56.4963 22.4808 56.3899 23.1128 56.339 23.7465C56.3235 23.9426 56.2009 23.9288 56.0682 23.9259H48.0725V23.9294ZM50.9137 22.2517H54.3815C54.366 22.0222 54.372 21.8129 54.3349 21.6114C54.2153 20.949 53.9098 20.6674 53.2342 20.6159C52.9766 20.6022 52.7184 20.6203 52.4653 20.6698C51.6993 20.806 51.0238 21.4972 50.9137 22.2517Z" fill="white" fill-opacity="0.6"/>
<path d="M98.8682 23.911H90.6504C90.6659 23.7272 90.6914 23.5443 90.7269 23.3633C91.1885 21.5098 92.1792 20.0618 93.9699 19.2672C94.9397 18.8366 95.9609 18.8085 96.9785 19.071C98.2185 19.3902 98.9903 20.3971 99.011 21.7615C99.0208 22.4724 98.9194 23.1846 98.8682 23.911ZM93.427 22.2524H96.8727C96.8727 22.0431 96.8936 21.853 96.8685 21.6688C96.8153 21.2839 96.6837 20.9394 96.2987 20.7499C95.2022 20.2089 93.6339 21.0225 93.4252 22.2524H93.427Z" fill="white" fill-opacity="0.6"/>
<path d="M89.0115 23.9117H86.7252C86.8514 23.2599 86.9901 22.6316 87.0917 21.9985C87.2442 21.0418 86.6463 20.4942 85.6861 20.6831C84.9441 20.8301 84.4149 21.281 84.1208 21.9471C83.8702 22.5132 83.74 23.1326 83.5444 23.7246C83.5175 23.8046 83.4249 23.9194 83.3573 23.9206C82.6518 23.935 81.9463 23.9296 81.1929 23.9296C81.285 23.4794 81.3723 23.0645 81.4554 22.6502C81.6718 21.6098 81.8858 20.5683 82.1131 19.5303C82.1322 19.4431 82.2386 19.3104 82.3068 19.3085C82.983 19.2917 83.6592 19.2983 84.3575 19.2983C84.3073 19.6403 84.2607 19.9602 84.2003 20.371C84.3271 20.2358 84.3952 20.1593 84.467 20.0857C85.5193 19.0035 86.7988 18.7196 88.22 19.0969C89.1933 19.3546 89.5592 20.1067 89.4958 21.1356C89.4402 22.0325 89.2082 22.9162 89.0534 23.8052C89.0433 23.8421 89.0292 23.8778 89.0115 23.9117Z" fill="white" fill-opacity="0.6"/>
<path d="M64.666 23.9153H62.4658C62.8025 22.3429 63.1343 20.7967 63.4661 19.2517H65.6837C65.6102 19.5632 65.5402 19.8568 65.4517 20.2293C65.6651 20.0499 65.8105 19.9142 65.9724 19.794C66.8514 19.1315 67.8194 18.7525 68.9279 19.0329C69.9264 19.2858 70.4382 20.0493 70.7359 20.9725C71.0282 21.8801 70.9708 22.7978 70.7359 23.7084C70.7143 23.7933 70.6127 23.9194 70.5464 23.9213C69.7913 23.9362 69.0355 23.9308 68.3024 23.9308C68.3623 23.4226 68.4513 22.9359 68.4699 22.4468C68.4729 22.1388 68.426 21.8323 68.3312 21.5392C68.098 20.762 67.5103 20.463 66.7288 20.6944C66.1644 20.8625 65.7513 21.229 65.4583 21.7204C65.2592 22.0521 65.0926 22.4023 64.9608 22.7661C64.8311 23.126 64.7659 23.5117 64.666 23.9153Z" fill="white" fill-opacity="0.6"/>
<path d="M72.2556 23.9316C72.9031 20.8937 73.5399 17.9078 74.1797 14.9082H76.4887C76.3822 15.4188 76.2818 15.9114 76.1766 16.4029C75.6624 18.81 75.144 21.2159 74.637 23.6243C74.5868 23.8635 74.4971 23.9466 74.2454 23.9388C73.6003 23.9161 72.9539 23.9316 72.2556 23.9316Z" fill="white" fill-opacity="0.6"/>
<path d="M59.9529 14.9355H62.2649C62.1196 15.6213 61.9785 16.288 61.8368 16.954C61.3585 19.1956 60.8802 21.4382 60.4121 23.6797C60.3696 23.8854 60.2924 23.9356 60.1011 23.9333C59.4357 23.9243 58.7702 23.9296 58.0461 23.9296C58.6859 20.9115 59.3185 17.9298 59.9529 14.9355Z" fill="white" fill-opacity="0.6"/>
<path d="M52.5945 4.74512H54.9204C54.8307 5.16365 54.7463 5.55944 54.6614 5.95406C54.1656 8.24438 53.6674 10.5347 53.1667 12.825C53.147 12.9142 53.0472 13.0528 52.9808 13.0541C52.2633 13.0708 51.5495 13.0648 50.7966 13.0648L52.5945 4.74512Z" fill="white" fill-opacity="0.6"/>
<path d="M80.1438 19.3115C79.9268 20.3279 79.7181 21.3037 79.5076 22.2812C79.403 22.7656 79.2984 23.2498 79.1812 23.7312C79.1626 23.8065 79.0771 23.9219 79.0209 23.9231C78.3034 23.9356 77.5919 23.9314 76.8213 23.9314C77.1579 22.3691 77.4868 20.8439 77.8174 19.3115H80.1438Z" fill="white" fill-opacity="0.6"/>
<path d="M55.1994 3.25511H52.8677C53.038 2.47785 53.2036 1.72391 53.3711 0.958008H55.6957C55.5295 1.73347 55.3656 2.48981 55.1994 3.25511Z" fill="white" fill-opacity="0.6"/>
<path d="M80.4164 17.8364H78.0901C78.2598 17.0592 78.4249 16.3076 78.5917 15.543H80.9193C80.7501 16.3166 80.5845 17.0699 80.4164 17.8364Z" fill="white" fill-opacity="0.6"/>
<path d="M71.3235 29.6199H71.7253C71.7557 30.1969 71.7851 30.7559 71.815 31.3191L71.8748 31.34L72.9121 29.9051C72.9641 29.8322 73.0029 29.7371 73.0735 29.6934C73.1611 29.6376 73.2641 29.611 73.3676 29.6175C73.4161 29.6228 73.4747 29.7419 73.4873 29.8166C73.5758 30.3248 73.6535 30.833 73.7486 31.4309C73.9327 31.1386 74.0791 30.9095 74.2215 30.6782C74.3937 30.3989 74.5736 30.1239 74.7285 29.8351C74.8409 29.6259 74.9826 29.55 75.2427 29.6396C75.107 29.8573 74.9796 30.0653 74.8493 30.2716C74.5413 30.7601 74.2388 31.2522 73.9166 31.7304C73.8802 31.7766 73.8345 31.8144 73.7823 31.8412C73.73 31.868 73.6727 31.8832 73.614 31.8859C73.5542 31.8859 73.4688 31.7286 73.449 31.6306C73.3503 31.138 73.2697 30.6411 73.1674 30.057C72.8493 30.4923 72.5779 30.8629 72.307 31.2342C72.2018 31.3795 72.0882 31.5194 71.9974 31.673C71.8814 31.8674 71.7372 31.9672 71.4831 31.8674C71.4321 31.1372 71.3789 30.388 71.3235 29.6199Z" fill="white" fill-opacity="0.6"/>
<path d="M93.6249 31.8672C93.3361 31.9599 93.1693 31.8762 93.021 31.6281C92.7119 31.1108 92.3633 30.6152 91.9974 30.055C91.8384 30.6188 91.6859 31.1097 91.5669 31.6095C91.5072 31.8487 91.4157 31.9616 91.1419 31.8798C91.1414 31.8088 91.1476 31.7379 91.1604 31.6681C91.3212 31.0637 91.4815 30.4592 91.6554 29.8589C91.6829 29.7626 91.7851 29.6126 91.8438 29.6168C91.9717 29.6263 92.1385 29.6855 92.2109 29.7824C92.5481 30.238 92.8584 30.7138 93.1794 31.1814C93.2237 31.246 93.274 31.3058 93.3588 31.4206C93.4838 30.9668 93.598 30.562 93.7056 30.1567C93.7319 30.0609 93.7504 29.963 93.7761 29.8673C93.8503 29.5934 93.8508 29.5934 94.2198 29.6281C94.0183 30.3803 93.8186 31.1294 93.6249 31.8672Z" fill="white" fill-opacity="0.6"/>
<path d="M94.5286 31.8922C94.7265 31.1496 94.9088 30.4501 95.105 29.7541C95.1205 29.7169 95.145 29.6839 95.1763 29.6583C95.2076 29.6327 95.2447 29.615 95.2843 29.6071C95.7411 29.6071 96.2026 29.5867 96.6541 29.6435C97.3375 29.7296 97.6107 30.2414 97.3554 30.8812C97.1162 31.479 96.6678 31.8342 96.028 31.885C95.5462 31.9227 95.0601 31.8922 94.5286 31.8922ZM94.9919 31.6106C95.3016 31.6106 95.5689 31.6106 95.8361 31.6106C96.0815 31.613 96.3219 31.542 96.5266 31.4067C96.7313 31.2714 96.8908 31.078 96.9847 30.8512C97.1682 30.4118 97.0032 30.0333 96.5369 29.9389C96.1907 29.8683 95.8289 29.8761 95.4565 29.8474C95.2992 30.4482 95.1503 31.0102 94.9919 31.6106Z" fill="white" fill-opacity="0.6"/>
<path d="M67.1634 31.4395C67.3164 30.8667 67.4624 30.3632 67.5819 29.8598C67.6375 29.6255 67.7403 29.5334 68.0202 29.6476C67.8241 30.3819 67.6268 31.1226 67.4289 31.8598C67.1532 31.9483 66.9817 31.8867 66.8309 31.6344C66.5219 31.1154 66.1733 30.618 65.802 30.0505C65.6191 30.6999 65.4546 31.2841 65.286 31.8813H64.9111C65.1133 31.1249 65.3124 30.3806 65.509 29.6416C65.7763 29.522 65.9353 29.6278 66.0812 29.852C66.4166 30.3692 66.7724 30.8697 67.1634 31.4395Z" fill="white" fill-opacity="0.6"/>
<path d="M79.5369 29.682C79.452 29.7908 79.3856 29.9212 79.2798 30.0055C78.7004 30.4581 78.1115 30.8981 77.5261 31.3436C77.4413 31.4075 77.3605 31.4763 77.2075 31.5989H78.9414L78.9934 31.704C78.9049 31.7686 78.814 31.8877 78.7274 31.89C78.0218 31.9056 77.3163 31.8984 76.5085 31.8984C76.6473 31.7256 76.7208 31.588 76.8326 31.5008C77.4305 31.0375 78.0356 30.5872 78.6377 30.1316C78.722 30.0676 78.8045 30.0007 78.9516 29.8847H77.3128L77.2529 29.7914C77.3379 29.7268 77.4216 29.6085 77.5076 29.6067C78.1654 29.5912 78.8177 29.5983 79.4729 29.5983C79.4957 29.6258 79.5148 29.6551 79.5369 29.682Z" fill="white" fill-opacity="0.6"/>
<path d="M82.1359 29.5999C82.2064 29.8139 82.1245 29.8749 81.9427 29.8713C81.6146 29.8659 81.2851 29.8887 80.958 29.8647C80.7003 29.8461 80.5694 29.928 80.5455 30.1876C80.5279 30.3036 80.5034 30.4184 80.4719 30.5313H81.7185C81.743 30.7765 81.6378 30.8417 81.4292 30.8303C81.1613 30.8166 80.8911 30.8387 80.6244 30.8226C80.439 30.8111 80.3518 30.8823 80.3195 31.0569C80.2872 31.2315 80.2471 31.4031 80.2041 31.607H81.6474C81.6277 31.7188 81.6133 31.8007 81.5984 31.8873H79.7449C79.9243 31.1585 80.0971 30.4464 80.283 29.735C80.2979 29.6752 80.4074 29.604 80.4744 29.6028C81.0298 29.5956 81.5858 29.5999 82.1359 29.5999Z" fill="white" fill-opacity="0.6"/>
<path d="M68.8272 31.6095H70.2621L70.3148 31.6902C70.2412 31.7595 70.1689 31.8868 70.093 31.8887C69.528 31.906 68.9617 31.8983 68.374 31.8983C68.5534 31.1706 68.7292 30.4681 68.9121 29.7685C68.9294 29.7022 69.0227 29.6095 69.0826 29.6078C69.6481 29.5957 70.2144 29.6006 70.7751 29.6006C70.8409 29.8236 70.7441 29.8732 70.5695 29.8708C70.1426 29.8666 69.7157 29.8708 69.2679 29.8708L69.1005 30.5368H70.3823C70.3518 30.6462 70.3292 30.7293 70.3022 30.8274C69.9566 30.8274 69.6182 30.8424 69.2816 30.8221C69.0628 30.8083 68.9827 30.8998 68.9492 31.0959C68.9241 31.2501 68.8775 31.4014 68.8272 31.6095Z" fill="white" fill-opacity="0.6"/>
<path d="M84.7923 31.8878H84.4413C84.4222 31.8608 84.4049 31.8471 84.4001 31.8279C84.2656 31.2803 84.3779 31.3873 83.8357 31.3729C83.6964 31.3694 83.5553 31.3861 83.4171 31.3729C83.0363 31.3293 82.7265 31.3999 82.5107 31.7682C82.4509 31.8711 82.2411 31.8878 82.1 31.941L82.0498 31.8555C82.1901 31.6805 82.331 31.5055 82.4725 31.3305C82.891 30.8115 83.3006 30.2854 83.734 29.7802C83.8201 29.6804 83.9965 29.6242 84.1346 29.6182C84.1944 29.6182 84.2889 29.7892 84.314 29.8956C84.4808 30.5472 84.6309 31.2044 84.7923 31.8878ZM83.9899 29.8943C83.6557 30.3357 83.3729 30.7081 83.0626 31.1183H84.247C84.1645 30.7278 84.0862 30.3548 83.9899 29.8943Z" fill="white" fill-opacity="0.6"/>
<path d="M90.4764 31.8673C90.208 31.9444 90.0579 31.8996 90.043 31.6192C90.0346 31.4273 89.9276 31.3531 89.7285 31.3699C89.5108 31.3922 89.2914 31.3922 89.0737 31.3699C88.6935 31.3238 88.4161 31.4326 88.2003 31.7674C88.1339 31.8702 87.9318 31.887 87.7925 31.9402C87.7776 31.9115 87.7626 31.8804 87.7471 31.8541C87.9109 31.6466 88.0717 31.4356 88.2379 31.2311C88.6368 30.7366 89.0295 30.2374 89.445 29.7573C89.4954 29.7096 89.5547 29.6726 89.6197 29.6485C89.6846 29.6243 89.7537 29.6136 89.8229 29.6167C89.8905 29.621 89.9772 29.7884 90.0023 29.8948C90.1691 30.5465 90.3192 31.2018 90.4764 31.8673ZM89.9437 31.1247C89.854 30.7193 89.7709 30.3438 89.6746 29.9061L88.7444 31.1247H89.9437Z" fill="white" fill-opacity="0.6"/>
<path d="M85.9124 31.6129H87.3539L87.4041 31.6925C87.327 31.7612 87.2517 31.8867 87.1721 31.8892C86.6077 31.9065 86.0422 31.8981 85.4436 31.8981C85.6427 31.1579 85.8269 30.441 86.0373 29.732C86.0618 29.6512 86.2358 29.6153 86.3399 29.5586L86.4277 29.6345C86.2627 30.2766 86.0953 30.9187 85.9124 31.6129Z" fill="white" fill-opacity="0.6"/>
</g>
<defs>
<clipPath id="clip0_328_41511">
<rect width="98.6585" height="32" fill="white" transform="translate(0.353516)"/>
</clipPath>
</defs>
</svg>
