<svg width="213" height="32" viewBox="0 0 213 32" fill="none" xmlns="http://www.w3.org/2000/svg">
<g clip-path="url(#clip0_328_41541)">
<path d="M4.76553 15.7882C4.76553 19.0986 6.20849 20.9659 8.83979 20.9659C11.3013 20.9659 13.1687 18.759 13.1687 15.6184C13.1687 12.6476 11.4711 10.4407 9.17931 10.4407C6.46312 10.5256 4.76553 12.5628 4.76553 15.7882ZM13.0838 22.0694C12.3199 22.9182 10.792 24.7855 7.48169 24.7855C3.15278 24.7855 0.012207 21.0508 0.012207 15.7033C0.012207 10.3559 3.23768 6.62109 7.82124 6.62109C9.60373 6.62109 11.0467 7.30015 13.1687 8.99777V7.0455H19.4499V10.6105H17.7523V24.8704C17.7523 29.2842 14.4419 31.9155 8.83979 31.9155C6.12361 31.9155 4.00159 31.3214 2.47374 30.0482C1.28541 29.1145 0.776122 28.1808 0.266839 25.9739H4.76553C5.35969 27.6715 6.63289 28.4354 8.7549 28.4354C11.3862 28.4354 13.1687 27.0773 13.1687 24.9553C13.0838 24.9553 13.0838 22.0694 13.0838 22.0694Z" fill="white" fill-opacity="0.6"/>
<path d="M32.2668 16.8066C27.9378 17.231 25.0519 17.5705 25.0519 20.2018C25.0519 21.7297 26.2402 22.7482 28.1076 22.7482C30.4843 22.7482 32.2668 20.9658 32.2668 18.674C32.2668 18.5891 32.2668 16.8066 32.2668 16.8066ZM36.5957 21.9843H38.2084V25.5493H32.4365V23.3424C30.5692 25.2947 29.1262 25.8888 26.8344 25.8888C23.0997 25.8888 20.2986 23.4273 20.2986 20.1169C20.2986 14.6846 26.41 14.0904 32.3516 13.4963C32.3516 10.6103 31.5877 9.93126 28.9564 9.93126C27.089 9.93126 25.731 11.0347 25.6461 12.7323L21.1474 12.5626C21.402 8.82781 24.3729 6.45117 28.7866 6.45117C33.8795 6.45117 36.6806 8.74293 36.6806 12.987L36.5957 21.9843Z" fill="white" fill-opacity="0.6"/>
<path d="M45.5932 9.2524C47.5454 7.13038 48.8186 6.62109 50.9407 6.62109C53.0627 6.62109 54.1661 7.38501 55.3544 9.50703C56.2881 8.57334 57.9858 6.62109 60.9566 6.62109C63.9274 6.62109 65.9645 8.74312 65.9645 11.8837V22.0694H67.6621V25.6344H61.381V13.072C61.381 11.4593 60.6171 10.4407 59.4287 10.4407C57.5613 10.4407 55.7789 12.9023 55.7789 15.4487V21.8996H57.5613V25.4646H51.1953V13.2418C51.1953 11.3744 50.6011 10.4407 49.243 10.4407C47.2059 10.4407 45.4234 12.9023 45.5083 15.8731V21.8996H47.2908V25.4646H39.3969V21.8996H40.9247V10.6105H39.312V7.0455H45.4234V9.2524H45.5932Z" fill="white" fill-opacity="0.6"/>
<path d="M74.9618 16.382C74.9618 20.2016 76.4896 22.2387 79.4604 22.2387C82.0068 22.2387 83.6196 19.9469 83.6196 16.2971C83.6196 12.6472 82.0068 10.3554 79.4604 10.3554C76.5745 10.3554 74.9618 12.5623 74.9618 16.382ZM68.7655 0H75.0466V9.08221C76.914 7.21484 78.357 6.45093 80.3092 6.45093C84.9777 6.45093 88.288 10.4403 88.288 16.0424C88.288 21.9841 85.1474 25.9735 80.5639 25.9735C78.2721 25.9735 76.9989 25.3793 74.8769 23.5119V25.5491H68.5957V21.9841H70.548V3.56497H68.7655V0Z" fill="white" fill-opacity="0.6"/>
<path d="M89.3916 0H95.6728V21.9841H97.4553V25.5491H89.3916V21.9841H91.1741V3.56497H89.3916V0Z" fill="white" fill-opacity="0.6"/>
<path d="M111.036 14.0056C110.697 11.629 109.338 10.3558 107.132 10.3558C105.094 10.3558 103.567 11.7139 102.972 14.0056H111.036ZM115.789 19.5229C114.941 23.5123 111.63 26.0587 107.047 26.0587C101.869 26.0587 98.0493 21.9844 98.0493 16.2974C98.0493 10.6953 101.869 6.53613 107.132 6.53613C110.102 6.53613 112.649 7.89422 114.262 10.3558C115.959 12.9871 116.044 15.4486 116.129 17.316H102.718C103.142 22.1542 106.283 22.4088 107.216 22.4088C109.084 22.4088 110.272 21.56 111.036 19.6078L115.789 19.5229Z" fill="white" fill-opacity="0.6"/>
<path d="M129.54 16.1276L127.927 16.3822C124.532 16.8915 123.089 17.4008 122.155 18.3345C121.646 18.8437 121.392 19.5228 121.392 20.1169C121.392 21.8145 122.835 23.2575 124.617 23.2575C127.163 23.2575 129.54 20.9658 129.54 18.674V16.1276ZM129.54 23.0878C127.843 24.6156 126.315 25.9737 123.259 25.9737C119.779 25.9737 117.232 23.5971 117.232 20.3716C117.232 18.9286 117.742 17.7403 118.591 16.7217C120.033 15.2787 122.071 14.5997 126.994 14.0904L129.455 13.8358V12.6474C129.455 10.5254 128.097 9.33711 125.551 9.33711C123.259 9.33711 122.155 10.1859 121.731 12.3928H117.911C118.166 10.4406 118.675 9.42198 119.694 8.40342C121.137 7.13021 123.174 6.45117 125.805 6.45117C130.389 6.45117 133.105 8.74294 133.105 12.6474V22.5785H135.312V25.5493H129.455L129.54 23.0878Z" fill="white" fill-opacity="0.6"/>
<path d="M135.057 6.95996H142.187V9.93078H140.15L143.206 22.4931L146.771 6.95996H150.251L153.816 22.4931L156.872 9.93078H154.835V6.95996H161.88V9.93078H160.012L155.768 25.5488H151.864L148.469 11.6284L145.158 25.5488H141.169L136.84 9.93078H135.057V6.95996Z" fill="white" fill-opacity="0.6"/>
<path d="M174.866 16.1276L173.254 16.3822C169.858 16.8915 168.415 17.4008 167.482 18.3345C166.972 18.8437 166.718 19.5228 166.718 20.1169C166.718 21.8145 168.161 23.2575 169.943 23.2575C172.49 23.2575 174.866 20.9658 174.866 18.674V16.1276ZM174.866 23.0878C173.169 24.6156 171.641 25.9737 168.67 25.9737C165.19 25.9737 162.644 23.5971 162.644 20.3716C162.644 18.9286 163.153 17.7403 164.002 16.7217C165.445 15.2787 167.482 14.5997 172.405 14.0904L174.866 13.8358V12.6474C174.866 10.5254 173.508 9.33711 170.962 9.33711C168.67 9.33711 167.567 10.1859 167.142 12.3928H163.323C163.577 10.4406 164.087 9.42198 165.105 8.40342C166.548 7.13021 168.585 6.45117 171.216 6.45117C175.8 6.45117 178.516 8.74294 178.516 12.6474V22.5785H180.723V25.5493H174.866V23.0878Z" fill="white" fill-opacity="0.6"/>
<path d="M187.683 11.1197C188.702 8.91281 189.805 6.53613 193.116 6.53613C193.795 6.53613 194.134 6.62103 194.898 6.79079V10.2709C193.965 10.1011 193.625 10.0162 193.116 10.0162C188.957 10.0162 187.768 14.1754 187.768 15.5335V22.5786H189.89V25.5494H181.996V22.5786H184.118V9.8465H181.996V6.96054H187.683V11.1197Z" fill="white" fill-opacity="0.6"/>
<path d="M208.309 14.43C208.139 11.3743 206.697 9.67673 204.15 9.67673C200.33 9.67673 199.227 13.9208 199.227 14.43H208.309ZM212.129 19.8624C211.365 21.7298 209.498 25.9738 204.15 25.9738C198.887 25.9738 195.323 21.9844 195.323 16.0428C195.323 10.5255 199.142 6.53613 204.235 6.53613C207.206 6.53613 212.468 8.23376 212.468 16.9765H199.057C199.227 21.1356 201.858 22.8332 204.32 22.8332C206.272 22.8332 207.46 21.8995 208.139 19.7775H212.129V19.8624Z" fill="white" fill-opacity="0.6"/>
</g>
<defs>
<clipPath id="clip0_328_41541">
<rect width="212.371" height="32" fill="white" transform="translate(0.012207)"/>
</clipPath>
</defs>
</svg>
