<svg width="30" height="32" viewBox="0 0 30 32" fill="none" xmlns="http://www.w3.org/2000/svg">
<g clip-path="url(#clip0_328_41494)">
<path d="M28.3415 15.3318C28.246 15.284 28.1027 15.2362 27.9594 15.1885C27.9116 15.1885 27.9116 15.1885 27.8639 15.1885H27.8161H27.7684C27.7206 15.1885 27.6728 15.1885 27.6251 15.1885H18.9803C18.3594 15.1885 17.8818 15.6661 17.8818 16.287C17.8818 16.9079 18.3594 17.3855 18.9803 17.3855H22.3236C22.4191 17.3855 22.5146 17.481 22.5146 17.5765C22.5146 17.6243 22.4669 17.6721 22.4191 17.7198C20.5564 18.7228 18.2161 19.2959 15.5892 19.2959C14.9684 19.2959 14.3475 19.2482 13.7266 19.2004V21.7318C14.2519 21.7795 14.7773 21.7795 15.3027 21.7795C18.9325 21.7795 22.2281 20.9198 24.6639 19.4392C24.7116 19.4392 24.7116 19.3915 24.7594 19.3915C24.9027 19.3915 24.9982 19.487 24.9982 19.6303V19.678L24.4728 21.0631C24.1863 21.7795 24.5683 22.5915 25.3325 22.878C25.4758 22.9258 25.6669 22.9735 25.8101 22.9735C26.3833 22.9735 26.9087 22.6392 27.1475 22.0661L29.0101 17.0034C29.2967 16.3825 29.0101 15.6661 28.3415 15.3318Z" fill="white" fill-opacity="0.6"/>
<path d="M15.6372 5.82709C18.2641 5.82709 20.6521 6.44798 22.5148 7.45097C22.5148 7.45097 23.7088 8.31067 24.2342 7.49873C24.8551 6.54351 23.6133 5.97037 23.6133 5.97037C21.3208 4.87186 18.4551 4.25098 15.3984 4.25098C14.873 4.25098 14.3476 4.25096 13.8223 4.29873V5.92262C14.3954 5.8271 15.0163 5.82709 15.6372 5.82709Z" fill="white" fill-opacity="0.6"/>
<path d="M2.31173 0C1.26098 0 0.353516 0.859704 0.353516 1.95821V23.3075C0.353516 24.406 1.21322 25.2657 2.31173 25.2657H13.7744V21.7313C6.8968 21.2537 1.54755 17.5284 1.54755 12.9911C1.54755 8.45374 6.8968 4.77613 13.7744 4.25076V0H2.31173Z" fill="white" fill-opacity="0.6"/>
<path d="M4.98633 12.5617C4.98633 15.9049 8.75946 18.6751 13.7744 19.2005V5.92285C8.80722 6.44822 4.98633 9.21837 4.98633 12.5617Z" fill="white" fill-opacity="0.6"/>
<path d="M4.84306 29.7076C4.7953 31.0926 3.84009 32.0001 2.5983 32.0001C1.92964 32.0001 1.35651 31.7613 0.926656 31.2359C0.544566 30.8061 0.353516 30.2807 0.353516 29.6598C0.353516 29.0389 0.592319 28.4658 1.02217 28.0359C1.45202 27.6061 1.97739 27.415 2.64605 27.415C3.55351 27.415 4.26993 27.8449 4.60426 28.6091H3.79233C3.50576 28.227 3.07591 28.0359 2.5983 28.0359C2.16845 28.0359 1.78635 28.1792 1.49978 28.5135C1.16545 28.8479 1.02217 29.2777 1.02217 29.7076C1.02217 30.1852 1.16545 30.615 1.45202 30.9016C1.73858 31.2359 2.16845 31.3792 2.5983 31.3792C3.26695 31.3792 3.79232 31.0449 4.12665 30.3285H2.12069V29.7076H4.84306Z" fill="white" fill-opacity="0.6"/>
<path d="M5.55952 31.9047H4.89087L6.61028 27.4629H7.23116L8.95057 31.9047H8.23415L7.75654 30.6151H6.03713L5.55952 31.9047ZM6.89685 28.3226L6.27594 29.9942H7.51773L6.89685 28.3226Z" fill="white" fill-opacity="0.6"/>
<path d="M9.18945 31.9047V27.4629H10.1447L11.4342 30.9017L12.7238 27.4629H13.679V31.9047H13.0581L13.1059 28.0838L11.673 31.9047H11.1954L9.76259 28.0838L9.81034 31.9047H9.18945Z" fill="white" fill-opacity="0.6"/>
<path d="M16.4967 32C15.8281 32 15.3027 31.7612 14.8728 31.2836C14.443 30.8537 14.252 30.2806 14.252 29.6597C14.252 29.0388 14.4908 28.4657 14.9206 28.0358C15.3505 27.606 15.9236 27.3672 16.5445 27.3672C17.5952 27.3672 18.4549 28.0358 18.7415 29.1343H17.5475C17.3087 28.7045 16.9743 28.4657 16.4967 28.4657C15.8281 28.4657 15.3027 28.9911 15.3027 29.612C15.3027 30.3284 15.8281 30.8537 16.449 30.8537C16.8788 30.8537 17.2131 30.6149 17.4519 30.2329H18.646C18.4072 31.3314 17.5475 32 16.4967 32Z" fill="white" fill-opacity="0.6"/>
<path d="M19.7924 31.9047H18.5984L20.3178 27.4629H21.2253L22.9446 31.9047H21.7506L21.5118 31.2838H20.0312L19.7924 31.9047ZM20.7476 28.9435L20.3178 30.3763H21.1775L20.7476 28.9435Z" fill="white" fill-opacity="0.6"/>
<path d="M22.9446 31.9047V27.4629H24.4252C24.9028 27.4629 25.2371 27.5107 25.5237 27.7017C25.9058 27.9883 26.1446 28.3704 26.1446 28.9435C26.1446 29.6599 25.7625 30.1853 25.1416 30.3763L26.2401 31.9047H24.9028L24.0431 30.4719V31.9047H22.9446ZM24.2819 29.5166C24.8073 29.5166 25.0938 29.3733 25.0938 28.9913C25.0938 28.6092 24.855 28.4659 24.3774 28.4659H24.0909V29.5166H24.2819Z" fill="white" fill-opacity="0.6"/>
<path d="M26.7178 31.9047V27.4629H29.1058V28.4181H27.7685V29.1345H29.1058V30.1375H27.7685V30.9017H29.1058V31.8569H26.7178V31.9047Z" fill="white" fill-opacity="0.6"/>
</g>
<defs>
<clipPath id="clip0_328_41494">
<rect width="28.8" height="32" fill="white" transform="translate(0.353516)"/>
</clipPath>
</defs>
</svg>
