<svg width="14" height="14" viewBox="0 0 14 14" fill="none" xmlns="http://www.w3.org/2000/svg">
<g clip-path="url(#clip0_348_74139)">
<path fill-rule="evenodd" clip-rule="evenodd" d="M6.99992 0.583984C3.45617 0.583984 0.583252 3.4569 0.583252 7.00065C0.583252 10.5444 3.45617 13.4173 6.99992 13.4173C10.5437 13.4173 13.4166 10.5444 13.4166 7.00065C13.4166 3.4569 10.5437 0.583984 6.99992 0.583984ZM6.70825 3.50065C6.55354 3.50065 6.40517 3.56211 6.29577 3.67151C6.18638 3.7809 6.12492 3.92927 6.12492 4.08398C6.12492 4.23869 6.18638 4.38707 6.29577 4.49646C6.40517 4.60586 6.55354 4.66732 6.70825 4.66732H6.99992C7.15463 4.66732 7.303 4.60586 7.4124 4.49646C7.52179 4.38707 7.58325 4.23869 7.58325 4.08398C7.58325 3.92927 7.52179 3.7809 7.4124 3.67151C7.303 3.56211 7.15463 3.50065 6.99992 3.50065H6.70825ZM5.83325 5.83398C5.67854 5.83398 5.53017 5.89544 5.42077 6.00484C5.31138 6.11424 5.24992 6.26261 5.24992 6.41732C5.24992 6.57203 5.31138 6.7204 5.42077 6.8298C5.53017 6.93919 5.67854 7.00065 5.83325 7.00065H6.41659V8.75065H5.83325C5.67854 8.75065 5.53017 8.81211 5.42077 8.92151C5.31138 9.0309 5.24992 9.17928 5.24992 9.33398C5.24992 9.48869 5.31138 9.63707 5.42077 9.74646C5.53017 9.85586 5.67854 9.91732 5.83325 9.91732H8.16659C8.3213 9.91732 8.46967 9.85586 8.57906 9.74646C8.68846 9.63707 8.74992 9.48869 8.74992 9.33398C8.74992 9.17928 8.68846 9.0309 8.57906 8.92151C8.46967 8.81211 8.3213 8.75065 8.16659 8.75065H7.58325V6.41732C7.58325 6.26261 7.52179 6.11424 7.4124 6.00484C7.303 5.89544 7.15463 5.83398 6.99992 5.83398H5.83325Z" fill="white"/>
</g>
<defs>
<clipPath id="clip0_348_74139">
<rect width="14" height="14" fill="white"/>
</clipPath>
</defs>
</svg>
