<svg width="16" height="16" viewBox="0 0 16 16" fill="none" xmlns="http://www.w3.org/2000/svg">
<path d="M14.3999 14.3995V9.71146C14.3999 7.40746 13.9039 5.64746 11.2159 5.64746C9.91993 5.64746 9.05593 6.35146 8.70393 7.02346H8.67193V5.85546H6.12793V14.3995H8.78393V10.1595C8.78393 9.03946 8.99193 7.96746 10.3679 7.96746C11.7279 7.96746 11.7439 9.23146 11.7439 10.2235V14.3835H14.3999V14.3995Z" fill="white"/>
<path d="M1.80811 5.85547H4.46411V14.3995H1.80811V5.85547Z" fill="white"/>
<path d="M3.1361 1.59961C2.2881 1.59961 1.6001 2.28761 1.6001 3.13561C1.6001 3.98362 2.2881 4.68762 3.1361 4.68762C3.9841 4.68762 4.67211 3.98362 4.67211 3.13561C4.67211 2.28761 3.9841 1.59961 3.1361 1.59961V1.59961Z" fill="white"/>
</svg>
