<svg width="20" height="20" viewBox="0 0 20 20" fill="none" xmlns="http://www.w3.org/2000/svg">
<g clip-path="url(#clip0_336_73723)">
<path d="M4.66666 13.3939C4.90909 13.3939 5.12121 13.2424 5.21212 13L5.63636 11.7879H8.27272L8.69697 13C8.78788 13.2424 9 13.3939 9.24242 13.3939C9.63636 13.3939 9.90909 13 9.78788 12.6364L9.30303 11.3636L7.48485 9.54545L7.93939 10.8788H5.96969L6.69697 8.78788L5.90909 8L4.15151 12.6667C4.12121 12.7273 4.12121 12.8182 4.12121 12.8788C4.09091 13.1515 4.33333 13.3939 4.66666 13.3939Z" fill="#FAA7A7"/>
<path d="M11.3335 13.394L10.8486 12.9092C10.8486 13.1516 11.0608 13.3637 11.3335 13.394Z" fill="#FAA7A7"/>
<path d="M14.4244 7.00039C13.9699 6.72766 13.4244 6.60645 12.8184 6.60645H11.3638C11.0608 6.60645 10.7881 6.84887 10.7881 7.1822V8.75796L11.9699 9.93978V7.54584H12.7881C13.3941 7.54584 13.879 7.72766 14.182 8.1216C14.5154 8.51554 14.6669 9.06099 14.6669 9.81857V10.1822C14.6669 10.9095 14.4851 11.4549 14.1517 11.8489C14.1214 11.8792 14.0608 11.9398 14.0305 11.9701L14.7578 12.6974C15.0608 12.4549 15.2729 12.1822 15.4548 11.8186C15.7275 11.3337 15.8487 10.758 15.8487 10.1216V9.78826C15.8487 9.1519 15.7275 8.57614 15.4548 8.09129C15.2729 7.63675 14.9093 7.27311 14.4244 7.00039Z" fill="#FAA7A7"/>
<path d="M16.8485 3.15146C13.0606 -0.636423 6.90906 -0.636423 3.12118 3.15146C-0.666696 6.93933 -0.666696 13.0909 3.12118 16.8787C6.90906 20.6666 13.0303 20.6666 16.8485 16.8787C20.6363 13.0605 20.6363 6.93933 16.8485 3.15146ZM4.60603 15.3939C1.81815 12.6363 1.63633 8.24237 4.03027 5.24237L14.7575 15.9696C11.7575 18.3636 7.36361 18.1818 4.60603 15.3939ZM15.9697 14.7575L5.24239 4.03024C8.24239 1.6363 12.6363 1.81812 15.3939 4.606C18.1818 7.36358 18.3636 11.7575 15.9697 14.7575Z" fill="#FAA7A7"/>
</g>
<defs>
<clipPath id="clip0_336_73723">
<rect width="20" height="20" fill="white"/>
</clipPath>
</defs>
</svg>
