<svg width="36" height="24" viewBox="0 0 36 24" fill="none" xmlns="http://www.w3.org/2000/svg">
<g clip-path="url(#clip0_348_74179)">
<path d="M36 0.460938H0V23.5379H36V0.460938Z" fill="#16366F"/>
<path d="M20.7233 11.9995C20.7233 16.5753 17.0139 20.2841 12.4382 20.2841C7.86249 20.2841 4.15356 16.5751 4.15356 11.9995C4.15356 7.42409 7.86258 3.71484 12.4382 3.71484C17.0137 3.71484 20.7233 7.42423 20.7233 11.9995Z" fill="#D9222A"/>
<path d="M23.5611 3.71484C21.4205 3.71484 19.4699 4.52697 17.9996 5.85943C17.7 6.13123 17.4204 6.42421 17.163 6.73617H18.8369C19.0661 7.0148 19.277 7.30792 19.4685 7.61369H16.5315C16.3548 7.8962 16.1955 8.18918 16.0542 8.49098H19.9455C20.079 8.77644 20.1962 9.06929 20.2963 9.36809H15.7034C15.6069 9.65586 15.5266 9.94875 15.4626 10.2454H20.5368C20.6609 10.8219 20.7234 11.4099 20.7233 11.9996C20.7233 12.9197 20.5731 13.8049 20.2962 14.6313H15.7033C15.8032 14.9304 15.9203 15.2233 16.0539 15.5087H19.9454C19.804 15.8106 19.6445 16.1036 19.4679 16.3862H16.5313C16.7231 16.6922 16.9343 16.9853 17.163 17.263H18.8364C18.5793 17.5755 18.2996 17.8688 17.9996 18.1405C19.4701 19.4728 21.4205 20.2845 23.5612 20.2845C28.1368 20.2844 31.8462 16.5755 31.8462 11.9999C31.8462 7.42464 28.1369 3.71526 23.5612 3.71526" fill="#EE9F2D"/>
<path d="M30.7427 16.6191C30.7427 16.4713 30.8624 16.3513 31.0102 16.3513C31.1581 16.3513 31.2777 16.4713 31.2777 16.6191C31.2777 16.7667 31.1581 16.8867 31.0102 16.8867C30.8625 16.8867 30.7427 16.7668 30.7427 16.6191ZM31.0102 16.8225C31.1226 16.8224 31.2136 16.7313 31.2137 16.6191C31.2137 16.5068 31.1227 16.4158 31.0104 16.4158H31.0102C30.8981 16.4156 30.8072 16.5064 30.807 16.6185V16.6191C30.8068 16.7313 30.8978 16.8225 31.01 16.8225C31.0101 16.8225 31.0101 16.8225 31.0102 16.8225ZM30.9741 16.7367H30.9193V16.5015H31.0185C31.0392 16.5015 31.0604 16.5015 31.0787 16.5133C31.0977 16.5261 31.1085 16.5488 31.1085 16.5722C31.1085 16.5986 31.0929 16.6232 31.0677 16.6328L31.111 16.7367H31.0503L31.0143 16.6436H30.9741L30.9741 16.7367ZM30.9741 16.6033H31.0045C31.0158 16.6033 31.0277 16.6042 31.0379 16.5987C31.047 16.5929 31.0516 16.5821 31.0516 16.5717C31.0516 16.5627 31.0461 16.5523 31.0383 16.5479C31.0287 16.5418 31.0136 16.5432 31.0033 16.5432H30.9741V16.6033ZM10.5049 12.9081C10.4105 12.8971 10.3689 12.8942 10.3041 12.8942C9.79433 12.8942 9.53624 13.069 9.53624 13.4142C9.53624 13.627 9.66224 13.7625 9.85872 13.7625C10.2251 13.7625 10.4891 13.4136 10.5049 12.9081ZM11.1589 14.4309H10.4137L10.4308 14.0767C10.2035 14.3567 9.90026 14.4897 9.48815 14.4897C9.00067 14.4897 8.66643 14.109 8.66643 13.5561C8.66643 12.7242 9.24778 12.2389 10.2457 12.2389C10.3476 12.2389 10.4783 12.2481 10.6122 12.2651C10.6401 12.1525 10.6474 12.1042 10.6474 12.0436C10.6474 11.8171 10.4907 11.7326 10.0705 11.7326C9.63049 11.7276 9.26758 11.8374 9.11855 11.8865C9.12797 11.8297 9.24316 11.1177 9.24316 11.1177C9.69141 10.9863 9.98703 10.9369 10.3197 10.9369C11.092 10.9369 11.5011 11.2836 11.5003 11.939C11.5018 12.1146 11.4728 12.3313 11.4274 12.6161C11.3493 13.1114 11.1819 14.1723 11.1589 14.4309ZM8.29009 14.4309H7.39064L7.90586 11.2003L6.75547 14.4309H6.14255L6.06686 11.2188L5.52529 14.4309H4.68335L5.38664 10.2285H6.67987L6.75833 12.5807L7.5472 10.2285H8.98567L8.29009 14.4309ZM24.6738 12.9081C24.5798 12.8971 24.538 12.8942 24.4734 12.8942C23.9638 12.8942 23.7057 13.069 23.7057 13.4142C23.7057 13.627 23.8315 13.7625 24.028 13.7625C24.3944 13.7625 24.6586 13.4136 24.6738 12.9081ZM25.3284 14.4309H24.5832L24.6001 14.0767C24.3728 14.3567 24.0693 14.4897 23.6576 14.4897C23.1699 14.4897 22.8361 14.109 22.8361 13.5561C22.8361 12.7242 23.417 12.2389 24.4151 12.2389C24.517 12.2389 24.6476 12.2481 24.7813 12.2651C24.8091 12.1525 24.8165 12.1042 24.8165 12.0436C24.8165 11.8171 24.6599 11.7326 24.2398 11.7326C23.7998 11.7276 23.4372 11.8374 23.2876 11.8865C23.2971 11.8297 23.4126 11.1177 23.4126 11.1177C23.8609 10.9863 24.1563 10.9369 24.4886 10.9369C25.2612 10.9369 25.6703 11.2836 25.6696 11.939C25.671 12.1146 25.642 12.3313 25.5966 12.6161C25.519 13.1114 25.3511 14.1723 25.3284 14.4309ZM15.1565 14.379C14.9104 14.4566 14.7184 14.4897 14.5104 14.4897C14.0506 14.4897 13.7996 14.2255 13.7996 13.739C13.7931 13.588 13.8657 13.1907 13.9228 12.828C13.9748 12.5088 14.3128 10.4959 14.3128 10.4959H15.2069L15.1025 11.0132H15.6425L15.5205 11.8346H14.9786C14.8747 12.4845 14.7268 13.2942 14.7251 13.4015C14.7251 13.5777 14.8192 13.6545 15.033 13.6545C15.1355 13.6545 15.2149 13.6441 15.2755 13.6222L15.1565 14.379ZM17.8977 14.3513C17.5905 14.4452 17.2942 14.4906 16.9802 14.4898C15.9794 14.4888 15.4577 13.9661 15.4577 12.9652C15.4577 11.7969 16.1214 10.9369 17.0223 10.9369C17.7594 10.9369 18.2302 11.4184 18.2302 12.1737C18.2302 12.4242 18.1978 12.6688 18.12 13.0142H16.3396C16.2794 13.51 16.5967 13.7165 17.1167 13.7165C17.4368 13.7165 17.7254 13.6505 18.0463 13.5013L17.8977 14.3513ZM17.3952 12.3252C17.4001 12.254 17.49 11.7152 16.9792 11.7152C16.6944 11.7152 16.4907 11.9323 16.4078 12.3252H17.3952ZM11.6989 12.0936C11.6989 12.5259 11.9085 12.824 12.3838 13.0479C12.7481 13.2191 12.8044 13.2699 12.8044 13.425C12.8044 13.6381 12.6438 13.7342 12.2879 13.7342C12.0196 13.7342 11.77 13.6923 11.4821 13.5994C11.4821 13.5994 11.3638 14.3527 11.3584 14.3887C11.5629 14.4333 11.7452 14.4746 12.2944 14.4898C13.2435 14.4898 13.6817 14.1285 13.6817 13.3475C13.6817 12.8779 13.4983 12.6023 13.0477 12.3952C12.6706 12.2221 12.6273 12.1834 12.6273 12.0238C12.6273 11.839 12.7768 11.7448 13.0675 11.7448C13.2441 11.7448 13.4852 11.7636 13.7137 11.7962L13.8418 11.0035C13.6089 10.9665 13.2558 10.9369 13.0502 10.9369C12.0441 10.9369 11.6958 11.4625 11.6989 12.0936ZM22.2723 11.0267C22.5221 11.0267 22.755 11.0923 23.0759 11.2538L23.223 10.3417C23.0913 10.29 22.6275 9.98633 22.2346 9.98633C21.6327 9.98633 21.1239 10.2849 20.766 10.7779C20.244 10.605 20.0294 10.9544 19.7663 11.3025L19.5327 11.3569C19.5504 11.2423 19.5664 11.1285 19.561 11.0133H18.735C18.6222 12.071 18.4222 13.1423 18.2656 14.2013L18.2248 14.431H19.1246C19.2748 13.4552 19.3571 12.8303 19.4071 12.4075L19.746 12.219C19.7966 12.0307 19.955 11.9671 20.2729 11.9748C20.2301 12.2059 20.2088 12.4405 20.209 12.6756C20.209 13.7937 20.8123 14.4898 21.7806 14.4898C22.03 14.4898 22.2441 14.4569 22.5754 14.3672L22.7338 13.409C22.4356 13.5558 22.1909 13.6248 21.9694 13.6248C21.4466 13.6248 21.1302 13.2389 21.1302 12.6009C21.1301 11.6756 21.6007 11.0267 22.2723 11.0267Z" fill="black"/>
<path d="M8.54863 14.1805H7.64905L8.16459 10.9502L7.0142 14.1805H6.40119L6.3254 10.9687L5.78388 14.1805H4.94189L5.64519 9.97852H6.93842L6.97479 12.5798L7.84728 9.97852H9.24422L8.54863 14.1805Z" fill="white"/>
<path d="M29.8857 10.2285L29.6863 11.4427C29.4403 11.1191 29.1762 10.8849 28.8273 10.8849C28.3735 10.8849 27.9604 11.2289 27.69 11.7353C27.3135 11.6572 26.924 11.5247 26.924 11.5247L26.9238 11.5277C26.9542 11.2447 26.9663 11.072 26.9636 11.0133H26.1374C26.025 12.071 25.825 13.1424 25.6687 14.2014L25.6274 14.4311H26.5271C26.6486 13.642 26.7417 12.9868 26.8101 12.4672C27.1175 12.1895 27.2713 11.9471 27.5819 11.9633C27.4444 12.2959 27.3638 12.6789 27.3638 13.0718C27.3638 13.9262 27.7961 14.4899 28.45 14.4899C28.7796 14.4899 29.0324 14.3762 29.2792 14.1128L29.2371 14.4305H30.0878L30.7729 10.2285H29.8857ZM28.7609 13.6412C28.4547 13.6412 28.3002 13.4147 28.3002 12.9675C28.3002 12.2958 28.5896 11.8194 28.9976 11.8194C29.3066 11.8194 29.4739 12.055 29.4739 12.489C29.474 13.1666 29.18 13.6412 28.7609 13.6412Z" fill="black"/>
<path d="M10.7626 12.6579C10.6684 12.647 10.6267 12.644 10.5621 12.644C10.0522 12.644 9.79433 12.8189 9.79433 13.164C9.79433 13.3765 9.92033 13.5124 10.1165 13.5124C10.4832 13.5123 10.7472 13.1635 10.7626 12.6579ZM11.4171 14.1802H10.6719L10.6888 13.8265C10.4617 14.106 10.158 14.2396 9.74628 14.2396C9.25858 14.2396 8.92456 13.8588 8.92456 13.306C8.92456 12.4737 9.50568 11.9886 10.5038 11.9886C10.6057 11.9886 10.7365 11.9979 10.8701 12.015C10.898 11.9023 10.9053 11.8541 10.9053 11.7931C10.9053 11.5666 10.7488 11.4825 10.3286 11.4825C9.88839 11.4775 9.52571 11.5873 9.37645 11.6358C9.38587 11.5792 9.50107 10.8679 9.50107 10.8679C9.94918 10.736 10.2451 10.6865 10.5774 10.6865C11.3499 10.6865 11.7591 11.0335 11.7584 11.6883C11.7597 11.8646 11.7305 12.0811 11.6853 12.3656C11.6074 12.8606 11.4398 13.9221 11.4171 14.1802ZM23.4807 10.0914L23.3334 11.0037C23.0127 10.8423 22.7796 10.7766 22.53 10.7766C21.8584 10.7766 21.3877 11.4254 21.3877 12.3507C21.3877 12.9886 21.7042 13.3745 22.2269 13.3745C22.4485 13.3745 22.6929 13.3056 22.991 13.1586L22.8331 14.1163C22.5015 14.2067 22.2878 14.2396 22.0381 14.2396C21.0699 14.2396 20.4665 13.5434 20.4665 12.4254C20.4665 10.923 21.3 9.87305 22.4921 9.87305C22.8848 9.87309 23.3488 10.0396 23.4807 10.0914ZM24.9319 12.6579C24.8377 12.647 24.7962 12.644 24.7313 12.644C24.2217 12.644 23.9636 12.8189 23.9636 13.164C23.9636 13.3765 24.0896 13.5124 24.2859 13.5124C24.6523 13.5123 24.9165 13.1635 24.9319 12.6579ZM25.5863 14.1802H24.8409L24.858 13.8265C24.6308 14.106 24.3273 14.2396 23.9156 14.2396C23.428 14.2396 23.0938 13.8588 23.0938 13.306C23.0938 12.4737 23.6751 11.9886 24.6729 11.9886C24.775 11.9886 24.9056 11.9979 25.0394 12.015C25.0671 11.9023 25.0746 11.8541 25.0746 11.7931C25.0746 11.5666 24.918 11.4825 24.4978 11.4825C24.0579 11.4775 23.6949 11.5873 23.5457 11.6358C23.5551 11.5792 23.6705 10.8679 23.6705 10.8679C24.1186 10.736 24.4143 10.6865 24.7467 10.6865C25.5194 10.6865 25.9284 11.0335 25.9274 11.6883C25.929 11.8646 25.8999 12.0811 25.8545 12.3656C25.7769 12.8606 25.6088 13.9221 25.5863 14.1802ZM15.4145 14.1284C15.1681 14.206 14.9762 14.2396 14.7683 14.2396C14.3085 14.2396 14.0576 13.9753 14.0576 13.4889C14.0512 13.3374 14.1239 12.9405 14.181 12.5779C14.2327 12.2582 14.5708 10.2456 14.5708 10.2456H15.4647L15.3604 10.7631H15.8193L15.6972 11.5841H15.2368C15.1329 12.2344 14.9847 13.0434 14.9831 13.1509C14.9831 13.3277 15.0774 13.404 15.291 13.404C15.3935 13.404 15.4728 13.394 15.5335 13.3721L15.4145 14.1284ZM18.1557 14.1012C17.8487 14.195 17.552 14.2402 17.2381 14.2396C16.2373 14.2386 15.7156 13.716 15.7156 12.715C15.7156 11.5464 16.3793 10.6866 17.2803 10.6866C18.0173 10.6866 18.4881 11.1679 18.4881 11.9235C18.4881 12.1742 18.4558 12.4188 18.3782 12.764H16.5978C16.5375 13.2598 16.8548 13.4665 17.3749 13.4665C17.6947 13.4665 17.9835 13.4004 18.3043 13.2507L18.1557 14.1012ZM17.6529 12.0744C17.6583 12.0035 17.748 11.4644 17.237 11.4644C16.9524 11.4644 16.7487 11.6821 16.6658 12.0744H17.6529ZM11.9566 11.8435C11.9566 12.2757 12.1663 12.5735 12.6417 12.7977C13.0059 12.9689 13.0622 13.0198 13.0622 13.1748C13.0622 13.3879 12.9015 13.484 12.5459 13.484C12.2774 13.484 12.0278 13.4421 11.7397 13.3493C11.7397 13.3493 11.6218 14.1025 11.6165 14.1385C11.8205 14.1831 12.003 14.2239 12.5522 14.2396C13.5015 14.2396 13.9395 13.8783 13.9395 13.0975C13.9395 12.6276 13.7563 12.3521 13.3055 12.145C12.9285 11.9716 12.8849 11.9335 12.8849 11.7737C12.8849 11.589 13.0347 11.4941 13.3253 11.4941C13.5016 11.4941 13.7428 11.5134 13.9716 11.546L14.0995 10.7531C13.8669 10.7161 13.5138 10.6866 13.3082 10.6866C12.3018 10.6866 11.9538 11.2117 11.9566 11.8435ZM30.3466 14.1802H29.4957L29.538 13.8621C29.2912 14.1259 29.0384 14.2396 28.7088 14.2396C28.0549 14.2396 27.6228 13.6759 27.6228 12.8215C27.6228 11.6848 28.293 10.7265 29.0863 10.7265C29.4351 10.7265 29.6992 10.869 29.9449 11.1924L30.1445 9.97823H31.0317L30.3466 14.1802ZM29.0199 13.3906C29.4388 13.3906 29.733 12.916 29.733 12.2389C29.733 11.8048 29.5655 11.5692 29.2565 11.5692C28.8486 11.5692 28.5588 12.0454 28.5588 12.7173C28.5588 13.1644 28.7138 13.3906 29.0199 13.3906ZM26.3964 10.7631C26.2839 11.8208 26.0838 12.8922 25.9274 13.9506L25.8863 14.1802H26.7859C27.1076 12.0906 27.1855 11.6825 27.6899 11.7336C27.7703 11.306 27.9199 10.9314 28.0314 10.7423C27.6547 10.6638 27.4443 10.8768 27.1689 11.2812C27.1906 11.1064 27.2305 10.9366 27.2226 10.7631H26.3964ZM18.9924 10.7631C18.8795 11.8208 18.6795 12.8922 18.5232 13.9506L18.4822 14.1802H19.3822C19.7036 12.0906 19.7813 11.6825 20.2854 11.7336C20.3662 11.306 20.5158 10.9314 20.627 10.7423C20.2506 10.6638 20.0401 10.8768 19.7649 11.2812C19.7866 11.1064 19.8261 10.9366 19.8185 10.7631H18.9924ZM30.7418 13.9127C30.7418 13.7644 30.8616 13.645 31.0093 13.645C31.1569 13.6449 31.2766 13.7644 31.2768 13.912V13.9127C31.2767 14.0604 31.157 14.1801 31.0093 14.1802C30.8616 14.1801 30.7419 14.0604 30.7418 13.9127ZM31.0093 14.116C31.1216 14.116 31.2125 14.025 31.2125 13.9128V13.9128C31.2127 13.8005 31.1217 13.7094 31.0095 13.7093H31.0093C30.8969 13.7094 30.8059 13.8004 30.8058 13.9128C30.806 14.025 30.897 14.116 31.0093 14.116ZM30.9731 14.0297H30.9183V13.795H31.0177C31.0383 13.795 31.0596 13.7954 31.0775 13.8067C31.0967 13.8198 31.1077 13.8421 31.1077 13.8655C31.1077 13.8921 31.0921 13.9169 31.0667 13.9263L31.1102 14.0295H31.0493L31.0133 13.9368H30.9731V14.0295V14.0297ZM30.9731 13.8967H31.0033C31.0146 13.8967 31.027 13.8976 31.037 13.8921C31.046 13.8864 31.0506 13.8755 31.0506 13.865C31.0502 13.8553 31.0453 13.8464 31.0373 13.8408C31.0279 13.8354 31.0123 13.8369 31.0021 13.8369H30.9731L30.9731 13.8967Z" fill="white"/>
</g>
<defs>
<clipPath id="clip0_348_74179">
<rect width="36" height="24" fill="white"/>
</clipPath>
</defs>
</svg>
