<svg width="40" height="11" viewBox="0 0 40 11" fill="none" xmlns="http://www.w3.org/2000/svg">
<g clip-path="url(#clip0_348_74227)">
<path d="M4.96498 0.0273438C2.2362 0.0273438 0.0332031 2.36694 0.0332031 5.26325C0.0332031 5.77768 0.106415 6.29211 0.252837 6.77835C0.346015 6.64446 0.432537 6.51057 0.512404 6.36258C0.858494 5.82701 1.19127 5.29144 1.52405 4.74177L1.77031 4.326C1.85017 4.19211 1.93004 4.05117 2.00325 3.91023C2.16299 3.6354 2.32272 3.35352 2.46249 3.07869C2.5357 2.93775 2.60891 2.80385 2.68878 2.65587C2.76864 2.51493 2.8352 2.38104 2.90841 2.23305C2.98162 2.08506 3.05483 1.94412 3.11473 1.81023L3.3144 1.38036L3.33437 1.35218C3.44086 1.11963 3.70708 1.02802 3.93337 1.13372C4.0931 1.23238 4.19294 1.40855 4.18628 1.61291C4.18628 1.85956 4.13969 2.1203 4.11973 2.36694C4.09976 2.61359 4.0931 2.87432 4.07314 3.13506C4.05317 3.64245 4.04651 4.16392 4.04651 4.6713C4.04651 5.17869 4.07314 5.68607 4.11973 6.17936C4.14635 6.41896 4.18628 6.65855 4.22621 6.89815C4.25949 7.10956 4.32605 7.32097 4.41923 7.51124C4.44585 7.56761 4.48578 7.62399 4.52572 7.67332C4.55234 7.69446 4.53237 7.68036 4.55234 7.68036C4.5723 7.68036 4.55899 7.68036 4.5723 7.68036L4.59227 7.67332H4.59893L4.62555 7.66627C4.6322 7.65922 4.65217 7.64513 4.65883 7.63808C4.73204 7.58171 4.79194 7.51124 4.85849 7.43372C5.00492 7.2505 5.13803 7.06728 5.25783 6.86996C5.38428 6.6656 5.50408 6.44714 5.61723 6.22869C5.85017 5.78473 6.06981 5.33372 6.27613 4.87567C6.37597 4.64312 6.48245 4.41761 6.58229 4.17801C6.68212 3.94546 6.78196 3.70587 6.87513 3.48036C6.96831 3.24077 7.22788 3.12802 7.45417 3.21963C7.60059 3.276 7.70042 3.40989 7.72705 3.57198C7.72705 3.62835 7.7337 3.70587 7.74701 3.78338L7.77364 4.00184C7.7936 4.14278 7.80691 4.29077 7.84019 4.43171C7.88678 4.72063 7.94002 5.00956 8.01324 5.28439C8.08645 5.55922 8.17297 5.8411 8.28611 6.10889C8.3926 6.37667 8.53237 6.62332 8.70542 6.85587C8.73869 6.91224 8.73204 6.98976 8.68545 7.025C8.63886 7.06023 8.57896 7.06023 8.53903 7.025C8.31274 6.81359 8.11307 6.57399 7.94003 6.31325C7.76698 6.05251 7.62056 5.77768 7.48745 5.4958C7.39427 5.30553 7.32771 5.11526 7.24119 4.91795C7.18795 5.0307 7.14136 5.1505 7.08811 5.2562C6.86848 5.72835 6.6555 6.19345 6.40259 6.6656C6.27613 6.91224 6.14968 7.1448 6.00325 7.37735C5.85683 7.61694 5.6971 7.84949 5.52405 8.0609C5.42422 8.18775 5.30442 8.29345 5.19127 8.39916C5.15799 8.42735 5.11806 8.45553 5.07147 8.47667L4.99161 8.526L4.94502 8.54714H4.93836L4.91174 8.55419H4.89177L4.85849 8.56124C4.83187 8.56828 4.81191 8.58238 4.78528 8.58238C4.73204 8.58942 4.67879 8.60352 4.62555 8.61057C4.50575 8.61761 4.37929 8.60352 4.2728 8.56124C4.16631 8.51896 4.06648 8.45553 3.9733 8.37802C3.84019 8.25117 3.72039 8.10318 3.64052 7.92701C3.51407 7.65922 3.42089 7.3703 3.36765 7.07432C3.3144 6.80654 3.27447 6.52466 3.24785 6.25687C3.1946 5.7213 3.17463 5.19278 3.16798 4.65721C3.16798 4.41057 3.16798 4.14983 3.16798 3.90318C3.0748 4.0864 2.98828 4.26963 2.8951 4.43875C2.82189 4.57969 2.74868 4.72768 2.66881 4.86862L2.44252 5.29849C2.13636 5.87634 1.8169 6.4401 1.48412 7.00385C1.2778 7.3703 1.05816 7.72969 0.838527 8.08909C2.32938 10.5062 5.39094 11.1757 7.6738 9.59714C9.95666 8.01862 10.5889 4.77701 9.09809 2.35989C8.17963 0.915264 6.63553 0.0273438 4.96498 0.0273438Z" fill="url(#paint0_linear_348_74227)"/>
<path d="M14.1763 7.13901V3.66485H14.0964L13.0448 7.1531H12.7853L11.7337 3.6719H11.6538V7.14606H11.2212V3.3125H11.9932L12.925 6.36384L13.8368 3.3125H14.6155V7.16015H14.1763V7.13901Z" fill="url(#paint1_linear_348_74227)"/>
<path d="M15.248 3.80502V3.30469H15.7206V3.80502H15.248ZM15.2547 7.13824V4.17851H15.7139V7.13824H15.2547Z" fill="url(#paint2_linear_348_74227)"/>
<path d="M18.5158 6.17295C18.5158 6.75081 18.3095 7.18772 17.4044 7.18772C16.2663 7.18772 16.1997 6.49711 16.1997 5.65148C16.1997 4.80584 16.2663 4.11523 17.4044 4.11523C18.3095 4.11523 18.5158 4.55919 18.5158 5.13H18.0832C18.0832 4.65785 17.9302 4.43235 17.4044 4.43235C16.6989 4.43235 16.6589 4.83403 16.6589 5.63738C16.6589 6.44074 16.6922 6.84242 17.4044 6.84242C17.9302 6.84242 18.0832 6.60987 18.0832 6.14477L18.5158 6.17295Z" fill="url(#paint3_linear_348_74227)"/>
<path d="M19.4145 4.49688C19.6341 4.35594 19.9137 4.15863 20.1732 4.15158C20.2265 4.14453 20.2797 4.14453 20.333 4.14453C20.4062 4.14453 20.4661 4.14453 20.5526 4.15158L20.5193 4.50393C20.4461 4.49688 20.3862 4.49688 20.3196 4.49688C20.2664 4.49688 20.2132 4.49688 20.1466 4.50393C19.9003 4.51097 19.6408 4.70829 19.4478 4.82104V7.15359H18.9885V4.17977H19.3479L19.4145 4.49688Z" fill="url(#paint4_linear_348_74227)"/>
<path d="M23.1414 5.66515C23.1414 6.51078 23.0748 7.20139 21.9168 7.20139C20.7587 7.20139 20.6921 6.51078 20.6921 5.66515C20.6921 4.81951 20.7587 4.12891 21.9168 4.12891C23.0748 4.12891 23.1414 4.81951 23.1414 5.66515ZM21.158 5.66515C21.158 6.4685 21.1913 6.87018 21.9168 6.87018C22.6422 6.87018 22.6755 6.47555 22.6755 5.66515C22.6755 4.85474 22.6422 4.46011 21.9168 4.46011C21.1913 4.46011 21.158 4.8477 21.158 5.66515Z" fill="url(#paint5_linear_348_74227)"/>
<path d="M23.9867 7.82976C24.1598 7.8509 24.3861 7.85795 24.639 7.85795C25.3445 7.85795 25.4377 7.65358 25.4443 6.87137C25.238 6.99821 24.9452 7.13915 24.6456 7.1462C23.6207 7.16734 23.5608 6.58244 23.5608 5.65929C23.5608 4.73613 23.614 4.12305 24.5991 4.12305C24.9318 4.12305 25.2447 4.28513 25.4843 4.44721L25.5308 4.17942H25.8902V6.80795C25.8902 7.87204 25.664 8.1962 24.7388 8.1962C24.4659 8.1962 24.1931 8.16801 23.9335 8.12573L23.9867 7.82976ZM25.4443 4.72204C25.2447 4.58815 24.9917 4.45426 24.7455 4.45426C24.0666 4.45426 24.02 4.85593 24.02 5.65929C24.02 6.44855 24.0666 6.82204 24.7455 6.82204C24.9917 6.82204 25.2513 6.6811 25.4443 6.57539V4.72204Z" fill="url(#paint6_linear_348_74227)"/>
<path d="M28.406 7.13915L28.3594 6.87137C28.1331 7.0264 27.8336 7.19553 27.5075 7.19553C26.4825 7.21667 26.4226 6.60358 26.4226 5.65929C26.4226 4.72204 26.4759 4.12305 27.4942 4.12305C27.8269 4.12305 28.1264 4.28513 28.3527 4.43311L28.3993 4.17238H28.7587V7.13211H28.406V7.13915ZM28.3128 4.70795C28.1198 4.59519 27.8602 4.4613 27.614 4.4613C26.9351 4.4613 26.8885 4.86298 26.8885 5.66633C26.8885 6.46969 26.9351 6.87137 27.614 6.87137C27.8602 6.87137 28.1131 6.73043 28.3128 6.60358V4.70795Z" fill="url(#paint7_linear_348_74227)"/>
<path d="M29.737 4.43921C29.9433 4.30531 30.2228 4.14323 30.5223 4.12914C30.9949 4.108 31.2345 4.24189 31.3543 4.4533C31.5739 4.31236 31.8601 4.13619 32.1796 4.12914C33.138 4.10095 33.2045 4.61538 33.2045 5.33417V7.1382H32.7453V5.36236C32.7453 4.74927 32.712 4.4533 32.0864 4.4533C31.8601 4.4533 31.6272 4.59424 31.4342 4.72109C31.4807 4.9325 31.5007 5.15095 31.4874 5.37645V7.15229H31.0881V5.36941C31.0881 4.75632 31.0548 4.46035 30.4292 4.46035C30.2095 4.46035 29.9766 4.60129 29.7969 4.70699V7.14525H29.3376V4.18552H29.697L29.737 4.43921Z" fill="url(#paint8_linear_348_74227)"/>
<path d="M33.7703 3.80502V3.30469H34.2428V3.80502H33.7703ZM33.7836 7.13824V4.17851H34.2428V7.13824H33.7836Z" fill="url(#paint9_linear_348_74227)"/>
<path d="M35.2214 4.44008C35.4477 4.30618 35.7472 4.1441 36.0733 4.13001C37.0983 4.10182 37.1582 4.61625 37.1582 5.33504V7.13907H36.699V5.36323C36.699 4.75014 36.6524 4.45417 35.9735 4.45417C35.7272 4.45417 35.4677 4.59511 35.2747 4.71491V7.15316H34.8154V4.17934H35.1748L35.2214 4.44008Z" fill="url(#paint10_linear_348_74227)"/>
<path d="M38.0566 7.82976C38.2296 7.8509 38.4559 7.85795 38.7088 7.85795C39.4143 7.85795 39.5075 7.65358 39.5141 6.87137C39.3078 6.99821 39.015 7.13915 38.7155 7.1462C37.6905 7.16734 37.6306 6.58244 37.6306 5.65929C37.6306 4.73613 37.6839 4.12305 38.6689 4.12305C39.0017 4.12305 39.3145 4.28513 39.5541 4.44721L39.6007 4.17942H39.9601V6.80795C39.9601 7.87204 39.7338 8.1962 38.8087 8.1962C38.5358 8.1962 38.2629 8.16801 38.0033 8.12573L38.0566 7.82976ZM39.5075 4.72204C39.3078 4.58815 39.0549 4.45426 38.8087 4.45426C38.1298 4.45426 38.0832 4.85593 38.0832 5.65929C38.0832 6.44855 38.1298 6.82204 38.8087 6.82204C39.0549 6.82204 39.3145 6.6811 39.5075 6.57539V4.72204Z" fill="url(#paint11_linear_348_74227)"/>
</g>
<defs>
<linearGradient id="paint0_linear_348_74227" x1="-0.735981" y1="6.698" x2="39.3444" y2="-2.42142" gradientUnits="userSpaceOnUse">
<stop stop-color="#21E418"/>
<stop offset="0.3" stop-color="#31B6E9"/>
<stop offset="0.9757" stop-color="#21E418"/>
</linearGradient>
<linearGradient id="paint1_linear_348_74227" x1="-0.303514" y1="8.6001" x2="39.7768" y2="-0.519312" gradientUnits="userSpaceOnUse">
<stop stop-color="#21E418"/>
<stop offset="0.3" stop-color="#31B6E9"/>
<stop offset="0.9757" stop-color="#21E418"/>
</linearGradient>
<linearGradient id="paint2_linear_348_74227" x1="-0.16349" y1="9.2137" x2="39.9168" y2="0.0942907" gradientUnits="userSpaceOnUse">
<stop stop-color="#21E418"/>
<stop offset="0.3" stop-color="#31B6E9"/>
<stop offset="0.9757" stop-color="#21E418"/>
</linearGradient>
<linearGradient id="paint3_linear_348_74227" x1="0.0343846" y1="10.0839" x2="40.1147" y2="0.964527" gradientUnits="userSpaceOnUse">
<stop stop-color="#21E418"/>
<stop offset="0.3" stop-color="#31B6E9"/>
<stop offset="0.9757" stop-color="#21E418"/>
</linearGradient>
<linearGradient id="paint4_linear_348_74227" x1="0.13628" y1="10.5323" x2="40.2166" y2="1.41291" gradientUnits="userSpaceOnUse">
<stop stop-color="#21E418"/>
<stop offset="0.3" stop-color="#31B6E9"/>
<stop offset="0.9757" stop-color="#21E418"/>
</linearGradient>
<linearGradient id="paint5_linear_348_74227" x1="0.284337" y1="11.1824" x2="40.3647" y2="2.06302" gradientUnits="userSpaceOnUse">
<stop stop-color="#21E418"/>
<stop offset="0.3" stop-color="#31B6E9"/>
<stop offset="0.9757" stop-color="#21E418"/>
</linearGradient>
<linearGradient id="paint6_linear_348_74227" x1="0.546001" y1="12.3332" x2="40.6263" y2="3.21379" gradientUnits="userSpaceOnUse">
<stop stop-color="#21E418"/>
<stop offset="0.3" stop-color="#31B6E9"/>
<stop offset="0.9757" stop-color="#21E418"/>
</linearGradient>
<linearGradient id="paint7_linear_348_74227" x1="0.611781" y1="12.6227" x2="40.6921" y2="3.50327" gradientUnits="userSpaceOnUse">
<stop stop-color="#21E418"/>
<stop offset="0.3" stop-color="#31B6E9"/>
<stop offset="0.9757" stop-color="#21E418"/>
</linearGradient>
<linearGradient id="paint8_linear_348_74227" x1="0.795832" y1="13.4311" x2="40.8762" y2="4.31165" gradientUnits="userSpaceOnUse">
<stop stop-color="#21E418"/>
<stop offset="0.3" stop-color="#31B6E9"/>
<stop offset="0.9757" stop-color="#21E418"/>
</linearGradient>
<linearGradient id="paint9_linear_348_74227" x1="0.852498" y1="13.6803" x2="40.9329" y2="4.56084" gradientUnits="userSpaceOnUse">
<stop stop-color="#21E418"/>
<stop offset="0.3" stop-color="#31B6E9"/>
<stop offset="0.9757" stop-color="#21E418"/>
</linearGradient>
<linearGradient id="paint10_linear_348_74227" x1="1.05514" y1="14.5704" x2="41.1354" y2="5.451" gradientUnits="userSpaceOnUse">
<stop stop-color="#21E418"/>
<stop offset="0.3" stop-color="#31B6E9"/>
<stop offset="0.9757" stop-color="#21E418"/>
</linearGradient>
<linearGradient id="paint11_linear_348_74227" x1="1.31783" y1="15.7257" x2="41.3982" y2="6.60628" gradientUnits="userSpaceOnUse">
<stop stop-color="#21E418"/>
<stop offset="0.3" stop-color="#31B6E9"/>
<stop offset="0.9757" stop-color="#21E418"/>
</linearGradient>
<clipPath id="clip0_348_74227">
<rect width="40" height="10.5" fill="white"/>
</clipPath>
</defs>
</svg>
