<svg width="16" height="16" viewBox="0 0 16 16" fill="none" xmlns="http://www.w3.org/2000/svg">
<path d="M13.5 10H12.465C12.125 10.385 11.735 10.72 11.31 11C10.36 11.635 9.225 12 8 12C6.775 12 5.64 11.635 4.69 11C4.265 10.72 3.875 10.385 3.535 10H2.5C1.675 10 1 10.675 1 11.5V13.5C1 14.325 1.675 15 2.5 15H13.5C14.325 15 15 14.325 15 13.5V11.5C15 10.675 14.325 10 13.5 10ZM12 13.5H4C3.725 13.5 3.5 13.275 3.5 13C3.5 12.725 3.725 12.5 4 12.5H12C12.275 12.5 12.5 12.725 12.5 13C12.5 13.275 12.275 13.5 12 13.5ZM8 1C5.245 1 3 3.245 3 6C3 7.635 3.79 9.09 5.005 10C5.84 10.63 6.875 11 8 11C9.125 11 10.16 10.63 10.995 10C12.21 9.09 13 7.635 13 6C13 3.245 10.755 1 8 1ZM7.75 5.5H8.22C8.91 5.5 9.47 6.06 9.47 6.75C9.47 7.36 9.055 7.86 8.5 7.99V8.5C8.5 8.775 8.275 9 8 9C7.725 9 7.5 8.775 7.5 8.5V8.02H7C6.725 8.02 6.5 7.8 6.5 7.52C6.5 7.245 6.725 7.02 7 7.02H8.22C8.36 7.02 8.47 6.91 8.47 6.77C8.47 6.61 8.36 6.5 8.22 6.5H7.75C7.06 6.5 6.5 5.94 6.5 5.25C6.5 4.645 6.93 4.14 7.5 4.025V3.5C7.5 3.225 7.725 3 8 3C8.275 3 8.5 3.225 8.5 3.5V4H8.97C9.245 4 9.47 4.225 9.47 4.5C9.47 4.775 9.245 5 8.97 5H7.75C7.61 5 7.5 5.11 7.5 5.25C7.5 5.39 7.61 5.5 7.75 5.5Z" fill="#89ECA3"/>
</svg>
