<svg width="36" height="14" viewBox="0 0 36 14" fill="none" xmlns="http://www.w3.org/2000/svg">
<g clip-path="url(#clip0_348_74314)">
<path d="M18.8345 0.5H18.4678V13.5H18.8345V10.9987H23.466V9.4842H19.9024V7.74013H22.9488V6.21424H19.9024V4.5272H23.466V3.00132H18.8345V0.5Z" fill="#78BD1F"/>
<path d="M4.41826 7.90619L3.10213 5.72716L1.41513 3.02905L1.3984 3.00195H0V10.9993H1.55176V6.08368L2.70896 7.99888L4.57023 10.9993H5.97978V3.00195H4.41826V7.90619Z" fill="white"/>
<path d="M6.85254 10.9993H11.9777V9.48484H8.41406V7.74076H11.4604V6.21488H8.41406V4.52784H11.9777V3.00195H6.85254V10.9993Z" fill="white"/>
<path d="M12.6064 4.53925H14.398V10.9993H15.9595V4.53925H17.7399V3.00195H12.6064V4.53925Z" fill="white"/>
<path d="M28.6651 7.91791L27.349 5.74031L25.662 3.04219L25.6452 3.01367H24.2468V11.011H25.7972V6.0954L26.9544 8.0106L28.8171 11.011H30.2266V3.01367H28.6651V7.91791Z" fill="#78BD1F"/>
<path d="M30.8652 3.01367V4.55097H32.6568V11.011H34.2183V4.55097H35.9987V3.01367H30.8652Z" fill="#78BD1F"/>
</g>
<defs>
<clipPath id="clip0_348_74314">
<rect width="36" height="13" fill="white" transform="translate(0 0.5)"/>
</clipPath>
</defs>
</svg>
