<svg width="36" height="28" viewBox="0 0 36 28" fill="none" xmlns="http://www.w3.org/2000/svg">
<g clip-path="url(#clip0_348_74204)">
<path d="M33.6 0.800781H2.4C1.0764 0.800781 0 1.87718 0 3.20078V24.8008C0 26.1244 1.0764 27.2008 2.4 27.2008H33.6C34.9236 27.2008 36 26.1244 36 24.8008V3.20078C36 1.87718 34.9236 0.800781 33.6 0.800781ZM32.0916 13.8652C31.8876 14.1244 31.5936 14.2972 31.2168 14.3788L31.0464 14.4148L31.794 16.4008H30.162L29.442 13.9708L28.9944 16.4008H13.6224L14.3328 12.5512H13.4184L12.708 16.4008H6.8652L5.7852 13.2676L5.2308 16.4008H3.6L4.5192 11.4244H6.2256L7.338 14.4736L7.896 11.4244H17.7036L17.4996 12.5524H15.9312L15.7716 13.4224L17.2812 13.4248L17.1024 14.3992H15.5904L15.432 15.2728H17.9484L18.6588 11.4244H20.3028L19.6248 15.0748H20.7504L21.4224 11.4244H23.0688L22.3908 15.0748H23.5452L24.2172 11.4244H27.366L27.1596 12.5524H25.6104L25.4496 13.4212L26.9532 13.4188L26.7744 14.3992H25.2696L25.1088 15.2728H27.6072L28.3152 11.4244H30.2232C30.9516 11.4244 31.5072 11.5504 31.8732 11.8024C32.2284 12.0448 32.4012 12.3904 32.4 12.862C32.4 13.2664 32.2956 13.6024 32.0916 13.8652Z" fill="#8DC549"/>
<path d="M29.9641 12.4309H29.7265L29.4793 13.7665H29.8021C30.1273 13.7665 30.3661 13.7101 30.5293 13.5949C30.6529 13.5097 30.7993 13.3405 30.7993 13.0273C30.8046 12.9362 30.7861 12.8453 30.7454 12.7637C30.7048 12.682 30.6435 12.6124 30.5677 12.5617C30.4309 12.4741 30.2341 12.4297 29.9641 12.4297V12.4309ZM9.14768 13.4149H10.6981L10.5193 14.3989H8.95448L8.79248 15.2713H11.2885L11.7889 12.5509H9.29768L9.14768 13.4149Z" fill="#8DC549"/>
</g>
<defs>
<clipPath id="clip0_348_74204">
<rect width="36" height="28" fill="white"/>
</clipPath>
</defs>
</svg>
