<svg width="13" height="12" viewBox="0 0 13 12" fill="none" xmlns="http://www.w3.org/2000/svg">
<g clip-path="url(#clip0_247_39845)">
<path d="M12.1088 6C12.1088 9.31369 9.42245 12 6.10876 12C2.79508 12 0.108765 9.31369 0.108765 6C0.108765 6.00143 6.10876 0.00065625 6.10876 0C9.42245 0 12.1088 2.68631 12.1088 6Z" fill="#0052B4"/>
<path d="M6.09265 6.00043H6.10871C6.10871 5.99504 6.10871 5.98979 6.10871 5.98438C6.10336 5.98974 6.09802 5.99509 6.09265 6.00043Z" fill="#F0F0F0"/>
<path d="M6.10876 3.13043C6.10876 2.07469 6.10876 1.38293 6.10876 0H6.10776C2.79451 0.0005625 0.108765 2.68662 0.108765 6H3.23919V4.23724L5.00198 6H6.09273C6.09808 5.99466 6.10344 5.98931 6.10879 5.98395C6.10879 5.57972 6.10879 5.21904 6.10879 4.89323L4.34598 3.13043H6.10876Z" fill="#F0F0F0"/>
<path d="M3.14426 0.782227C2.20585 1.31658 1.42571 2.09672 0.891357 3.03513V5.99963H2.45658V2.3475V2.34745H6.10876C6.10876 1.85379 6.10876 1.38349 6.10876 0.782227H3.14426Z" fill="#D80027"/>
<path d="M6.1088 5.26159L3.97709 3.12988C3.97709 3.12988 3.23926 3.12993 3.23926 3.12988V3.12993L6.10878 5.99943H6.1088C6.1088 5.99943 6.1088 5.49067 6.1088 5.26159Z" fill="#D80027"/>
<path d="M10.4993 4.45215L10.6288 4.85073H11.0479L10.7088 5.09705L10.8384 5.49561L10.4993 5.2493L10.1602 5.49561L10.2898 5.09705L9.95068 4.85073H10.3698L10.4993 4.45215Z" fill="#D80027"/>
<path d="M9.00124 7.32129L9.19551 7.91918H9.82413L9.31553 8.28865L9.50983 8.88652L9.00124 8.51702L8.49264 8.88652L8.68694 8.28865L8.17834 7.91918H8.80696L9.00124 7.32129Z" fill="#D80027"/>
<path d="M9.05778 2.62598L9.21969 3.12423H9.74354L9.3197 3.43209L9.4816 3.93032L9.05778 3.62238L8.63398 3.93032L8.79587 3.43209L8.37207 3.12423H8.8959L9.05778 2.62598Z" fill="#D80027"/>
<path d="M7.61635 4.43457L7.8106 5.03246H8.43924L7.93064 5.40193L8.12494 5.9998L7.61635 5.63031L7.10775 5.9998L7.30205 5.40193L6.79346 5.03246H7.42207L7.61635 4.43457Z" fill="#D80027"/>
</g>
<defs>
<clipPath id="clip0_247_39845">
<rect width="12" height="12" fill="white" transform="translate(0.108765)"/>
</clipPath>
</defs>
</svg>
