<svg width="16" height="16" viewBox="0 0 16 16" fill="none" xmlns="http://www.w3.org/2000/svg">
<path d="M7.87764 1C4.04059 1 2 3.45886 2 6.13998C2 7.38341 2.69478 8.93398 3.80696 9.42576C3.97584 9.50188 4.06772 9.46951 4.10535 9.31288C4.1386 9.19387 4.28473 8.62072 4.35561 8.35033C4.37748 8.2637 4.36611 8.18845 4.2961 8.10707C3.92684 7.68005 3.6337 6.90214 3.6337 6.17236C3.6337 4.3024 5.12039 2.48669 7.65013 2.48669C9.83773 2.48669 11.3682 3.90776 11.3682 5.94047C11.3682 8.23745 10.1527 9.82652 8.5733 9.82652C7.69913 9.82652 7.0481 9.14049 7.25461 8.29171C7.504 7.28103 7.99315 6.19424 7.99315 5.46533C7.99315 4.81167 7.62388 4.2709 6.8696 4.2709C5.97968 4.2709 5.25777 5.15206 5.25777 6.33512C5.25777 7.08678 5.52378 7.5943 5.52378 7.5943C5.52378 7.5943 4.6435 11.1505 4.47986 11.8146C4.20335 12.939 4.51749 14.76 4.54462 14.9166C4.56124 15.0033 4.65837 15.0304 4.71262 14.9595C4.79925 14.8458 5.8633 13.3276 6.16169 12.2303C6.27019 11.8304 6.71559 10.2089 6.71559 10.2089C7.00873 10.7383 7.85489 11.182 8.75618 11.182C11.4373 11.182 13.3746 8.82548 13.3746 5.9011C13.365 3.09747 10.9657 1 7.87764 1Z" fill="white"/>
</svg>
