<svg width="14" height="14" viewBox="0 0 14 14" fill="none" xmlns="http://www.w3.org/2000/svg">
<path d="M7.19038 0C3.35334 0 1.31274 2.45886 1.31274 5.13998C1.31274 6.38341 2.00753 7.93398 3.1197 8.42575C3.28858 8.50188 3.38046 8.46951 3.41809 8.31287C3.45134 8.19387 3.59747 7.62072 3.66835 7.35033C3.69023 7.2637 3.67885 7.18845 3.60885 7.10707C3.23958 6.68005 2.94644 5.90214 2.94644 5.17236C2.94644 3.3024 4.43313 1.48669 6.96287 1.48669C9.15047 1.48669 10.6809 2.90776 10.6809 4.94047C10.6809 7.23745 9.46549 8.82652 7.88604 8.82652C7.01188 8.82652 6.36085 8.14049 6.56736 7.2917C6.81674 6.28103 7.30589 5.19423 7.30589 4.46533C7.30589 3.81167 6.93662 3.2709 6.18234 3.2709C5.29242 3.2709 4.57052 4.15206 4.57052 5.33511C4.57052 6.08677 4.83653 6.5943 4.83653 6.5943C4.83653 6.5943 3.95624 10.1505 3.79261 10.8146C3.51609 11.939 3.83023 13.76 3.85736 13.9166C3.87398 14.0033 3.97111 14.0304 4.02537 13.9595C4.11199 13.8457 5.17604 12.3276 5.47443 11.2303C5.58294 10.8304 6.02833 9.20891 6.02833 9.20891C6.32147 9.73831 7.16763 10.182 8.06892 10.182C10.75 10.182 12.6874 7.82548 12.6874 4.90109C12.6778 2.09747 10.2784 0 7.19038 0Z" fill="white"/>
</svg>
