<svg width="16" height="16" viewBox="0 0 16 16" fill="none" xmlns="http://www.w3.org/2000/svg">
<g clip-path="url(#clip0_348_74253)">
<path d="M14.9687 1.08301L8.93533 0.0191634C8.25674 -0.100493 7.60961 0.352632 7.48995 1.03123L7.43286 1.35507C8.30539 1.46257 9.04255 2.09113 9.27464 2.95723L9.64336 4.33332C9.83858 4.24866 10.0599 4.21816 10.2851 4.25788C10.7125 4.33326 11.0405 4.64085 11.1626 5.02794C11.4098 4.70598 11.8231 4.52907 12.2505 4.60444C12.8623 4.71232 13.2707 5.29566 13.1629 5.90738C12.9285 7.23657 11.5021 8.30491 10.8252 8.74432L11.8587 12.6013C11.9141 12.808 11.9372 13.0159 11.9321 13.2197L12.8016 13.373C13.4802 13.4927 14.1273 13.0396 14.247 12.361L15.9807 2.52844C16.1004 1.84979 15.6473 1.20266 14.9687 1.08301Z" fill="white"/>
<path d="M8.37085 3.1985C8.22148 2.64106 7.71738 2.27341 7.16648 2.27344C7.0596 2.27344 6.95092 2.28728 6.84276 2.31625L0.925072 3.90188C0.259478 4.08022 -0.135522 4.76438 0.0428221 5.42997L2.62692 15.074C2.77629 15.6314 3.28038 15.9991 3.83129 15.9991C3.93817 15.9991 4.04685 15.9852 4.15498 15.9563L10.0727 14.3706C10.7383 14.1923 11.1333 13.5081 10.9549 12.8425L8.37085 3.1985ZM3.76595 9.79072C3.6656 9.70244 3.62813 9.56253 3.67088 9.43594L4.57576 6.75663C4.65145 6.5325 4.93088 6.45762 5.10851 6.61387L7.23182 8.48181C7.33217 8.57009 7.36963 8.71 7.32688 8.83659L6.42201 11.5159C6.34632 11.74 6.06688 11.8149 5.88926 11.6587L3.76595 9.79072Z" fill="white"/>
</g>
<defs>
<clipPath id="clip0_348_74253">
<rect width="16" height="16" fill="white"/>
</clipPath>
</defs>
</svg>
