<svg width="37" height="18" viewBox="0 0 37 18" fill="none" xmlns="http://www.w3.org/2000/svg">
<g clip-path="url(#clip0_348_74310)">
<path d="M31.8248 7.12366C29.988 7.23802 30.8127 9.63445 32.8433 9.50795C34.8297 9.38426 33.7818 7.00183 31.8248 7.12366Z" fill="#F19021"/>
<path d="M31.0492 5.64294C29.8788 5.64294 28.7347 5.99062 27.7616 6.642C26.7884 7.29339 26.0299 8.21922 25.582 9.30243C25.1342 10.3856 25.017 11.5776 25.2453 12.7275C25.4736 13.8774 26.0372 14.9337 26.8648 15.7628C27.6924 16.5918 28.7468 17.1564 29.8947 17.3852C31.0426 17.6139 32.2325 17.4965 33.3138 17.0478C34.3951 16.5991 35.3193 15.8393 35.9695 14.8645C36.6198 13.8896 36.9668 12.7435 36.9668 11.571C36.9668 9.99878 36.3434 8.49096 35.2336 7.37923C34.1238 6.2675 32.6187 5.64294 31.0492 5.64294ZM31.0492 16.8778C30.0017 16.878 28.9777 16.567 28.1066 15.9841C27.2356 15.4013 26.5566 14.5727 26.1556 13.6033C25.7547 12.6339 25.6496 11.5672 25.8539 10.5379C26.0581 9.50874 26.5625 8.56333 27.3031 7.82126C28.0437 7.0792 28.9874 6.57382 30.0147 6.36903C31.0421 6.16425 32.107 6.26926 33.0748 6.67078C34.0425 7.07231 34.8697 7.75231 35.4517 8.6248C36.0337 9.49728 36.3443 10.5231 36.3443 11.5724C36.3443 12.9793 35.7865 14.3286 34.7935 15.3235C33.8005 16.3185 32.4536 16.8775 31.0492 16.8778ZM30.8707 1.5045C29.4659 2.56829 29.7101 4.19967 29.7101 4.19967C29.7101 4.19967 28.8271 1.9036 27.6804 0.5C27.5257 2.30689 28.0909 4.70099 28.0909 4.70099C28.0909 4.70099 27.3728 3.21664 25.6134 3.13355C27.0728 3.97375 27.6389 5.48751 27.7684 5.8936C28.6381 5.35582 29.6327 5.05434 30.6541 5.01886C30.539 4.64077 30.1299 3.04767 30.8707 1.5045Z" fill="#F19021"/>
<path d="M0.515345 12.1523V13.393H0V10.1966H1.08474C1.45253 10.1966 1.729 10.2841 1.91414 10.4593C2.09928 10.6345 2.19247 10.8745 2.19371 11.1791C2.19371 11.4813 2.09881 11.719 1.90901 11.8923C1.71921 12.0657 1.44508 12.1523 1.0866 12.1523H0.515345ZM1.66765 11.1791C1.66765 10.998 1.61717 10.8598 1.51621 10.7646C1.41526 10.6694 1.25342 10.6219 1.03069 10.6223H0.515345V11.7313H1.03069C1.45502 11.7313 1.66734 11.5472 1.66765 11.1791ZM4.32079 13.393L3.52541 12.1164H3.15917V13.393H2.64382V10.1966H3.76957C4.13394 10.1966 4.41041 10.2855 4.59896 10.4635C4.78752 10.6415 4.88164 10.8771 4.88133 11.1702C4.88133 11.4192 4.81128 11.6244 4.67119 11.7859C4.53109 11.9474 4.32918 12.05 4.06545 12.0935L4.90416 13.393H4.32079ZM3.15917 11.7495H3.72763C4.14388 11.7495 4.35185 11.5654 4.35154 11.1973C4.35154 11.0224 4.30107 10.8858 4.20011 10.7875C4.099 10.6895 3.94197 10.6405 3.72763 10.6405H3.15917V11.7495ZM7.24978 12.7003H5.9027L5.65854 13.393H5.10732L6.28246 10.2465H6.87468L8.04516 13.393H7.49347L7.24978 12.7003ZM7.10487 12.3022L6.57601 10.8085L6.04715 12.3022H7.10487ZM10.6484 10.45C10.9014 10.6372 11.0794 10.9086 11.1503 11.2155H10.6079C10.5403 11.0455 10.4208 10.9012 10.2664 10.8034C10.0981 10.6978 9.90246 10.6442 9.70396 10.6493C9.51594 10.6463 9.33066 10.6947 9.16811 10.7894C9.00908 10.8838 8.88049 11.022 8.79768 11.1875C8.70556 11.3768 8.66063 11.5857 8.66674 11.7962C8.6607 12.014 8.70722 12.23 8.80234 12.4259C8.88669 12.5946 9.01962 12.7341 9.18395 12.8264C9.35924 12.9218 9.55622 12.97 9.75568 12.9664C10.0061 12.9708 10.2491 12.8816 10.4374 12.7162C10.6269 12.5519 10.7413 12.3263 10.7808 12.0394H9.6089V11.659H11.2132V12.1523C11.1793 12.3823 11.0936 12.6015 10.9625 12.7932C10.8295 12.9868 10.6511 13.1447 10.443 13.253C10.2146 13.3705 9.96067 13.4295 9.70396 13.4248C9.41598 13.4307 9.13173 13.3588 8.88108 13.2166C8.64601 13.0809 8.45471 12.8805 8.32986 12.6392C8.20199 12.3761 8.13554 12.0874 8.13554 11.7948C8.13554 11.5022 8.20199 11.2135 8.32986 10.9504C8.45419 10.7101 8.64467 10.5105 8.87875 10.3753C9.12904 10.2346 9.41235 10.1635 9.6993 10.1695C10.0792 10.1695 10.3956 10.263 10.6484 10.45ZM14.8518 10.2465V13.393H14.3318V11.0344L13.4237 13.393H12.9717L12.0584 11.0344V13.393H11.5435V10.2465H12.167L13.2065 12.7592L14.2279 10.2465H14.8518ZM17.3736 12.7003H16.0288L15.7847 13.393H15.2316L16.4067 10.2465H16.9985L18.1694 13.393H17.6177L17.3736 12.7003ZM17.2291 12.3022L16.7003 10.8085L16.1714 12.3022H17.2291ZM20.3748 10.1966V10.6129H19.4843V13.393H18.9643V10.6129H18.079V10.1966H20.3748ZM21.1655 10.1966V13.393H20.6506V10.1966H21.1655ZM24.081 10.4635C24.3424 10.6665 24.5273 10.9524 24.6052 11.2743H24.0581C23.9883 11.0878 23.8629 10.9273 23.6989 10.8146C23.52 10.6971 23.3093 10.6378 23.0955 10.6447C22.9162 10.6418 22.7398 10.6904 22.5871 10.7847C22.4345 10.8825 22.3123 11.0213 22.2344 11.1852C22.1496 11.3762 22.1058 11.5829 22.1058 11.792C22.1058 12.001 22.1496 12.2078 22.2344 12.3988C22.3122 12.5629 22.4344 12.7018 22.5871 12.7998C22.7397 12.8941 22.9161 12.9427 23.0955 12.9398C23.3092 12.9468 23.5199 12.8876 23.6989 12.7704C23.862 12.6587 23.9873 12.5 24.0581 12.3152H24.6052C24.5277 12.6367 24.3427 12.9218 24.081 13.1232C23.8219 13.3212 23.4965 13.4201 23.1048 13.4201C22.8244 13.4254 22.5478 13.3541 22.3047 13.2138C22.074 13.0779 21.8873 12.8783 21.767 12.6387C21.6419 12.3749 21.5769 12.0864 21.5769 11.7943C21.5769 11.5022 21.6419 11.2138 21.767 10.9499C21.8877 10.7101 22.0743 10.5098 22.3047 10.3725C22.5473 10.231 22.8241 10.159 23.1048 10.1643C23.4962 10.1647 23.8216 10.2644 24.081 10.4635ZM27.036 12.1523V13.393H26.5212V10.1966H27.6059C27.9731 10.1966 28.2495 10.2841 28.4353 10.4593C28.6211 10.6345 28.7143 10.8745 28.7149 11.1791C28.7149 11.4813 28.62 11.719 28.4302 11.8923C28.2404 12.0657 27.9662 12.1523 27.6078 12.1523H27.036ZM28.1902 11.1791C28.1902 10.998 28.1397 10.8598 28.0388 10.7646C27.9378 10.6694 27.7758 10.6219 27.5528 10.6223H27.036V11.7313H27.5514C27.9773 11.7313 28.1902 11.5472 28.1902 11.1791ZM29.5988 12.9902H30.7017V13.393H29.0834V10.1966H29.5988V12.9902ZM33.0608 12.7003H31.7142L31.4701 13.393H30.9184L32.094 10.2465H32.6857L33.8567 13.393H33.305L33.0608 12.7003ZM32.9164 12.3022L32.3875 10.8085L31.8587 12.3022H32.9164ZM35.925 10.1966L34.8631 12.2294V13.393H34.3445V12.2294L33.278 10.1966H33.8748L34.6073 11.6772L35.3393 10.1966H35.925Z" fill="white"/>
</g>
<defs>
<clipPath id="clip0_348_74310">
<rect width="37" height="17" fill="white" transform="translate(0 0.5)"/>
</clipPath>
</defs>
</svg>
