<svg width="32" height="32" viewBox="0 0 32 32" fill="none" xmlns="http://www.w3.org/2000/svg">
<g clip-path="url(#clip0_439_50071)">
<path d="M23.4999 11.3125C18.8473 11.3125 15.0625 15.0972 15.0625 19.7499C15.0625 24.4025 18.8472 28.1873 23.4999 28.1873C28.1525 28.1873 31.9998 24.4025 31.9998 19.7499C31.9998 15.0972 28.1526 11.3125 23.4999 11.3125ZM24.4621 24.2679C24.4539 24.2709 24.4454 24.2696 24.4373 24.2724V25.3748C24.4373 25.893 24.018 26.3123 23.4998 26.3123C22.9816 26.3123 22.5623 25.893 22.5623 25.3748V24.266C21.9449 24.0574 21.3532 23.6615 20.8475 23.0586C20.5142 22.6621 20.5655 22.0707 20.9629 21.7384C21.3593 21.4051 21.9526 21.4564 22.2831 21.8538C22.7792 22.4443 23.3405 22.6786 23.8202 22.5065C24.1892 22.3719 24.4373 22.0176 24.4373 21.6249C24.4373 21.1076 24.0171 20.6874 23.4998 20.6874C21.9489 20.6874 20.6874 19.4257 20.6874 17.8749C20.6874 16.7424 21.3612 15.7252 22.404 15.2841C22.4556 15.2622 22.5103 15.2634 22.5624 15.2448V14.125C22.5624 13.6068 22.9817 13.1875 23.4999 13.1875C24.0181 13.1875 24.4374 13.6068 24.4374 14.125V15.2465C24.9228 15.4105 25.3962 15.6712 25.8189 16.0806C26.1906 16.4404 26.1998 17.0336 25.839 17.4062C25.4792 17.7779 24.885 17.7862 24.5133 17.4264C24.0574 16.9842 23.5529 16.8322 23.1354 17.0107C22.7876 17.1581 22.5623 17.4969 22.5623 17.875C22.5623 18.3923 22.9826 18.8125 23.4998 18.8125C25.0507 18.8125 26.3123 20.0741 26.3123 21.6249C26.3124 22.8031 25.5689 23.8651 24.4621 24.2679Z" fill="url(#paint0_linear_439_50071)"/>
<path d="M0.937988 20.6875C0.419801 20.6875 0.000488281 21.1068 0.000488281 21.625V31.0624C0.000488281 31.5806 0.419801 31.9999 0.937988 31.9999H3.75043V20.6875H0.937988Z" fill="url(#paint1_linear_439_50071)"/>
<path d="M22.2345 5.85153L15.672 0.226594C15.3223 -0.0755312 14.8023 -0.0755312 14.4525 0.226594L7.89017 5.85153C7.59173 6.10603 7.48461 6.51984 7.62098 6.88791C7.75648 7.25597 8.10711 7.50041 8.49992 7.50041H11.3124C11.3124 15.6053 11.3124 23.8947 11.3124 32.0001C13.7275 32.0001 15.3972 32.0001 17.8748 32.0001C18.393 32.0001 18.8123 31.5808 18.8123 31.0626V28.9242C15.4784 27.2137 13.1874 23.748 13.1874 19.7503C13.1874 15.7526 15.4785 12.2869 18.8123 10.5763V7.50047H21.6247C22.0175 7.50047 22.3682 7.25603 22.5037 6.88797C22.6401 6.51984 22.533 6.10603 22.2345 5.85153Z" fill="url(#paint2_linear_439_50071)"/>
<path d="M6.625 13.1875C6.10681 13.1875 5.6875 13.6068 5.6875 14.125V20.6874V31.9997C7.05687 31.9997 8.10788 31.9997 9.43744 31.9997V13.1875H6.625Z" fill="url(#paint3_linear_439_50071)"/>
</g>
<defs>
<linearGradient id="paint0_linear_439_50071" x1="15.0625" y1="19.7127" x2="31.9998" y2="19.7127" gradientUnits="userSpaceOnUse">
<stop stop-color="#F0C645"/>
<stop offset="0.495" stop-color="#FAF283"/>
<stop offset="1" stop-color="#EBC944"/>
</linearGradient>
<linearGradient id="paint1_linear_439_50071" x1="0.000488282" y1="26.3188" x2="3.75043" y2="26.3188" gradientUnits="userSpaceOnUse">
<stop stop-color="#F0C645"/>
<stop offset="0.495" stop-color="#FAF283"/>
<stop offset="1" stop-color="#EBC944"/>
</linearGradient>
<linearGradient id="paint2_linear_439_50071" x1="7.5625" y1="15.9296" x2="22.5622" y2="15.9296" gradientUnits="userSpaceOnUse">
<stop stop-color="#F0C645"/>
<stop offset="0.495" stop-color="#FAF283"/>
<stop offset="1" stop-color="#EBC944"/>
</linearGradient>
<linearGradient id="paint3_linear_439_50071" x1="5.6875" y1="22.5522" x2="9.43744" y2="22.5522" gradientUnits="userSpaceOnUse">
<stop stop-color="#F0C645"/>
<stop offset="0.495" stop-color="#FAF283"/>
<stop offset="1" stop-color="#EBC944"/>
</linearGradient>
<clipPath id="clip0_439_50071">
<rect width="32" height="32" fill="white"/>
</clipPath>
</defs>
</svg>
