<svg width="14" height="14" viewBox="0 0 14 14" fill="none" xmlns="http://www.w3.org/2000/svg">
<path d="M5.70039 11.3406C5.32896 11.2349 4.99839 11.0189 4.75248 10.7211C4.70832 10.6753 4.64596 10.6106 4.60956 10.579C4.56199 10.569 4.47198 10.5593 4.40933 10.5525C4.02877 10.5395 3.6611 10.4113 3.3549 10.185C3.19315 10.0509 3.06086 9.88488 2.96634 9.69727L1.82899 11.6676C1.774 11.7627 1.74701 11.8715 1.75114 11.9813C1.75528 12.0911 1.79036 12.1975 1.85234 12.2883C1.91432 12.379 2.00068 12.4504 2.10147 12.4942C2.20226 12.538 2.31337 12.5524 2.422 12.5358L3.43741 12.3814L3.81168 13.3387C3.85128 13.4412 3.91927 13.5304 4.00768 13.5957C4.09609 13.661 4.20127 13.6998 4.31092 13.7075C4.32601 13.7087 4.34111 13.7093 4.35622 13.7093C4.45849 13.7095 4.55899 13.6826 4.6475 13.6314C4.73601 13.5802 4.80936 13.5064 4.86007 13.4176L6.03998 11.3737C6.03123 11.3739 6.02309 11.3756 6.0142 11.3756C5.90861 11.3758 5.80334 11.3641 5.70039 11.3406Z" fill="#1A9F3E"/>
<path d="M11.0335 9.69531C10.9391 9.88308 10.8069 10.0493 10.6452 10.1836C10.339 10.4099 9.97131 10.538 9.59077 10.5511C9.52754 10.5579 9.43724 10.5676 9.38996 10.5776C9.3535 10.6092 9.29056 10.6744 9.24704 10.72C9.00163 11.0169 8.67204 11.2325 8.30169 11.3384C8.1977 11.3623 8.09133 11.3743 7.98462 11.3742C7.97619 11.3742 7.96855 11.3725 7.96021 11.3724L9.13988 13.4159C9.1906 13.5047 9.26394 13.5785 9.35245 13.6297C9.44096 13.6809 9.54147 13.7078 9.64373 13.7075C9.65882 13.7075 9.67392 13.707 9.68903 13.7058C9.79876 13.6981 9.90401 13.6592 9.99248 13.5939C10.0809 13.5285 10.149 13.4393 10.1886 13.3367L10.5626 12.3797L11.5776 12.534C11.6863 12.5507 11.7974 12.5364 11.8983 12.4926C11.9991 12.4489 12.0856 12.3775 12.1476 12.2868C12.2096 12.196 12.2448 12.0896 12.2489 11.9797C12.2531 11.8698 12.2261 11.761 12.1711 11.6659L11.0335 9.69531Z" fill="#1A9F3E"/>
<path d="M6.99992 2.625C6.42306 2.625 5.85915 2.79606 5.37951 3.11655C4.89986 3.43703 4.52603 3.89256 4.30527 4.42551C4.08452 4.95846 4.02676 5.5449 4.1393 6.11068C4.25184 6.67646 4.52962 7.19616 4.93753 7.60406C5.34543 8.01196 5.86513 8.28975 6.43091 8.40229C6.99668 8.51483 7.58313 8.45707 8.11608 8.23632C8.64903 8.01556 9.10455 7.64172 9.42504 7.16208C9.74553 6.68244 9.91659 6.11853 9.91659 5.54167C9.91568 4.7684 9.60809 4.02706 9.06131 3.48028C8.51452 2.93349 7.77319 2.62591 6.99992 2.625ZM8.40925 4.82845L7.24259 6.57845C7.21864 6.61433 7.18703 6.64445 7.15004 6.66664C7.11306 6.68883 7.0716 6.70254 7.02868 6.70679C7.019 6.70775 7.00931 6.70833 6.99992 6.70833C6.92257 6.70832 6.8484 6.67758 6.79371 6.62288L5.91871 5.74788C5.86558 5.69287 5.83618 5.61919 5.83685 5.54272C5.83751 5.46624 5.86819 5.39309 5.92226 5.33901C5.97634 5.28493 6.0495 5.25426 6.12597 5.25359C6.20244 5.25293 6.27612 5.28233 6.33113 5.33546L6.95462 5.95895L7.92389 4.50488C7.96683 4.44059 8.03354 4.39597 8.10936 4.38084C8.18517 4.36571 8.2639 4.3813 8.32822 4.42419C8.39255 4.46707 8.43722 4.53375 8.45241 4.60955C8.46761 4.68535 8.45208 4.76409 8.40925 4.82845Z" fill="#1A9F3E"/>
<path d="M8.16958 10.7709C8.42849 10.6872 8.65701 10.5291 8.82662 10.3163C8.91359 10.2135 9.0158 10.1247 9.12969 10.0529C9.25719 10.0053 9.39137 9.97799 9.52732 9.97198C9.79502 9.96766 10.0555 9.88447 10.2761 9.73281C10.4702 9.54453 10.6064 9.30469 10.6686 9.04156C10.7044 8.90719 10.7603 8.77899 10.8344 8.66132C10.9285 8.56313 11.0372 8.48003 11.1566 8.41495C11.3974 8.29212 11.5973 8.10191 11.7319 7.86749C11.8258 7.61559 11.8466 7.34227 11.7918 7.07908C11.7666 6.93909 11.7629 6.79609 11.7806 6.65497C11.823 6.52654 11.8846 6.40525 11.9632 6.29523C12.1288 6.07662 12.2284 5.81514 12.25 5.54174C12.2282 5.26853 12.1288 5.00723 11.9635 4.78865C11.8847 4.67857 11.823 4.55718 11.7806 4.42862C11.7628 4.2876 11.7666 4.1447 11.7917 4.0048C11.8465 3.74164 11.8258 3.46835 11.7322 3.2164C11.5975 2.9822 11.3977 2.79212 11.1571 2.66923C11.0376 2.60397 10.9288 2.52068 10.8347 2.42228C10.7605 2.30459 10.7045 2.1764 10.6686 2.04203C10.6065 1.77898 10.4704 1.5392 10.2764 1.35104C10.0558 1.19939 9.79528 1.1162 9.52758 1.11188C9.39163 1.10586 9.25746 1.07857 9.12995 1.031C9.0162 0.958995 8.91401 0.870165 8.82688 0.767533C8.65724 0.554508 8.42863 0.396133 8.16958 0.312154C7.90748 0.275073 7.64027 0.315783 7.4011 0.429229C7.27374 0.485136 7.13839 0.520724 7 0.534696C6.86172 0.520775 6.72649 0.485215 6.59925 0.429317C6.36005 0.315685 6.09265 0.275104 5.8305 0.31265C5.57158 0.396322 5.34303 0.5544 5.17338 0.767154C5.08641 0.86994 4.9842 0.958792 4.87031 1.03062C4.74281 1.07819 4.60863 1.10548 4.47268 1.1115C4.20498 1.11582 3.9445 1.19901 3.72385 1.35066C3.52979 1.53894 3.39361 1.77879 3.33136 2.04191C3.29556 2.17629 3.23967 2.30448 3.16558 2.42216C3.07149 2.52034 2.96283 2.60344 2.84343 2.66853C2.60261 2.79136 2.4027 2.98157 2.26806 3.21599C2.17416 3.46789 2.15342 3.74121 2.20824 4.00439C2.23337 4.14439 2.23712 4.28739 2.21935 4.4285C2.17698 4.55694 2.11542 4.67823 2.03677 4.78825C1.87116 5.00686 1.77164 5.26834 1.75 5.54174C1.77176 5.81495 1.87118 6.07624 2.03653 6.29482C2.11533 6.4049 2.17699 6.52629 2.21941 6.65486C2.23719 6.79593 2.23344 6.93888 2.2083 7.07882C2.15352 7.34199 2.17416 7.61527 2.26783 7.86723C2.40253 8.10142 2.6023 8.2915 2.8429 8.41439C2.96244 8.47965 3.07119 8.56295 3.16534 8.66135C3.23948 8.77903 3.29546 8.90722 3.33139 9.04159C3.39346 9.30465 3.52956 9.54443 3.72359 9.73258C3.94424 9.88423 4.20472 9.96743 4.47242 9.97175C4.60837 9.97776 4.74254 10.0051 4.87005 10.0526C4.9838 10.1246 5.08599 10.2135 5.17312 10.3161C5.34278 10.5291 5.57138 10.6874 5.83042 10.7713C6.09251 10.8083 6.3597 10.7676 6.5989 10.6542C6.72626 10.5983 6.86161 10.5628 7 10.5488C7.13828 10.5627 7.27351 10.5983 7.40075 10.6542C7.58584 10.7338 7.78348 10.7804 7.98467 10.7917C8.0469 10.7919 8.10895 10.785 8.16958 10.7709ZM7 9.04174C6.30777 9.04174 5.63108 8.83647 5.0555 8.45188C4.47993 8.0673 4.03133 7.52067 3.76642 6.88113C3.50151 6.24159 3.4322 5.53786 3.56725 4.85892C3.7023 4.17999 4.03564 3.55635 4.52513 3.06686C5.01461 2.57738 5.63825 2.24404 6.31718 2.10899C6.99612 1.97394 7.69985 2.04325 8.33939 2.30816C8.97893 2.57307 9.52556 3.02167 9.91014 3.59724C10.2947 4.17281 10.5 4.8495 10.5 5.54174C10.499 6.46969 10.1299 7.35934 9.47376 8.0155C8.8176 8.67165 7.92795 9.04073 7 9.04174Z" fill="#1A9F3E"/>
</svg>
