<svg width="16" height="16" viewBox="0 0 16 16" fill="none" xmlns="http://www.w3.org/2000/svg">
<path d="M6.51488 12.9601C6.09037 12.8393 5.71258 12.5924 5.43154 12.2521C5.38108 12.1997 5.30981 12.1258 5.26821 12.0897C5.21384 12.0783 5.11098 12.0672 5.03938 12.0594C4.60445 12.0446 4.18426 11.8981 3.83431 11.6394C3.64945 11.4862 3.49827 11.2965 3.39024 11.082L2.09041 13.3338C2.02756 13.4426 1.99673 13.5668 2.00145 13.6923C2.00617 13.8179 2.04626 13.9395 2.1171 14.0432C2.18793 14.1469 2.28664 14.2285 2.40182 14.2785C2.51701 14.3285 2.644 14.345 2.76814 14.326L3.92861 14.1496L4.35634 15.2437C4.40161 15.3609 4.4793 15.4627 4.58035 15.5374C4.68139 15.612 4.80159 15.6564 4.92691 15.6652C4.94415 15.6665 4.96141 15.6672 4.97868 15.6672C5.09555 15.6674 5.21042 15.6368 5.31157 15.5782C5.41272 15.5196 5.49655 15.4353 5.55451 15.3338L6.90298 12.998C6.89298 12.9982 6.88368 13.0002 6.87351 13.0002C6.75284 13.0004 6.63253 12.9869 6.51488 12.9601Z" fill="white" fill-opacity="0.44"/>
<path d="M12.61 11.082C12.5021 11.2966 12.351 11.4866 12.1662 11.6401C11.8162 11.8987 11.3961 12.0451 10.9612 12.0601C10.8889 12.0679 10.7857 12.079 10.7317 12.0904C10.69 12.1265 10.6181 12.201 10.5683 12.2531C10.2879 12.5924 9.91118 12.8388 9.48792 12.9598C9.36908 12.9872 9.24751 13.0009 9.12556 13.0008C9.11592 13.0008 9.10719 12.9989 9.09766 12.9987L10.4459 15.3341C10.5038 15.4356 10.5876 15.5199 10.6888 15.5785C10.7899 15.637 10.9048 15.6677 11.0217 15.6674C11.0389 15.6674 11.0562 15.6668 11.0735 15.6655C11.1989 15.6566 11.3191 15.6122 11.4203 15.5375C11.5214 15.4628 11.5991 15.3609 11.6444 15.2436L12.0718 14.1499L13.2318 14.3263C13.356 14.3454 13.4831 14.329 13.5983 14.279C13.7136 14.229 13.8124 14.1474 13.8833 14.0437C13.9542 13.94 13.9943 13.8183 13.999 13.6928C14.0038 13.5672 13.9729 13.4429 13.9101 13.3341L12.61 11.082Z" fill="white" fill-opacity="0.44"/>
<path d="M7.99984 3C7.34057 3 6.6961 3.1955 6.14794 3.56177C5.59977 3.92804 5.17253 4.44863 4.92024 5.05772C4.66795 5.66681 4.60194 6.33703 4.73055 6.98363C4.85917 7.63024 5.17664 8.22418 5.64282 8.69036C6.10899 9.15653 6.70293 9.474 7.34954 9.60262C7.99614 9.73124 8.66636 9.66522 9.27545 9.41293C9.88454 9.16064 10.4051 8.7334 10.7714 8.18523C11.1377 7.63707 11.3332 6.9926 11.3332 6.33333C11.3321 5.4496 10.9806 4.60236 10.3557 3.97746C9.73082 3.35256 8.88357 3.00104 7.99984 3ZM9.61051 5.51823L8.27717 7.51823C8.2498 7.55924 8.21368 7.59366 8.17141 7.61902C8.12914 7.64438 8.08176 7.66005 8.03271 7.6649C8.02164 7.666 8.01057 7.66667 7.99984 7.66667C7.91144 7.66665 7.82667 7.63152 7.76417 7.569L6.76417 6.569C6.70345 6.50613 6.66985 6.42193 6.67061 6.33453C6.67137 6.24713 6.70643 6.16353 6.76823 6.10173C6.83004 6.03992 6.91364 6.00487 7.00104 6.00411C7.08844 6.00335 7.17264 6.03695 7.23551 6.09767L7.94807 6.81023L9.05581 5.14843C9.10488 5.07496 9.18112 5.02397 9.26777 5.00668C9.35441 4.98939 9.44438 5.00721 9.5179 5.05622C9.59142 5.10523 9.64247 5.18142 9.65983 5.26806C9.6772 5.35469 9.65946 5.44468 9.61051 5.51823Z" fill="white" fill-opacity="0.44"/>
<path d="M9.33667 12.3099C9.63256 12.2142 9.89373 12.0335 10.0876 11.7904C10.187 11.6729 10.3038 11.5713 10.4339 11.4893C10.5796 11.4349 10.733 11.4037 10.8884 11.3968C11.1943 11.3919 11.492 11.2968 11.7442 11.1235C11.966 10.9083 12.1216 10.6342 12.1927 10.3335C12.2336 10.1799 12.2975 10.0334 12.3822 9.89893C12.4897 9.78672 12.6139 9.69175 12.7504 9.61736C13.0256 9.47698 13.2541 9.2596 13.4079 8.99169C13.5152 8.70381 13.5389 8.39144 13.4763 8.09066C13.4476 7.93067 13.4433 7.76724 13.4636 7.60596C13.512 7.45918 13.5824 7.32056 13.6723 7.19483C13.8615 6.94499 13.9753 6.64615 14 6.33369C13.9751 6.02145 13.8615 5.72283 13.6725 5.47303C13.5825 5.34722 13.512 5.20849 13.4635 5.06156C13.4432 4.90039 13.4475 4.73708 13.4762 4.57719C13.5388 4.27643 13.5152 3.96411 13.4082 3.67616C13.2543 3.40851 13.0259 3.19128 12.751 3.05083C12.6144 2.97625 12.4901 2.88105 12.3825 2.76859C12.2977 2.6341 12.2338 2.48759 12.1927 2.33403C12.1218 2.03339 11.9662 1.75936 11.7445 1.54433C11.4923 1.37101 11.1946 1.27593 10.8887 1.27099C10.7333 1.26412 10.5799 1.23293 10.4342 1.17856C10.3042 1.09627 10.1874 0.994753 10.0879 0.87746C9.89398 0.634002 9.63273 0.453002 9.33667 0.357027C9.03713 0.314648 8.73173 0.361173 8.4584 0.490827C8.31284 0.55472 8.15816 0.595392 8 0.61136C7.84197 0.59545 7.68742 0.55481 7.542 0.490927C7.26863 0.361062 6.96303 0.314683 6.66343 0.357593C6.36752 0.453218 6.10632 0.633879 5.91243 0.877027C5.81304 0.994496 5.69622 1.09604 5.56607 1.17813C5.42035 1.2325 5.26701 1.26369 5.11163 1.27056C4.80569 1.2755 4.508 1.37058 4.25583 1.54389C4.03405 1.75907 3.87841 2.03318 3.80727 2.33389C3.76636 2.48747 3.70248 2.63397 3.6178 2.76846C3.51027 2.88067 3.38609 2.97564 3.24963 3.05003C2.97441 3.19041 2.74595 3.40779 2.59207 3.67569C2.48476 3.96358 2.46105 4.27595 2.5237 4.57673C2.55242 4.73672 2.55671 4.90015 2.5364 5.06143C2.48798 5.20821 2.41763 5.34682 2.32773 5.47256C2.13846 5.7224 2.02473 6.02123 2 6.33369C2.02487 6.64593 2.13849 6.94456 2.32747 7.19436C2.41752 7.32017 2.48799 7.4589 2.53647 7.60583C2.55679 7.76705 2.55251 7.93042 2.52377 8.09036C2.46117 8.39112 2.48475 8.70344 2.5918 8.99139C2.74575 9.25905 2.97406 9.47628 3.24903 9.61673C3.38564 9.69131 3.50994 9.7865 3.61753 9.89896C3.70227 10.0335 3.76624 10.18 3.8073 10.3335C3.87824 10.6342 4.03378 10.9082 4.25553 11.1232C4.5077 11.2965 4.80539 11.3916 5.11133 11.3966C5.26671 11.4034 5.42005 11.4346 5.56577 11.489C5.69577 11.5713 5.81256 11.6728 5.91213 11.7901C6.10604 12.0335 6.3673 12.2144 6.66333 12.3104C6.96287 12.3526 7.26823 12.3061 7.5416 12.1766C7.68716 12.1127 7.84184 12.072 8 12.056C8.15803 12.0719 8.31258 12.1126 8.458 12.1765C8.66953 12.2675 8.8954 12.3207 9.12533 12.3337C9.19646 12.3339 9.26737 12.326 9.33667 12.3099ZM8 10.3337C7.20887 10.3337 6.43552 10.0991 5.77772 9.65957C5.11992 9.22005 4.60723 8.59533 4.30448 7.86443C4.00173 7.13352 3.92252 6.32926 4.07686 5.55333C4.2312 4.77741 4.61216 4.06468 5.17157 3.50527C5.73098 2.94586 6.44371 2.56489 7.21964 2.41055C7.99556 2.25621 8.79983 2.33542 9.53073 2.63818C10.2616 2.94093 10.8864 3.45362 11.3259 4.11141C11.7654 4.76921 12 5.54257 12 6.33369C11.9988 7.39421 11.577 8.41095 10.8272 9.16084C10.0773 9.91074 9.06051 10.3325 8 10.3337Z" fill="white" fill-opacity="0.44"/>
</svg>
