<svg width="32" height="33" viewBox="0 0 32 33" fill="none" xmlns="http://www.w3.org/2000/svg">
<g clip-path="url(#clip0_439_50104)">
<path fill-rule="evenodd" clip-rule="evenodd" d="M29.563 32.1147H2.43706C1.44351 32.1147 1.44351 30.615 2.43706 30.615H3.56184V20.1733C3.56184 19.7608 3.89928 19.4234 4.3117 19.4234H9.99184C10.4043 19.4234 10.7417 19.7608 10.7417 20.1733V30.615H12.3726V16.8552C12.3726 16.4427 12.7101 16.1053 13.1225 16.1053H18.8776C19.29 16.1053 19.6275 16.4427 19.6275 16.8552V30.615H21.2396V12.2436C21.2396 11.8311 21.5771 11.4937 21.9895 11.4937H27.6884C28.1008 11.4937 28.4382 11.8311 28.4382 12.2436V30.615H29.563C30.5378 30.615 30.5378 32.1147 29.563 32.1147ZM4.74286 18.6736C4.29295 18.6736 3.93677 18.2611 4.01175 17.8112L4.38668 15.5054L2.71826 13.837C2.28709 13.4058 2.53079 12.656 3.13068 12.5622L5.43648 12.2436L6.50502 10.0877C6.76747 9.54409 7.57356 9.52534 7.85475 10.1065L8.86706 12.2436L11.1541 12.5622C11.754 12.6372 11.9977 13.4058 11.5665 13.837L9.8981 15.5054L10.273 17.8112C10.3855 18.4299 9.74813 18.8798 9.18574 18.5986L7.16114 17.53L5.06155 18.5986C4.98656 18.6548 4.87409 18.6736 4.74286 18.6736ZM15.3158 5.92604C15.597 5.34491 16.4031 5.34491 16.6655 5.92604L17.6778 8.04438L20.0399 8.36307C20.6585 8.4568 20.9022 9.20665 20.4523 9.65656L18.7464 11.3062L19.1775 13.5933C19.29 14.2119 18.6339 14.6806 18.0903 14.3994L15.9907 13.3308L13.9098 14.3994C13.3474 14.6806 12.7101 14.2119 12.8225 13.5933L13.2537 11.3062L11.5478 9.65656C11.0979 9.2254 11.3228 8.4568 11.9602 8.36307L14.3035 8.04438L15.3158 5.92604ZM24.8202 7.91315L22.7956 9.01919C22.2519 9.31913 21.5958 8.86922 21.6896 8.25059L22.0645 5.88855L20.4148 4.27636C19.9461 3.82645 20.2273 3.09535 20.8085 3.00161L23.1143 2.62669L24.1266 0.527097C24.4078 -0.0165466 25.1951 -0.0352929 25.4763 0.527097L26.5449 2.62669L28.8694 3.00161C29.4693 3.09535 29.713 3.8452 29.2631 4.27636L27.6134 5.88855L27.9883 8.25059C28.0821 8.85047 27.4447 9.31913 26.8823 9.01919L24.8202 7.91315Z" fill="url(#paint0_linear_439_50104)"/>
</g>
<defs>
<linearGradient id="paint0_linear_439_50104" x1="1.69189" y1="16.043" x2="30.2941" y2="16.043" gradientUnits="userSpaceOnUse">
<stop stop-color="#F0C645"/>
<stop offset="0.495" stop-color="#FAF283"/>
<stop offset="1" stop-color="#EBC944"/>
</linearGradient>
<clipPath id="clip0_439_50104">
<rect width="32" height="32" fill="white" transform="translate(0 0.114258)"/>
</clipPath>
</defs>
</svg>
