<svg width="12" height="12" viewBox="0 0 12 12" fill="none" xmlns="http://www.w3.org/2000/svg">
<g clip-path="url(#clip0_247_39843)">
<path d="M6 12C9.31371 12 12 9.31371 12 6C12 2.68629 9.31371 0 6 0C2.68629 0 0 2.68629 0 6C0 9.31371 2.68629 12 6 12Z" fill="#6DA544"/>
<path d="M3.39124 7.17383C3.39124 7.60604 3.74163 7.95643 4.17384 7.95643H6.52166C6.52166 8.31662 6.81365 8.6086 7.17384 8.6086H7.95644C8.31663 8.6086 8.60861 8.31662 8.60861 7.95643V7.17383H3.39124Z" fill="#F0F0F0"/>
<path d="M8.67384 3.3916V5.21769C8.67384 5.50538 8.43979 5.73943 8.1521 5.73943V6.52203C8.87133 6.52203 9.45644 5.93689 9.45644 5.21769V3.3916H8.67384Z" fill="#F0F0F0"/>
<path d="M3.0652 5.21769C3.0652 5.50538 2.83115 5.73943 2.54346 5.73943V6.52203C3.26268 6.52203 3.8478 5.93689 3.8478 5.21769V3.3916H3.0652V5.21769Z" fill="#F0F0F0"/>
<path d="M7.5 3.3916H8.2826V5.21769H7.5V3.3916Z" fill="#F0F0F0"/>
<path d="M6.32608 4.43509C6.32608 4.50702 6.26756 4.56552 6.19565 4.56552C6.12375 4.56552 6.06522 4.50699 6.06522 4.43509V3.3916H5.28262V4.43509C5.28262 4.50702 5.2241 4.56552 5.15219 4.56552C5.08028 4.56552 5.02176 4.50699 5.02176 4.43509V3.3916H4.23914V4.43509C4.23914 4.93855 4.64873 5.34814 5.15219 5.34814C5.34609 5.34814 5.5259 5.2872 5.67393 5.1837C5.82194 5.28718 6.00178 5.34814 6.19567 5.34814C6.23472 5.34814 6.27311 5.3454 6.31087 5.34059C6.25542 5.56909 6.04964 5.73943 5.80436 5.73943V6.52203C6.52359 6.52203 7.10871 5.93689 7.10871 5.21769V4.43509V3.3916H6.3261V4.43509H6.32608Z" fill="#F0F0F0"/>
<path d="M4.23914 5.73926H5.41305V6.52186H4.23914V5.73926Z" fill="#F0F0F0"/>
</g>
<defs>
<clipPath id="clip0_247_39843">
<rect width="12" height="12" fill="white"/>
</clipPath>
</defs>
</svg>
