<svg width="36" height="24" viewBox="0 0 36 24" fill="none" xmlns="http://www.w3.org/2000/svg">
<g clip-path="url(#clip0_348_74187)">
<path fill-rule="evenodd" clip-rule="evenodd" d="M35.9963 22.646C35.9963 23.3482 35.4621 23.9216 34.7994 23.9216H1.20059C0.537887 23.9216 0.00366211 23.3482 0.00366211 22.646V1.35573C0.00366211 0.653535 0.537887 0.0800781 1.20059 0.0800781H34.7929C35.4621 0.0800781 35.9963 0.653535 35.9963 1.35573V22.646Z" fill="#872165"/>
<path fill-rule="evenodd" clip-rule="evenodd" d="M24.2764 6.80888L26.0616 6.47201V13.7241H24.2764V6.80888ZM26.8799 6.80888V13.7241H28.665V6.47201L26.8799 6.80888ZM21.7401 13.7241H23.5189V8.42093H21.7401V13.7241ZM9.95197 9.1666C9.7218 9.1519 9.20115 9.11622 9.20115 8.62168C9.20115 8.01993 9.95197 8.01993 10.2359 8.01993C10.7296 8.01993 11.3719 8.17029 11.8318 8.32104C11.8318 8.32104 12.0888 8.4141 12.3053 8.51447L12.3256 8.52186V8.49985V6.87317L12.2986 6.86626C11.7574 6.66552 11.1284 6.47209 9.95865 6.47209C7.95 6.47209 7.23975 7.7115 7.23975 8.77203C7.23975 9.38856 7.48327 10.8292 9.78945 11.001C9.98565 11.0084 10.4995 11.0442 10.4995 11.5529C10.4995 11.9828 10.0804 12.2334 9.36345 12.2334C8.5857 12.2334 7.8216 12.0185 7.36155 11.8178V13.5164C8.05147 13.7025 8.82922 13.8029 9.7422 13.8029C11.7101 13.8029 12.5893 12.6277 12.5893 11.4667C12.5893 10.1411 11.602 9.28811 9.95197 9.1666ZM20.7323 8.34258C19.0822 8.39987 18.2504 9.18091 18.2504 10.7361V13.7241H20.0425V11.2874C20.0425 10.3561 20.1641 9.95463 21.2059 9.91879V8.37095C21.0298 8.3278 20.7323 8.34258 20.7323 8.34258ZM15.8962 8.41402C15.8556 8.5217 15.5653 9.37426 14.8755 10.2631V6.47201L13.0357 6.85887V13.7241H14.8755V11.6028C15.4096 12.4485 15.6736 13.7241 15.6736 13.7241H17.878C17.6616 12.7638 16.7077 10.9937 16.7077 10.9937C17.5599 9.83995 17.9389 8.61484 17.9999 8.4141L15.8962 8.41402ZM22.6261 7.91217C23.1131 7.91217 23.505 7.49685 23.505 6.98078C23.505 6.46462 23.1131 6.04883 22.6261 6.04883C22.1459 6.04883 21.7536 6.46454 21.7536 6.98078C21.7536 7.49685 22.1458 7.91217 22.6261 7.91217Z" fill="white"/>
<path fill-rule="evenodd" clip-rule="evenodd" d="M9.28241 17.2923V16.1744C9.28241 16.0457 9.23501 15.9522 9.11321 15.9522C9.01848 15.9522 8.93073 16.0168 8.83601 16.1102V17.2923H8.31543V16.1744C8.31543 16.0457 8.27478 15.9522 8.15298 15.9522C8.05826 15.9522 7.97043 16.0168 7.87578 16.1102V17.2923H7.35498V15.5012H7.81503L7.85546 15.7445C8.00426 15.5869 8.15981 15.4648 8.37626 15.4648C8.60613 15.4648 8.73461 15.5868 8.79543 15.7445C8.95113 15.5869 9.11328 15.4648 9.32313 15.4648C9.63408 15.4648 9.80305 15.673 9.80305 16.0241V17.2923H9.28241Z" fill="white"/>
<path fill-rule="evenodd" clip-rule="evenodd" d="M10.8717 17.328C10.4049 17.328 10.0669 16.9701 10.0669 16.404C10.0669 15.8306 10.4119 15.4648 10.8784 15.4648C11.3452 15.4648 11.6901 15.8234 11.6901 16.3968C11.6901 16.9702 11.3384 17.328 10.8717 17.328ZM10.8784 15.9163C10.6755 15.9163 10.5674 16.1029 10.5674 16.3967C10.5674 16.6831 10.6823 16.8839 10.8784 16.8839C11.0746 16.8839 11.1827 16.6905 11.1827 16.404C11.1827 16.1102 11.0746 15.9163 10.8784 15.9163Z" fill="white"/>
<path fill-rule="evenodd" clip-rule="evenodd" d="M12.9411 17.2923V16.1744C12.9411 16.0457 12.8939 15.9522 12.7723 15.9522C12.6708 15.9522 12.576 16.0168 12.4812 16.1171V17.2923H11.9604V15.5012H12.4205L12.4609 15.7445C12.6097 15.5941 12.7723 15.4648 12.9887 15.4648C13.2996 15.4648 13.4619 15.673 13.4619 16.0241V17.2923H12.9411Z" fill="white"/>
<path fill-rule="evenodd" clip-rule="evenodd" d="M15.2609 16.5328H14.2465C14.2802 16.8193 14.4359 16.927 14.6657 16.927C14.8482 16.927 15.0312 16.8556 15.2203 16.7403L15.2678 17.1278C15.0849 17.2491 14.8621 17.328 14.5978 17.328C14.0908 17.328 13.7327 17.0416 13.7327 16.404C13.7327 15.8233 14.0636 15.4648 14.5238 15.4648C15.0442 15.4648 15.2744 15.8738 15.2744 16.3968C15.2743 16.4467 15.2678 16.504 15.2609 16.5328ZM14.51 15.8233C14.3684 15.8233 14.2599 15.9594 14.2465 16.2317H14.7743C14.7604 15.9668 14.6726 15.8233 14.51 15.8233Z" fill="white"/>
<path fill-rule="evenodd" clip-rule="evenodd" d="M16.4579 17.3295C16.3096 17.7952 16.0998 17.9534 15.7342 17.9534C15.6262 17.9534 15.5859 17.946 15.5383 17.9319L15.4705 17.4945C15.525 17.5088 15.5785 17.5229 15.6802 17.5229C15.7954 17.5229 15.8965 17.4729 15.9511 17.351L15.9714 17.2937L15.3623 15.5451L15.9169 15.4805L16.2418 16.6057L16.5528 15.5025H17.0602L16.4579 17.3295Z" fill="white"/>
<path fill-rule="evenodd" clip-rule="evenodd" d="M17.9861 17.3152C17.7162 17.3152 17.4589 17.2653 17.2625 17.1864V14.7425L17.7837 14.6562V15.7027C17.8919 15.5882 18.0338 15.4661 18.2366 15.4661C18.5815 15.4661 18.8384 15.7458 18.8384 16.3481C18.8384 17.0141 18.5075 17.3152 17.9861 17.3152ZM18.0675 15.9608C17.9594 15.9608 17.8715 16.0327 17.7837 16.1326V16.8422C17.8511 16.8637 17.8919 16.8711 17.9732 16.8711C18.1757 16.8711 18.3179 16.7417 18.3179 16.3838C18.3179 16.0901 18.2163 15.9608 18.0675 15.9608Z" fill="white"/>
<path fill-rule="evenodd" clip-rule="evenodd" d="M19.846 17.328C19.3862 17.328 19.0415 16.9701 19.0415 16.404C19.0415 15.8306 19.3862 15.4648 19.853 15.4648C20.32 15.4648 20.6647 15.8234 20.6647 16.3968C20.6647 16.9702 20.3201 17.328 19.846 17.328ZM19.8531 15.9163C19.6498 15.9163 19.5485 16.1029 19.5485 16.3967C19.5485 16.6831 19.657 16.8839 19.8531 16.8839C20.0489 16.8839 20.164 16.6905 20.164 16.404C20.164 16.1102 20.0489 15.9163 19.8531 15.9163Z" fill="white"/>
<path fill-rule="evenodd" clip-rule="evenodd" d="M21.6659 17.328C21.199 17.328 20.8542 16.9701 20.8542 16.404C20.8542 15.8306 21.1991 15.4648 21.6659 15.4648C22.1326 15.4648 22.4772 15.8234 22.4772 16.3968C22.4772 16.9702 22.1326 17.328 21.6659 17.328ZM21.6659 15.9163C21.4699 15.9163 21.3618 16.1029 21.3618 16.3967C21.3618 16.6831 21.4698 16.8839 21.6659 16.8839C21.8686 16.8839 21.9768 16.6905 21.9768 16.404C21.9767 16.1102 21.8686 15.9163 21.6659 15.9163Z" fill="white"/>
<path fill-rule="evenodd" clip-rule="evenodd" d="M23.762 17.3152L23.2754 16.4622V17.2937H22.7546V14.7425L23.2754 14.6562V16.2404L23.7287 15.5025H24.2833L23.7555 16.3192L24.3037 17.2363L23.762 17.3152Z" fill="white"/>
<path fill-rule="evenodd" clip-rule="evenodd" d="M25.8721 16.5328H24.8582C24.8849 16.8193 25.0473 16.927 25.2703 16.927C25.4598 16.927 25.6424 16.8556 25.8314 16.7403L25.8791 17.1278C25.6964 17.2491 25.4738 17.328 25.2093 17.328C24.7023 17.328 24.3438 17.0416 24.3438 16.404C24.3438 15.8233 24.6821 15.4648 25.1349 15.4648C25.6558 15.4648 25.886 15.8738 25.886 16.3968C25.886 16.4467 25.8791 16.504 25.8721 16.5328ZM25.1216 15.8233C24.9797 15.8233 24.8711 15.9594 24.8582 16.2317H25.385C25.3721 15.9668 25.2842 15.8233 25.1216 15.8233Z" fill="white"/>
<path fill-rule="evenodd" clip-rule="evenodd" d="M26.6841 16.2963V17.2923H26.1633V15.5012H26.6161L26.6706 15.8591C26.7719 15.6514 26.9138 15.4865 27.1643 15.4648L27.252 16.0314C27.0015 16.0456 26.8125 16.1528 26.6841 16.2963Z" fill="white"/>
<path fill-rule="evenodd" clip-rule="evenodd" d="M28.0704 17.3221C27.8001 17.3221 27.5497 17.2438 27.374 17.1433L27.4345 16.7203C27.6374 16.857 27.881 16.9353 28.0705 16.9353C28.2193 16.9353 28.2869 16.8853 28.2869 16.7992C28.2869 16.7061 28.2397 16.6704 28.0027 16.6057C27.5765 16.4911 27.4009 16.3691 27.4009 16.0327C27.4009 15.7027 27.631 15.4805 28.0432 15.4805C28.2733 15.4805 28.4897 15.524 28.6652 15.6098L28.6047 16.0327C28.4221 15.925 28.2125 15.8604 28.0502 15.8604C27.9212 15.8604 27.8675 15.9109 27.8675 15.9822C27.8675 16.0542 27.9147 16.09 28.1512 16.1615C28.6046 16.2904 28.7603 16.4123 28.7603 16.7417C28.7604 17.1145 28.5169 17.3221 28.0704 17.3221Z" fill="white"/>
</g>
<defs>
<clipPath id="clip0_348_74187">
<rect width="36" height="24" fill="white"/>
</clipPath>
</defs>
</svg>
