<svg width="16" height="16" viewBox="0 0 16 16" fill="none" xmlns="http://www.w3.org/2000/svg">
<g clip-path="url(#clip0_336_73702)">
<path d="M12.9387 4.67685L10.2972 4.29301L9.11584 1.89942C8.65974 0.97511 7.34034 0.974766 6.88403 1.89939L5.70269 4.29301L3.06116 4.67685C2.04116 4.82504 1.63319 6.07969 2.37151 6.79944L4.28294 8.66263L3.83172 11.2934C3.65747 12.3092 4.72453 13.085 5.63731 12.6053L7.99993 11.3631L10.3626 12.6053C11.2765 13.0856 12.342 12.307 12.1681 11.2934L11.7169 8.66263L13.6284 6.79944C14.3664 6.07994 13.9591 4.82513 12.9387 4.67685Z" fill="white" fill-opacity="0.44"/>
<path d="M4.21055 1.4737L3.57271 0.595824C3.39955 0.357574 3.06602 0.304731 2.82777 0.477887C2.58949 0.651011 2.53668 0.984542 2.7098 1.22282L3.34765 2.1007C3.5209 2.33907 3.85446 2.39173 4.09258 2.21863C4.33086 2.04554 4.38368 1.71198 4.21055 1.4737Z" fill="white" fill-opacity="0.44"/>
<path d="M2.09364 9.34037C2.00261 9.06028 1.7018 8.90684 1.42161 8.99796L0.368645 9.34012C0.0885206 9.43109 -0.0647603 9.73199 0.0262395 10.0121C0.117427 10.2928 0.418864 10.4455 0.698269 10.3546L1.75127 10.0124C2.03139 9.92143 2.18467 9.62053 2.09364 9.34037Z" fill="white" fill-opacity="0.44"/>
<path d="M13.1727 0.477896C12.9344 0.30474 12.6009 0.357552 12.4277 0.595833L11.7899 1.47371C11.6167 1.71199 11.6696 2.04555 11.9079 2.21864C12.1462 2.39183 12.4797 2.33889 12.6528 2.1007L13.2906 1.22283C13.4638 0.984551 13.411 0.65102 13.1727 0.477896Z" fill="white" fill-opacity="0.44"/>
<path d="M15.6312 9.34015L14.5782 8.99799C14.298 8.9068 13.9972 9.06027 13.9061 9.3404C13.8151 9.62052 13.9684 9.92139 14.2485 10.0124L15.3015 10.3546C15.5811 10.4455 15.8824 10.2927 15.9736 10.0122C16.0646 9.73205 15.9113 9.43118 15.6312 9.34015Z" fill="white" fill-opacity="0.44"/>
<path d="M8.00011 13.4756C7.70558 13.4756 7.4668 13.7144 7.4668 14.0089V15.0913C7.4668 15.3859 7.70558 15.6246 8.00011 15.6246C8.29464 15.6246 8.53342 15.3859 8.53342 15.0913V14.0089C8.53345 13.7144 8.29467 13.4756 8.00011 13.4756Z" fill="white" fill-opacity="0.44"/>
</g>
<defs>
<clipPath id="clip0_336_73702">
<rect width="16" height="16" fill="white"/>
</clipPath>
</defs>
</svg>
