<svg width="16" height="16" viewBox="0 0 16 16" fill="none" xmlns="http://www.w3.org/2000/svg">
<path d="M11.5 0.375H9C8.79289 0.375 8.625 0.542893 8.625 0.75V1.5C8.625 1.70711 8.79289 1.875 9 1.875H11.5C11.7071 1.875 11.875 1.70711 11.875 1.5V0.75C11.875 0.542893 11.7071 0.375 11.5 0.375Z" fill="#57EAEA"/>
<path d="M4.25 5.875H1.75C1.65054 5.875 1.55516 5.91451 1.48483 5.98484C1.41451 6.05516 1.375 6.15054 1.375 6.25C1.375 6.34946 1.41451 6.44484 1.48483 6.51516C1.55516 6.58549 1.65054 6.625 1.75 6.625H4.25C4.34946 6.625 4.44484 6.58549 4.51516 6.51516C4.58549 6.44484 4.625 6.34946 4.625 6.25C4.625 6.15054 4.58549 6.05516 4.51516 5.98484C4.44484 5.91451 4.34946 5.875 4.25 5.875Z" fill="#57EAEA"/>
<path d="M4.125 9.25C4.125 9.15054 4.08549 9.05516 4.01516 8.98483C3.94484 8.91451 3.84946 8.875 3.75 8.875H1.25C1.15054 8.875 1.05516 8.91451 0.984835 8.98483C0.914509 9.05516 0.875 9.15054 0.875 9.25C0.875 9.34946 0.914509 9.44484 0.984835 9.51517C1.05516 9.58549 1.15054 9.625 1.25 9.625H3.75C3.84946 9.625 3.94484 9.58549 4.01516 9.51517C4.08549 9.44484 4.125 9.34946 4.125 9.25Z" fill="#57EAEA"/>
<path d="M4 10.375H2.25C2.15054 10.375 2.05516 10.4145 1.98483 10.4848C1.91451 10.5552 1.875 10.6505 1.875 10.75C1.875 10.8495 1.91451 10.9448 1.98483 11.0152C2.05516 11.0855 2.15054 11.125 2.25 11.125H4C4.09946 11.125 4.19484 11.0855 4.26516 11.0152C4.33549 10.9448 4.375 10.8495 4.375 10.75C4.375 10.6505 4.33549 10.5552 4.26516 10.4848C4.19484 10.4145 4.09946 10.375 4 10.375Z" fill="#57EAEA"/>
<path d="M4.125 7.75C4.125 7.65054 4.08549 7.55516 4.01516 7.48484C3.94484 7.41451 3.84946 7.375 3.75 7.375H0.5C0.400544 7.375 0.305161 7.41451 0.234835 7.48484C0.164509 7.55516 0.125 7.65054 0.125 7.75C0.125 7.84946 0.164509 7.94484 0.234835 8.01517C0.305161 8.08549 0.400544 8.125 0.5 8.125H3.75C3.84946 8.125 3.94484 8.08549 4.01516 8.01517C4.08549 7.94484 4.125 7.84946 4.125 7.75Z" fill="#57EAEA"/>
<path d="M10.25 8.5V4.25C7.90653 4.25 6 6.15653 6 8.5C6 10.8435 7.90653 12.75 10.25 12.75C12.5935 12.75 14.5 10.8435 14.5 8.5H10.25Z" fill="#57EAEA"/>
<path d="M14.3631 4.66728L14.7652 4.26516C14.8004 4.23044 14.8285 4.18908 14.8477 4.14346C14.867 4.09784 14.877 4.04887 14.8772 3.99937C14.8774 3.94987 14.8678 3.90081 14.8489 3.85504C14.8301 3.80927 14.8023 3.76768 14.7673 3.73268C14.7323 3.69767 14.6907 3.66994 14.645 3.65109C14.5992 3.63224 14.5501 3.62264 14.5006 3.62284C14.4511 3.62305 14.4022 3.63305 14.3565 3.65227C14.3109 3.67149 14.2696 3.69956 14.2348 3.73484L13.8163 4.15331C13.0104 3.48938 12.0349 3.06394 11 2.925V2.25H9.5V2.925C8.46511 3.06389 7.48963 3.48926 6.68366 4.15312L6.26516 3.73466C6.23044 3.69937 6.18908 3.6713 6.14346 3.65208C6.09784 3.63286 6.04887 3.62286 5.99937 3.62266C5.94987 3.62245 5.90081 3.63206 5.85504 3.65091C5.80927 3.66976 5.76768 3.69748 5.73268 3.73249C5.69767 3.76749 5.66995 3.80908 5.6511 3.85485C5.63225 3.90063 5.62264 3.94968 5.62285 3.99918C5.62305 4.04868 5.63305 4.09765 5.65227 4.14327C5.67149 4.18889 5.69956 4.23025 5.73485 4.26497L6.13694 4.66709C5.16451 5.70637 4.62396 7.07672 4.625 8.5C4.625 11.6016 7.14838 14.125 10.25 14.125C13.3516 14.125 15.875 11.6016 15.875 8.5C15.876 7.07679 15.3354 5.70651 14.3631 4.66728ZM10.25 13.125C9.33526 13.125 8.44107 12.8537 7.68049 12.3455C6.91991 11.8373 6.32711 11.115 5.97706 10.2699C5.627 9.4248 5.53541 8.49487 5.71387 7.59771C5.89233 6.70055 6.33281 5.87645 6.97963 5.22963C7.62645 4.58281 8.45055 4.14232 9.34771 3.96387C10.2449 3.78541 11.1748 3.877 12.0199 4.22706C12.865 4.57711 13.5873 5.16991 14.0955 5.93049C14.6038 6.69106 14.875 7.58526 14.875 8.5C14.875 9.10736 14.7554 9.70878 14.5229 10.2699C14.2905 10.831 13.9498 11.3409 13.5204 11.7704C13.0909 12.1998 12.581 12.5405 12.0199 12.7729C11.4588 13.0054 10.8574 13.125 10.25 13.125Z" fill="#57EAEA"/>
</svg>
