<svg width="16" height="16" viewBox="0 0 16 16" fill="none" xmlns="http://www.w3.org/2000/svg">
<path fill-rule="evenodd" clip-rule="evenodd" d="M6.58366 1.48275C7.47517 1.037 8.5245 1.037 9.41604 1.48275L12.8197 3.18461C13.4408 3.49516 13.8332 4.12997 13.8332 4.82439V9.85568C13.8332 10.9475 13.2707 11.9623 12.3448 12.541L8.9715 14.6493C8.37704 15.0209 7.62264 15.0209 7.02817 14.6493L3.65484 12.541C2.72896 11.9623 2.1665 10.9475 2.1665 9.85568V4.82439C2.1665 4.12997 2.55884 3.49516 3.17994 3.18461L6.58366 1.48275ZM10.3534 7.02055C10.5486 6.82528 10.5486 6.50872 10.3534 6.31346C10.1581 6.1182 9.84157 6.1182 9.6463 6.31346L7.33317 8.62655L6.35339 7.64681C6.15813 7.45155 5.84154 7.45155 5.64628 7.64681C5.45102 7.84208 5.45102 8.15861 5.64628 8.35388L6.97964 9.68721C7.07337 9.78101 7.20057 9.83368 7.33317 9.83368C7.46577 9.83368 7.59297 9.78101 7.6867 9.68721L10.3534 7.02055Z" fill="white" fill-opacity="0.44"/>
</svg>
