<svg width="36" height="23" viewBox="0 0 36 23" fill="none" xmlns="http://www.w3.org/2000/svg">
<g clip-path="url(#clip0_348_74175)">
<path d="M36 0.0273438H0V22.9746H36V0.0273438Z" fill="#0E4595"/>
<path d="M13.5324 16.0312L15.0721 7.04695H17.5349L15.9941 16.0312H13.5324ZM24.8913 7.24063C24.4035 7.05861 23.6389 6.86328 22.6842 6.86328C20.2507 6.86328 18.5365 8.08178 18.522 9.8282C18.5082 11.1192 19.7457 11.8394 20.6798 12.2691C21.6385 12.7095 21.9607 12.9903 21.9561 13.3836C21.9501 13.9858 21.1906 14.2609 20.4828 14.2609C19.4971 14.2609 18.9734 14.1247 18.1646 13.7893L17.8473 13.6466L17.5016 15.6578C18.0769 15.9086 19.1406 16.1258 20.2449 16.1371C22.8337 16.1371 24.5142 14.9325 24.5334 13.0676C24.5425 12.0455 23.8865 11.2678 22.4656 10.6265C21.6049 10.211 21.0777 9.93357 21.0833 9.51277C21.0833 9.13932 21.5295 8.73995 22.4936 8.73995C23.2989 8.72756 23.8824 8.90219 24.3369 9.08416L24.5575 9.18788L24.8913 7.24063ZM31.2287 7.04681H29.3257C28.7362 7.04681 28.295 7.20685 28.0361 7.79186L24.3787 16.0253H26.9647C26.9647 16.0253 27.3875 14.9182 27.4831 14.6752C27.7658 14.6752 30.278 14.6791 30.6372 14.6791C30.7109 14.9936 30.9367 16.0253 30.9367 16.0253H33.222L31.2287 7.04654V7.04681ZM28.2094 12.8483C28.4131 12.3307 29.1906 10.3368 29.1906 10.3368C29.1761 10.3608 29.3928 9.81668 29.5171 9.47936L29.6835 10.254C29.6835 10.254 30.1552 12.3986 30.2537 12.8483H28.2094ZM11.4417 7.04681L9.03065 13.1737L8.77371 11.9286C8.32487 10.4933 6.92641 8.93835 5.36304 8.15984L7.56762 16.017L10.1733 16.014L14.0504 7.04672H11.4417" fill="white"/>
<path d="M6.78087 7.04706H2.80975L2.77832 7.23399C5.86777 7.97766 7.91201 9.77484 8.76078 11.934L7.89724 7.80537C7.74817 7.23651 7.31584 7.06675 6.78097 7.04688" fill="#F2AE14"/>
</g>
<defs>
<clipPath id="clip0_348_74175">
<rect width="36" height="23" fill="white"/>
</clipPath>
</defs>
</svg>
