<svg width="16" height="16" viewBox="0 0 16 16" fill="none" xmlns="http://www.w3.org/2000/svg">
<path d="M2.24421 4.00586C2.11273 4.00604 1.98661 4.05799 1.89315 4.15047C1.7997 4.24295 1.74643 4.36852 1.74487 4.49999V11.5006C1.74487 11.9235 1.82832 12.3493 2.09187 12.7012C2.35537 13.053 2.81181 13.2721 3.3243 13.2721H9.39461H12.3406C13.3655 13.2721 14.2546 12.5039 14.2546 11.5006V7.04427C14.2546 6.04098 13.3655 5.27279 12.3406 5.27279H3.65893C3.12112 5.27279 2.74356 4.90272 2.74356 4.49999C2.74201 4.36852 2.68874 4.24295 2.59528 4.15047C2.50182 4.05799 2.37569 4.00603 2.24421 4.00586ZM8.00073 6.56445C8.35648 6.56444 8.70875 6.6345 9.03742 6.77064C9.36609 6.90677 9.66473 7.10632 9.91629 7.35787C10.1678 7.60943 10.3674 7.90807 10.5035 8.23674C10.6397 8.56541 10.7097 8.91768 10.7097 9.27343C10.7097 9.62919 10.6397 9.98145 10.5035 10.3101C10.3674 10.6388 10.1678 10.9375 9.91629 11.189C9.66473 11.4406 9.36609 11.6401 9.03742 11.7762C8.70875 11.9124 8.35648 11.9824 8.00073 11.9824C7.64497 11.9824 7.2927 11.9124 6.96403 11.7762C6.63536 11.6401 6.33672 11.4405 6.08516 11.189C5.83361 10.9374 5.63406 10.6388 5.49793 10.3101C5.36179 9.98145 5.29173 9.62918 5.29175 9.27343C5.29173 8.91768 5.36179 8.56541 5.49793 8.23674C5.63406 7.90807 5.83361 7.60943 6.08516 7.35787C6.33672 7.10632 6.63536 6.90677 6.96403 6.77064C7.2927 6.6345 7.64497 6.56444 8.00073 6.56445Z" fill="white"/>
<path d="M3.65924 2.72656C2.63502 2.72656 1.74487 3.49749 1.74487 4.50068C1.74487 5.50386 2.63502 6.27233 3.65924 6.27233C3.79168 6.2722 3.91866 6.21953 4.0123 6.12588C4.10595 6.03224 4.15862 5.90526 4.15875 5.77282C4.15862 5.64038 4.10595 5.51341 4.0123 5.41976C3.91866 5.32611 3.79168 5.27344 3.65924 5.27331C3.12144 5.27332 2.74389 4.9034 2.74389 4.50068C2.74389 4.09795 3.12144 3.72804 3.65924 3.72804H11.2208C11.5689 3.72804 11.8408 4.00001 11.8408 4.34812V5.77282C11.841 5.90526 11.8936 6.03224 11.9873 6.12588C12.0809 6.21953 12.2079 6.2722 12.3403 6.27233C12.4728 6.2722 12.5998 6.21953 12.6934 6.12588C12.7871 6.03224 12.8397 5.90526 12.8399 5.77282V4.34812C12.8399 3.45957 12.1093 2.72656 11.2208 2.72656H3.65924Z" fill="white"/>
<path d="M7.67568 10.7669L6.50903 9.59817C6.31631 9.40509 6.34356 9.11414 6.50901 8.95052C6.70448 8.75723 6.99128 8.78862 7.15679 8.95052L7.54025 9.33399L7.54029 8.10859C7.54029 7.84322 7.75136 7.64844 8.00055 7.64844C8.2679 7.64844 8.45888 7.87316 8.45888 8.10873V9.33464L8.82224 8.97065C9.03678 8.72928 9.39622 8.79464 9.53866 9.00514C9.64285 9.15912 9.68315 9.40724 9.49205 9.5983L8.30912 10.7791C8.27763 10.8106 8.1639 10.8997 8.00051 10.8997C7.83437 10.8997 7.72807 10.8194 7.67568 10.7669Z" fill="white"/>
</svg>
