<svg width="32" height="32" viewBox="0 0 32 32" fill="none" xmlns="http://www.w3.org/2000/svg">
<path d="M9 10H23V15H9V10Z" fill="url(#paint0_linear_439_50090)"/>
<path d="M26 3H6C5.20435 3 4.44129 3.31607 3.87868 3.87868C3.31607 4.44129 3 5.20435 3 6V12C3 12.7956 3.31607 13.5587 3.87868 14.1213C4.44129 14.6839 5.20435 15 6 15H7V10H6C5.73478 10 5.48043 9.89464 5.29289 9.70711C5.10536 9.51957 5 9.26522 5 9C5 8.73478 5.10536 8.48043 5.29289 8.29289C5.48043 8.10536 5.73478 8 6 8H26C26.2652 8 26.5196 8.10536 26.7071 8.29289C26.8946 8.48043 27 8.73478 27 9C27 9.26522 26.8946 9.51957 26.7071 9.70711C26.5196 9.89464 26.2652 10 26 10H25V15H26C26.7956 15 27.5587 14.6839 28.1213 14.1213C28.6839 13.5587 29 12.7956 29 12V6C29 5.20435 28.6839 4.44129 28.1213 3.87868C27.5587 3.31607 26.7956 3 26 3Z" fill="url(#paint1_linear_439_50090)"/>
<path d="M22.2499 10H9.74994C9.53213 10.0223 9.3317 10.129 9.19154 10.2972C9.05137 10.4654 8.9826 10.6817 8.99994 10.9V26.286C8.94513 26.9429 9.15006 27.595 9.57074 28.1024C9.99142 28.6099 10.5943 28.9321 11.2499 29H20.7499C21.4056 28.9321 22.0085 28.6099 22.4291 28.1024C22.8498 27.595 23.0547 26.9429 22.9999 26.286V10.905C23.0187 10.6859 22.9505 10.4683 22.8102 10.299C22.6699 10.1297 22.4687 10.0223 22.2499 10ZM15.9999 19C16.5729 19.0017 17.128 19.2002 17.5721 19.5623C18.0162 19.9243 18.3225 20.428 18.4397 20.9889C18.5568 21.5498 18.4777 22.1339 18.2156 22.6435C17.9535 23.153 17.5244 23.5571 16.9999 23.788V24C16.9999 24.2652 16.8946 24.5196 16.707 24.7071C16.5195 24.8946 16.2652 25 15.9999 25C15.7347 25 15.4804 24.8946 15.2928 24.7071C15.1053 24.5196 14.9999 24.2652 14.9999 24H14.4999C14.2347 24 13.9804 23.8946 13.7928 23.7071C13.6053 23.5196 13.4999 23.2652 13.4999 23C13.4999 22.7348 13.6053 22.4804 13.7928 22.2929C13.9804 22.1054 14.2347 22 14.4999 22H15.9999C16.1325 22 16.2597 21.9473 16.3535 21.8536C16.4473 21.7598 16.4999 21.6326 16.4999 21.5C16.4999 21.3674 16.4473 21.2402 16.3535 21.1464C16.2597 21.0527 16.1325 21 15.9999 21C15.4269 20.9983 14.8719 20.7998 14.4278 20.4377C13.9836 20.0757 13.6774 19.572 13.5602 19.0111C13.4431 18.4502 13.5222 17.8661 13.7842 17.3565C14.0463 16.847 14.4755 16.4429 14.9999 16.212V16C14.9999 15.7348 15.1053 15.4804 15.2928 15.2929C15.4804 15.1054 15.7347 15 15.9999 15C16.2652 15 16.5195 15.1054 16.707 15.2929C16.8946 15.4804 16.9999 15.7348 16.9999 16H17.4999C17.7652 16 18.0195 16.1054 18.207 16.2929C18.3946 16.4804 18.4999 16.7348 18.4999 17C18.4999 17.2652 18.3946 17.5196 18.207 17.7071C18.0195 17.8946 17.7652 18 17.4999 18H15.9999C15.8673 18 15.7402 18.0527 15.6464 18.1464C15.5526 18.2402 15.4999 18.3674 15.4999 18.5C15.4999 18.6326 15.5526 18.7598 15.6464 18.8536C15.7402 18.9473 15.8673 19 15.9999 19Z" fill="url(#paint2_linear_439_50090)"/>
<defs>
<linearGradient id="paint0_linear_439_50090" x1="9" y1="12.489" x2="23" y2="12.489" gradientUnits="userSpaceOnUse">
<stop stop-color="#F0C645"/>
<stop offset="0.495" stop-color="#FAF283"/>
<stop offset="1" stop-color="#EBC944"/>
</linearGradient>
<linearGradient id="paint1_linear_439_50090" x1="3" y1="8.97357" x2="29" y2="8.97357" gradientUnits="userSpaceOnUse">
<stop stop-color="#F0C645"/>
<stop offset="0.495" stop-color="#FAF283"/>
<stop offset="1" stop-color="#EBC944"/>
</linearGradient>
<linearGradient id="paint2_linear_439_50090" x1="8.99121" y1="19.4582" x2="23.0087" y2="19.4582" gradientUnits="userSpaceOnUse">
<stop stop-color="#F0C645"/>
<stop offset="0.495" stop-color="#FAF283"/>
<stop offset="1" stop-color="#EBC944"/>
</linearGradient>
</defs>
</svg>
