<svg width="180" height="44" viewBox="0 0 180 44" fill="none" xmlns="http://www.w3.org/2000/svg">
<g clip-path="url(#clip0_281_60108)">
<path d="M96.542 4.74023C97.527 4.40596 98.4196 4.0413 99.3738 3.70703C99.6816 4.67945 99.2507 5.65187 98.3888 5.92537C97.6501 6.13809 96.7267 5.53032 96.542 4.74023Z" fill="url(#paint0_linear_281_60108)"/>
<path d="M106.638 3.09789C106.299 2.97634 105.992 2.88517 105.653 2.8244C105.345 2.79401 105.007 2.79401 104.699 2.76362C104.883 2.42935 105.314 2.21663 105.684 2.24702C106.053 2.27741 106.484 2.67245 106.638 3.09789Z" fill="#3A2C15"/>
<path d="M124.398 37.0431C124.121 36.7088 123.844 36.4049 123.506 36.1922C122.736 35.7364 121.997 35.3718 121.197 35.0071C120.643 34.7336 120.643 34.7336 120.735 34.1562C121.012 32.728 120.52 31.8771 119.196 31.3605C119.042 31.2997 118.888 31.2086 118.704 31.2086C118.396 31.1782 118.334 31.0262 118.273 30.7224C118.15 29.8411 117.657 29.1422 116.826 28.7775C116.211 28.504 115.533 28.4432 114.887 28.2609C114.733 28.2305 114.548 28.1394 114.456 28.0482C113.348 26.8934 112.301 25.7387 111.193 24.5839C111.039 24.432 111.039 24.3105 111.163 24.1281C113.163 21.1805 113.994 17.9289 113.502 14.3735C113.132 11.5778 111.963 9.11636 109.931 7.08035C109.624 6.74608 109.254 6.44219 108.916 6.13831C109.346 5.59133 109.531 4.98356 109.377 4.31502C109.316 3.88959 109.162 3.49454 109.008 3.12988C107.9 0.698828 105.684 -0.18243 103.19 0.789992C102.544 1.06349 101.898 1.30659 101.251 1.58008C100.451 1.88397 99.6506 1.91435 98.8811 1.58008C98.0808 1.2762 97.2498 1.12426 96.511 1.2762C96.1724 0.972321 95.9877 0.759604 95.6799 0.577275C95.3106 0.303781 94.8181 0.273393 94.3564 0.364557C93.5253 0.425334 92.8174 0.729216 92.3249 1.39776C92.171 1.61047 92.0171 1.73203 91.7708 1.85358C90.7551 2.21824 90.3241 2.826 90.3241 3.91998C90.3241 4.13269 90.3241 4.3758 90.3857 4.55813C90.5704 5.04434 90.3857 5.25706 89.9548 5.53055C88.7851 6.29025 87.8309 7.32345 87.0922 8.44782C84.2296 12.5806 83.614 16.9869 85.5532 21.6971C85.6147 21.8794 85.5532 21.9706 85.43 22.0617C84.168 23.338 82.906 24.5536 81.6748 25.8602C80.3512 27.2885 79.1508 28.8079 78.2274 30.5704C77.6733 31.6948 77.2424 32.8799 77.3963 34.1866C77.4271 34.3993 77.2732 34.4601 77.1193 34.4905C76.0728 34.9767 74.9647 35.4629 73.9489 35.9795C73.518 36.1922 73.1178 36.5873 72.81 36.9519C72.2868 37.5901 72.3175 38.1979 72.8408 38.8056C72.9639 38.9576 73.1178 39.1095 73.2717 39.231C74.2259 40.0211 75.3032 40.5074 76.4729 40.9024C78.7814 41.7533 81.1515 42.2699 83.5832 42.6953C86.9998 43.2423 90.3857 43.6677 93.8331 43.8501C97.0343 44.002 100.235 44.002 103.437 43.8197C107.684 43.6069 111.871 43.1207 116.026 42.1787C118.211 41.6925 120.366 41.0847 122.367 40.1123C123.136 39.7476 123.875 39.2918 124.367 38.5929M94.1101 1.61047C94.1717 1.5497 94.2948 1.45853 94.4179 1.39776C94.4487 1.51931 94.5411 1.58009 94.5718 1.70164C94.7257 2.03591 94.8489 2.40057 95.0028 2.73484C94.7258 2.88678 94.4795 3.03872 94.1409 3.22105C93.9255 2.67406 93.6792 2.12707 94.1101 1.61047ZM111.932 36.1315C111.624 36.2834 111.286 36.4049 110.947 36.4049C109.069 36.4657 107.13 36.5569 105.222 36.5873C103.898 36.6177 102.575 36.6177 101.251 36.6177C100.974 36.6177 100.697 36.5873 100.42 36.5569C99.2505 36.3746 98.4194 35.7364 97.9269 34.6424C97.8961 34.5209 97.8038 34.4601 97.773 34.3386C97.7422 34.3386 97.7115 34.3386 97.6499 34.3386C97.6499 34.6728 97.6191 35.0071 97.6191 35.3718C95.4029 35.6756 93.0944 35.7364 90.7858 35.2502C90.7858 35.2198 90.8166 35.1286 90.8166 35.0983C91.4938 33.7612 91.2783 32.2722 90.2626 31.1478C89.4007 30.2058 88.2618 29.6892 87.0922 29.2941C86.5689 29.1118 85.9533 28.9902 85.3993 28.8383C85.2761 28.8079 85.1838 28.8079 85.0299 28.8687C85.1838 28.9902 85.3069 29.051 85.4608 29.1422C86.4458 29.7803 87.4308 30.3881 88.4157 31.0566C88.939 31.3909 89.3084 31.8771 89.6162 32.3937C90.2318 33.5485 89.8932 34.7336 88.662 35.311C87.8309 35.6756 86.9691 35.9187 86.0764 36.1618C85.5532 36.3138 85.0299 36.4353 84.4758 36.6177C84.6297 36.6481 84.7836 36.7392 84.9375 36.7392C86.1072 36.9215 87.2769 37.0127 88.4157 36.7392C88.5696 36.7088 88.7543 36.6784 88.8774 36.5873C89.3699 36.2834 89.8624 36.3138 90.3857 36.4049C91.3399 36.5569 92.2325 36.6784 93.1867 36.7696C93.4945 36.8 93.8639 36.8304 93.987 37.195C94.1409 37.5597 93.8331 37.8332 93.5561 38.0763C93.002 38.5625 92.2633 38.7144 91.5554 38.836C89.5854 39.0487 87.6462 38.9576 85.7071 38.8664C84.3219 38.8056 82.906 38.6841 81.5517 38.5929C81.09 38.5625 80.6898 38.5321 80.2281 38.4106C79.1816 38.1979 78.8738 37.3774 79.6125 36.5873C80.4744 35.6452 81.3978 34.7944 82.2904 33.9131C82.6598 33.5485 82.9676 33.0926 83.337 32.6672C83.3677 32.6368 83.3677 32.6064 83.3985 32.4849C81.8903 33.2446 80.5975 34.1562 79.3047 35.2198C78.9969 34.7032 78.8738 34.1866 78.9661 33.5788C79.1816 32.0594 79.8588 30.692 80.7514 29.4764C82.2904 27.2581 84.1065 25.3436 86.138 23.5811C86.9691 22.8214 87.954 22.3352 88.9698 22.1225C88.1387 20.5119 87.677 18.6886 87.677 16.7742C87.677 12.8541 89.5546 9.42024 92.5096 7.29306C92.5403 7.01957 92.5711 6.77647 92.6327 6.50297C92.9097 6.56375 93.1559 6.62452 93.433 6.6853C93.5561 6.62452 93.6177 6.56375 93.7408 6.50297C93.71 6.44219 93.6792 6.35103 93.5869 6.32064C93.4022 6.13831 93.1559 5.98637 92.9713 5.83443C92.2941 5.28744 91.9555 4.55813 91.9247 3.70726C91.9247 3.43376 91.8939 3.09949 92.2017 3.03872C92.5096 2.97794 92.6635 3.22105 92.8174 3.46415C93.002 3.82881 93.1559 4.22386 93.3714 4.58852C93.5561 4.92279 93.8023 5.25706 93.987 5.56094C94.0486 5.62171 94.1717 5.71288 94.2948 5.77365C94.3256 5.77365 94.3564 5.74327 94.3564 5.74327C94.3256 5.409 94.2333 5.07473 94.2025 4.71007C94.1717 4.58852 94.1717 4.43658 94.1409 4.34541C93.987 3.67687 93.9562 3.67687 94.5718 3.31221C95.7415 2.55251 97.0035 2.27901 98.3579 2.67406C98.5425 2.70445 98.7272 2.73484 98.9119 2.826C99.8969 3.19066 100.851 3.03872 101.774 2.67406C102.452 2.37018 103.16 2.0663 103.868 1.82319C105.191 1.2762 106.207 1.5497 107.007 2.76522C107.284 3.12988 107.377 3.58571 107.561 4.01114C107.684 4.28463 107.561 4.43658 107.284 4.49735C105.745 4.98356 104.175 5.16589 102.698 4.19347C102.698 4.19347 102.667 4.19347 102.513 4.16308C102.667 4.43657 102.729 4.64929 102.883 4.80123C103.652 5.59133 104.576 5.83443 105.591 5.77365C106.053 5.74327 106.484 5.62171 106.915 5.56094C106.607 6.38142 106.053 6.89802 105.314 6.98918C108.485 9.05558 110.608 12.6718 110.608 16.8046C110.608 20.1169 109.254 23.1253 107.038 25.1917C107.253 25.8299 107.469 26.468 107.592 27.1366C107.961 29.051 107.592 30.8439 106.299 32.3633C106.238 32.4849 106.145 32.5457 106.022 32.728C105.006 31.1478 103.56 30.54 101.836 30.3881C101.898 30.4185 101.99 30.5096 102.021 30.54C102.513 30.8743 103.006 31.1782 103.467 31.5125C103.898 31.8467 104.145 32.3025 104.268 32.7888C104.298 33.0015 104.422 33.0926 104.606 33.123C106.422 33.4877 108.238 33.8827 110.024 34.2474C110.516 34.3689 110.978 34.3993 111.47 34.5513C111.686 34.612 111.963 34.8248 112.117 35.0071C112.486 35.4021 112.425 35.8884 111.932 36.1315Z" fill="white" fill-opacity="0.12"/>
<path d="M102.267 12.2454L105.961 18.5966L108.639 23.2156C109.839 21.3619 110.639 19.0828 110.639 16.6821C110.701 12.4885 108.516 8.87234 105.345 6.77556C104.976 6.80595 104.452 6.89711 103.991 6.68439C103.683 6.53245 103.375 6.31974 103.098 6.1678C102.944 6.10702 102.79 5.98547 102.575 5.95508C102.636 6.10702 102.729 6.25896 102.79 6.4109C102.76 6.44129 102.667 6.53245 102.606 6.56284C101.99 6.83634 101.559 7.26177 101.128 7.74798C100.266 8.78118 99.1582 9.35855 97.8347 9.41933C96.7881 9.44972 95.7416 9.14584 94.7566 8.75079C94.6335 8.7204 94.4796 8.62924 94.3257 8.59885C94.695 9.29778 95.3414 9.69282 96.0802 9.87515C96.7881 10.0575 97.5269 10.179 98.2656 10.331C98.2964 10.6956 98.3887 11.1818 98.4503 11.6681C98.635 12.5493 98.912 13.4306 99.2813 14.2207L100.42 12.2758C100.882 11.5769 101.898 11.5769 102.267 12.2454Z" fill="url(#paint1_linear_281_60108)"/>
<path d="M104.852 21.3012C105.837 22.456 106.607 23.7627 107.069 25.1605C107.684 24.5528 108.208 23.9146 108.669 23.2157L105.991 18.5967L102.298 12.2455C101.867 11.577 100.913 11.577 100.482 12.2455L99.3428 14.1904C99.866 15.3148 100.605 16.348 101.436 17.3204C102.575 18.6878 103.714 19.9945 104.852 21.3012Z" fill="#816937"/>
<path d="M98.9122 26.3454C100.02 26.4062 100.728 25.8288 100.79 24.7349C100.821 23.9448 100.636 23.2458 100.297 22.5773C99.8049 21.5441 99.1277 20.6021 98.3582 19.7512C97.8965 19.2346 97.4655 18.718 97.0346 18.1406L96.7268 18.6268L93.9258 23.4586C94.6953 24.0663 95.434 24.6437 96.2035 25.2211C97.0346 25.7984 97.8965 26.2543 98.9122 26.3454Z" fill="#816937"/>
<path d="M93.8025 6.65389C93.7717 6.62351 93.7409 6.53234 93.6794 6.50195C93.5563 6.56273 93.4947 6.62351 93.3716 6.68428C93.4947 6.71467 93.587 6.71467 93.741 6.74506C93.7717 6.71467 93.7717 6.68428 93.8025 6.65389Z" fill="white" fill-opacity="0.08"/>
<path d="M94.6029 39.2599C94.6029 39.3207 94.5721 39.4119 94.3874 39.503C94.2335 39.5942 93.9873 39.7158 93.6487 39.8069C93.0023 39.9893 92.1097 40.0804 91.1247 40.0804C90.1397 40.0804 89.2471 39.9589 88.6007 39.8069C88.2929 39.7158 88.0159 39.6246 87.862 39.503C87.6773 39.3815 87.6465 39.3207 87.6465 39.2599C87.6465 39.1992 87.6773 39.108 87.862 39.0168C88.0159 38.9257 88.2621 38.8041 88.6007 38.7129C89.2471 38.5306 90.1397 38.4395 91.1247 38.4395C92.1097 38.4395 93.0023 38.561 93.6487 38.7129C93.9565 38.8041 94.2335 38.8953 94.3874 39.0168C94.5413 39.108 94.6029 39.1992 94.6029 39.2599Z" fill="url(#paint2_linear_281_60108)" stroke="url(#paint3_linear_281_60108)"/>
<path d="M87.4619 39.2598V40.141C87.4619 40.2018 87.4927 40.293 87.5235 40.3234C87.8005 40.5057 88.6624 41.0223 91.094 41.0223C93.4333 41.0223 94.3567 40.6576 94.603 40.5057C94.6646 40.4753 94.7261 40.3841 94.7261 40.3234V39.2902C94.7261 39.2902 93.618 39.9283 91.094 39.9283C88.5392 39.8979 87.4619 39.2598 87.4619 39.2598Z" fill="#D9AB4C"/>
<path d="M120.612 36.4943C120.612 36.5551 120.581 36.6463 120.397 36.7374C120.243 36.8286 119.997 36.9501 119.658 37.0413C119.012 37.2236 118.119 37.3148 117.134 37.3148C116.149 37.3148 115.256 37.1932 114.61 37.0413C114.302 36.9501 114.025 36.859 113.871 36.7374C113.687 36.6159 113.656 36.5551 113.656 36.4943C113.656 36.4335 113.687 36.3424 113.871 36.2512C114.025 36.16 114.271 36.0385 114.61 35.9473C115.256 35.765 116.149 35.6738 117.134 35.6738C118.119 35.6738 119.012 35.7954 119.658 35.9473C119.966 36.0385 120.243 36.1296 120.397 36.2512C120.581 36.3424 120.612 36.4335 120.612 36.4943Z" fill="url(#paint4_linear_281_60108)" stroke="url(#paint5_linear_281_60108)"/>
<path d="M113.502 36.4961V37.3774C113.502 37.4381 113.533 37.5293 113.564 37.5597C113.841 37.742 114.702 38.2586 117.134 38.2586C119.473 38.2586 120.397 37.894 120.643 37.742C120.705 37.7116 120.766 37.6205 120.766 37.5597V36.5265C120.766 36.5265 119.658 37.1646 117.134 37.1646C114.61 37.1646 113.502 36.4961 113.502 36.4961Z" fill="#D9AB4C"/>
<path d="M109.316 38.1974C109.316 38.2582 109.285 38.3494 109.1 38.4405C108.946 38.5317 108.7 38.6533 108.362 38.7444C107.715 38.9268 106.823 39.0179 105.838 39.0179C104.853 39.0179 103.96 38.8964 103.314 38.7444C103.006 38.6533 102.729 38.5621 102.575 38.4405C102.39 38.319 102.359 38.2582 102.359 38.1974C102.359 38.1367 102.39 38.0455 102.575 37.9543C102.729 37.8632 102.975 37.7416 103.314 37.6504C103.96 37.4681 104.853 37.377 105.838 37.377C106.823 37.377 107.715 37.4985 108.362 37.6504C108.669 37.7416 108.946 37.8328 109.1 37.9543C109.254 38.0759 109.316 38.167 109.316 38.1974Z" fill="url(#paint6_linear_281_60108)" stroke="url(#paint7_linear_281_60108)"/>
<path d="M102.206 38.1973V39.0785C102.206 39.1393 102.236 39.2305 102.267 39.2609C102.544 39.4432 103.406 39.9598 105.838 39.9598C108.177 39.9598 109.1 39.5951 109.347 39.4432C109.408 39.4128 109.47 39.3216 109.47 39.2609V38.258C109.47 38.258 108.362 38.8962 105.838 38.8962C103.314 38.8962 102.206 38.1973 102.206 38.1973Z" fill="#D9AB4C"/>
<path d="M104.576 39.5939C104.576 39.6547 104.545 39.7459 104.36 39.837C104.206 39.9282 103.96 40.0497 103.621 40.1409C102.975 40.3232 102.082 40.4144 101.097 40.4144C100.112 40.4144 99.2197 40.2928 98.5733 40.1409C98.2655 40.0497 97.9885 39.9586 97.8346 39.837C97.6499 39.7155 97.6191 39.6547 97.6191 39.5939C97.6191 39.5331 97.6499 39.442 97.8346 39.3508C97.9885 39.2597 98.2347 39.1381 98.5733 39.0469C99.2197 38.8646 100.112 38.7734 101.097 38.7734C102.082 38.7734 102.975 38.895 103.621 39.0469C103.929 39.1381 104.206 39.2293 104.36 39.3508C104.545 39.442 104.576 39.5331 104.576 39.5939Z" fill="url(#paint8_linear_281_60108)" stroke="url(#paint9_linear_281_60108)"/>
<path d="M97.4653 39.5957V40.477C97.4653 40.5377 97.4961 40.6289 97.5269 40.6593C97.8039 40.8416 98.6658 41.3582 101.097 41.3582C103.437 41.3582 104.36 40.9936 104.606 40.8416C104.668 40.8112 104.73 40.7201 104.73 40.6593V39.6261C104.73 39.6261 103.621 40.2642 101.097 40.2642C98.5734 40.2642 97.4653 39.5957 97.4653 39.5957Z" fill="#D9AB4C"/>
<path d="M100.974 40.4162C100.974 40.477 100.944 40.5681 100.759 40.6593C100.605 40.7505 100.359 40.872 100.02 40.9632C99.3739 41.1455 98.4812 41.2367 97.4963 41.2367C96.5113 41.2367 95.6187 41.1151 94.9723 40.9632C94.6645 40.872 94.3874 40.7808 94.2335 40.6593C94.0489 40.5377 94.0181 40.477 94.0181 40.4162C94.0181 40.3554 94.0489 40.2642 94.2335 40.1731C94.3874 40.0819 94.6337 39.9604 94.9723 39.8692C95.6187 39.6869 96.5113 39.5957 97.4963 39.5957C98.4812 39.5957 99.3739 39.7173 100.02 39.8692C100.328 39.9604 100.605 40.0515 100.759 40.1731C100.944 40.2642 100.974 40.3554 100.974 40.4162Z" fill="url(#paint10_linear_281_60108)" stroke="url(#paint11_linear_281_60108)"/>
<path d="M93.895 40.4453V41.3266C93.895 41.3873 93.9258 41.4785 93.9566 41.5089C94.2336 41.6912 95.0955 42.2078 97.5271 42.2078C99.8664 42.2078 100.79 41.8432 101.036 41.6912C101.098 41.6608 101.159 41.5697 101.159 41.5089V40.4757C101.159 40.4757 100.051 41.1139 97.5271 41.1139C94.9723 41.1139 93.895 40.4453 93.895 40.4453Z" fill="#D9AB4C"/>
<path d="M102.36 38.6232C102.36 38.684 102.329 38.7752 102.144 38.8663C101.99 38.9575 101.744 39.079 101.406 39.1702C100.759 39.3525 99.8665 39.4437 98.8815 39.4437C97.8965 39.4437 97.0039 39.3221 96.3575 39.1702C96.0497 39.079 95.7727 38.9879 95.6188 38.8663C95.4341 38.7448 95.4033 38.684 95.4033 38.6232C95.4033 38.5624 95.4341 38.4713 95.6188 38.3801C95.7727 38.2889 96.0189 38.1674 96.3575 38.0762C97.0039 37.8939 97.8965 37.8027 98.8815 37.8027C99.8665 37.8027 100.759 37.9243 101.406 38.0762C101.713 38.1674 101.99 38.2586 102.144 38.3801C102.298 38.4713 102.36 38.5624 102.36 38.6232Z" fill="url(#paint12_linear_281_60108)" stroke="url(#paint13_linear_281_60108)"/>
<path d="M95.249 38.623V39.5043C95.249 39.5651 95.2798 39.6562 95.3106 39.6866C95.5876 39.869 96.4495 40.3856 98.8811 40.3856C101.22 40.3856 102.144 40.0209 102.39 39.869C102.452 39.8386 102.513 39.7474 102.513 39.6866V38.6534C102.513 38.6534 101.405 39.2916 98.8811 39.2916C96.2956 39.2308 95.249 38.623 95.249 38.623Z" fill="#D9AB4C"/>
<path d="M113.902 39.5939C113.902 39.6547 113.871 39.7459 113.687 39.837C113.533 39.9282 113.287 40.0497 112.948 40.1409C112.302 40.3232 111.409 40.4144 110.424 40.4144C109.439 40.4144 108.546 40.2928 107.9 40.1409C107.592 40.0497 107.315 39.9586 107.161 39.837C106.977 39.7155 106.946 39.6547 106.946 39.5939C106.946 39.5331 106.977 39.442 107.161 39.3508C107.315 39.2597 107.561 39.1381 107.9 39.0469C108.546 38.8646 109.439 38.7734 110.424 38.7734C111.409 38.7734 112.302 38.895 112.948 39.0469C113.256 39.1381 113.533 39.2293 113.687 39.3508C113.841 39.442 113.902 39.5331 113.902 39.5939Z" fill="url(#paint14_linear_281_60108)" stroke="url(#paint15_linear_281_60108)"/>
<path d="M106.73 39.5957V40.477C106.73 40.5377 106.761 40.6289 106.792 40.6593C107.069 40.8416 107.931 41.3582 110.363 41.3582C112.702 41.3582 113.625 40.9936 113.872 40.8416C113.933 40.8112 113.995 40.7201 113.995 40.6593V39.6261C113.995 39.6261 112.887 40.2642 110.363 40.2642C107.839 40.2642 106.73 39.5957 106.73 39.5957Z" fill="#D9AB4C"/>
<path d="M116.242 37.7111C116.242 37.7719 116.211 37.863 116.026 37.9542C115.872 38.0454 115.626 38.1669 115.287 38.2581C114.641 38.4404 113.748 38.5316 112.763 38.5316C111.778 38.5316 110.886 38.41 110.239 38.2581C109.932 38.1669 109.655 38.0758 109.501 37.9542C109.316 37.8327 109.285 37.7719 109.285 37.7111C109.285 37.6503 109.316 37.5592 109.501 37.468C109.655 37.3768 109.901 37.2553 110.239 37.1641C110.886 36.9818 111.778 36.8906 112.763 36.8906C113.748 36.8906 114.641 37.0122 115.287 37.1641C115.595 37.2553 115.872 37.3464 116.026 37.468C116.18 37.5896 116.242 37.6807 116.242 37.7111Z" fill="url(#paint16_linear_281_60108)" stroke="url(#paint17_linear_281_60108)"/>
<path d="M109.131 37.7109V38.5922C109.131 38.653 109.162 38.7441 109.193 38.7745C109.47 38.9569 110.332 39.4735 112.763 39.4735C115.103 39.4735 116.026 39.1088 116.272 38.9569C116.334 38.9265 116.396 38.8353 116.396 38.7745V37.7413C116.396 37.7413 115.287 38.3795 112.763 38.3795C110.209 38.3187 109.131 37.7109 109.131 37.7109Z" fill="#D9AB4C"/>
<path d="M118.458 35.5842C118.458 35.6449 118.427 35.7361 118.242 35.8273C118.089 35.9184 117.842 36.04 117.504 36.1311C116.857 36.3135 115.965 36.4046 114.98 36.4046C113.995 36.4046 113.102 36.2831 112.456 36.1311C112.148 36.04 111.871 35.9488 111.717 35.8273C111.532 35.7057 111.501 35.6449 111.501 35.5842C111.501 35.5234 111.532 35.4322 111.717 35.341C111.871 35.2499 112.117 35.1283 112.456 35.0372C113.102 34.8548 113.995 34.7637 114.98 34.7637C115.965 34.7637 116.857 34.8852 117.504 35.0372C117.811 35.1283 118.089 35.2195 118.242 35.341C118.427 35.4626 118.458 35.5538 118.458 35.5842Z" fill="url(#paint18_linear_281_60108)" stroke="url(#paint19_linear_281_60108)"/>
<path d="M111.347 35.584V36.4652C111.347 36.526 111.378 36.6172 111.409 36.6476C111.686 36.8299 112.548 37.3465 114.979 37.3465C117.319 37.3465 118.242 36.9818 118.488 36.8299C118.55 36.7995 118.611 36.7083 118.611 36.6476V35.6144C118.611 35.6144 117.503 36.2525 114.979 36.2525C112.455 36.2525 111.347 35.584 111.347 35.584Z" fill="#D9AB4C"/>
<path d="M119.289 34.0041C119.289 34.0649 119.258 34.156 119.073 34.2472C118.92 34.3383 118.673 34.4599 118.335 34.5511C117.688 34.7334 116.796 34.8246 115.811 34.8246C114.826 34.8246 113.933 34.703 113.287 34.5511C112.979 34.4599 112.702 34.3687 112.548 34.2472C112.363 34.1256 112.333 34.0649 112.333 34.0041C112.333 33.9433 112.363 33.8521 112.548 33.761C112.702 33.6698 112.948 33.5483 113.287 33.4571C113.933 33.2748 114.826 33.1836 115.811 33.1836C116.796 33.1836 117.688 33.3051 118.335 33.4571C118.643 33.5483 118.92 33.6394 119.073 33.761C119.258 33.8521 119.289 33.9433 119.289 34.0041Z" fill="url(#paint20_linear_281_60108)" stroke="url(#paint21_linear_281_60108)"/>
<path d="M112.179 34.0039V34.8852C112.179 34.9459 112.209 35.0371 112.24 35.0675C112.517 35.2498 113.379 35.7664 115.811 35.7664C118.15 35.7664 119.074 35.4018 119.32 35.2498C119.381 35.2194 119.443 35.1283 119.443 35.0675V34.0343C119.443 34.0343 118.335 34.6724 115.811 34.6724C113.287 34.5813 112.179 34.0039 112.179 34.0039Z" fill="#D9AB4C"/>
<path d="M118.95 32.4844C118.95 32.5452 118.889 32.6364 118.735 32.7579C118.55 32.8795 118.304 33.001 117.935 33.0922C117.257 33.3049 116.303 33.4265 115.226 33.4569C114.149 33.4873 113.194 33.3961 112.517 33.2138C112.179 33.1226 111.902 33.0314 111.717 32.9099C111.532 32.7883 111.471 32.6972 111.471 32.6364C111.471 32.5756 111.532 32.4844 111.686 32.3629C111.871 32.2413 112.117 32.1198 112.486 32.0286C113.164 31.8159 114.118 31.6943 115.195 31.664C116.272 31.6336 117.227 31.7247 117.904 31.9071C118.242 31.9982 118.519 32.0894 118.704 32.2109C118.92 32.3325 118.95 32.4237 118.95 32.4844Z" fill="url(#paint22_linear_281_60108)" stroke="url(#paint23_linear_281_60108)"/>
<path d="M111.347 32.6363L111.378 33.6087C111.378 33.6695 111.409 33.7607 111.501 33.7911C111.778 34.0038 112.702 34.49 115.318 34.4596C117.811 34.4292 118.765 34.0038 119.073 33.8215C119.135 33.7911 119.196 33.6999 119.196 33.6087L119.165 32.4844C119.165 32.4844 118.027 33.1529 115.318 33.2441C112.578 33.3049 111.347 32.6363 111.347 32.6363Z" fill="#D9AB4C"/>
<path d="M117.688 31.1466C117.688 31.2073 117.627 31.2985 117.473 31.42C117.288 31.5416 117.042 31.6632 116.672 31.7543C115.995 31.967 115.041 32.0886 113.964 32.119C112.886 32.1494 111.932 32.0582 111.255 31.8759C110.916 31.7847 110.639 31.6935 110.455 31.572C110.27 31.4504 110.208 31.3593 110.208 31.2985C110.208 31.2377 110.27 31.1466 110.424 31.025C110.609 30.9034 110.855 30.7819 111.224 30.6907C111.901 30.478 112.856 30.3565 113.933 30.3261C115.01 30.2957 115.964 30.3868 116.642 30.5692C116.98 30.6603 117.257 30.7515 117.442 30.8731C117.627 30.9946 117.657 31.0858 117.688 31.1466Z" fill="url(#paint24_linear_281_60108)" stroke="url(#paint25_linear_281_60108)"/>
<path d="M110.024 31.2984L110.055 32.2708C110.055 32.3316 110.085 32.4228 110.178 32.4532C110.455 32.6659 111.378 33.1521 113.995 33.1217C116.488 33.0913 117.442 32.6659 117.75 32.4836C117.811 32.4532 117.873 32.362 117.873 32.2708L117.842 31.1465C117.842 31.1465 116.703 31.815 113.995 31.9062C111.255 31.967 110.024 31.2984 110.024 31.2984Z" fill="#D9AB4C"/>
<path d="M116.364 29.627C116.364 29.6878 116.303 29.779 116.149 29.9005C115.964 30.0221 115.718 30.1436 115.379 30.2348C114.702 30.4475 113.748 30.5691 112.671 30.5994C111.593 30.6298 110.639 30.5387 109.962 30.3563C109.623 30.2652 109.346 30.174 109.162 30.0525C108.977 29.9309 108.916 29.8397 108.916 29.779C108.916 29.7182 108.977 29.627 109.131 29.5055C109.316 29.3839 109.562 29.2624 109.901 29.1712C110.578 28.9585 111.532 28.8369 112.609 28.8065C113.687 28.7762 114.641 28.8673 115.318 29.0496C115.656 29.1408 115.933 29.232 116.118 29.3535C116.303 29.4447 116.334 29.5662 116.364 29.627Z" fill="url(#paint26_linear_281_60108)" stroke="url(#paint27_linear_281_60108)"/>
<path d="M108.7 29.8101L108.731 30.7826C108.731 30.8433 108.762 30.9345 108.854 30.9649C109.131 31.1776 110.055 31.6638 112.671 31.6334C115.164 31.603 116.118 31.1776 116.426 30.9953C116.488 30.9649 116.549 30.8737 116.549 30.7826L116.518 29.6582C116.518 29.6582 115.38 30.3267 112.671 30.4179C109.87 30.4483 108.7 29.8101 108.7 29.8101Z" fill="#D9AB4C"/>
<path d="M97.8963 37.3166C97.8963 37.3774 97.8656 37.4685 97.6809 37.5597C97.527 37.6508 97.2807 37.7724 96.9421 37.8636C96.2958 38.0459 95.4031 38.1371 94.4181 38.1371C93.4332 38.1371 92.5405 38.0155 91.8941 37.8636C91.5863 37.7724 91.3093 37.6812 91.1554 37.5597C90.9707 37.4381 90.9399 37.3774 90.9399 37.3166C90.9399 37.2558 90.9707 37.1646 91.1554 37.0735C91.3093 36.9823 91.5556 36.8608 91.8941 36.7696C92.5405 36.5873 93.4332 36.4961 94.4181 36.4961C95.4031 36.4961 96.2958 36.6176 96.9421 36.7696C97.2499 36.8608 97.527 36.9519 97.6809 37.0735C97.8348 37.1646 97.8963 37.2558 97.8963 37.3166Z" fill="url(#paint28_linear_281_60108)" stroke="url(#paint29_linear_281_60108)"/>
<path d="M90.7861 37.3164V38.1977C90.7861 38.2584 90.8169 38.3496 90.8477 38.38C91.1247 38.5623 91.9866 39.0789 94.4182 39.0789C96.7576 39.0789 97.681 38.7143 97.9272 38.5623C97.9888 38.5319 98.0503 38.4408 98.0503 38.38V37.3468C98.0503 37.3468 96.9422 37.985 94.4182 37.985C91.8942 37.985 90.7861 37.3164 90.7861 37.3164Z" fill="#D9AB4C"/>
<path d="M1.55328 30.4477L1.46094 30.782H1.79952H6.1088H6.29348L6.35504 30.5997L7.2169 27.5608H12.4496L13.3114 30.5997L13.373 30.782H13.5577H17.9593H18.2979L18.2055 30.4781L12.9421 14.7066L12.9113 14.5547H12.7266H7.06299H6.87831L6.81675 14.7066L1.55328 30.4477ZM8.23265 23.8231L9.86402 18.1101L11.4646 23.8231H8.23265Z" fill="white" fill-opacity="0.08" stroke="white" stroke-opacity="0.08" stroke-width="1.6"/>
<path d="M22.3609 30.7528H22.6072V30.5097V25.1614C22.6072 24.0674 22.7611 23.3077 23.1612 22.8519C23.5306 22.3961 24.177 22.153 25.3158 22.153H26.9164H27.1627V21.9099V18.3544V18.1113H26.9164H26.1161C24.8849 18.1113 23.9615 18.5672 23.3151 19.3876C23.0073 19.7523 22.7918 20.2081 22.5764 20.6943V18.3848V18.1417H22.3301H18.4826H18.2363V18.3848V30.5097V30.7528H18.4826H22.3609Z" fill="white" fill-opacity="0.08" stroke="white" stroke-opacity="0.08" stroke-width="1.6"/>
<path d="M39.8134 30.752H40.0597V30.5089V23.3069C40.0597 21.5748 39.4748 20.2073 38.3975 19.2349C37.3202 18.2929 35.7196 17.8066 33.7804 17.8066C31.8721 17.8066 30.3022 18.2929 29.1942 19.1741C28.0861 20.0858 27.4704 21.3621 27.4704 22.9726V23.2157H27.7167H31.5335H31.7797V22.9726C31.7797 22.3649 31.9336 21.9394 32.2106 21.6659C32.4877 21.3924 32.9494 21.2101 33.6265 21.2101C34.3037 21.2101 34.7962 21.4228 35.1348 21.7571C35.4734 22.1218 35.6581 22.6384 35.6581 23.3373V23.3677H32.58C30.8871 23.3677 29.5327 23.702 28.5785 24.3705C27.6243 25.039 27.1011 26.0418 27.1011 27.2878C27.1011 28.4121 27.532 29.3845 28.3015 30.0531C29.071 30.7216 30.1483 31.0863 31.4103 31.0863C33.3495 31.0863 34.8885 30.2354 35.7196 28.7768V30.5089V30.752H35.9659H39.8134ZM31.5027 26.8927C31.5027 26.5584 31.6258 26.3457 31.8721 26.1938C32.1183 26.0115 32.5492 25.9203 33.1341 25.9203H35.6888V26.0418C35.6888 27.0447 34.6423 27.8955 33.0725 27.8955C32.5184 27.8955 32.1183 27.774 31.8721 27.622C31.6258 27.4397 31.5027 27.1966 31.5027 26.8927Z" fill="white" fill-opacity="0.08" stroke="white" stroke-opacity="0.08" stroke-width="1.6"/>
<path d="M44.8922 30.7224H45.1384V30.4793V28.5345C45.3847 29.1118 45.6925 29.598 46.0926 29.9931C46.8006 30.7224 47.724 31.0871 48.8321 31.0871C50.3403 31.0871 51.6023 30.3881 52.5257 29.203C53.4184 28.0179 53.9109 26.3769 53.9109 24.4321C53.9109 22.4872 53.4184 20.8462 52.5257 19.6611C51.6331 18.476 50.3403 17.8074 48.8321 17.8074C47.724 17.8074 46.8006 18.1721 46.0926 18.9014C45.7232 19.2964 45.3847 19.7827 45.1384 20.36V14.2216V13.9785H44.8922H41.0138H40.7676V14.2216V30.5097V30.7528H41.0138H44.8922V30.7224ZM49.4785 24.4624C49.4785 25.4652 49.2938 26.1642 48.9244 26.6504C48.5858 27.1062 48.0626 27.3493 47.3238 27.3493C46.5851 27.3493 46.0618 27.1062 45.6925 26.6504C45.3231 26.1946 45.1076 25.4652 45.1076 24.4928C45.1076 23.5204 45.3231 22.7911 45.6925 22.3353C46.0618 21.8794 46.5851 21.6363 47.3238 21.6363C48.0626 21.6363 48.5858 21.8794 48.9244 22.3353C49.2938 22.7607 49.4785 23.4596 49.4785 24.4624Z" fill="white" fill-opacity="0.08" stroke="white" stroke-opacity="0.08" stroke-width="1.6"/>
<path d="M58.5587 17.4115H58.805V17.1684V14.1904V13.9473H58.5587H54.6188H54.3726V14.1904V17.1684V17.4115H54.6188H58.5587ZM58.5279 30.7519H58.7742V30.5088V18.3839V18.1408H58.5279H54.6496H54.4033V18.3839V30.5088V30.7519H54.6496H58.5279Z" fill="white" fill-opacity="0.08" stroke="white" stroke-opacity="0.08" stroke-width="1.6"/>
<path d="M67.9775 25.4035H67.762L67.7312 25.6162C67.6389 26.1632 67.4234 26.5886 67.1156 26.8925C66.8078 27.166 66.4077 27.3483 65.8228 27.3483C65.1149 27.3483 64.5916 27.1052 64.2223 26.6494C63.8529 26.1936 63.6374 25.4642 63.6374 24.4918C63.6374 23.5194 63.8529 22.7901 64.2223 22.3343C64.5916 21.8784 65.1149 21.6353 65.8228 21.6353C66.4077 21.6353 66.8078 21.7873 67.1156 22.0911C67.4234 22.3646 67.6081 22.7901 67.7312 23.3674L67.762 23.5802H67.9775H71.8558H72.1329L72.1021 23.3067C71.6712 20.0855 69.2703 17.8672 65.8536 17.8672C63.9452 17.8672 62.2831 18.5053 61.1134 19.6905C59.9438 20.8452 59.2666 22.5166 59.2666 24.5222C59.2666 26.5278 59.9438 28.1688 61.1134 29.3539C62.2831 30.5087 63.9452 31.1772 65.8536 31.1772C69.2703 31.1772 71.6712 28.9893 72.1021 25.7377L72.1329 25.4642H71.8558H67.9775V25.4035Z" fill="white" fill-opacity="0.08" stroke="white" stroke-opacity="0.08" stroke-width="1.6"/>
<path d="M93.0023 16.1047C93.2793 15.6489 93.8949 15.6489 94.1412 16.1047L96.1727 19.5689L96.7267 18.5965L97.0346 18.1103C96.0804 16.9555 95.1877 15.7704 94.4182 14.4637C93.4332 12.8228 92.6329 11.0602 92.4483 9.1154C92.3867 8.47725 92.3867 7.86948 92.4483 7.26172C89.5241 9.38889 87.6157 12.8228 87.6157 16.7428C87.6157 18.6877 88.0774 20.4806 88.9085 22.0912C89.124 22.0608 89.3394 22.0304 89.5549 21.9696L90.663 20.1159L93.0023 16.1047Z" fill="url(#paint30_linear_281_60108)"/>
<path d="M91.2784 22.0304C92.1403 22.1519 92.879 22.547 93.5562 23.0636C93.7101 23.1851 93.8332 23.2763 93.9871 23.3978L96.2033 19.5385L94.1718 16.0743C93.8947 15.6185 93.2483 15.6185 93.0329 16.0743L90.6628 20.1159L89.5547 21.9696C90.1087 21.9696 90.6628 21.9696 91.2784 22.0304Z" fill="#816937"/>
<path d="M13.8347 27.228L13.8039 27.1064H13.6808H8.07871H7.95559L7.92481 27.228L7.06295 30.2972H3.12305L8.26339 14.9512H13.6808L18.7596 30.2972H14.6965L13.8347 27.228ZM12.8189 24.1892H13.0344L12.9728 24.0069L11.0644 17.1695L10.9105 16.6225L10.7566 17.1391L8.81744 23.9765L8.75588 24.1588H8.97135H12.8189V24.1892Z" fill="url(#paint31_linear_281_60108)" stroke="url(#paint32_linear_281_60108)"/>
<path d="M27.1012 18.5059H27.7476V21.7574H26.2702C25.1005 21.7574 24.3002 22.0005 23.8385 22.5779C23.346 23.1553 23.1921 24.0061 23.1921 25.1305V30.2965H19.6523V18.5362H23.1921V22.7298L23.4999 22.7602C23.6846 21.4231 24.054 20.3595 24.6388 19.6302C25.1928 18.9009 25.9931 18.5059 27.1012 18.5059Z" fill="url(#paint33_linear_281_60108)" stroke="url(#paint34_linear_281_60108)"/>
<path d="M28.8249 22.7898C28.8557 21.3919 29.4098 20.2676 30.3947 19.4775C31.4105 18.657 32.8572 18.2012 34.704 18.2012C36.5816 18.2012 38.0283 18.6874 39.0133 19.5383C39.9983 20.3891 40.5523 21.6654 40.5523 23.276V30.2957H37.0126V27.4392L36.7047 27.4088C36.2123 29.4144 34.5809 30.6299 32.3339 30.6299C31.1643 30.6299 30.1793 30.2957 29.5329 29.6879C28.8557 29.1105 28.4556 28.2597 28.4556 27.2265C28.4556 26.1021 28.9173 25.2208 29.7791 24.6435C30.641 24.0357 31.903 23.7014 33.5344 23.7014H36.8279H36.9818V23.5495V23.276C36.9818 22.5163 36.7663 21.8781 36.3662 21.4223C35.9352 20.9665 35.3504 20.7538 34.5809 20.7538C33.8422 20.7538 33.2573 20.9361 32.888 21.3312C32.5494 21.6958 32.3647 22.182 32.3339 22.7594H28.8249V22.7898ZM37.0433 25.6159V25.4639H36.8894H34.0884C33.4728 25.4639 32.9495 25.5855 32.6109 25.7982C32.2416 26.0413 32.0569 26.3756 32.0569 26.8314C32.0569 27.2872 32.2416 27.6215 32.5802 27.8646C32.9187 28.1077 33.4112 28.2293 34.0268 28.2293C35.689 28.2293 37.0433 27.2872 37.0433 25.9805V25.6159Z" fill="url(#paint35_linear_281_60108)" stroke="url(#paint36_linear_281_60108)"/>
<path d="M45.6003 22.0005L45.9081 22.0309C46.1544 20.785 46.6161 19.8125 47.2317 19.1744C47.8473 18.5362 48.6784 18.202 49.6633 18.202C51.0485 18.202 52.2181 18.8097 53.0184 19.9037C53.8495 20.9977 54.342 22.5475 54.342 24.4011C54.342 26.2548 53.8495 27.8046 53.0492 28.8986C52.2181 29.9926 51.0792 30.6003 49.6941 30.6003C48.7091 30.6003 47.8781 30.2661 47.2625 29.6279C46.6468 28.9898 46.1851 28.0173 45.9389 26.7714L45.6311 26.8018V30.2661H42.0605V14.373H45.6003V22.0005ZM48.1859 27.6831C49.0169 27.6831 49.6633 27.4096 50.0943 26.8322C50.5252 26.2852 50.7407 25.4647 50.7407 24.4315C50.7407 23.3983 50.5252 22.5779 50.0943 22.0309C49.6633 21.4535 49.0169 21.18 48.1859 21.18C47.3548 21.18 46.7084 21.4839 46.2467 22.0309C45.8158 22.5779 45.6003 23.3983 45.6003 24.4315C45.6003 25.4647 45.8158 26.2548 46.2467 26.8322C46.7084 27.3792 47.3548 27.6831 48.1859 27.6831Z" fill="url(#paint37_linear_281_60108)" stroke="url(#paint38_linear_281_60108)"/>
<path d="M59.2053 17.0168H55.604V14.373H59.2053V17.0168ZM59.1745 30.2965H55.6348V18.5362H59.1745V30.2965Z" fill="url(#paint39_linear_281_60108)" stroke="url(#paint40_linear_281_60108)"/>
<path d="M66.6234 27.6528C67.3006 27.6528 67.7931 27.44 68.1932 27.0754C68.5318 26.7411 68.778 26.2853 68.8704 25.7383H72.4101C71.9484 28.6556 69.7322 30.6308 66.6234 30.6308C64.8073 30.6308 63.2683 30.023 62.191 28.9594C61.1137 27.8959 60.4673 26.3461 60.4673 24.4316C60.4673 22.5172 61.1137 20.9977 62.191 19.9038C63.2683 18.8402 64.8073 18.2324 66.6234 18.2324C69.7322 18.2324 71.9792 20.2077 72.4101 23.1249H68.8704C68.7472 22.5779 68.5318 22.0917 68.1932 21.7575C67.8238 21.3928 67.3006 21.2105 66.6234 21.2105C65.8231 21.2105 65.1459 21.484 64.715 22.0613C64.2841 22.6083 64.0378 23.4288 64.0378 24.4316C64.0378 25.4648 64.2533 26.2549 64.715 26.8019C65.1459 27.3793 65.8231 27.6528 66.6234 27.6528Z" fill="url(#paint41_linear_281_60108)" stroke="url(#paint42_linear_281_60108)"/>
<path d="M137.234 19.5392H137.542V19.2353C137.542 17.4728 136.864 16.0446 135.602 15.0722C134.371 14.0997 132.586 13.6135 130.401 13.6439C128.369 13.6439 126.584 14.0997 125.291 15.0114C123.998 15.923 123.198 17.2905 123.198 19.053C123.198 20.0254 123.444 20.7851 123.844 21.4233C124.244 22.0311 124.829 22.4869 125.476 22.8212C126.738 23.4593 128.338 23.672 129.6 23.8543L130.339 23.9455C131.447 24.0975 132.186 24.1886 132.709 24.4013C132.955 24.4925 133.109 24.6141 133.202 24.7356C133.294 24.8572 133.355 25.0091 133.355 25.2826C133.355 25.708 133.109 26.0727 132.617 26.3462C132.124 26.6197 131.386 26.7716 130.524 26.7716C129.508 26.7716 128.738 26.5589 128.246 26.1942C127.753 25.86 127.476 25.3434 127.476 24.7356V24.4317H127.169H123.259H122.952V24.7356C122.952 26.5285 123.629 28.0175 124.922 29.0203C126.214 30.0232 128.123 30.5398 130.524 30.5398C132.771 30.5398 134.648 30.0839 135.941 29.1723C137.265 28.2606 138.003 26.8932 138.003 25.1307C138.003 24.1278 137.757 23.3377 137.357 22.6692C136.957 22.0311 136.372 21.5448 135.726 21.2106C134.433 20.5116 132.832 20.2989 131.509 20.1166L130.955 20.0254C129.846 19.8431 129.077 19.7519 128.554 19.5392C128.307 19.4481 128.154 19.3265 128.061 19.2353C127.969 19.1138 127.907 18.9922 127.907 18.7491C127.907 18.3541 128.123 18.0502 128.584 17.8071C129.046 17.564 129.662 17.4121 130.37 17.4121C131.232 17.4121 131.909 17.6248 132.34 17.9287C132.771 18.2629 133.017 18.7187 133.017 19.2961V19.6H133.325H137.234V19.5392Z" fill="white" fill-opacity="0.08" stroke="white" stroke-opacity="0.08" stroke-width="2"/>
<path d="M143.113 30.4492H143.421V30.1453V13.9484V13.6445H143.113H139.265H138.958V13.9484V30.1453V30.4492H139.265H143.113Z" fill="white" fill-opacity="0.08" stroke="white" stroke-opacity="0.08" stroke-width="2"/>
<path d="M157.118 23.946C157.118 21.9404 156.441 20.2691 155.271 19.1143C154.101 17.9596 152.439 17.291 150.5 17.291C148.561 17.291 146.93 17.9292 145.729 19.1143C144.559 20.2691 143.882 21.9404 143.882 23.946C143.882 25.9516 144.559 27.623 145.729 28.7778C146.899 29.9325 148.561 30.601 150.5 30.601C152.439 30.601 154.071 29.9629 155.271 28.7778C156.441 27.623 157.118 25.9516 157.118 23.946ZM152.593 23.946C152.593 24.9185 152.378 25.6174 152.039 26.0732C151.701 26.4986 151.208 26.7417 150.5 26.7417C149.823 26.7417 149.3 26.4986 148.961 26.0732C148.592 25.6174 148.376 24.9185 148.376 23.946C148.376 22.9736 148.592 22.3051 148.961 21.8492C149.3 21.4238 149.823 21.1807 150.5 21.1807C151.177 21.1807 151.701 21.4238 152.039 21.8492C152.378 22.2747 152.593 22.9736 152.593 23.946Z" fill="white" fill-opacity="0.08" stroke="white" stroke-opacity="0.08" stroke-width="2"/>
<path d="M162.966 25.556V21.2409H166.044H166.352V20.937V17.959V17.6551H166.044H162.966V15.1633V14.8594H162.658H158.657H158.349V15.1633V17.6247H157.118H156.81V17.9286V20.9066V21.2105H157.118H158.349V25.5256C158.349 27.1666 158.749 28.4429 159.55 29.3242C160.35 30.2054 161.55 30.6308 163.089 30.6308C163.951 30.6308 164.967 30.4789 166.106 30.2054L166.352 30.1446V29.9015V27.0754V26.7108L165.983 26.8019C165.182 26.9843 164.628 27.0754 164.228 27.0754C163.766 27.0754 163.459 26.9539 163.305 26.7412C163.089 26.5284 162.966 26.1638 162.966 25.556Z" fill="white" fill-opacity="0.08" stroke="white" stroke-opacity="0.08" stroke-width="2"/>
<path d="M178.049 22.2443H178.357V21.9404C178.357 20.5122 177.772 19.327 176.694 18.5369C175.617 17.7468 174.078 17.3214 172.139 17.291C170.354 17.291 168.907 17.6557 167.86 18.3546C166.814 19.0535 166.26 20.1171 166.26 21.3934C166.26 22.1531 166.445 22.7609 166.783 23.2775C167.122 23.7637 167.583 24.1284 168.076 24.4019C169.061 24.9488 170.292 25.1616 171.185 25.3135L171.985 25.4654C172.785 25.6174 173.37 25.7085 173.77 25.8909C173.955 25.982 174.078 26.0732 174.14 26.1644C174.201 26.2555 174.263 26.3467 174.263 26.529C174.263 26.7721 174.14 26.9545 173.863 27.1064C173.555 27.2583 173.093 27.3799 172.447 27.3799C171.708 27.3799 171.216 27.228 170.908 27.0152C170.631 26.8025 170.477 26.4682 170.477 25.9516V25.6478H170.169H166.352H166.044V25.9516C166.044 27.4407 166.629 28.6562 167.737 29.4463C168.845 30.2364 170.446 30.6618 172.478 30.6618C174.386 30.6618 175.925 30.2972 177.002 29.5982C178.11 28.8993 178.695 27.8357 178.695 26.4986C178.695 25.7389 178.511 25.1008 178.172 24.5842C177.833 24.0676 177.372 23.7029 176.848 23.4294C175.833 22.8824 174.571 22.6393 173.616 22.4874L172.816 22.3355C172.139 22.2139 171.585 22.1227 171.216 21.9708C171.031 21.8796 170.908 21.8189 170.815 21.7277C170.754 21.6365 170.692 21.5454 170.692 21.3934C170.692 21.2111 170.785 21.0288 171.062 20.8768C171.339 20.7249 171.739 20.6033 172.262 20.6033C172.878 20.6033 173.278 20.7553 173.524 20.968C173.77 21.1807 173.924 21.515 173.924 21.9708V22.2747H174.232H178.049V22.2443Z" fill="white" fill-opacity="0.08" stroke="white" stroke-opacity="0.08" stroke-width="2"/>
<path d="M132.647 20.7833C133.971 20.9657 135.51 21.1784 136.71 21.8469C137.295 22.1812 137.819 22.5762 138.188 23.1536C138.557 23.731 138.773 24.4299 138.773 25.372C138.773 26.9825 138.096 28.1981 136.926 29.0489C135.726 29.8998 133.971 30.3252 131.755 30.3252C129.416 30.3252 127.63 29.8086 126.461 28.897C125.322 28.0157 124.706 26.7394 124.645 25.1288H128.277C128.307 25.8278 128.646 26.4052 129.231 26.8306C129.846 27.256 130.708 27.4687 131.786 27.4687C132.678 27.4687 133.509 27.3168 134.094 26.9825C134.679 26.6483 135.079 26.162 135.079 25.5239C135.079 25.1896 135.018 24.9465 134.833 24.7338C134.679 24.5211 134.433 24.3691 134.156 24.2476C133.571 24.0045 132.74 23.9133 131.693 23.7614L130.955 23.6702C129.662 23.4879 128.154 23.3056 126.984 22.6978C126.399 22.3939 125.876 21.9989 125.537 21.4519C125.168 20.9049 124.952 20.2363 124.952 19.3551C124.952 17.7445 125.66 16.529 126.861 15.6781C128.061 14.8272 129.754 14.4018 131.693 14.4018C133.786 14.3714 135.448 14.8273 136.587 15.7389C137.695 16.5898 138.311 17.8357 138.342 19.3855H134.741C134.71 18.7473 134.402 18.2003 133.879 17.8357C133.325 17.4406 132.555 17.1975 131.632 17.1975C130.862 17.1975 130.154 17.3495 129.631 17.623C129.077 17.9268 128.708 18.3827 128.708 18.9904C128.708 19.2943 128.769 19.5374 128.954 19.7501C129.108 19.9629 129.354 20.0844 129.631 20.206C130.185 20.4187 131.016 20.5402 132.063 20.7226C132.093 20.7226 132.124 20.7226 132.155 20.7226L132.647 20.7833Z" fill="url(#paint43_linear_281_60108)" stroke="url(#paint44_linear_281_60108)"/>
<path d="M143.605 29.9614H140.065V14.0684H143.605V29.9614Z" fill="url(#paint45_linear_281_60108)" stroke="url(#paint46_linear_281_60108)"/>
<path d="M151.054 17.8672C152.87 17.8672 154.409 18.475 155.486 19.5385C156.564 20.6021 157.21 22.1519 157.21 24.0664C157.21 25.9808 156.564 27.5002 155.486 28.5942C154.409 29.6578 152.87 30.2656 151.054 30.2656C149.238 30.2656 147.699 29.6578 146.622 28.5942C145.544 27.5306 144.898 25.9808 144.898 24.0664C144.898 22.1519 145.544 20.6325 146.622 19.5385C147.699 18.475 149.238 17.8672 151.054 17.8672ZM151.054 27.3179C151.854 27.3179 152.501 27.014 152.962 26.467C153.393 25.9201 153.609 25.0996 153.609 24.0664C153.609 23.0332 153.393 22.2431 152.962 21.6961C152.532 21.1491 151.885 20.8452 151.054 20.8452C150.254 20.8452 149.577 21.1187 149.146 21.6961C148.715 22.2431 148.468 23.0636 148.468 24.0664C148.468 25.0692 148.684 25.8897 149.146 26.467C149.577 27.014 150.254 27.3179 151.054 27.3179Z" fill="url(#paint47_linear_281_60108)" stroke="url(#paint48_linear_281_60108)"/>
<path d="M159.488 21.027V20.875H159.334H158.011V18.2009H159.334H159.488V18.0489V15.4355H163.028V18.0489V18.2009H163.182H166.291V20.875H163.182H163.028V21.027V25.646C163.028 26.2841 163.151 26.8007 163.428 27.135C163.705 27.4693 164.136 27.6212 164.659 27.6212C165.059 27.6212 165.583 27.53 166.26 27.3781V29.9003C165.244 30.1434 164.352 30.2954 163.582 30.2954C162.197 30.2954 161.212 29.9003 160.535 29.1406C159.858 28.3809 159.488 27.2262 159.488 25.646V21.027Z" fill="url(#paint49_linear_281_60108)" stroke="url(#paint50_linear_281_60108)"/>
<path d="M174.232 23.003C175.217 23.1854 176.386 23.3677 177.341 23.8843C177.802 24.1274 178.203 24.4617 178.48 24.8871C178.757 25.3125 178.941 25.8595 178.941 26.5281C178.941 27.7132 178.418 28.6248 177.464 29.263C176.479 29.9011 175.032 30.2354 173.185 30.2354C171.215 30.2354 169.738 29.8404 168.722 29.111C167.768 28.4121 167.245 27.4093 167.214 26.133H170.723C170.754 26.6496 170.938 27.075 171.338 27.3789C171.739 27.7132 172.354 27.8651 173.155 27.8651C173.832 27.8651 174.386 27.7436 174.786 27.5309C175.186 27.3181 175.432 26.9839 175.432 26.5584C175.432 26.3153 175.371 26.1026 175.217 25.9203C175.094 25.738 174.878 25.6164 174.663 25.5252C174.201 25.3125 173.555 25.2214 172.785 25.0694L171.985 24.9175C171.092 24.7655 169.953 24.5528 169.03 24.0666C168.568 23.8235 168.168 23.4892 167.891 23.0638C167.614 22.6384 167.429 22.1218 167.429 21.4532C167.429 20.3289 167.922 19.4172 168.845 18.7791C169.769 18.1409 171.123 17.8066 172.847 17.8066C174.694 17.8066 176.14 18.2321 177.125 18.9614C178.049 19.6603 178.572 20.6327 178.603 21.8483H175.094C175.063 21.3621 174.878 20.9366 174.54 20.6631C174.17 20.3592 173.647 20.1769 172.97 20.1769C172.385 20.1769 171.893 20.2985 171.523 20.5112C171.154 20.7239 170.938 21.0278 170.938 21.4228C170.938 21.6659 171 21.8787 171.154 22.0306C171.308 22.1825 171.492 22.3041 171.708 22.4256C172.17 22.608 172.754 22.6991 173.432 22.8207L174.232 23.003Z" fill="url(#paint51_linear_281_60108)" stroke="url(#paint52_linear_281_60108)"/>
</g>
<defs>
<linearGradient id="paint0_linear_281_60108" x1="96.9549" y1="4.04695" x2="98.5278" y2="6.111" gradientUnits="userSpaceOnUse">
<stop stop-color="#8C421D"/>
<stop offset="0.3253" stop-color="#FBE67B"/>
<stop offset="0.5355" stop-color="#FCFBE7"/>
<stop offset="0.7699" stop-color="#F7D14E"/>
<stop offset="1" stop-color="#D4A041"/>
</linearGradient>
<linearGradient id="paint1_linear_281_60108" x1="98.4992" y1="6.95962" x2="110.636" y2="18.5658" gradientUnits="userSpaceOnUse">
<stop stop-color="#8C421D"/>
<stop offset="0.3253" stop-color="#FBE67B"/>
<stop offset="0.5355" stop-color="#FCFBE7"/>
<stop offset="0.7699" stop-color="#F7D14E"/>
<stop offset="1" stop-color="#D4A041"/>
</linearGradient>
<linearGradient id="paint2_linear_281_60108" x1="90.782" y1="38.0085" x2="91.4576" y2="40.5649" gradientUnits="userSpaceOnUse">
<stop stop-color="#8C421D"/>
<stop offset="0.3253" stop-color="#FBE67B"/>
<stop offset="0.5355" stop-color="#FCFBE7"/>
<stop offset="0.7699" stop-color="#F7D14E"/>
<stop offset="1" stop-color="#D4A041"/>
</linearGradient>
<linearGradient id="paint3_linear_281_60108" x1="90.782" y1="38.0085" x2="91.4576" y2="40.5649" gradientUnits="userSpaceOnUse">
<stop stop-color="#FCFBE7"/>
<stop offset="0.2967" stop-color="#FBE67B"/>
<stop offset="0.6417" stop-color="#8C421D"/>
<stop offset="0.8367" stop-color="#070706"/>
<stop offset="1" stop-color="#D4A041"/>
</linearGradient>
<linearGradient id="paint4_linear_281_60108" x1="116.805" y1="35.245" x2="117.481" y2="37.8013" gradientUnits="userSpaceOnUse">
<stop stop-color="#8C421D"/>
<stop offset="0.3253" stop-color="#FBE67B"/>
<stop offset="0.5355" stop-color="#FCFBE7"/>
<stop offset="0.7699" stop-color="#F7D14E"/>
<stop offset="1" stop-color="#D4A041"/>
</linearGradient>
<linearGradient id="paint5_linear_281_60108" x1="116.805" y1="35.245" x2="117.481" y2="37.8013" gradientUnits="userSpaceOnUse">
<stop stop-color="#FCFBE7"/>
<stop offset="0.2967" stop-color="#FBE67B"/>
<stop offset="0.6417" stop-color="#8C421D"/>
<stop offset="0.8367" stop-color="#070706"/>
<stop offset="1" stop-color="#D4A041"/>
</linearGradient>
<linearGradient id="paint6_linear_281_60108" x1="105.496" y1="36.964" x2="106.171" y2="39.5207" gradientUnits="userSpaceOnUse">
<stop stop-color="#8C421D"/>
<stop offset="0.3253" stop-color="#FBE67B"/>
<stop offset="0.5355" stop-color="#FCFBE7"/>
<stop offset="0.7699" stop-color="#F7D14E"/>
<stop offset="1" stop-color="#D4A041"/>
</linearGradient>
<linearGradient id="paint7_linear_281_60108" x1="105.496" y1="36.964" x2="106.171" y2="39.5207" gradientUnits="userSpaceOnUse">
<stop stop-color="#FCFBE7"/>
<stop offset="0.2967" stop-color="#FBE67B"/>
<stop offset="0.6417" stop-color="#8C421D"/>
<stop offset="0.8367" stop-color="#070706"/>
<stop offset="1" stop-color="#D4A041"/>
</linearGradient>
<linearGradient id="paint8_linear_281_60108" x1="100.768" y1="38.3444" x2="101.443" y2="40.9007" gradientUnits="userSpaceOnUse">
<stop stop-color="#8C421D"/>
<stop offset="0.3253" stop-color="#FBE67B"/>
<stop offset="0.5355" stop-color="#FCFBE7"/>
<stop offset="0.7699" stop-color="#F7D14E"/>
<stop offset="1" stop-color="#D4A041"/>
</linearGradient>
<linearGradient id="paint9_linear_281_60108" x1="100.768" y1="38.3444" x2="101.443" y2="40.9007" gradientUnits="userSpaceOnUse">
<stop stop-color="#FCFBE7"/>
<stop offset="0.2967" stop-color="#FBE67B"/>
<stop offset="0.6417" stop-color="#8C421D"/>
<stop offset="0.8367" stop-color="#070706"/>
<stop offset="1" stop-color="#D4A041"/>
</linearGradient>
<linearGradient id="paint10_linear_281_60108" x1="97.1743" y1="39.1678" x2="97.8499" y2="41.7241" gradientUnits="userSpaceOnUse">
<stop stop-color="#8C421D"/>
<stop offset="0.3253" stop-color="#FBE67B"/>
<stop offset="0.5355" stop-color="#FCFBE7"/>
<stop offset="0.7699" stop-color="#F7D14E"/>
<stop offset="1" stop-color="#D4A041"/>
</linearGradient>
<linearGradient id="paint11_linear_281_60108" x1="97.1743" y1="39.1678" x2="97.8499" y2="41.7241" gradientUnits="userSpaceOnUse">
<stop stop-color="#FCFBE7"/>
<stop offset="0.2967" stop-color="#FBE67B"/>
<stop offset="0.6417" stop-color="#8C421D"/>
<stop offset="0.8367" stop-color="#070706"/>
<stop offset="1" stop-color="#D4A041"/>
</linearGradient>
<linearGradient id="paint12_linear_281_60108" x1="98.5362" y1="37.3751" x2="99.2118" y2="39.9314" gradientUnits="userSpaceOnUse">
<stop stop-color="#8C421D"/>
<stop offset="0.3253" stop-color="#FBE67B"/>
<stop offset="0.5355" stop-color="#FCFBE7"/>
<stop offset="0.7699" stop-color="#F7D14E"/>
<stop offset="1" stop-color="#D4A041"/>
</linearGradient>
<linearGradient id="paint13_linear_281_60108" x1="98.5362" y1="37.3751" x2="99.2118" y2="39.9314" gradientUnits="userSpaceOnUse">
<stop stop-color="#FCFBE7"/>
<stop offset="0.2967" stop-color="#FBE67B"/>
<stop offset="0.6417" stop-color="#8C421D"/>
<stop offset="0.8367" stop-color="#070706"/>
<stop offset="1" stop-color="#D4A041"/>
</linearGradient>
<linearGradient id="paint14_linear_281_60108" x1="110.072" y1="38.3444" x2="110.748" y2="40.9007" gradientUnits="userSpaceOnUse">
<stop stop-color="#8C421D"/>
<stop offset="0.3253" stop-color="#FBE67B"/>
<stop offset="0.5355" stop-color="#FCFBE7"/>
<stop offset="0.7699" stop-color="#F7D14E"/>
<stop offset="1" stop-color="#D4A041"/>
</linearGradient>
<linearGradient id="paint15_linear_281_60108" x1="110.072" y1="38.3444" x2="110.748" y2="40.9007" gradientUnits="userSpaceOnUse">
<stop stop-color="#FCFBE7"/>
<stop offset="0.2967" stop-color="#FBE67B"/>
<stop offset="0.6417" stop-color="#8C421D"/>
<stop offset="0.8367" stop-color="#070706"/>
<stop offset="1" stop-color="#D4A041"/>
</linearGradient>
<linearGradient id="paint16_linear_281_60108" x1="112.418" y1="36.4785" x2="113.093" y2="39.0349" gradientUnits="userSpaceOnUse">
<stop stop-color="#8C421D"/>
<stop offset="0.3253" stop-color="#FBE67B"/>
<stop offset="0.5355" stop-color="#FCFBE7"/>
<stop offset="0.7699" stop-color="#F7D14E"/>
<stop offset="1" stop-color="#D4A041"/>
</linearGradient>
<linearGradient id="paint17_linear_281_60108" x1="112.418" y1="36.4785" x2="113.093" y2="39.0349" gradientUnits="userSpaceOnUse">
<stop stop-color="#FCFBE7"/>
<stop offset="0.2967" stop-color="#FBE67B"/>
<stop offset="0.6417" stop-color="#8C421D"/>
<stop offset="0.8367" stop-color="#070706"/>
<stop offset="1" stop-color="#D4A041"/>
</linearGradient>
<linearGradient id="paint18_linear_281_60108" x1="114.65" y1="34.3501" x2="115.325" y2="36.9067" gradientUnits="userSpaceOnUse">
<stop stop-color="#8C421D"/>
<stop offset="0.3253" stop-color="#FBE67B"/>
<stop offset="0.5355" stop-color="#FCFBE7"/>
<stop offset="0.7699" stop-color="#F7D14E"/>
<stop offset="1" stop-color="#D4A041"/>
</linearGradient>
<linearGradient id="paint19_linear_281_60108" x1="114.65" y1="34.3501" x2="115.325" y2="36.9067" gradientUnits="userSpaceOnUse">
<stop stop-color="#FCFBE7"/>
<stop offset="0.2967" stop-color="#FBE67B"/>
<stop offset="0.6417" stop-color="#8C421D"/>
<stop offset="0.8367" stop-color="#070706"/>
<stop offset="1" stop-color="#D4A041"/>
</linearGradient>
<linearGradient id="paint20_linear_281_60108" x1="115.482" y1="32.7445" x2="116.157" y2="35.3012" gradientUnits="userSpaceOnUse">
<stop stop-color="#8C421D"/>
<stop offset="0.3253" stop-color="#FBE67B"/>
<stop offset="0.5355" stop-color="#FCFBE7"/>
<stop offset="0.7699" stop-color="#F7D14E"/>
<stop offset="1" stop-color="#D4A041"/>
</linearGradient>
<linearGradient id="paint21_linear_281_60108" x1="115.482" y1="32.7445" x2="116.157" y2="35.3012" gradientUnits="userSpaceOnUse">
<stop stop-color="#FCFBE7"/>
<stop offset="0.2967" stop-color="#FBE67B"/>
<stop offset="0.6417" stop-color="#8C421D"/>
<stop offset="0.8367" stop-color="#070706"/>
<stop offset="1" stop-color="#D4A041"/>
</linearGradient>
<linearGradient id="paint22_linear_281_60108" x1="114.825" y1="31.2445" x2="115.613" y2="33.9803" gradientUnits="userSpaceOnUse">
<stop stop-color="#8C421D"/>
<stop offset="0.3253" stop-color="#FBE67B"/>
<stop offset="0.5355" stop-color="#FCFBE7"/>
<stop offset="0.7699" stop-color="#F7D14E"/>
<stop offset="1" stop-color="#D4A041"/>
</linearGradient>
<linearGradient id="paint23_linear_281_60108" x1="114.825" y1="31.2445" x2="115.613" y2="33.9803" gradientUnits="userSpaceOnUse">
<stop stop-color="#FCFBE7"/>
<stop offset="0.2967" stop-color="#FBE67B"/>
<stop offset="0.6417" stop-color="#8C421D"/>
<stop offset="0.8367" stop-color="#070706"/>
<stop offset="1" stop-color="#D4A041"/>
</linearGradient>
<linearGradient id="paint24_linear_281_60108" x1="113.538" y1="29.8988" x2="114.327" y2="32.6349" gradientUnits="userSpaceOnUse">
<stop stop-color="#8C421D"/>
<stop offset="0.3253" stop-color="#FBE67B"/>
<stop offset="0.5355" stop-color="#FCFBE7"/>
<stop offset="0.7699" stop-color="#F7D14E"/>
<stop offset="1" stop-color="#D4A041"/>
</linearGradient>
<linearGradient id="paint25_linear_281_60108" x1="113.538" y1="29.8988" x2="114.327" y2="32.6349" gradientUnits="userSpaceOnUse">
<stop stop-color="#FCFBE7"/>
<stop offset="0.2967" stop-color="#FBE67B"/>
<stop offset="0.6417" stop-color="#8C421D"/>
<stop offset="0.8367" stop-color="#070706"/>
<stop offset="1" stop-color="#D4A041"/>
</linearGradient>
<linearGradient id="paint26_linear_281_60108" x1="112.214" y1="28.3673" x2="113.003" y2="31.1032" gradientUnits="userSpaceOnUse">
<stop stop-color="#8C421D"/>
<stop offset="0.3253" stop-color="#FBE67B"/>
<stop offset="0.5355" stop-color="#FCFBE7"/>
<stop offset="0.7699" stop-color="#F7D14E"/>
<stop offset="1" stop-color="#D4A041"/>
</linearGradient>
<linearGradient id="paint27_linear_281_60108" x1="112.214" y1="28.3673" x2="113.003" y2="31.1032" gradientUnits="userSpaceOnUse">
<stop stop-color="#FCFBE7"/>
<stop offset="0.2967" stop-color="#FBE67B"/>
<stop offset="0.6417" stop-color="#8C421D"/>
<stop offset="0.8367" stop-color="#070706"/>
<stop offset="1" stop-color="#D4A041"/>
</linearGradient>
<linearGradient id="paint28_linear_281_60108" x1="94.0727" y1="36.0682" x2="94.7483" y2="38.6246" gradientUnits="userSpaceOnUse">
<stop stop-color="#8C421D"/>
<stop offset="0.3253" stop-color="#FBE67B"/>
<stop offset="0.5355" stop-color="#FCFBE7"/>
<stop offset="0.7699" stop-color="#F7D14E"/>
<stop offset="1" stop-color="#D4A041"/>
</linearGradient>
<linearGradient id="paint29_linear_281_60108" x1="94.0727" y1="36.0682" x2="94.7483" y2="38.6246" gradientUnits="userSpaceOnUse">
<stop stop-color="#FCFBE7"/>
<stop offset="0.2967" stop-color="#FBE67B"/>
<stop offset="0.6417" stop-color="#8C421D"/>
<stop offset="0.8367" stop-color="#070706"/>
<stop offset="1" stop-color="#D4A041"/>
</linearGradient>
<linearGradient id="paint30_linear_281_60108" x1="87.2067" y1="12.4737" x2="96.7043" y2="18.5789" gradientUnits="userSpaceOnUse">
<stop stop-color="#8C421D"/>
<stop offset="0.3253" stop-color="#FBE67B"/>
<stop offset="0.5355" stop-color="#FCFBE7"/>
<stop offset="0.7699" stop-color="#F7D14E"/>
<stop offset="1" stop-color="#D4A041"/>
</linearGradient>
<linearGradient id="paint31_linear_281_60108" x1="4.18217" y1="18.3682" x2="15.1959" y2="29.7876" gradientUnits="userSpaceOnUse">
<stop stop-color="#8C421D"/>
<stop offset="0.3253" stop-color="#FBE67B"/>
<stop offset="0.5355" stop-color="#FCFBE7"/>
<stop offset="0.7699" stop-color="#F7D14E"/>
<stop offset="1" stop-color="#D4A041"/>
</linearGradient>
<linearGradient id="paint32_linear_281_60108" x1="4.15629" y1="18.3932" x2="15.17" y2="29.8125" gradientUnits="userSpaceOnUse">
<stop stop-color="#FCFBE7"/>
<stop offset="0.2967" stop-color="#FBE67B"/>
<stop offset="0.6417" stop-color="#8C421D"/>
<stop offset="0.8367" stop-color="#070706"/>
<stop offset="1" stop-color="#D4A041"/>
</linearGradient>
<linearGradient id="paint33_linear_281_60108" x1="19.7556" y1="21.6957" x2="27.7699" y2="27.3299" gradientUnits="userSpaceOnUse">
<stop stop-color="#8C421D"/>
<stop offset="0.3253" stop-color="#FBE67B"/>
<stop offset="0.5355" stop-color="#FCFBE7"/>
<stop offset="0.7699" stop-color="#F7D14E"/>
<stop offset="1" stop-color="#D4A041"/>
</linearGradient>
<linearGradient id="paint34_linear_281_60108" x1="19.7556" y1="21.6957" x2="27.7699" y2="27.3299" gradientUnits="userSpaceOnUse">
<stop stop-color="#FCFBE7"/>
<stop offset="0.2967" stop-color="#FBE67B"/>
<stop offset="0.6417" stop-color="#8C421D"/>
<stop offset="0.8367" stop-color="#070706"/>
<stop offset="1" stop-color="#D4A041"/>
</linearGradient>
<linearGradient id="paint35_linear_281_60108" x1="29.8573" y1="20.3742" x2="38.8229" y2="29.2124" gradientUnits="userSpaceOnUse">
<stop stop-color="#8C421D"/>
<stop offset="0.3253" stop-color="#FBE67B"/>
<stop offset="0.5355" stop-color="#FCFBE7"/>
<stop offset="0.7699" stop-color="#F7D14E"/>
<stop offset="1" stop-color="#D4A041"/>
</linearGradient>
<linearGradient id="paint36_linear_281_60108" x1="29.8573" y1="20.3742" x2="38.8229" y2="29.2124" gradientUnits="userSpaceOnUse">
<stop stop-color="#FCFBE7"/>
<stop offset="0.2967" stop-color="#FBE67B"/>
<stop offset="0.6417" stop-color="#8C421D"/>
<stop offset="0.8367" stop-color="#070706"/>
<stop offset="1" stop-color="#D4A041"/>
</linearGradient>
<linearGradient id="paint37_linear_281_60108" x1="41.2005" y1="20.206" x2="52.4574" y2="28.88" gradientUnits="userSpaceOnUse">
<stop stop-color="#8C421D"/>
<stop offset="0.3253" stop-color="#FBE67B"/>
<stop offset="0.5355" stop-color="#FCFBE7"/>
<stop offset="0.7699" stop-color="#F7D14E"/>
<stop offset="1" stop-color="#D4A041"/>
</linearGradient>
<linearGradient id="paint38_linear_281_60108" x1="41.1818" y1="20.2302" x2="52.4388" y2="28.9042" gradientUnits="userSpaceOnUse">
<stop stop-color="#FCFBE7"/>
<stop offset="0.2967" stop-color="#FBE67B"/>
<stop offset="0.6417" stop-color="#8C421D"/>
<stop offset="0.8367" stop-color="#070706"/>
<stop offset="1" stop-color="#D4A041"/>
</linearGradient>
<linearGradient id="paint39_linear_281_60108" x1="54.8354" y1="21.718" x2="60.0938" y2="22.9997" gradientUnits="userSpaceOnUse">
<stop stop-color="#8C421D"/>
<stop offset="0.3253" stop-color="#FBE67B"/>
<stop offset="0.5355" stop-color="#FCFBE7"/>
<stop offset="0.7699" stop-color="#F7D14E"/>
<stop offset="1" stop-color="#D4A041"/>
</linearGradient>
<linearGradient id="paint40_linear_281_60108" x1="54.8354" y1="21.718" x2="60.0938" y2="22.9997" gradientUnits="userSpaceOnUse">
<stop stop-color="#FCFBE7"/>
<stop offset="0.2967" stop-color="#FBE67B"/>
<stop offset="0.6417" stop-color="#8C421D"/>
<stop offset="0.8367" stop-color="#070706"/>
<stop offset="1" stop-color="#D4A041"/>
</linearGradient>
<linearGradient id="paint41_linear_281_60108" x1="62.0756" y1="20.1732" x2="71.0184" y2="28.9224" gradientUnits="userSpaceOnUse">
<stop stop-color="#8C421D"/>
<stop offset="0.3253" stop-color="#FBE67B"/>
<stop offset="0.5355" stop-color="#FCFBE7"/>
<stop offset="0.7699" stop-color="#F7D14E"/>
<stop offset="1" stop-color="#D4A041"/>
</linearGradient>
<linearGradient id="paint42_linear_281_60108" x1="62.0756" y1="20.1732" x2="71.0184" y2="28.9224" gradientUnits="userSpaceOnUse">
<stop stop-color="#FCFBE7"/>
<stop offset="0.2967" stop-color="#FBE67B"/>
<stop offset="0.6417" stop-color="#8C421D"/>
<stop offset="0.8367" stop-color="#070706"/>
<stop offset="1" stop-color="#D4A041"/>
</linearGradient>
<linearGradient id="paint43_linear_281_60108" x1="126.034" y1="17.4782" x2="137.4" y2="27.7076" gradientUnits="userSpaceOnUse">
<stop stop-color="#8C421D"/>
<stop offset="0.3253" stop-color="#FBE67B"/>
<stop offset="0.5355" stop-color="#FCFBE7"/>
<stop offset="0.7699" stop-color="#F7D14E"/>
<stop offset="1" stop-color="#D4A041"/>
</linearGradient>
<linearGradient id="paint44_linear_281_60108" x1="126.034" y1="17.4782" x2="137.4" y2="27.7076" gradientUnits="userSpaceOnUse">
<stop stop-color="#FCFBE7"/>
<stop offset="0.2967" stop-color="#FBE67B"/>
<stop offset="0.6417" stop-color="#8C421D"/>
<stop offset="0.8367" stop-color="#070706"/>
<stop offset="1" stop-color="#D4A041"/>
</linearGradient>
<linearGradient id="paint45_linear_281_60108" x1="139.302" y1="21.4187" x2="144.486" y2="22.6646" gradientUnits="userSpaceOnUse">
<stop stop-color="#8C421D"/>
<stop offset="0.3253" stop-color="#FBE67B"/>
<stop offset="0.5355" stop-color="#FCFBE7"/>
<stop offset="0.7699" stop-color="#F7D14E"/>
<stop offset="1" stop-color="#D4A041"/>
</linearGradient>
<linearGradient id="paint46_linear_281_60108" x1="139.302" y1="21.4187" x2="144.486" y2="22.6646" gradientUnits="userSpaceOnUse">
<stop stop-color="#FCFBE7"/>
<stop offset="0.2967" stop-color="#FBE67B"/>
<stop offset="0.6417" stop-color="#8C421D"/>
<stop offset="0.8367" stop-color="#070706"/>
<stop offset="1" stop-color="#D4A041"/>
</linearGradient>
<linearGradient id="paint47_linear_281_60108" x1="146.632" y1="19.731" x2="155.577" y2="28.7234" gradientUnits="userSpaceOnUse">
<stop stop-color="#8C421D"/>
<stop offset="0.3253" stop-color="#FBE67B"/>
<stop offset="0.5355" stop-color="#FCFBE7"/>
<stop offset="0.7699" stop-color="#F7D14E"/>
<stop offset="1" stop-color="#D4A041"/>
</linearGradient>
<linearGradient id="paint48_linear_281_60108" x1="146.632" y1="19.731" x2="155.577" y2="28.7234" gradientUnits="userSpaceOnUse">
<stop stop-color="#FCFBE7"/>
<stop offset="0.2967" stop-color="#FBE67B"/>
<stop offset="0.6417" stop-color="#8C421D"/>
<stop offset="0.8367" stop-color="#070706"/>
<stop offset="1" stop-color="#D4A041"/>
</linearGradient>
<linearGradient id="paint49_linear_281_60108" x1="157.743" y1="20.1321" x2="166.956" y2="25.4114" gradientUnits="userSpaceOnUse">
<stop stop-color="#8C421D"/>
<stop offset="0.3253" stop-color="#FBE67B"/>
<stop offset="0.5355" stop-color="#FCFBE7"/>
<stop offset="0.7699" stop-color="#F7D14E"/>
<stop offset="1" stop-color="#D4A041"/>
</linearGradient>
<linearGradient id="paint50_linear_281_60108" x1="157.756" y1="20.1081" x2="166.969" y2="25.3874" gradientUnits="userSpaceOnUse">
<stop stop-color="#FCFBE7"/>
<stop offset="0.2967" stop-color="#FBE67B"/>
<stop offset="0.6417" stop-color="#8C421D"/>
<stop offset="0.8367" stop-color="#070706"/>
<stop offset="1" stop-color="#D4A041"/>
</linearGradient>
<linearGradient id="paint51_linear_281_60108" x1="168.567" y1="20.0121" x2="177.525" y2="28.5793" gradientUnits="userSpaceOnUse">
<stop stop-color="#8C421D"/>
<stop offset="0.3253" stop-color="#FBE67B"/>
<stop offset="0.5355" stop-color="#FCFBE7"/>
<stop offset="0.7699" stop-color="#F7D14E"/>
<stop offset="1" stop-color="#D4A041"/>
</linearGradient>
<linearGradient id="paint52_linear_281_60108" x1="168.567" y1="20.0121" x2="177.525" y2="28.5793" gradientUnits="userSpaceOnUse">
<stop stop-color="#FCFBE7"/>
<stop offset="0.2967" stop-color="#FBE67B"/>
<stop offset="0.6417" stop-color="#8C421D"/>
<stop offset="0.8367" stop-color="#070706"/>
<stop offset="1" stop-color="#D4A041"/>
</linearGradient>
<clipPath id="clip0_281_60108">
<rect width="180" height="44" fill="white"/>
</clipPath>
</defs>
</svg>
