<svg width="107" height="69" viewBox="0 0 107 69" fill="none" xmlns="http://www.w3.org/2000/svg">
<g clip-path="url(#clip0_472_55801)">
<path d="M7.61023 68.379C3.47793 68.379 0.114258 65.0154 0.114258 60.8831V7.61218C0.114258 3.47989 3.47793 0.116211 7.61023 0.116211H98.9317C103.064 0.116211 106.428 3.47989 106.428 7.61218V60.8831C106.428 65.0154 103.064 68.379 98.9317 68.379H7.61023Z" fill="url(#paint0_linear_472_55801)"/>
<path d="M98.9316 0.22928C100.895 0.22928 102.744 0.997903 104.145 2.39817C105.545 3.79843 106.313 5.64769 106.313 7.6111V60.882C106.313 62.8454 105.545 64.6946 104.145 66.0949C102.744 67.4952 100.895 68.2638 98.9316 68.2638H7.61013C5.64671 68.2638 3.79745 67.4952 2.39719 66.0949C0.996926 64.6946 0.228304 62.8454 0.228304 60.882V7.6111C0.228304 5.64769 0.996926 3.79843 2.39719 2.39817C3.79745 0.997903 5.64671 0.22928 7.61013 0.22928H98.9316ZM98.9316 0.000976562H7.61013C3.42456 0.000976562 0 3.42553 0 7.6111V60.882C0 65.0675 3.42456 68.4921 7.61013 68.4921H98.9316C103.117 68.4921 106.542 65.0675 106.542 60.882V7.6111C106.542 3.42553 103.117 0.000976562 98.9316 0.000976562Z" fill="#BCBEC0"/>
<path d="M41.1025 46.4521L45.0826 42.1676V50.866L41.1025 46.4521ZM28.4241 43.2482V45.2193H34.124V47.4338H28.4241V49.5951H34.7937L37.7541 46.4064L34.9155 43.2406L28.4241 43.2482ZM98.9471 44.8768C99.8375 45.79 100.248 46.9087 100.248 48.4307C100.248 51.6879 98.0567 53.6437 94.381 53.6437H89.3355C88.5897 53.6437 87.9581 53.1947 87.6917 52.5554C86.71 53.2479 85.4011 53.6437 83.7953 53.6437H78.7422C78.453 53.6437 78.2171 53.56 77.9736 53.4458C77.7377 53.56 77.4637 53.6437 77.1973 53.6437H68.537C68.2478 53.6437 67.9891 53.56 67.7456 53.4458C67.5097 53.56 67.2357 53.6437 66.9541 53.6437H64.3438C63.3621 53.6437 62.5631 52.8446 62.5631 51.8629V50.2876C62.5631 50.1354 62.5631 49.9071 62.5555 49.7092C62.4413 49.7016 62.2663 49.6864 62.038 49.6864H61.0639V51.8629C61.0639 52.8446 60.2648 53.6437 59.2755 53.6437H56.6652C55.6835 53.6437 54.8845 52.8446 54.8845 51.8629V49.1004C53.9636 49.6484 52.6927 50.0136 50.9348 50.0136H49.4889V51.8705C49.4889 52.8522 48.6898 53.6513 47.7081 53.6513H42.6474C42.1375 53.6513 41.6581 53.4306 41.308 53.0501L39.4359 50.9345L37.4649 53.0805C37.1224 53.4458 36.643 53.6513 36.1407 53.6513H25.8747C24.893 53.6513 24.0863 52.8522 24.0863 51.8705V41.0109C24.0863 40.0216 24.893 39.2225 25.8747 39.2225H36.3005C36.8104 39.2225 37.2898 39.428 37.6399 39.8161L39.5272 41.9165L41.4982 39.7933C41.8255 39.428 42.3049 39.2225 42.8148 39.2225H51.0946C52.9134 39.2225 54.1843 39.6258 55.1051 40.2118C55.4019 39.6334 55.9879 39.2225 56.6804 39.2225H62.6696C64.0394 39.2225 65.3788 39.2758 66.6345 39.9455C66.7715 40.0292 66.8628 40.1205 66.9769 40.2194C67.2737 39.641 67.8673 39.2377 68.5599 39.2377H77.2049C77.8746 39.2377 78.4378 39.6182 78.7498 40.1814C79.6098 39.603 80.7284 39.2377 82.1591 39.2377H87.3645C88.1407 39.2377 88.78 39.7476 89.0387 40.4325C89.9291 39.7171 91.1391 39.2377 92.76 39.2377H97.9349C98.9166 39.2377 99.7157 40.0368 99.7157 41.0261V43.3243C99.7157 43.9712 99.3961 44.5191 98.8938 44.8388C98.909 44.8464 98.9319 44.854 98.9471 44.8768ZM55.4172 44.5724C55.4172 41.5664 53.1037 40.9957 51.0413 40.9957H42.7615L39.4663 44.5496L36.2777 40.9957H25.8518V51.8553H36.1103L39.4359 48.2557L42.6169 51.8553H47.6624V48.2177H50.8968C53.1722 48.2177 55.4172 47.5936 55.4172 44.5724ZM65.2418 46.8174C65.9267 46.5358 67.0759 45.6683 67.0759 43.9255C67.0759 42.6927 66.566 42.0078 65.7517 41.5207C64.8994 41.0641 63.9481 41.0109 62.6316 41.0109H56.6424V51.8629H59.2527V47.898H62.0151C62.9588 47.898 63.5524 47.9894 63.9101 48.3699C64.4123 48.8797 64.3362 49.8386 64.3362 50.4931V51.8477H66.9465V49.694C66.9389 48.7428 66.8704 48.2405 66.5127 47.7154C66.2844 47.4034 65.8126 47.0229 65.2418 46.8174ZM77.1821 41.0109H68.5294V51.8629H77.1821V49.6179L71.1016 49.6103V47.449H77.0299V45.2421H71.1016V43.2711H77.1821V41.0109ZM87.8515 48.4155C87.8515 47.3044 87.5775 46.6424 87.0753 46.1249C86.4969 45.5313 85.5304 45.2878 84.1149 45.2421L82.7223 45.1964C82.2733 45.1964 81.9993 45.166 81.7178 45.0823C81.3981 44.9529 81.147 44.6789 81.147 44.2756C81.147 43.9332 81.2459 43.6668 81.5427 43.4842C81.8015 43.3167 82.1059 43.2863 82.5777 43.2863H87.334V40.988H82.1439C79.4195 40.988 78.4378 42.6318 78.4378 44.2223C78.4378 47.6393 81.4742 47.4947 83.9019 47.5784C84.3585 47.5784 84.6248 47.6545 84.8227 47.8143C84.9977 47.9665 85.1347 48.2177 85.1347 48.5297C85.1347 48.8265 85.0053 49.07 84.8227 49.245C84.602 49.4429 84.2595 49.519 83.7649 49.519H78.7346V51.8401H83.7801C86.3828 51.8629 87.8515 50.7594 87.8515 48.4155ZM98.4448 48.4155C98.4448 47.3044 98.1708 46.6424 97.6762 46.1249C97.0826 45.5313 96.1237 45.2878 94.7158 45.2421L93.3156 45.1964C92.8818 45.1964 92.5926 45.166 92.3111 45.0823C91.9914 44.9529 91.7479 44.6789 91.7479 44.2756C91.7479 43.9332 91.8468 43.6668 92.1284 43.4842C92.3871 43.3167 92.6992 43.2863 93.171 43.2863H97.9197V40.988H92.7296C90.0052 40.988 89.0235 42.6318 89.0235 44.2223C89.0235 47.6393 92.0599 47.4947 94.4951 47.5784C94.9518 47.5784 95.2105 47.6545 95.416 47.8143C95.6062 47.9665 95.728 48.2177 95.728 48.5297C95.728 48.8265 95.5986 49.07 95.416 49.245C95.1953 49.4429 94.8528 49.519 94.3582 49.519H89.3279V51.8401H94.3734C96.9913 51.8629 98.4448 50.7594 98.4448 48.4155ZM51.0413 43.2482H47.6624V46.0031H51.0109C52.0002 46.0031 52.6319 45.5008 52.6319 44.5724C52.6395 43.6211 51.985 43.2482 51.0413 43.2482ZM52.5786 26.7723C52.9058 26.5973 53.1037 26.2092 53.1037 25.745C53.1037 25.2731 52.8982 24.9383 52.5634 24.7785C52.2666 24.6111 51.7871 24.5882 51.3305 24.5882H48.1343V26.993H51.2925C51.7947 26.993 52.2133 26.9854 52.5786 26.7723ZM63.6742 43.4461C63.3621 43.2559 62.8979 43.2482 62.4413 43.2482H59.2527V45.6835H62.4185C62.9284 45.6835 63.3393 45.6607 63.7046 45.4552C64.0318 45.2497 64.2297 44.8844 64.2297 44.4202C64.2145 43.956 64.009 43.6211 63.6742 43.4461ZM73.2629 24.1621L71.4821 28.4998H75.0741L73.2629 24.1621ZM9.93145 28.4998H13.4702L11.7046 24.1621L9.93145 28.4998ZM24.4516 34.9684C23.7362 34.9684 23.1046 34.5499 22.8154 33.903L22.4729 33.1344V33.1877C22.4729 34.1694 21.6739 34.9684 20.6922 34.9684H15.4031C14.6878 34.9684 14.0257 34.5347 13.7593 33.8574L13.219 32.5332H10.213L9.6651 33.8497C9.38352 34.5194 8.72905 34.9608 8.02131 34.9608H5.17512C4.57392 34.9608 4.01077 34.664 3.68354 34.1618C3.3563 33.6519 3.30303 33.0202 3.53895 32.4647L8.18112 21.6127C8.47031 20.9582 9.10195 20.5244 9.82491 20.5244H13.668C14.3834 20.5244 15.0226 20.9506 15.3118 21.6127L16.2783 23.8805V22.328C16.2783 21.3463 17.0774 20.5396 18.0667 20.5396H22.3055C22.998 20.5396 23.6297 20.943 23.9265 21.5822L25.6235 25.2655L27.1608 21.6279C27.45 20.9658 28.0816 20.532 28.8046 20.532H33.1271C33.4924 20.532 33.812 20.669 34.0936 20.8516C34.3752 20.6614 34.6948 20.532 35.0601 20.532H43.7128C44.04 20.532 44.3444 20.6462 44.6108 20.8136C44.8848 20.6614 45.1739 20.532 45.5088 20.532H51.4675C53.0124 20.532 54.2833 20.5929 55.5085 21.2854C55.6379 21.3615 55.7292 21.4528 55.8281 21.5289C56.1249 20.9506 56.7185 20.5244 57.4262 20.5244H60.067C60.9573 20.5244 61.6651 21.1941 61.8097 22.0464C62.9588 21.0419 64.5493 20.5244 66.6801 20.5244H69.1915C69.5948 20.5244 69.9601 20.6614 70.2721 20.8745C70.5689 20.6462 70.9418 20.5244 71.3375 20.5244H75.2263C75.9417 20.5244 76.5809 20.9582 76.8625 21.6127L77.8138 23.8424V22.328C77.8138 21.3463 78.6128 20.5396 79.5945 20.5396H83.5442C84.1758 20.5396 84.7466 20.8669 85.089 21.4148L86.3371 23.4619V22.3356C86.3371 21.3539 87.1362 20.5549 88.1255 20.5549H90.7814C91.7631 20.5549 92.5622 21.3539 92.5622 22.3356V33.1953C92.5622 34.177 91.7631 34.976 90.7814 34.976H87.1209C86.4893 34.976 85.9109 34.6564 85.5761 34.1009L83.9932 31.4678V33.1801C83.9932 34.1618 83.1941 34.9608 82.2124 34.9608H76.9386C76.2004 34.9608 75.5688 34.527 75.2796 33.8497L74.7393 32.5332H71.7485L71.231 33.8421C70.9494 34.5118 70.3102 34.9608 69.572 34.9608H66.5356C65.3864 34.9608 63.3089 34.7553 61.8401 33.5149C61.6727 34.3368 60.9878 34.9608 60.1202 34.9608H57.4795C57.1827 34.9608 56.9164 34.8695 56.6576 34.7401C56.4217 34.8695 56.1477 34.9608 55.8586 34.9608H53.2711C52.2894 34.9608 51.4903 34.1694 51.4827 33.1877L51.4751 31.8331L51.4827 31.5895C51.4827 31.4526 51.4827 31.2395 51.4751 31.0492C51.361 31.0416 51.1935 31.0416 50.9652 31.0416H49.9379V33.1953C49.9379 34.177 49.1388 34.976 48.1571 34.976H45.5697C45.2424 34.976 44.938 34.8619 44.6717 34.6945C44.3977 34.8467 44.1085 34.976 43.7737 34.976H35.0981C34.7328 34.976 34.4056 34.8391 34.1316 34.664C33.8425 34.8391 33.5304 34.976 33.1652 34.976H30.5168C29.5275 34.976 28.7285 34.177 28.7285 33.1953V33.1496L28.386 33.903C28.0968 34.5575 27.4652 34.9684 26.7498 34.9684H24.4592H24.4516ZM61.3835 27.8377C61.3835 29.8088 61.8553 31.0644 62.7762 31.97C63.6742 32.8909 65.2723 33.1724 66.5279 33.1724H69.572L70.5461 30.7448H75.9341L76.9386 33.1724H82.2124V25.0372L87.1286 33.1801H90.7966V22.3204H88.1407V29.8849L83.5746 22.3204H79.625V32.5789L75.2415 22.3204H71.3528L67.6923 30.8666H66.5279C65.8583 30.8666 65.1277 30.7372 64.7243 30.3034C64.2373 29.7555 64.009 28.926 64.009 27.754C64.009 26.6277 64.3058 25.7526 64.7472 25.296C65.2571 24.7861 65.7898 24.6491 66.741 24.6491H69.1991V22.3128H66.6878C64.907 22.3128 63.5904 22.7161 62.7533 23.5761C61.6651 24.748 61.3835 26.232 61.3835 27.8377ZM66.7791 26.4375C66.1703 26.4375 66.1094 26.5136 66.0333 26.5745C66.0105 26.6201 65.8354 27.0006 65.8354 27.7464C65.8354 28.4922 65.9496 28.8575 66.0333 29.0097C66.1322 29.0401 66.3073 29.0706 66.5432 29.0706L67.6695 26.4451L66.7791 26.4375ZM57.4719 33.1801H60.1126V22.3204H57.4719V33.1801ZM45.5468 33.1801H48.1343V29.2304H50.912C51.848 29.2304 52.434 29.3141 52.8069 29.6946C53.2787 30.2121 53.2102 31.1558 53.2102 31.8102L53.2331 33.1648H55.8433V31.0492C55.8433 30.0827 55.7672 29.5957 55.4096 29.0554C55.1812 28.7433 54.6942 28.3628 54.1234 28.1421C54.7931 27.8682 55.9499 26.9778 55.9499 25.2503C55.9499 24.0403 55.4476 23.3249 54.6333 22.8455C53.7962 22.3585 52.8145 22.3356 51.4903 22.3356H45.5316V33.1801H45.5468ZM35.0829 33.1801H43.7432V30.9351H37.6704V28.7814H43.5986V26.544H37.6704V24.5806H43.7432V22.3204H35.0829V33.1801ZM24.4516 33.1801H26.7194L30.4788 24.6795L30.4864 33.1801H33.1499V22.3204H28.8274L25.7072 29.6946L22.3055 22.3204H18.0667V32.5941L13.6528 22.3204H9.8173L5.17512 33.1801H7.99087L8.99541 30.7524H14.3834L15.3727 33.1801H20.6617V24.6719L24.4516 33.1801Z" fill="#0078A9"/>
<path d="M7.61023 68.379C3.47793 68.379 0.114258 65.0154 0.114258 60.8831V7.61218C0.114258 3.47989 3.47793 0.116211 7.61023 0.116211H98.9317C103.064 0.116211 106.428 3.47989 106.428 7.61218V60.8831C106.428 65.0154 103.064 68.379 98.9317 68.379H7.61023Z" fill="url(#paint1_linear_472_55801)"/>
<path d="M98.9316 0.22928C100.895 0.22928 102.744 0.997903 104.145 2.39817C105.545 3.79843 106.313 5.64769 106.313 7.6111V60.882C106.313 62.8454 105.545 64.6946 104.145 66.0949C102.744 67.4952 100.895 68.2638 98.9316 68.2638H7.61013C5.64671 68.2638 3.79745 67.4952 2.39719 66.0949C0.996926 64.6946 0.228304 62.8454 0.228304 60.882V7.6111C0.228304 5.64769 0.996926 3.79843 2.39719 2.39817C3.79745 0.997903 5.64671 0.22928 7.61013 0.22928H98.9316ZM98.9316 0.000976562H7.61013C3.42456 0.000976562 0 3.42553 0 7.6111V60.882C0 65.0675 3.42456 68.4921 7.61013 68.4921H98.9316C103.117 68.4921 106.542 65.0675 106.542 60.882V7.6111C106.542 3.42553 103.117 0.000976562 98.9316 0.000976562Z" fill="url(#paint2_linear_472_55801)"/>
<path d="M41.8937 45.1664L45.9727 40.7754V49.6945L41.8937 45.1664ZM28.888 41.8789V43.9032H34.7326V46.1786H28.888V48.4007H35.4251L38.4616 45.1284L35.5545 41.8865L28.888 41.8789ZM101.215 43.5531C102.128 44.4891 102.546 45.6383 102.546 47.1983C102.546 50.5392 100.301 52.5483 96.5344 52.5483H91.3595C90.5909 52.5483 89.9441 52.0916 89.6701 51.4296C88.6656 52.1373 87.3186 52.5483 85.6748 52.5483H80.4923C80.1955 52.5483 79.952 52.4645 79.7084 52.3428C79.4649 52.4645 79.1833 52.5483 78.9094 52.5483H70.0284C69.7316 52.5483 69.4652 52.4645 69.2217 52.3428C68.9782 52.4645 68.6966 52.5483 68.415 52.5483H65.7362C64.7317 52.5483 63.9098 51.7264 63.9098 50.7218V49.1085C63.9098 48.9487 63.9098 48.7128 63.9022 48.5149C63.7804 48.5073 63.6054 48.4921 63.3695 48.4921H62.3726V50.7218C62.3726 51.7264 61.5507 52.5483 60.5385 52.5483H57.8598C56.8552 52.5483 56.0333 51.7264 56.0333 50.7218V47.8832C55.0897 48.4464 53.7883 48.8193 51.9847 48.8193H50.5084V50.7218C50.5084 51.7264 49.6865 52.5483 48.682 52.5483H43.4918C42.9667 52.5483 42.4721 52.3276 42.122 51.9318L40.1814 49.7553L38.1572 51.9547C37.8071 52.3276 37.32 52.5406 36.7949 52.5406H26.2777C25.2732 52.5406 24.4437 51.7188 24.4437 50.7142V39.5882C24.4437 38.5685 25.2732 37.7542 26.2777 37.7542H36.97C37.4951 37.7542 37.9897 37.9673 38.3398 38.363L40.2804 40.5166L42.3047 38.3402C42.6395 37.9673 43.1342 37.7542 43.6593 37.7542H52.1522C54.0167 37.7542 55.318 38.1651 56.2616 38.7739C56.566 38.1803 57.1672 37.7542 57.875 37.7542H64.0164C65.4242 37.7542 66.7941 37.8074 68.0802 38.5C68.2171 38.5837 68.3161 38.675 68.4302 38.7815C68.7346 38.188 69.3434 37.777 70.0512 37.777H78.917C79.6095 37.777 80.1803 38.1727 80.4999 38.7435C81.3827 38.1499 82.5318 37.777 83.9929 37.777H89.3352C90.1343 37.777 90.7888 38.3021 91.0475 39.0022C91.9607 38.2641 93.2012 37.777 94.8602 37.777H100.164C101.169 37.777 101.991 38.5989 101.991 39.611V41.9702C101.991 42.6323 101.664 43.1954 101.154 43.5226C101.177 43.5226 101.199 43.5303 101.215 43.5531ZM56.5737 43.2411C56.5737 40.159 54.2069 39.573 52.0913 39.573H43.5984L40.2119 43.2259L36.9395 39.5806H26.2473V50.7218H36.7721L40.1814 47.0309L43.4462 50.7218H48.6211V46.9929H51.9391C54.2678 46.9776 56.5737 46.3384 56.5737 43.2411ZM66.6495 45.5393C67.3496 45.2501 68.5292 44.3598 68.5292 42.5714C68.5292 41.3081 68.0041 40.608 67.1669 40.1057C66.2918 39.6415 65.3177 39.5806 63.9707 39.5806H57.8293V50.7066H60.5081V46.6428H63.3467C64.3132 46.6428 64.922 46.7341 65.2949 47.1298C65.8047 47.6549 65.7286 48.6367 65.7286 49.3063V50.699H68.4074V48.4921C68.3998 47.5104 68.3313 47.0005 67.9584 46.4602C67.7225 46.1481 67.2354 45.7524 66.6495 45.5393ZM78.8941 39.5882H70.0207V50.7142H78.8941V48.4083L72.6538 48.4007V46.1786H78.7343V43.9108H72.6538V41.8865H78.8941V39.5882ZM89.8299 47.1831C89.8299 46.0492 89.5483 45.3643 89.0308 44.8316C88.4372 44.2228 87.4479 43.9716 85.9944 43.926L84.5713 43.8803C84.1147 43.8803 83.8255 43.8499 83.5363 43.7586C83.2091 43.6292 82.9503 43.3476 82.9503 42.9291C82.9503 42.579 83.0569 42.305 83.3537 42.1224C83.62 41.955 83.932 41.9169 84.4191 41.9169H89.2972V39.5578H83.9701C81.1772 39.5578 80.165 41.2472 80.165 42.8758C80.165 46.3841 83.2776 46.2318 85.7661 46.3156C86.2303 46.3156 86.5119 46.3917 86.7097 46.5591C86.8848 46.7189 87.0294 46.97 87.0294 47.2973C87.0294 47.6017 86.9 47.8452 86.7097 48.0355C86.4891 48.2409 86.1314 48.317 85.6291 48.317H80.4771V50.699H85.6519C88.3307 50.7142 89.8299 49.5879 89.8299 47.1831ZM100.697 47.1831C100.697 46.0492 100.416 45.3643 99.9133 44.8316C99.3045 44.2228 98.3228 43.9716 96.8769 43.926L95.4386 43.8803C94.9896 43.8803 94.6928 43.8499 94.4036 43.7586C94.0763 43.6292 93.8252 43.3476 93.8252 42.9291C93.8252 42.579 93.9318 42.305 94.2209 42.1224C94.4873 41.955 94.8069 41.9169 95.294 41.9169H100.164V39.5578H94.8374C92.0444 39.5578 91.0323 41.2472 91.0323 42.8758C91.0323 46.3841 94.1448 46.2318 96.641 46.3156C97.1052 46.3156 97.3791 46.3917 97.5846 46.5591C97.7749 46.7189 97.9042 46.97 97.9042 47.2973C97.9042 47.6017 97.7749 47.8452 97.5846 48.0355C97.3639 48.2409 97.0062 48.317 96.504 48.317H91.3519V50.699H96.5268C99.2132 50.7142 100.697 49.5879 100.697 47.1831ZM52.0913 41.8789H48.6211V44.7022H52.0532C53.073 44.7022 53.7122 44.1923 53.7122 43.2335C53.7199 42.267 53.0578 41.8789 52.0913 41.8789ZM53.659 24.992C53.9938 24.817 54.1993 24.4136 54.1993 23.9418C54.1993 23.4547 53.9862 23.1123 53.6514 22.9525C53.347 22.7851 52.8523 22.7622 52.3881 22.7622H49.1081V25.2279H52.3424C52.8599 25.2127 53.2937 25.2051 53.659 24.992ZM65.0437 42.0843C64.7241 41.8941 64.2447 41.8789 63.7804 41.8789H60.5081V44.375H63.75C64.2751 44.375 64.6937 44.3522 65.0666 44.1391C65.4014 43.926 65.6069 43.5531 65.6069 43.0737C65.5993 42.6094 65.3862 42.267 65.0437 42.0843ZM74.876 22.3132L73.0496 26.7575H76.7329L74.876 22.3132ZM9.9312 26.7575H13.5536L11.7424 22.3132L9.9312 26.7575ZM24.8242 33.386C24.086 33.386 23.4468 32.9598 23.1424 32.2901L22.7923 31.5063V31.5595C22.7923 32.5641 21.9704 33.386 20.9659 33.386H15.5399C14.8017 33.386 14.1244 32.937 13.8504 32.2521L13.3025 30.8975H10.2204L9.65723 32.2521C9.36805 32.9446 8.69836 33.386 7.96778 33.386H5.05311C4.43669 33.386 3.85832 33.0816 3.52347 32.5641C3.18863 32.039 3.12774 31.3997 3.37127 30.8214L8.13521 19.6953C8.432 19.0257 9.07886 18.5767 9.82465 18.5767H13.7667C14.5049 18.5767 15.1594 19.0104 15.4561 19.6953L16.4455 22.024V20.4335C16.4455 19.429 17.2674 18.5995 18.2795 18.5995H22.6249C23.3326 18.5995 23.9871 19.0104 24.2839 19.6725L26.0266 23.4395L27.6019 19.7106C27.8987 19.0333 28.5456 18.5843 29.2914 18.5843H33.7281C34.101 18.5843 34.4282 18.7213 34.7174 18.9115C35.0066 18.7213 35.3338 18.5843 35.7067 18.5843H44.5801C44.9149 18.5843 45.227 18.706 45.5009 18.8735C45.7825 18.7136 46.0793 18.5843 46.4217 18.5843H52.5327C54.1156 18.5843 55.4245 18.6452 56.6802 19.3605C56.8096 19.4366 56.9009 19.5279 57.0074 19.6116C57.3118 19.018 57.9206 18.5767 58.6436 18.5767H61.3528C62.266 18.5767 62.989 19.2692 63.1412 20.1443C64.3208 19.1094 65.9493 18.5767 68.141 18.5767H70.7133C71.1242 18.5767 71.4971 18.7136 71.8243 18.9419C72.1287 18.706 72.5169 18.5767 72.9202 18.5767H76.9079C77.6461 18.5767 78.3006 19.0257 78.5897 19.6953L79.5714 21.9784V20.4259C79.5714 19.4214 80.3933 18.5919 81.3979 18.5919H85.4465C86.0933 18.5919 86.6793 18.9267 87.0294 19.4823L88.3079 21.575V20.4183C88.3079 19.4138 89.1298 18.5919 90.1419 18.5919H92.8663C93.8709 18.5919 94.6928 19.4138 94.6928 20.4183V31.5595C94.6928 32.5641 93.8709 33.386 92.8663 33.386H89.1145C88.4677 33.386 87.8741 33.0587 87.5316 32.4956L85.9107 29.794V31.5595C85.9107 32.5641 85.0888 33.386 84.0843 33.386H78.6735C77.9201 33.386 77.2656 32.937 76.9764 32.2521L76.4285 30.8975H73.3616L72.8289 32.2368C72.5397 32.9294 71.8852 33.386 71.1318 33.386H68.0193C66.8397 33.386 64.7089 33.1729 63.2021 31.9096C63.0346 32.7467 62.3269 33.386 61.4365 33.386H58.7273C58.4229 33.386 58.1489 33.2946 57.8902 33.1653C57.6467 33.2946 57.3651 33.386 57.0683 33.386H54.3895C53.385 33.386 52.5631 32.5793 52.5555 31.5671L52.5479 30.1745L52.5555 29.9234C52.5555 29.7864 52.5555 29.5581 52.5479 29.3754C52.4261 29.3678 52.2587 29.3678 52.0228 29.3678H50.9726V31.5748C50.9726 32.5793 50.1507 33.4012 49.1462 33.4012H46.4902C46.1554 33.4012 45.8434 33.2794 45.5694 33.112C45.2878 33.2718 44.991 33.4012 44.6486 33.4012H35.7371C35.3642 33.4012 35.0294 33.2642 34.7478 33.0816C34.451 33.2566 34.1314 33.4012 33.7585 33.4012H31.0341C30.0143 33.4012 29.2 32.5793 29.2 31.5748V31.5291L28.85 32.3053C28.5532 32.975 27.9063 33.4012 27.1681 33.4012H24.8166V33.386H24.8242ZM62.6998 26.0802C62.6998 28.1045 63.1869 29.3906 64.1229 30.3191C65.0437 31.2627 66.6875 31.5519 67.9736 31.5519H71.0938L72.0907 29.0634H77.6157L78.6506 31.5519H84.0614V23.2112L89.0993 31.5671H92.8663V20.4183H90.1419V28.173L85.4617 20.4183H81.4131V30.9431L76.9155 20.4183H72.9278L69.176 29.1852H67.9812C67.2887 29.1852 66.5429 29.0558 66.132 28.6068C65.6297 28.0437 65.3938 27.1913 65.3938 25.9889C65.3938 24.8322 65.6982 23.9342 66.1472 23.47C66.6723 22.9449 67.2202 22.8079 68.1867 22.8079H70.7057V20.4107H68.1334C66.307 20.4107 64.9524 20.8216 64.0925 21.7044C62.9814 22.9068 62.6998 24.4288 62.6998 26.0802ZM68.2248 24.6419C67.6007 24.6419 67.5322 24.718 67.4561 24.7789C67.4333 24.8246 67.2507 25.2127 67.2507 25.9813C67.2507 26.7499 67.3724 27.1152 67.4561 27.275C67.5627 27.3055 67.7377 27.3359 67.9812 27.3359L69.138 24.6419H68.2248ZM58.6817 31.5595H61.3909V20.4183H58.6817V31.5595ZM46.4522 31.5595H49.1081V27.5109H51.9619C52.9208 27.5109 53.5296 27.5947 53.9101 27.9904C54.3972 28.5231 54.3211 29.4896 54.3211 30.1593L54.3439 31.5519H57.0227V29.3754C57.0227 28.3861 56.9466 27.8838 56.5737 27.3359C56.3377 27.0163 55.8355 26.6282 55.2571 26.3999C55.9496 26.1183 57.1292 25.2051 57.1292 23.4319C57.1292 22.1915 56.6193 21.4533 55.7746 20.9662C54.9146 20.464 53.9101 20.4411 52.5479 20.4411H46.437V31.5595H46.4522ZM35.7219 31.5595H44.6105V29.2537H38.3855V27.0467H44.4659V24.7485H38.3855V22.7394H44.6105V20.4183H35.7219V31.5595ZM24.8242 31.5595H27.1529L31.0112 22.8459L31.0189 31.5595H33.7509V20.4183H29.3142L26.1179 27.9752L22.6325 20.4183H18.2871V30.9507L13.7591 20.4183H9.81704L5.05311 31.5595H7.94495L8.97993 29.071H14.5049L15.5246 31.5595H20.9507V22.8383L24.8242 31.5595Z" fill="white"/>
</g>
<defs>
<linearGradient id="paint0_linear_472_55801" x1="53.271" y1="68.379" x2="53.271" y2="0.116211" gradientUnits="userSpaceOnUse">
<stop stop-color="#CDCCCC"/>
<stop offset="0.6582" stop-color="white"/>
</linearGradient>
<linearGradient id="paint1_linear_472_55801" x1="53.271" y1="68.379" x2="53.271" y2="0.116211" gradientUnits="userSpaceOnUse">
<stop stop-color="#004B99"/>
<stop offset="1" stop-color="#0099CC"/>
</linearGradient>
<linearGradient id="paint2_linear_472_55801" x1="53.2709" y1="68.4921" x2="53.2709" y2="0.000976562" gradientUnits="userSpaceOnUse">
<stop stop-color="#004B99"/>
<stop offset="1" stop-color="#0099CC"/>
</linearGradient>
<clipPath id="clip0_472_55801">
<rect width="106.542" height="68.4911" fill="white"/>
</clipPath>
</defs>
</svg>
