<svg width="109" height="70" viewBox="0 0 109 70" fill="none" xmlns="http://www.w3.org/2000/svg">
<g clip-path="url(#clip0_472_55787)">
<path d="M100.652 69.1374H8.47355C4.24869 69.1374 0.791992 65.6807 0.791992 61.4558V7.68497C0.791992 3.46012 4.24869 0.00341797 8.47355 0.00341797H100.652C104.877 0.00341797 108.334 3.46012 108.334 7.68497V61.4558C108.334 65.6807 104.877 69.1374 100.652 69.1374Z" fill="url(#paint0_linear_472_55787)"/>
<path d="M54.5627 64.8373C71.2778 64.8373 84.828 51.287 84.828 34.572C84.828 17.8569 71.2778 4.30664 54.5627 4.30664C37.8476 4.30664 24.2974 17.8569 24.2974 34.572C24.2974 51.287 37.8476 64.8373 54.5627 64.8373Z" fill="#F69531"/>
<path d="M66.415 27.0748C65.9925 23.0189 62.4898 21.69 58.0652 21.329L58.0268 15.7061L54.6085 15.7291L54.6392 21.206C53.7405 21.2137 52.8187 21.2368 51.9046 21.2598L51.8662 15.7445L48.4479 15.7675L48.4863 21.3904C47.7489 21.4134 47.0191 21.4288 46.3047 21.4365V21.4211L41.5806 21.4519L41.6036 25.1083C41.6036 25.1083 44.1308 25.0391 44.0924 25.0929C45.4751 25.0852 45.936 25.8841 46.0666 26.5755L46.1127 32.9819C46.2125 32.9819 46.3354 32.9896 46.4737 33.0049C46.3585 33.0049 46.2356 33.0049 46.1127 33.0049L46.1741 41.977C46.1204 42.4148 45.8669 43.1138 44.899 43.1215C44.9451 43.1599 42.4102 43.1369 42.4102 43.1369L41.7572 47.2311L46.2125 47.2004C47.0421 47.1927 47.8564 47.2004 48.6553 47.2081L48.7014 52.9001L52.1197 52.8771L52.0813 47.2465C53.0261 47.2619 53.9325 47.2619 54.8159 47.2542L54.8543 52.8617L58.2803 52.8387L58.2419 47.162C63.9953 46.7933 68.0128 45.3108 68.4737 39.9029C68.8501 35.5475 66.7837 33.6194 63.5114 32.859C65.4932 31.8296 66.7223 30.0398 66.415 27.0748ZM61.7139 39.2731C61.7446 43.521 54.4625 43.0908 52.1427 43.1062L52.0889 35.5706C54.4088 35.5552 61.6755 34.8331 61.7139 39.2731ZM60.047 28.6495C60.0701 32.521 54.0016 32.1062 52.0659 32.1215L52.0198 25.285C53.9479 25.2773 60.0086 24.6167 60.047 28.6495Z" fill="white"/>
</g>
<defs>
<linearGradient id="paint0_linear_472_55787" x1="54.5629" y1="69.1374" x2="54.5629" y2="0.00341797" gradientUnits="userSpaceOnUse">
<stop stop-color="#CDCCCC"/>
<stop offset="0.6582" stop-color="white"/>
</linearGradient>
<clipPath id="clip0_472_55787">
<rect width="107.542" height="69.134" fill="white" transform="translate(0.791992)"/>
</clipPath>
</defs>
</svg>
