<svg width="62" height="52" viewBox="0 0 62 52" fill="none" xmlns="http://www.w3.org/2000/svg">
<path d="M31.0009 3.81299C22.8376 3.81299 16.1984 10.4522 16.1984 18.6155C16.1984 20.088 16.4051 21.5088 16.8184 22.8522C20.7192 17.6338 25.1626 9.52215 25.6792 8.28215C26.1701 7.14549 26.5576 6.60299 27.8751 6.88715C28.2367 6.96465 28.8051 7.55882 28.6501 8.79882C27.7717 15.7997 28.4951 26.6755 30.1742 25.3063C31.6984 24.0922 35.1084 17.4013 36.1676 14.7922C36.7101 13.423 37.0201 12.648 38.2342 12.7513C39.1901 12.8547 39.3451 13.9138 39.3709 14.2755C39.6034 19.0547 41.7217 22.4388 41.9801 22.878C42.4709 23.7305 41.6442 23.7822 40.4559 22.4905C39.7067 21.6897 38.6217 19.933 37.8726 17.918C37.6659 17.3238 33.6359 29.5947 28.9859 28.148C25.4209 27.063 25.4209 18.9513 25.6017 15.0505C25.6276 14.663 21.8817 22.3872 18.6784 26.753C21.3134 30.7572 25.8601 33.3922 31.0267 33.3922C39.1901 33.3922 45.8292 26.753 45.8292 18.5897C45.8034 10.4522 39.1642 3.81299 31.0009 3.81299ZM10.3342 40.0572L8.37091 45.9988H8.00924L6.0459 40.0572H5.94257V45.9988H5.21924V39.463H6.53674L8.2159 44.5522L9.86924 39.463H11.2126V45.9988H10.4892L10.4634 40.0572H10.3342ZM21.8559 41.4522C21.5201 41.4522 21.1326 41.3747 20.6159 41.6072C20.4092 41.7105 20.1767 41.8138 19.9701 41.9947V45.9213H19.1434V40.9355H19.7376L19.8409 41.4522C20.0476 41.2713 20.2801 41.1163 20.5384 41.0388C21.2876 40.7805 21.7784 40.8063 21.9076 40.8838L21.8559 41.4522ZM26.5576 43.6997C26.5576 44.1647 26.5059 44.5263 26.4284 44.8363C26.3509 45.1463 26.2217 45.3788 26.0409 45.5597C25.8601 45.7405 25.6534 45.8697 25.3692 45.9472C25.0851 46.0247 24.7751 46.0505 24.3876 46.0505C24.0001 46.0505 23.6901 45.9988 23.4059 45.9472C23.1217 45.8697 22.9151 45.7405 22.7342 45.5597C22.5534 45.3788 22.4242 45.1205 22.3467 44.8363C22.2692 44.5263 22.2176 44.1647 22.2176 43.6997V43.1572C22.2176 42.718 22.2692 42.3822 22.3467 42.0722C22.4242 41.7622 22.5534 41.5297 22.7342 41.3488C22.9151 41.168 23.1217 41.0388 23.4059 40.9613C23.6901 40.8838 24.0001 40.858 24.3876 40.858C24.7751 40.858 25.0851 40.9097 25.3692 40.9613C25.6534 41.0388 25.8601 41.168 26.0409 41.3488C26.2217 41.5297 26.3509 41.788 26.4284 42.0722C26.5059 42.3822 26.5576 42.6922 26.5576 43.1572V43.6997ZM25.7567 43.0538C25.7567 42.718 25.7309 42.4338 25.7051 42.2272C25.6534 42.0205 25.6017 41.8397 25.4726 41.7105C25.3692 41.5813 25.2142 41.5038 25.0592 41.4522C24.8784 41.4005 24.6717 41.3747 24.4134 41.3747C24.1551 41.3747 23.9226 41.4005 23.7676 41.4522C23.5867 41.5038 23.4576 41.5813 23.3542 41.7105C23.2509 41.8397 23.1734 41.9947 23.1476 42.2272C23.0959 42.4338 23.0959 42.7955 23.0959 43.1313V43.6738C23.0959 44.0097 23.1217 44.423 23.1476 44.6297C23.1992 44.8363 23.2509 45.0172 23.3542 45.1463C23.4576 45.2755 23.5867 45.353 23.7676 45.4047C23.9484 45.4563 24.1551 45.4822 24.4134 45.4822C24.6717 45.4822 24.9042 45.4563 25.0592 45.4047C25.2401 45.353 25.3692 45.2755 25.4726 45.1463C25.5759 45.0172 25.6534 44.8622 25.7051 44.6297C25.7567 44.423 25.7567 44.0097 25.7567 43.6738V43.0538ZM18.2392 44.3197C18.2392 44.7847 18.2392 44.3713 18.2134 44.8105C18.1876 45.1205 18.0584 45.3788 17.8776 45.5597C17.6967 45.7405 17.4901 45.8697 17.2059 45.9472C16.9217 46.0247 16.6117 46.0505 16.2242 46.0505C15.8367 46.0505 15.5267 45.9988 15.2426 45.9472C14.9584 45.8697 14.8034 45.7663 14.6226 45.5855C14.4417 45.4047 14.3126 45.1463 14.2351 44.8622C14.1576 44.5522 14.1059 44.1905 14.1059 43.7255V43.1572C14.1059 42.718 14.1576 42.3822 14.2351 42.0722C14.3126 41.7622 14.4417 41.5297 14.6226 41.3488C14.8034 41.168 14.9842 41.0647 15.2426 40.9872C15.5267 40.9097 15.8367 40.8838 16.2242 40.8838C16.6117 40.8838 16.9217 40.9355 17.2059 40.9872C17.4901 41.0647 17.6967 41.1938 17.8776 41.3747C18.0584 41.5555 18.1359 41.788 18.1876 42.098C18.2392 42.5372 18.2134 42.1238 18.2134 42.5888H17.5159C17.5159 42.2788 17.4126 41.8397 17.3092 41.7105C17.2059 41.5813 17.0509 41.5038 16.8959 41.4522C16.7151 41.4005 16.5084 41.3747 16.2501 41.3747C15.9917 41.3747 15.7592 41.4005 15.6042 41.4522C15.4234 41.5038 15.2942 41.5813 15.1909 41.7105C15.0876 41.8397 15.0101 41.9947 14.9842 42.2272C14.9326 42.4338 14.9326 42.7955 14.9326 43.1313V43.6738C14.9326 44.0097 14.9584 44.423 14.9842 44.6297C15.0359 44.8363 15.0876 45.0172 15.1909 45.1463C15.2942 45.2755 15.4234 45.353 15.6042 45.4047C15.7851 45.4563 15.9917 45.4822 16.2501 45.4822C16.5084 45.4822 16.7409 45.4563 16.8959 45.4047C17.0767 45.353 17.2059 45.2755 17.3092 45.1463C17.4126 45.0172 17.5159 44.7072 17.5159 44.3197H18.2392ZM38.3892 41.4005C38.6734 41.1938 38.9834 41.0647 39.2676 40.9613C39.4742 40.9097 39.7584 40.858 40.0426 40.858C40.3784 40.858 40.6626 40.9097 40.8692 41.013C41.0759 41.1163 41.2051 41.2197 41.3601 41.4005C41.6442 41.2197 41.8509 41.1422 42.1351 41.013C42.4192 40.9097 42.7551 40.8322 43.0651 40.8322C43.3751 40.8322 43.6851 40.9097 43.8917 40.9872C44.0726 41.0388 44.2276 41.1422 44.3309 41.2713C44.4342 41.4005 44.5634 41.6847 44.6151 41.8913C44.6667 42.098 44.6409 42.1755 44.6409 42.4338V45.9472L43.8917 45.973V42.4597C43.8917 42.098 43.7626 41.8138 43.6334 41.6847C43.5042 41.5555 43.2717 41.3747 42.9101 41.3747C42.7292 41.3747 42.3676 41.3747 42.1351 41.478C41.9026 41.5813 41.7734 41.633 41.5667 41.8138L41.5926 45.973H40.8692V42.4597C40.8692 42.2788 40.8692 42.1238 40.8176 41.9947C40.7142 41.7363 40.6109 41.6588 40.5592 41.6072C40.4817 41.5297 40.3526 41.4522 40.2234 41.4263C40.1201 41.4005 39.9909 41.3747 39.8101 41.3747C39.6034 41.3747 39.3451 41.4005 39.1126 41.478C38.8801 41.5555 38.6734 41.6847 38.4667 41.8397L38.4409 45.9472H37.7176V40.9872H38.3117L38.3892 41.4005ZM45.7001 39.463H46.5009V40.2638H45.7001V39.463ZM45.7259 40.9613H46.5009V45.9472H45.7259V40.9613ZM12.4267 39.5147H13.2276V40.3155H12.4267V39.5147ZM12.4526 41.013H13.2276V45.9988H12.4526V41.013ZM48.1542 40.9872L48.2576 41.478C48.5417 41.2972 48.8001 41.1422 49.0842 41.0388C49.3684 40.9355 49.6784 40.8838 50.0142 40.8838C50.3242 40.8838 50.5826 40.9097 50.8151 40.9872C51.0217 41.0388 51.2026 41.1422 51.3576 41.2713C51.4867 41.4005 51.5901 41.6072 51.6676 41.8138C51.7192 42.0205 51.7709 42.3047 51.7709 42.6405V45.9472H50.9442V42.6405C50.9442 42.4338 50.9184 42.0722 50.8667 41.9172C50.8151 41.7622 50.7634 41.6588 50.6601 41.5813C50.5567 41.5038 50.4534 41.4522 50.3242 41.4005C50.1692 41.3747 50.0142 41.3488 49.8334 41.3488C49.5751 41.3488 49.3167 41.4005 49.0584 41.478C48.8001 41.5555 48.5676 41.6588 48.3609 41.8138V45.9213H47.5859V40.9613C47.5601 40.9872 48.1542 40.9872 48.1542 40.9872ZM55.9817 45.4563C55.7492 45.6113 55.5684 45.7405 55.3101 45.8438C55.0517 45.9472 54.7934 45.9988 54.5351 45.9988C54.2509 45.9988 53.9667 45.973 53.7342 45.8955C53.5017 45.8438 53.2951 45.7147 53.1401 45.5597C52.9851 45.4047 52.8559 45.1722 52.7526 44.8622C52.6751 44.578 52.6234 44.1905 52.6234 43.7255V43.1313C52.6234 42.6663 52.6751 42.2788 52.7526 41.9947C52.8301 41.7105 52.9592 41.478 53.1401 41.2972C53.2951 41.1422 53.5017 41.013 53.7342 40.9613C53.9667 40.9097 54.2251 40.858 54.5351 40.858C54.8192 40.858 55.1034 40.9097 55.3617 41.013C55.6459 41.1163 55.9042 41.2713 56.1367 41.4522L56.1626 40.9613H56.8084V45.9988C56.8084 46.5672 56.6017 47.0838 56.2917 47.368C55.9817 47.6522 55.5684 47.7297 54.8709 47.7297C54.6126 47.7297 54.3542 47.7813 54.0701 47.7555C53.7859 47.7297 53.5534 47.7297 53.3209 47.6522L53.4242 47.1613C53.6826 47.2388 55.1292 47.213 55.2842 47.1613C55.4392 47.1097 55.6201 46.9805 55.7234 46.903C55.8267 46.8255 55.8784 46.6963 55.9301 46.5413C55.9817 46.3863 56.0076 46.2055 56.0076 45.9988L55.9817 45.4563ZM54.6642 41.3747C54.4576 41.3747 54.2767 41.4005 54.1217 41.4522C53.9667 41.5038 53.8376 41.5813 53.7342 41.7105C53.6309 41.8397 53.5276 42.1238 53.4759 42.3305C53.4242 42.5372 53.3984 42.7955 53.3984 43.1055V43.6738C53.3984 44.0097 53.4242 44.268 53.4759 44.4747C53.5276 44.6813 53.6051 44.9655 53.6826 45.0947C53.7859 45.2238 53.9151 45.3013 54.0701 45.353C54.2251 45.4047 54.4059 45.4305 54.6126 45.4305C54.8451 45.4305 55.1292 45.4047 55.3876 45.3013C55.6459 45.198 55.8267 45.1463 56.0334 44.9655V41.9172C55.8267 41.7105 55.5942 41.5813 55.3359 41.478C55.0776 41.3747 54.8967 41.3747 54.6642 41.3747ZM30.6909 45.4563C30.4584 45.6113 30.2776 45.7405 30.0192 45.8438C29.7609 45.9472 29.5026 45.9988 29.2442 45.9988C28.9601 45.9988 28.6759 45.973 28.4434 45.8955C28.2109 45.8438 28.0042 45.7147 27.8492 45.5597C27.6942 45.4047 27.5651 45.1722 27.4617 44.8622C27.3842 44.578 27.3326 44.1905 27.3326 43.7255V43.1313C27.3326 42.6663 27.3842 42.2788 27.4617 41.9947C27.5392 41.7105 27.6684 41.478 27.8492 41.2972C28.0042 41.1422 28.2109 41.013 28.4434 40.9613C28.6759 40.9097 28.9342 40.858 29.2442 40.858C29.5284 40.858 29.8126 40.9097 30.0709 41.013C30.3292 41.1163 30.6134 41.2713 30.8459 41.4522L30.8717 40.9613H31.5176V45.9988C31.5176 46.5672 31.3109 47.0838 31.0009 47.368C30.6909 47.6522 30.2776 47.7297 29.5801 47.7297C29.3217 47.7297 29.0634 47.7813 28.7792 47.7555C28.4951 47.7297 28.2626 47.7297 28.0301 47.6522L28.1334 47.1613C28.3917 47.2388 29.8384 47.213 29.9934 47.1613C30.1484 47.1355 30.3292 46.9805 30.4326 46.903C30.5359 46.8255 30.5876 46.6963 30.6392 46.5413C30.6909 46.3863 30.7167 46.2055 30.7167 45.9988V45.4563H30.6909ZM29.3734 41.3747C29.1667 41.3747 28.9859 41.4005 28.8309 41.4522C28.6759 41.5038 28.5467 41.5813 28.4434 41.7105C28.3401 41.8397 28.2367 42.1238 28.1851 42.3305C28.1334 42.5372 28.1076 42.7955 28.1076 43.1055V43.6738C28.1076 44.0097 28.1334 44.268 28.1851 44.4747C28.2367 44.6813 28.3142 44.9655 28.3917 45.0947C28.4951 45.2238 28.6242 45.3013 28.7792 45.353C28.9342 45.4047 29.1151 45.4305 29.3217 45.4305C29.5542 45.4305 29.8384 45.4047 30.0967 45.3013C30.3551 45.198 30.5359 45.1463 30.7426 44.9655V41.9172C30.5359 41.7105 30.3034 41.5813 30.0451 41.478C29.7867 41.3747 29.6059 41.3747 29.3734 41.3747ZM36.0384 40.9613L35.9351 41.3747C35.9351 41.3747 35.3409 41.013 35.0826 40.9355C34.6434 40.8063 34.1784 40.8322 33.9201 40.8838C33.7134 40.9355 33.3001 41.0905 33.1192 41.2197C32.9642 41.323 32.7576 41.6588 32.6801 41.8138C32.6026 41.9947 32.5251 42.4338 32.5251 42.6405C32.4992 43.1313 32.4217 44.0872 32.5251 44.5522C32.5767 44.8363 32.7317 45.3788 32.9126 45.5855C33.0676 45.7663 33.4809 45.9988 33.7134 46.0505C33.9976 46.128 34.6176 46.128 34.9276 46.0505C35.2117 45.9988 35.9092 45.5597 35.9092 45.5597L36.0126 45.9988H36.6067V41.013H36.0126V40.9613H36.0384ZM35.8834 45.043C35.8834 45.043 35.2376 45.4305 34.9792 45.4822C34.7726 45.5338 34.3334 45.5338 34.1526 45.4822C33.9976 45.4305 33.7392 45.353 33.5326 45.0947C33.3776 44.9138 33.3776 44.6555 33.3517 44.5005C33.2484 43.9838 33.2484 42.9247 33.3517 42.408C33.3776 42.253 33.3517 42.1238 33.4809 41.8655C33.6101 41.633 33.7909 41.5297 33.9459 41.4522C34.1526 41.3488 34.6692 41.3488 34.9017 41.3747C35.1601 41.4263 35.8834 41.7622 35.8834 41.7622V45.043Z" stroke="#1E2123" stroke-width="1.28844" stroke-miterlimit="10" stroke-linecap="round" stroke-linejoin="round"/>
<path d="M31.0007 3.8125C22.8374 3.8125 16.1982 10.4517 16.1982 18.615C16.1982 20.0875 16.4049 21.5083 16.8182 22.8517C20.7191 17.6333 25.1624 9.52167 25.6791 8.28167C26.1699 7.145 26.5574 6.6025 27.8749 6.88667C28.2366 6.96417 28.8049 7.55833 28.6499 8.79833C27.7716 15.7992 28.4949 26.675 30.1741 25.3058C31.6982 24.0917 35.1082 17.4008 36.1674 14.7917C36.7099 13.4225 37.0199 12.6475 38.2341 12.7508C39.1899 12.8542 39.3449 13.9133 39.3707 14.275C39.6032 19.0542 41.7216 22.4383 41.9799 22.8775C42.4707 23.73 41.6441 23.7817 40.4557 22.49C39.7066 21.6892 38.6216 19.9325 37.8724 17.9175C37.6657 17.3233 33.6357 29.5942 28.9857 28.1475C25.4207 27.0625 25.4207 18.9508 25.6016 15.05C25.6274 14.6625 21.8816 22.3867 18.6782 26.7525C21.3132 30.7567 25.8599 33.3917 31.0266 33.3917C39.1899 33.3917 45.8291 26.7525 45.8291 18.5892C45.8032 10.4517 39.1641 3.8125 31.0007 3.8125Z" fill="url(#paint0_linear_544_56377)"/>
<path d="M10.3347 40.0566L8.37139 45.9982H8.00973L6.04639 40.0566H5.94306V45.9982H5.21973V39.4624H6.53723L8.21639 44.5516L9.86973 39.4624H11.2131V45.9982H10.4897L10.4639 40.0566H10.3347ZM21.8564 41.4516C21.5206 41.4516 21.1331 41.3741 20.6164 41.6066C20.4097 41.7099 20.1772 41.8132 19.9706 41.9941V45.9207H19.1439V40.9349H19.7381L19.8414 41.4516C20.0481 41.2707 20.2806 41.1157 20.5389 41.0382C21.2881 40.7799 21.7789 40.8057 21.9081 40.8832L21.8564 41.4516ZM26.5581 43.6991C26.5581 44.1641 26.5064 44.5257 26.4289 44.8357C26.3514 45.1457 26.2222 45.3782 26.0414 45.5591C25.8606 45.7399 25.6539 45.8691 25.3697 45.9466C25.0856 46.0241 24.7756 46.0499 24.3881 46.0499C24.0006 46.0499 23.6906 45.9982 23.4064 45.9466C23.1222 45.8691 22.9156 45.7399 22.7347 45.5591C22.5539 45.3782 22.4247 45.1199 22.3472 44.8357C22.2697 44.5257 22.2181 44.1641 22.2181 43.6991V43.1566C22.2181 42.7174 22.2697 42.3816 22.3472 42.0716C22.4247 41.7616 22.5539 41.5291 22.7347 41.3482C22.9156 41.1674 23.1222 41.0382 23.4064 40.9607C23.6906 40.8832 24.0006 40.8574 24.3881 40.8574C24.7756 40.8574 25.0856 40.9091 25.3697 40.9607C25.6539 41.0382 25.8606 41.1674 26.0414 41.3482C26.2222 41.5291 26.3514 41.7874 26.4289 42.0716C26.5064 42.3816 26.5581 42.6916 26.5581 43.1566V43.6991ZM25.7572 43.0532C25.7572 42.7174 25.7314 42.4332 25.7056 42.2266C25.6539 42.0199 25.6022 41.8391 25.4731 41.7099C25.3697 41.5807 25.2147 41.5032 25.0597 41.4516C24.8789 41.3999 24.6722 41.3741 24.4139 41.3741C24.1556 41.3741 23.9231 41.3999 23.7681 41.4516C23.5872 41.5032 23.4581 41.5807 23.3547 41.7099C23.2514 41.8391 23.1739 41.9941 23.1481 42.2266C23.0964 42.4332 23.0964 42.7949 23.0964 43.1307V43.6732C23.0964 44.0091 23.1222 44.4224 23.1481 44.6291C23.1997 44.8357 23.2514 45.0166 23.3547 45.1457C23.4581 45.2749 23.5872 45.3524 23.7681 45.4041C23.9489 45.4557 24.1556 45.4816 24.4139 45.4816C24.6722 45.4816 24.9047 45.4557 25.0597 45.4041C25.2406 45.3524 25.3697 45.2749 25.4731 45.1457C25.5764 45.0166 25.6539 44.8616 25.7056 44.6291C25.7572 44.4224 25.7572 44.0091 25.7572 43.6732V43.0532ZM18.2397 44.3191C18.2397 44.7841 18.2397 44.3707 18.2139 44.8099C18.1881 45.1199 18.0589 45.3782 17.8781 45.5591C17.6972 45.7399 17.4906 45.8691 17.2064 45.9466C16.9222 46.0241 16.6122 46.0499 16.2247 46.0499C15.8372 46.0499 15.5272 45.9982 15.2431 45.9466C14.9589 45.8691 14.8039 45.7657 14.6231 45.5849C14.4422 45.4041 14.3131 45.1457 14.2356 44.8616C14.1581 44.5516 14.1064 44.1899 14.1064 43.7249V43.1566C14.1064 42.7174 14.1581 42.3816 14.2356 42.0716C14.3131 41.7616 14.4422 41.5291 14.6231 41.3482C14.8039 41.1674 14.9847 41.0641 15.2431 40.9866C15.5272 40.9091 15.8372 40.8832 16.2247 40.8832C16.6122 40.8832 16.9222 40.9349 17.2064 40.9866C17.4906 41.0641 17.6972 41.1932 17.8781 41.3741C18.0589 41.5549 18.1364 41.7874 18.1881 42.0974C18.2397 42.5366 18.2139 42.1232 18.2139 42.5882H17.5164C17.5164 42.2782 17.4131 41.8391 17.3097 41.7099C17.2064 41.5807 17.0514 41.5032 16.8964 41.4516C16.7156 41.3999 16.5089 41.3741 16.2506 41.3741C15.9922 41.3741 15.7597 41.3999 15.6047 41.4516C15.4239 41.5032 15.2947 41.5807 15.1914 41.7099C15.0881 41.8391 15.0106 41.9941 14.9847 42.2266C14.9331 42.4332 14.9331 42.7949 14.9331 43.1307V43.6732C14.9331 44.0091 14.9589 44.4224 14.9847 44.6291C15.0364 44.8357 15.0881 45.0166 15.1914 45.1457C15.2947 45.2749 15.4239 45.3524 15.6047 45.4041C15.7856 45.4557 15.9922 45.4816 16.2506 45.4816C16.5089 45.4816 16.7414 45.4557 16.8964 45.4041C17.0772 45.3524 17.2064 45.2749 17.3097 45.1457C17.4131 45.0166 17.5164 44.7066 17.5164 44.3191M38.3897 41.3999C38.6739 41.1932 38.9839 41.0641 39.2681 40.9607C39.4747 40.9091 39.7589 40.8574 40.0431 40.8574C40.3789 40.8574 40.6631 40.9091 40.8697 41.0124C41.0764 41.1157 41.2056 41.2191 41.3606 41.3999C41.6447 41.2191 41.8514 41.1416 42.1356 41.0124C42.4197 40.9091 42.7556 40.8316 43.0656 40.8316C43.3756 40.8316 43.6856 40.9091 43.8922 40.9866C44.0731 41.0382 44.2281 41.1416 44.3314 41.2707C44.4347 41.3999 44.5639 41.6841 44.6156 41.8907C44.6672 42.0974 44.6414 42.1749 44.6414 42.4332V45.9466L43.8922 45.9724V42.4591C43.8922 42.0974 43.7631 41.8132 43.6339 41.6841C43.5047 41.5549 43.2722 41.3741 42.9106 41.3741C42.7297 41.3741 42.3681 41.3741 42.1356 41.4774C41.9031 41.5807 41.7739 41.6324 41.5672 41.8132L41.5931 45.9724H40.8697V42.4591C40.8697 42.2782 40.8697 42.1232 40.8181 41.9941C40.7147 41.7357 40.6114 41.6582 40.5597 41.6066C40.4822 41.5291 40.3531 41.4516 40.2239 41.4257C40.1206 41.3999 39.9914 41.3741 39.8106 41.3741C39.6039 41.3741 39.3456 41.3999 39.1131 41.4774C38.8806 41.5549 38.6739 41.6841 38.4672 41.8391L38.4414 45.9466H37.7181V40.9866H38.3122L38.3897 41.3999ZM45.7006 39.4624H46.5014V40.2632H45.7006V39.4624ZM45.7264 40.9607H46.5014V45.9466H45.7264V40.9607ZM12.4272 39.5141H13.2281V40.3149H12.4272V39.5141ZM12.4531 41.0124H13.2281V45.9982H12.4531V41.0124ZM48.1547 40.9866L48.2581 41.4774C48.5422 41.2966 48.8006 41.1416 49.0847 41.0382C49.3689 40.9349 49.6789 40.8832 50.0147 40.8832C50.3247 40.8832 50.5831 40.9091 50.8156 40.9866C51.0222 41.0382 51.2031 41.1416 51.3581 41.2707C51.4872 41.3999 51.5906 41.6066 51.6681 41.8132C51.7197 42.0199 51.7714 42.3041 51.7714 42.6399V45.9466H50.9447V42.6399C50.9447 42.4332 50.9189 42.0716 50.8672 41.9166C50.8156 41.7616 50.7639 41.6582 50.6606 41.5807C50.5572 41.5032 50.4539 41.4516 50.3247 41.3999C50.1697 41.3741 50.0147 41.3482 49.8339 41.3482C49.5756 41.3482 49.3172 41.3999 49.0589 41.4774C48.8006 41.5549 48.5681 41.6582 48.3614 41.8132V45.9207H47.5864V40.9607C47.5606 40.9866 48.1547 40.9866 48.1547 40.9866ZM55.9822 45.4557C55.7497 45.6107 55.5689 45.7399 55.3106 45.8432C55.0522 45.9466 54.7939 45.9982 54.5356 45.9982C54.2514 45.9982 53.9672 45.9724 53.7347 45.8949C53.5022 45.8432 53.2956 45.7141 53.1406 45.5591C52.9856 45.4041 52.8564 45.1716 52.7531 44.8616C52.6756 44.5774 52.6239 44.1899 52.6239 43.7249V43.1307C52.6239 42.6657 52.6756 42.2782 52.7531 41.9941C52.8306 41.7099 52.9597 41.4774 53.1406 41.2966C53.2956 41.1416 53.5022 41.0124 53.7347 40.9607C53.9672 40.9091 54.2256 40.8574 54.5356 40.8574C54.8197 40.8574 55.1039 40.9091 55.3622 41.0124C55.6464 41.1157 55.9047 41.2707 56.1372 41.4516L56.1631 40.9607H56.8089V45.9982C56.8089 46.5666 56.6022 47.0832 56.2922 47.3674C55.9822 47.6516 55.5689 47.7291 54.8714 47.7291C54.6131 47.7291 54.3547 47.7807 54.0706 47.7549C53.7864 47.7291 53.5539 47.7291 53.3214 47.6516L53.4247 47.1607C53.6831 47.2382 55.1297 47.2124 55.2847 47.1607C55.4397 47.1091 55.6206 46.9799 55.7239 46.9024C55.8272 46.8249 55.8789 46.6957 55.9306 46.5407C55.9822 46.3857 56.0081 46.2049 56.0081 45.9982L55.9822 45.4557ZM54.6647 41.3741C54.4581 41.3741 54.2772 41.3999 54.1222 41.4516C53.9672 41.5032 53.8381 41.5807 53.7347 41.7099C53.6314 41.8391 53.5281 42.1232 53.4764 42.3299C53.4247 42.5366 53.3989 42.7949 53.3989 43.1049V43.6732C53.3989 44.0091 53.4247 44.2674 53.4764 44.4741C53.5281 44.6807 53.6056 44.9649 53.6831 45.0941C53.7864 45.2232 53.9156 45.3007 54.0706 45.3524C54.2256 45.4041 54.4064 45.4299 54.6131 45.4299C54.8456 45.4299 55.1297 45.4041 55.3881 45.3007C55.6464 45.1974 55.8272 45.1457 56.0339 44.9649V41.9166C55.8272 41.7099 55.5947 41.5807 55.3364 41.4774C55.0781 41.3741 54.8972 41.3741 54.6647 41.3741ZM30.6914 45.4557C30.4589 45.6107 30.2781 45.7399 30.0197 45.8432C29.7614 45.9466 29.5031 45.9982 29.2447 45.9982C28.9606 45.9982 28.6764 45.9724 28.4439 45.8949C28.2114 45.8432 28.0047 45.7141 27.8497 45.5591C27.6947 45.4041 27.5656 45.1716 27.4622 44.8616C27.3847 44.5774 27.3331 44.1899 27.3331 43.7249V43.1307C27.3331 42.6657 27.3847 42.2782 27.4622 41.9941C27.5397 41.7099 27.6689 41.4774 27.8497 41.2966C28.0047 41.1416 28.2114 41.0124 28.4439 40.9607C28.6764 40.9091 28.9347 40.8574 29.2447 40.8574C29.5289 40.8574 29.8131 40.9091 30.0714 41.0124C30.3297 41.1157 30.6139 41.2707 30.8464 41.4516L30.8722 40.9607H31.5181V45.9982C31.5181 46.5666 31.3114 47.0832 31.0014 47.3674C30.6914 47.6516 30.2781 47.7291 29.5806 47.7291C29.3222 47.7291 29.0639 47.7807 28.7797 47.7549C28.4956 47.7291 28.2631 47.7291 28.0306 47.6516L28.1339 47.1607C28.3922 47.2382 29.8389 47.2124 29.9939 47.1607C30.1489 47.1349 30.3297 46.9799 30.4331 46.9024C30.5364 46.8249 30.5881 46.6957 30.6397 46.5407C30.6914 46.3857 30.7172 46.2049 30.7172 45.9982V45.4557H30.6914ZM29.3739 41.3741C29.1672 41.3741 28.9864 41.3999 28.8314 41.4516C28.6764 41.5032 28.5472 41.5807 28.4439 41.7099C28.3406 41.8391 28.2372 42.1232 28.1856 42.3299C28.1339 42.5366 28.1081 42.7949 28.1081 43.1049V43.6732C28.1081 44.0091 28.1339 44.2674 28.1856 44.4741C28.2372 44.6807 28.3147 44.9649 28.3922 45.0941C28.4956 45.2232 28.6247 45.3007 28.7797 45.3524C28.9347 45.4041 29.1156 45.4299 29.3222 45.4299C29.5547 45.4299 29.8389 45.4041 30.0972 45.3007C30.3556 45.1974 30.5364 45.1457 30.7431 44.9649V41.9166C30.5364 41.7099 30.3039 41.5807 30.0456 41.4774C29.7872 41.3741 29.6064 41.3741 29.3739 41.3741ZM36.0389 40.9607L35.9356 41.3741C35.9356 41.3741 35.3414 41.0124 35.0831 40.9349C34.6439 40.8057 34.1789 40.8316 33.9206 40.8832C33.7139 40.9349 33.3006 41.0899 33.1197 41.2191C32.9647 41.3224 32.7581 41.6582 32.6806 41.8132C32.6031 41.9941 32.5256 42.4332 32.5256 42.6399C32.4997 43.1307 32.4222 44.0866 32.5256 44.5516C32.5772 44.8357 32.7322 45.3782 32.9131 45.5849C33.0681 45.7657 33.4814 45.9982 33.7139 46.0499C33.9981 46.1274 34.6181 46.1274 34.9281 46.0499C35.2122 45.9982 35.9097 45.5591 35.9097 45.5591L36.0131 45.9982H36.6072V41.0124H36.0131V40.9607H36.0389ZM35.8839 45.0424C35.8839 45.0424 35.2381 45.4299 34.9797 45.4816C34.7731 45.5332 34.3339 45.5332 34.1531 45.4816C33.9981 45.4299 33.7397 45.3524 33.5331 45.0941C33.3781 44.9132 33.3781 44.6549 33.3522 44.4999C33.2489 43.9832 33.2489 42.9241 33.3522 42.4074C33.3781 42.2524 33.3522 42.1232 33.4814 41.8649C33.6106 41.6324 33.7914 41.5291 33.9464 41.4516C34.1531 41.3482 34.6697 41.3482 34.9022 41.3741C35.1606 41.4257 35.8839 41.7616 35.8839 41.7616V45.0424Z" fill="url(#paint1_linear_544_56377)"/>
<defs>
<linearGradient id="paint0_linear_544_56377" x1="23.6088" y1="31.4207" x2="38.3988" y2="5.80375" gradientUnits="userSpaceOnUse">
<stop stop-color="#3FA860"/>
<stop offset="0.9" stop-color="#00A4E1"/>
</linearGradient>
<linearGradient id="paint1_linear_544_56377" x1="5.21802" y1="43.6043" x2="56.8003" y2="43.6043" gradientUnits="userSpaceOnUse">
<stop stop-color="#3FA860"/>
<stop offset="0.7308" stop-color="#00A4E1"/>
</linearGradient>
</defs>
</svg>
