<svg width="107" height="69" viewBox="0 0 107 69" fill="none" xmlns="http://www.w3.org/2000/svg">
<g clip-path="url(#clip0_472_55793)">
<path d="M7.64296 68.6702C3.49289 68.6702 0.114746 65.2921 0.114746 61.142V7.64198C0.114746 3.49191 3.49289 0.11377 7.64296 0.11377H99.3572C103.507 0.11377 106.885 3.49191 106.885 7.64198V61.142C106.885 65.2921 103.507 68.6702 99.3572 68.6702H7.64296Z" fill="url(#paint0_linear_472_55793)"/>
<path d="M99.3571 0.228309C101.329 0.228309 103.186 1.00024 104.592 2.40652C105.999 3.81281 106.771 5.67002 106.771 7.64188V61.1419C106.771 63.1137 105.999 64.9709 104.592 66.3772C103.186 67.7835 101.329 68.5555 99.3571 68.5555H7.64286C5.671 68.5555 3.81379 67.7835 2.4075 66.3772C1.00121 64.9709 0.229286 63.1137 0.229286 61.1419V7.64188C0.229286 5.67002 1.00121 3.81281 2.4075 2.40652C3.81379 1.00024 5.671 0.228309 7.64286 0.228309H99.3571ZM99.3571 -0.000976562H7.64286C3.43929 -0.000976562 0 3.43831 0 7.64188V61.1419C0 65.3455 3.43929 68.7847 7.64286 68.7847H99.3571C103.561 68.7847 107 65.3455 107 61.1419V7.64188C107 3.43831 103.561 -0.000976562 99.3571 -0.000976562Z" fill="#BCBEC0"/>
<path d="M37.1288 16.7756C39.093 16.875 41.0343 17.0508 42.9985 17.089C42.6011 17.5246 42.1578 17.9603 41.8215 18.4494C41.6151 19.2443 42.1348 19.8786 42.7768 20.2684C43.8392 20.9028 45.2378 21.0786 46.4531 21.2085C51.0235 21.5295 55.8614 20.8798 60.4013 20.3219C68.7091 19.229 77.7811 17.3794 86.1501 17.9832C92.0351 18.3348 97.7978 20.1003 102.865 23.0963V52.506H4.45557V21.4225C9.41578 19.8863 14.5824 18.9156 19.6725 17.8915C25.4352 16.7068 31.2514 16.4928 37.1288 16.7756Z" fill="#FF3399"/>
<path d="M97.7139 26.5131C97.7826 27.8048 97.6909 29.234 97.7597 30.5485C96.9801 30.7778 95.9636 30.5027 95.1535 30.6861C94.4809 30.8925 94.2134 31.8096 94.3816 32.4134C95.2146 32.4287 96.1165 32.337 96.9343 32.4516C96.9954 33.7356 96.9572 35.0578 96.9572 36.3495L96.8808 36.51C96.0477 36.5405 95.1459 36.4335 94.3281 36.5482C94.3051 39.72 94.3051 42.907 94.3281 46.0788L94.1294 46.14C92.7154 46.1018 91.1792 46.2011 89.7959 46.0865C89.7347 41.2638 89.7882 36.2348 89.7653 31.3893C89.7576 29.448 90.9346 27.7283 92.7231 27.0023C94.3204 26.2915 95.956 26.5513 97.7139 26.5131ZM13.459 27.4303C14.6895 27.4226 15.7213 28.1487 16.2716 29.234C17.5938 31.8555 19.0536 34.6528 20.3299 37.2437L20.521 37.3889C20.4599 34.24 20.5286 31.0759 20.4828 27.927L20.5592 27.736C22.0649 27.713 23.5858 27.7436 25.0914 27.7436L25.1373 27.9423C25.1373 33.2541 25.1373 38.5812 25.1373 43.9006C25.1067 44.8025 24.6558 45.6508 23.8762 46.117C23.2877 46.5068 22.4929 46.5298 21.8279 46.3387C20.7961 45.9871 20.1312 44.9018 19.6115 44.0076C18.2434 41.4167 16.883 38.8258 15.5302 36.2348C15.3774 35.9903 15.3315 35.5546 15.0029 35.5164C15.0564 39.0168 15.0564 42.6013 15.0029 46.1018C13.7036 46.2164 12.3737 46.1476 11.0668 46.1476L10.9521 46.0024C10.9904 40.6295 10.9598 35.2489 10.9674 29.876C11.0133 28.5767 12.1291 27.392 13.459 27.4303ZM37.1366 32.956C38.6193 33.728 39.6205 34.9661 40.4689 36.38L40.4612 36.5711C38.2371 38.1073 35.9749 39.6359 33.7355 41.1645C33.1011 40.4078 32.5279 39.376 31.9776 38.5277C33.04 37.7023 34.431 36.9227 35.5698 36.1431L35.4781 35.952C34.4463 35.4935 33.1929 35.4323 32.291 36.2119C30.6784 37.6258 30.6019 40.3314 32.1916 41.7988C32.9483 42.5249 34.0412 42.7313 35.0271 42.4103C36.4029 41.967 37.4346 40.8817 38.0843 39.6206L38.2524 39.5442C39.2689 40.125 40.3771 40.5836 41.3707 41.1798L41.4013 41.2485C40.0791 44.1452 37.4194 46.3387 34.1635 46.4763C31.2974 46.6826 28.5384 44.9095 27.3308 42.3491C26.4595 40.5607 26.4213 38.3748 27.2314 36.5558C27.9193 34.9814 29.1727 33.6668 30.7166 32.9102C32.6808 31.886 35.18 31.9243 37.1366 32.956ZM61.1199 32.5128C62.6179 32.5051 64.1235 32.5051 65.6215 32.5128C65.7438 33.6821 65.6979 34.9585 65.6444 36.1355C64.4445 36.2272 63.1911 36.1431 61.9759 36.1737C61.6549 36.1966 61.3491 36.3648 61.1963 36.6475C61.0664 37.0144 61.5326 37.2513 61.7771 37.4195C62.8013 37.9163 63.8407 38.2449 64.7961 38.9175C65.568 39.4295 66.2329 40.1938 66.4164 41.1263C66.5998 42.4179 66.3934 43.8165 65.4686 44.8025C64.5744 45.7655 63.2522 46.117 61.9759 46.14C60.2486 46.14 58.5213 46.14 56.794 46.14L56.6488 46.033C56.6717 44.833 56.6717 43.6255 56.6488 42.4179L56.8016 42.3033C58.3073 42.2956 59.8129 42.3185 61.3109 42.2956C61.7084 42.2268 62.037 41.7148 61.6854 41.3785C61.1504 40.8817 60.2944 40.7212 59.6371 40.4002C58.3914 39.8805 57.329 39.0321 56.9621 37.6793C56.7023 36.5176 56.7176 35.1878 57.4819 34.2018C58.292 33.1013 59.7747 32.5128 61.1199 32.5128ZM67.6086 32.5051C69.0302 32.5128 70.4518 32.4975 71.8734 32.5128L71.9345 32.6885C71.9574 35.2718 71.9345 37.8628 71.9421 40.4537C71.9421 40.8588 72.0491 41.2485 72.2708 41.5925C72.6835 42.1886 73.5166 42.395 74.1586 42.051C74.8388 41.6918 75.0528 40.9581 75.0375 40.2397C75.0299 37.7175 75.0604 35.1878 75.0222 32.6733L75.1216 32.5051C76.5508 32.5357 77.98 32.4898 79.4016 32.528C79.4245 35.1495 79.4016 37.8245 79.4092 40.4537C79.4169 41.5925 79.1723 42.7083 78.622 43.7095C77.8424 45.1846 76.3444 46.1476 74.7165 46.3922C73.1344 46.5833 71.5753 46.4839 70.1843 45.6355C68.4341 44.5961 67.6392 42.6395 67.5551 40.6677C67.5551 38.0156 67.5551 35.3406 67.5551 32.6885L67.6086 32.5051ZM80.9684 32.5051C82.2447 32.5128 83.5211 32.4975 84.7974 32.5128C84.9732 33.17 84.7516 33.9343 84.8739 34.6069C85.1796 34.2783 85.2789 33.7891 85.6229 33.4758C86.4559 32.5968 87.7094 32.4669 88.8634 32.528C88.8558 33.8961 88.8864 35.2795 88.8405 36.6399C87.9769 36.6475 86.8381 36.6705 86.1196 37.2055C85.47 37.7252 85.47 38.6041 85.4318 39.3608C85.4394 41.5848 85.4165 43.8165 85.4471 46.0483L85.2713 46.1323C83.8421 46.0941 82.3364 46.1782 80.9225 46.0865C80.8537 41.7071 80.9149 37.0832 80.8919 32.6733L80.9684 32.5051ZM50.3358 32.3217C49.304 32.0848 48.2264 32.1153 47.2022 32.3828C44.0228 33.2006 41.6153 36.273 41.7834 39.5824C41.8751 43.2586 45.131 46.4839 48.8225 46.461C52.6516 46.5833 56.0603 43.1898 56.0221 39.3684C56.0909 36.0361 53.5764 33.0095 50.3358 32.3217ZM50.3587 41.7759C49.2123 42.5402 47.6379 42.265 46.8048 41.1798C45.6201 39.7429 46.1322 37.4348 47.8289 36.6628C48.9219 36.1966 50.2211 36.5023 50.9701 37.4271C52.0784 38.734 51.7879 40.8358 50.3587 41.7759Z" fill="white"/>
</g>
<defs>
<linearGradient id="paint0_linear_472_55793" x1="53.5001" y1="68.6702" x2="53.5001" y2="0.11377" gradientUnits="userSpaceOnUse">
<stop stop-color="#CDCCCC"/>
<stop offset="0.6582" stop-color="white"/>
</linearGradient>
<clipPath id="clip0_472_55793">
<rect width="107" height="68.7857" fill="white"/>
</clipPath>
</defs>
</svg>
