<svg width="108" height="85" viewBox="0 0 108 85" fill="none" xmlns="http://www.w3.org/2000/svg">
<g clip-path="url(#clip0_472_55758)">
<path d="M100.1 3.26807H7.15C3.20678 3.26807 0 6.47484 0 10.4181V74.7681C0 78.7113 3.20678 81.9181 7.15 81.9181H100.1C104.043 81.9181 107.25 78.7113 107.25 74.7681V10.4181C107.25 6.47484 104.043 3.26807 100.1 3.26807ZM95.6062 42.1891C94.9985 42.9613 94.1226 43.4761 93.0001 43.7192L92.4924 43.8264L94.7196 49.7431H89.8576L87.7126 42.5037L86.3792 49.7431H40.5834L42.6998 38.2745H39.9757L37.8593 49.7431H20.4526L17.2351 40.4087L15.5834 49.7431H10.725L13.4635 34.9175H18.5471L21.8611 44.0016L23.5235 34.9175H52.742L52.1342 38.278H47.4617L46.9862 40.8699L51.4836 40.8771L50.9509 43.78H46.4464L45.9745 46.3826H53.4713L55.5877 34.9175H60.4854L58.4656 45.7927H61.8189L63.8209 34.9175H68.7258L66.7059 45.7927H70.1451L72.1471 34.9175H81.5279L80.913 38.278H76.2977L75.8186 40.8663L80.2981 40.8592L79.7654 43.78H75.2824L74.8033 46.3826H82.2465L84.3557 34.9175H90.04C92.21 34.9175 93.8652 35.2929 94.9556 36.0437C96.0138 36.7658 96.5286 37.7954 96.525 39.2004C96.525 40.4052 96.214 41.4062 95.6062 42.1891Z" fill="#8DC549"/>
<path d="M89.2681 37.9176H88.5602L87.8238 41.8966H88.7854C89.7543 41.8966 90.4657 41.7286 90.9519 41.3854C91.3201 41.1316 91.7563 40.6275 91.7563 39.6944C91.7722 39.4231 91.7168 39.1524 91.5958 38.9091C91.4748 38.6658 91.2922 38.4583 91.0663 38.3073C90.6587 38.0463 90.0724 37.9141 89.2681 37.9141V37.9176ZM27.2525 40.8491H31.8714L31.3388 43.7806H26.677L26.1943 46.3797H33.6303L35.1211 38.2751H27.6994L27.2525 40.8491Z" fill="#8DC549"/>
</g>
<defs>
<clipPath id="clip0_472_55758">
<rect width="107.25" height="83.4167" fill="white" transform="translate(0 0.885254)"/>
</clipPath>
</defs>
</svg>
