<svg width="108" height="70" viewBox="0 0 108 70" fill="none" xmlns="http://www.w3.org/2000/svg">
<g clip-path="url(#clip0_472_55741)">
<path d="M99.9374 69.1874H7.68749C3.45937 69.1874 0 65.7281 0 61.5V7.68749C0 3.45937 3.45937 0 7.68749 0H99.9374C104.166 0 107.625 3.45937 107.625 7.68749V61.5C107.625 65.7281 104.166 69.1874 99.9374 69.1874Z" fill="url(#paint0_linear_472_55741)"/>
<path d="M14.8753 15.4217H9.66315C9.15577 15.4217 8.82521 15.5908 8.31783 15.76C7.81046 15.9291 7.4799 16.2673 7.14165 16.4365C6.63427 17.113 6.30371 18.12 6.30371 19.2962V35.9473H9.99371V30.397H15.0367C16.0438 30.397 16.7203 30.0587 17.3891 29.3899C18.0656 28.7134 18.3961 28.0446 18.3961 27.0375V19.2885C18.4038 16.767 17.2276 15.4217 14.8753 15.4217ZM14.7061 25.6768C14.7061 25.846 14.537 26.1842 14.3679 26.3533C14.1988 26.5225 14.0296 26.6916 13.6914 26.6916H11.0008C10.1628 26.6916 9.82458 26.3533 9.82458 25.5154V20.2956C9.82458 19.6191 10.1628 19.2885 10.8316 19.1194H13.6914C14.1988 19.1194 14.5293 19.4577 14.5293 19.9573V25.6768H14.7061ZM29.8428 15.4217H21.4327V19.1194H28.8358C29.5123 19.1194 29.8428 19.2885 29.8428 19.9573V20.2956H24.9613C22.6089 20.2956 21.4327 21.4718 21.4327 23.8242V26.853C21.4327 29.0363 22.778 30.2201 25.1304 30.2201H30.1734C31.1804 30.2201 32.0261 29.8819 32.5258 29.2131C33.2023 28.5366 33.3637 27.6986 33.5328 26.6916V18.9503C33.5405 16.5979 32.3643 15.4217 29.8428 15.4217ZM30.0119 25.846C30.0119 26.3533 29.6737 26.5225 29.0049 26.5225H26.1451C25.8069 26.5225 25.6378 26.5225 25.4686 26.3533C25.2995 26.1842 25.1304 26.0151 25.1304 25.846V24.8389C25.1304 24.5007 25.1304 24.1624 25.2995 24.001C25.4686 23.8318 25.6378 23.8318 26.1374 23.8318H28.9972C29.6737 23.8318 30.0043 24.1701 30.0043 24.6698L30.0119 25.846ZM44.9795 25.6768C44.9795 25.846 44.8104 26.1842 44.6412 26.3533C44.4721 26.5225 44.1339 26.6916 43.8033 26.6916H41.2818C40.6053 26.6916 40.2747 26.3533 40.2747 25.5154V15.4217H36.5771V26.5225C36.5771 27.199 36.7462 27.6986 36.9153 28.0369C37.0844 28.5443 37.4227 28.8748 37.7533 29.2131C38.0838 29.5513 38.5912 29.8896 38.9294 30.051C39.2677 30.2125 39.7674 30.2201 40.4439 30.2201H45.1563V31.0581C45.1563 31.2272 44.9872 31.5655 44.8181 31.7346C44.6489 31.9037 44.3107 32.0728 44.1416 32.0728H36.7385V35.9396H45.3177C46.3248 35.9396 47.1704 35.6014 47.8392 34.7635C48.5157 34.087 48.6772 33.0799 48.8463 31.9037V15.4217H45.1486V25.6768H44.9795ZM51.7061 18.7812V21.6409C51.7061 22.4788 52.0443 23.1553 52.7131 23.8242C53.3896 24.5007 54.2275 24.8312 55.2346 24.8312H58.4326C58.6017 24.8312 58.7709 25.0003 58.94 25.3386C58.94 25.5077 59.1091 25.5077 59.1091 25.6768V25.846C59.1091 26.3533 58.7709 26.5225 58.102 26.5225H51.5446V30.2201H59.2859C59.9624 30.2201 60.4621 30.2201 60.8004 30.051C61.1386 29.8819 61.4769 29.7128 61.8074 29.2131C62.4839 28.3751 62.8145 27.6986 62.8145 26.8607V24.1701C62.8145 23.3322 62.4762 22.4865 61.8074 21.8177C61.1309 21.1412 60.4621 20.8107 59.6242 20.8107H56.4262C55.5882 20.8107 55.25 20.6415 55.25 20.1342V19.965C55.25 19.4577 55.5882 19.2885 56.4262 19.2885H62.9836V15.4217H55.4114C52.8899 15.4217 51.7061 16.5979 51.7061 18.7812ZM73.9152 15.4217H65.5051V19.1194H72.9082C73.5847 19.1194 73.9152 19.2885 73.9152 19.9573V20.2956H69.0337C66.6813 20.2956 65.5051 21.4718 65.5051 23.8242V26.853C65.5051 29.0363 66.8504 30.2201 69.2028 30.2201H74.2458C75.2528 30.2201 76.0985 29.8819 76.5982 29.2131C77.2747 28.5366 77.4361 27.6986 77.4361 26.6916V18.9503C77.6129 16.5979 76.4367 15.4217 73.9152 15.4217ZM74.0844 25.846C74.0844 26.3533 73.7461 26.5225 73.0773 26.5225H70.2175C69.8793 26.5225 69.7102 26.5225 69.541 26.3533C69.3719 26.1842 69.2028 26.0151 69.2028 25.846V24.8389C69.2028 24.5007 69.2028 24.1624 69.3719 24.001C69.541 23.8318 69.7102 23.8318 70.2099 23.8318H73.0696C73.7461 23.8318 74.0767 24.1701 74.0767 24.6698L74.0844 25.846ZM81.818 10.8784C81.1415 11.5549 80.6418 12.3928 80.6418 13.3999V30.3893H84.3395V19.2885H87.0301V15.4217H84.3395V14.5838C84.3395 13.9073 84.6777 13.5767 85.5157 13.4076H86.861V9.87904H84.5086C83.5015 9.87135 82.6636 10.2019 81.818 10.8784ZM97.8003 15.4217H92.7573C90.4049 15.4217 89.2287 16.5979 89.2287 18.9503V26.5225C89.2287 27.199 89.2287 27.8678 89.3978 28.206C89.567 28.5443 89.7361 29.044 90.2358 29.3822C90.574 29.7205 90.9123 29.8896 91.412 30.0587C91.7502 30.2278 92.419 30.2278 93.0955 30.2278H101.167V26.5225H93.5952C93.4261 26.5225 93.257 26.3533 93.0878 26.1842C92.9187 26.0151 92.9187 25.846 92.9187 25.5077V25.3386L101.329 22.1406V19.1117C101.329 16.5979 100.153 15.4217 97.8003 15.4217ZM97.6311 19.9573L92.9187 21.6409V20.1265C92.9187 19.7882 93.0878 19.6191 93.257 19.45C93.4261 19.2808 93.7643 19.1117 94.0949 19.1117H96.6164C96.9546 19.1117 97.1238 19.1117 97.2929 19.2808C97.462 19.4577 97.6311 19.6268 97.6311 19.9573ZM42.0736 57.8182C41.6431 57.8182 40.9974 57.3878 40.5669 57.1725C40.1364 56.742 39.7059 56.3115 39.4906 55.6658C39.2754 55.02 39.2754 54.3742 39.2754 53.7285V44.688C39.2754 43.3965 39.7059 42.3203 40.3516 41.8898C40.9974 41.4593 42.0736 41.0288 43.3651 41.0288H50.4684V39.9525H43.1499C42.2889 39.9525 41.6431 39.9525 41.2126 40.1678C40.5669 40.383 39.9211 40.8135 39.4906 41.244C39.0601 41.6745 38.6296 42.3203 38.4144 42.966C38.1991 43.6118 38.1991 44.2575 38.1991 44.9033V53.9438C38.1991 54.8048 38.4144 55.6658 38.6296 56.3115C38.8449 56.9573 39.2754 57.603 39.9211 58.2488C40.5669 58.6793 41.2126 59.1098 41.8584 59.1098C42.5041 59.325 43.1499 59.325 43.7956 59.325H50.6836V58.2488H44.0109C43.1499 58.0335 42.5041 57.8182 42.0736 57.8182ZM67.8959 40.383C67.6807 40.1678 67.2502 39.9525 66.8197 39.9525C66.1739 39.7373 65.3129 39.7373 64.4519 39.7373H54.7657V40.8135H65.0977C65.7434 40.8135 66.3892 40.8135 66.8197 41.0288C67.2502 41.244 67.8959 41.4593 68.1112 42.105C68.7569 42.966 68.9722 43.827 68.9722 44.9033V46.1948H59.5012C56.2724 46.1948 54.5504 47.9168 54.5504 51.1455V54.159C54.5504 55.6658 54.9809 56.9572 56.0572 57.8182C56.9182 58.6792 58.2097 59.1098 59.7164 59.1098H65.3129C66.8197 59.1098 68.1112 58.6792 68.9722 57.603C69.4027 56.9573 69.8332 56.5268 69.8332 55.881C69.8332 55.2353 70.0484 54.5895 70.0484 53.9438V45.3338C70.0484 43.827 69.6179 42.5355 68.7569 41.4593C68.5417 41.0288 68.3264 40.5983 67.8959 40.383ZM68.9722 54.159C68.9722 56.742 67.6807 57.8183 65.3129 58.0335H59.5012C58.4249 58.0335 57.5639 57.603 56.7029 56.9573C56.2724 56.5268 55.8419 56.0963 55.8419 55.6658C55.8419 55.2353 55.8419 54.5895 55.8419 54.159V51.1455C55.8419 49.854 56.2724 48.993 56.9182 48.3473C57.5639 47.7015 58.4249 47.271 59.5012 47.271H68.9722V54.159ZM75.8602 45.3338V59.1098H76.9364V45.3338C76.9364 42.5355 78.2279 41.0288 80.8109 41.0288H82.3176V39.9525H81.0262C77.5822 39.9525 75.6449 41.6745 75.8602 45.3338ZM99.9605 33.7103V39.9525H91.1352C87.476 39.9525 85.5387 41.6745 85.5387 45.549V53.7285C85.5387 54.5895 85.5387 55.2353 85.754 55.881C85.9692 56.5268 86.1845 57.1725 86.615 57.8182C87.2607 58.464 87.9065 58.8945 88.7675 59.1098C89.4132 59.325 90.2742 59.325 91.1352 59.325H95.4402C99.3147 59.325 101.252 57.603 101.252 53.9438V33.7103H99.9605ZM99.9605 53.7285C99.9605 55.2352 99.5299 56.3115 98.4537 56.9573C97.5927 57.603 96.3012 58.0335 94.7945 58.0335H90.92C90.2742 58.0335 89.6285 58.0335 89.198 57.8182C88.7675 57.603 88.1217 57.603 87.6912 57.1725C86.8302 56.742 86.3997 55.6658 86.3997 54.159V45.3338C86.3997 44.688 86.3997 44.0423 86.615 43.6118C86.8302 43.1813 87.0455 42.7508 87.476 42.105C87.9065 41.6745 88.5522 41.244 88.9827 41.0288C89.4132 40.8135 90.059 40.8135 90.7047 40.8135H99.7452L99.9605 53.7285Z" fill="#158AC8"/>
<path d="M15.9668 43.5113C16.4742 40.9898 18.8266 39.1371 21.5172 39.1371C24.2078 39.1371 26.5602 40.9898 27.0676 43.5113C27.9055 43.6804 28.582 44.0187 29.0894 44.5183C29.0894 44.011 29.0894 43.5113 29.0894 43.173C28.582 39.3062 25.3917 36.2773 21.3481 36.2773C17.3044 36.2773 14.1141 39.4753 13.7759 43.5113C13.7759 43.8495 13.7759 44.1878 13.7759 44.5183C14.1141 44.1801 14.4524 44.011 14.9521 43.8418C15.2903 43.6804 15.6286 43.5113 15.9668 43.5113ZM25.7222 44.3492H16.8047C16.2974 44.3492 15.9668 44.5183 15.4594 44.6875C14.9521 44.8566 14.6215 45.0257 14.2832 45.364C13.7759 46.0405 13.4453 47.0475 13.4453 48.3928V55.4576C13.4453 56.803 13.7836 57.6409 14.2832 58.3174C14.6215 58.6556 14.9597 58.8248 15.4594 58.9939C15.9668 59.163 16.2974 59.3321 16.8047 59.3321H25.8914C28.2437 59.3321 29.4199 57.9868 29.4199 55.4653V48.2314C29.2508 45.6945 28.0746 44.3492 25.7222 44.3492Z" fill="#E12730"/>
</g>
<defs>
<linearGradient id="paint0_linear_472_55741" x1="53.8125" y1="69.1874" x2="53.8125" y2="0" gradientUnits="userSpaceOnUse">
<stop stop-color="#CDCCCC"/>
<stop offset="0.6582" stop-color="white"/>
</linearGradient>
<clipPath id="clip0_472_55741">
<rect width="107.625" height="69.1874" fill="white"/>
</clipPath>
</defs>
</svg>
