<svg width="67" height="17" viewBox="0 0 67 17" fill="none" xmlns="http://www.w3.org/2000/svg">
<path d="M65.3216 10.8108C64.3215 11.7321 64.2644 11.7609 64.0072 11.7609C63.8643 11.7609 63.75 11.6457 63.75 11.473C63.75 11.3002 64.0644 10.1775 64.3215 9.37143C64.7502 7.81686 65.3502 6.52139 65.3502 6.11835C65.3502 5.54259 65.3216 5.31228 64.6073 5.28349C63.0071 5.22592 60.0925 8.16232 60.0925 8.16232C60.0068 8.10475 61.9498 1.80011 61.9498 1.80011H61.4355C60.5211 2.00163 59.8639 2.14557 58.8924 2.26072C58.8924 2.26072 58.8924 2.51982 58.8066 2.63497L59.321 2.66376C59.6067 2.66376 60.1211 2.60618 60.2354 2.83649C60.3497 3.03801 60.2925 3.21074 60.1782 3.70014L59.1209 7.35625L58.4352 9.63052C57.7779 10.6957 56.3492 11.876 55.4348 11.876C54.4347 11.876 53.8061 11.0412 53.8061 9.88962C53.8061 8.50778 54.4347 7.32746 55.4062 6.40623C55.9206 5.94562 56.3206 5.77289 56.9207 5.74411C57.3207 5.71532 57.5779 5.85926 57.5779 6.03199C57.5779 6.31987 57.3207 6.4926 57.3207 6.78048C57.3207 7.06837 57.435 7.58656 57.9494 7.58656C58.4066 7.58656 59.0352 7.06837 58.8352 6.26229C58.6923 5.71532 58.0351 5.19713 56.9778 5.19713C55.892 5.19713 55.0919 5.60016 54.2347 6.20472C53.2346 6.95321 52.3488 8.59415 52.2916 9.83204C52.2916 10.0336 52.2916 10.3214 52.2916 10.3214C51.0058 11.2427 50.0342 11.8472 49.377 11.876C48.5769 11.9048 47.9483 11.329 47.9483 10.4654C47.9483 10.2351 47.9483 9.83204 48.1197 9.51537C51.6915 9.14112 53.1489 7.7305 53.1489 6.37745C53.1489 5.71532 52.3202 5.13955 51.3201 5.16834C48.6626 5.28349 46.5481 7.87444 46.5481 10.2927C46.5481 10.3214 46.5481 10.379 46.5481 10.4366C45.6623 11.4154 45.348 11.6457 45.0622 11.6457C44.8908 11.6457 44.5479 11.473 44.6622 10.8396C44.9194 9.48658 46.0052 5.62895 46.0052 5.62895H47.4054L47.4911 5.05319H46.1766L46.8339 2.54861H46.3767C46.3767 2.54861 45.7195 4.01681 44.9479 4.44863C44.205 5.11076 43.6049 5.13955 43.5192 5.16834C43.3192 5.28349 43.262 5.08197 42.7763 5.08197C42.0619 5.08197 41.6619 5.60016 41.6619 5.97441C41.6619 6.37745 41.7762 6.60775 42.2048 6.89564C42.5477 7.12594 42.5477 7.2411 42.5477 7.44261C42.5477 8.19111 41.4618 10.1775 41.319 10.3502C41.2332 10.4654 41.0332 9.25628 41.0332 9.25628C40.6903 7.29867 40.4046 5.85926 39.9759 5.13955C39.0616 5.34107 38.9758 5.34107 37.7186 5.45622L37.6614 5.28349H35.5183L35.2897 6.11835H35.2611C35.0897 5.36986 34.6039 4.99561 33.8324 4.99561C32.6894 4.99561 31.6893 5.80168 30.8035 6.89564C30.2892 7.52898 29.4605 9.28506 29.4605 10.4366C29.4605 10.4366 29.4605 10.4366 29.4605 10.4654C29.2319 10.8396 29.0033 11.2139 28.7176 11.2139C28.5461 11.2139 28.4604 11.1275 28.4604 11.0124C28.4604 10.8108 28.5175 10.3214 28.8033 9.54416L30.9178 1.54102C29.4033 1.77132 28.7461 1.88647 27.4031 2.00163V2.37587C27.6031 2.37587 27.6889 2.37587 27.7746 2.37587C28.3461 2.37587 28.3747 2.72133 27.6889 4.90924C27.6889 4.90924 27.0031 7.61534 27.0031 7.4714C26.9745 5.36986 25.8601 5.0244 24.86 5.05319C24.0313 5.08197 22.8312 6.26229 22.6312 6.60775C22.6026 6.63654 22.5454 6.60775 22.574 6.57897L22.9455 5.28349C21.1453 5.5138 20.4023 5.62895 19.4879 5.71532V6.06078C20.288 6.08956 20.4023 6.37745 20.3452 6.60775C20.3166 6.7517 18.6021 13.4594 18.6021 13.4594C18.2592 14.8124 18.1735 15.0427 17.3163 15.0427V15.4745H21.6025V15.273C21.0024 15.1579 20.2023 15.4745 21.0024 12.9988L21.2024 12.3078C21.5739 12.5381 22.0882 12.7397 22.4597 12.7397C24.4314 12.7397 25.5458 11.0699 26.4316 9.60174C26.203 10.3214 25.9172 11.3866 26.0315 11.8472C26.1744 12.3654 26.5745 12.7684 27.2888 12.7684C28.2032 12.7684 28.6604 12.3366 29.4891 11.473C29.8891 12.5957 30.4606 12.7397 31.4036 12.7397C32.518 12.7397 33.0323 12.1639 33.9181 10.926C33.9467 10.8972 34.0324 10.926 34.0039 10.9548C33.9181 11.2427 33.9181 11.473 33.9181 11.6169C33.8896 12.423 34.3468 12.7972 35.1183 12.7397C35.9469 12.6821 36.6899 12.279 37.69 10.7533L37.3757 10.4654C36.947 11.0699 36.6327 11.5306 36.2898 11.473C36.147 11.4442 36.0898 11.3866 36.0898 11.2715C36.0612 10.7245 37.4614 6.03199 37.4614 6.03199C37.49 6.06078 37.5471 6.08956 37.5757 6.11835C38.0615 6.43502 38.4615 8.59414 39.0616 12.3078C39.1187 12.6533 39.1759 13.7472 38.3186 14.2366C37.89 14.467 37.49 13.7185 36.5756 13.7185C36.0612 13.7185 35.6326 14.1503 35.604 14.6109C35.604 15.3882 36.147 15.7336 36.8327 15.7336C37.89 15.7336 38.5186 15.2155 39.5759 14.1791C41.6904 11.473 44.205 7.12594 43.6906 5.80168H44.6908L43.5192 10.2639C43.3763 10.7821 43.1763 11.329 43.1763 11.7609C43.1763 12.3366 43.5764 12.7397 44.0621 12.7397C45.0337 12.7397 46.0338 11.8184 46.491 11.1851C46.691 12.1927 47.2053 12.7684 48.4626 12.7684C49.8913 12.7684 51.3486 12.1063 52.3488 11.0699C52.6345 12.1351 53.606 12.826 54.9491 12.7972C56.1206 12.7684 56.9493 12.1639 57.8637 11.2715L57.435 12.7397H58.7209C59.4638 10.4942 59.3495 9.88962 59.9782 8.91082C61.0069 7.78807 62.6928 6.40623 63.2643 6.40623C63.6357 6.40623 63.7215 6.57896 63.7215 6.80927C63.7215 6.86685 63.6929 7.06837 63.6072 7.32746L62.6071 10.5805C62.407 11.3578 62.1499 11.9624 62.1499 12.1639C62.1499 12.5669 62.4928 12.7397 62.8928 12.7397C63.6072 12.7397 64.1787 12.3654 65.4074 11.0987L65.3216 10.8108ZM48.5198 8.27747C49.2341 6.46381 50.3485 5.77289 51.3486 5.77289C51.863 5.77289 52.0344 6.20472 52.0344 6.57897C52.0344 7.06837 51.6344 7.55777 51.0915 8.01838C50.4343 8.56536 49.7485 8.91082 48.2054 8.99718L48.5198 8.27747ZM22.9169 11.5881C22.6312 11.876 22.4026 12.1063 22.0025 12.1063C21.631 12.1063 21.4882 11.7896 21.4882 11.5018C21.4882 11.2427 21.8311 10.1487 22.0597 9.16991C22.4311 8.10475 22.4883 7.81686 22.8598 7.18352C23.2312 6.57897 23.6027 6.40623 23.9456 6.40623C24.3742 6.40623 24.5457 6.95321 24.5457 7.52898C24.5742 7.98959 23.8313 10.6957 22.9169 11.5881ZM34.9468 6.83806C34.9182 7.75928 34.2039 9.51537 33.9753 10.0623C33.7181 10.6381 33.0895 11.4442 32.6323 11.4442C32.1751 11.4442 31.9751 11.1851 31.9751 10.523C31.9751 9.97598 32.2037 8.91082 32.7751 7.81686C33.2609 6.982 33.661 6.0032 34.4039 6.0032C34.7754 6.0032 34.9468 6.43502 34.9468 6.83806ZM18.3164 5.91683C17.3448 3.70014 13.4301 3.21074 9.20108 4.70773C8.62959 4.44863 7.51518 3.64256 7.51518 3.64256C6.85796 3.12437 6.05787 3.61377 6.05787 4.2759V6.14714C2.4289 8.27748 0.314372 11.3002 1.25733 13.4306C2.3146 15.8776 7.00083 16.1943 11.7156 14.1215C16.4019 12.0487 19.3736 8.39263 18.3164 5.91683ZM7.00083 5.42743C7.00083 4.96682 7.54375 4.62136 8.00095 4.99561L12.4014 7.61534C12.9444 7.87444 12.8872 8.36384 12.4014 8.62293L7.88665 11.2427C7.4866 11.473 7.00083 11.1851 7.00083 10.7245V5.42743ZM7.00083 14.87C5.8007 15.1003 4.45769 14.87 4.02907 14.5533C2.34317 13.373 3.14326 11.7609 3.14326 11.7609C3.14326 11.7609 3.11469 13.2291 4.88631 13.8336C7.68663 14.8124 11.287 12.9988 11.3728 13.1427C11.4299 13.2291 9.00106 14.4957 7.00083 14.87ZM11.9442 11.9624C9.20108 13.776 6.00072 14.3518 4.91489 12.8836C4.28625 12.02 4.77201 10.523 6.0293 9.11233V12.02C6.0293 12.6821 6.74366 13.0851 7.28658 12.7397L13.8016 8.91082C14.4874 8.53657 14.5445 7.81686 13.773 7.44261C13.773 7.44261 11.8299 6.43502 11.1442 5.94562C12.8301 5.48501 14.3445 5.60016 15.0017 6.52139C15.9161 7.75928 14.6874 10.1487 11.9442 11.9624ZM16.6876 6.60775C16.6591 6.72291 16.6019 6.72291 16.5448 6.60775C16.3447 6.20472 15.3732 5.16834 13.3158 5.13955C12.4014 5.13955 11.4013 5.31228 10.6298 5.48501C10.4869 5.36986 10.3155 5.2547 10.144 5.13955C10.5155 4.99561 11.0299 4.82288 11.7442 4.62136C13.0872 4.24711 14.5731 4.30469 15.116 4.50621C16.4305 5.05319 16.7734 6.11835 16.6876 6.60775Z" stroke="#1E2123" stroke-width="1.33596" stroke-miterlimit="10"/>
<path d="M65.3216 10.8108C64.3215 11.7321 64.2644 11.7609 64.0072 11.7609C63.8643 11.7609 63.75 11.6457 63.75 11.473C63.75 11.3002 64.0644 10.1775 64.3215 9.37143C64.7502 7.81686 65.3502 6.52139 65.3502 6.11835C65.3502 5.54259 65.3216 5.31228 64.6073 5.28349C63.0071 5.22592 60.0925 8.16232 60.0925 8.16232C60.0068 8.10475 61.9498 1.80011 61.9498 1.80011H61.4355C60.5211 2.00163 59.8639 2.14557 58.8924 2.26072C58.8924 2.26072 58.8924 2.51982 58.8066 2.63497L59.321 2.66376C59.6067 2.66376 60.1211 2.60618 60.2354 2.83649C60.3497 3.03801 60.2925 3.21074 60.1782 3.70014L59.1209 7.35625L58.4352 9.63052C57.7779 10.6957 56.3492 11.876 55.4348 11.876C54.4347 11.876 53.8061 11.0412 53.8061 9.88962C53.8061 8.50778 54.4347 7.32746 55.4062 6.40623C55.9206 5.94562 56.3206 5.77289 56.9207 5.74411C57.3207 5.71532 57.5779 5.85926 57.5779 6.03199C57.5779 6.31987 57.3207 6.4926 57.3207 6.78048C57.3207 7.06837 57.435 7.58656 57.9494 7.58656C58.4066 7.58656 59.0352 7.06837 58.8352 6.26229C58.6923 5.71532 58.0351 5.19713 56.9778 5.19713C55.892 5.19713 55.0919 5.60016 54.2347 6.20472C53.2346 6.95321 52.3488 8.59415 52.2916 9.83204C52.2916 10.0336 52.2916 10.3214 52.2916 10.3214C51.0058 11.2427 50.0342 11.8472 49.377 11.876C48.5769 11.9048 47.9483 11.329 47.9483 10.4654C47.9483 10.2351 47.9483 9.83204 48.1197 9.51537C51.6915 9.14112 53.1489 7.7305 53.1489 6.37745C53.1489 5.71532 52.3202 5.13955 51.3201 5.16834C48.6626 5.28349 46.5481 7.87444 46.5481 10.2927C46.5481 10.3214 46.5481 10.379 46.5481 10.4366C45.6623 11.4154 45.348 11.6457 45.0622 11.6457C44.8908 11.6457 44.5479 11.473 44.6622 10.8396C44.9194 9.48658 46.0052 5.62895 46.0052 5.62895H47.4054L47.4911 5.05319H46.1766L46.8339 2.54861H46.3767C46.3767 2.54861 45.7195 4.01681 44.9479 4.44863C44.205 5.11076 43.6049 5.13955 43.5192 5.16834C43.3192 5.28349 43.262 5.08197 42.7763 5.08197C42.0619 5.08197 41.6619 5.60016 41.6619 5.97441C41.6619 6.37745 41.7762 6.60775 42.2048 6.89564C42.5477 7.12594 42.5477 7.2411 42.5477 7.44261C42.5477 8.19111 41.4618 10.1775 41.319 10.3502C41.2332 10.4654 41.0332 9.25628 41.0332 9.25628C40.6903 7.29867 40.4046 5.85926 39.9759 5.13955C39.0616 5.34107 38.9758 5.34107 37.7186 5.45622L37.6614 5.28349H35.5183L35.2897 6.11835H35.2611C35.0897 5.36986 34.6039 4.99561 33.8324 4.99561C32.6894 4.99561 31.6893 5.80168 30.8035 6.89564C30.2892 7.52898 29.4605 9.28506 29.4605 10.4366C29.4605 10.4366 29.4605 10.4366 29.4605 10.4654C29.2319 10.8396 29.0033 11.2139 28.7176 11.2139C28.5461 11.2139 28.4604 11.1275 28.4604 11.0124C28.4604 10.8108 28.5175 10.3214 28.8033 9.54416L30.9178 1.54102C29.4033 1.77132 28.7461 1.88647 27.4031 2.00163V2.37587C27.6031 2.37587 27.6889 2.37587 27.7746 2.37587C28.3461 2.37587 28.3747 2.72133 27.6889 4.90924C27.6889 4.90924 27.0031 7.61534 27.0031 7.4714C26.9745 5.36986 25.8601 5.0244 24.86 5.05319C24.0313 5.08197 22.8312 6.26229 22.6312 6.60775C22.6026 6.63654 22.5454 6.60775 22.574 6.57897L22.9455 5.28349C21.1453 5.5138 20.4023 5.62895 19.4879 5.71532V6.06078C20.288 6.08956 20.4023 6.37745 20.3452 6.60775C20.3166 6.7517 18.6021 13.4594 18.6021 13.4594C18.2592 14.8124 18.1735 15.0427 17.3163 15.0427V15.4745H21.6025V15.273C21.0024 15.1579 20.2023 15.4745 21.0024 12.9988L21.2024 12.3078C21.5739 12.5381 22.0882 12.7397 22.4597 12.7397C24.4314 12.7397 25.5458 11.0699 26.4316 9.60174C26.203 10.3214 25.9172 11.3866 26.0315 11.8472C26.1744 12.3654 26.5745 12.7684 27.2888 12.7684C28.2032 12.7684 28.6604 12.3366 29.4891 11.473C29.8891 12.5957 30.4606 12.7397 31.4036 12.7397C32.518 12.7397 33.0323 12.1639 33.9181 10.926C33.9467 10.8972 34.0324 10.926 34.0039 10.9548C33.9181 11.2427 33.9181 11.473 33.9181 11.6169C33.8896 12.423 34.3468 12.7972 35.1183 12.7397C35.9469 12.6821 36.6899 12.279 37.69 10.7533L37.3757 10.4654C36.947 11.0699 36.6327 11.5306 36.2898 11.473C36.147 11.4442 36.0898 11.3866 36.0898 11.2715C36.0612 10.7245 37.4614 6.03199 37.4614 6.03199C37.49 6.06078 37.5471 6.08956 37.5757 6.11835C38.0615 6.43502 38.4615 8.59414 39.0616 12.3078C39.1187 12.6533 39.1759 13.7472 38.3186 14.2366C37.89 14.467 37.49 13.7185 36.5756 13.7185C36.0612 13.7185 35.6326 14.1503 35.604 14.6109C35.604 15.3882 36.147 15.7336 36.8327 15.7336C37.89 15.7336 38.5186 15.2155 39.5759 14.1791C41.6904 11.473 44.205 7.12594 43.6906 5.80168H44.6908L43.5192 10.2639C43.3763 10.7821 43.1763 11.329 43.1763 11.7609C43.1763 12.3366 43.5764 12.7397 44.0621 12.7397C45.0337 12.7397 46.0338 11.8184 46.491 11.1851C46.691 12.1927 47.2053 12.7684 48.4626 12.7684C49.8913 12.7684 51.3486 12.1063 52.3488 11.0699C52.6345 12.1351 53.606 12.826 54.9491 12.7972C56.1206 12.7684 56.9493 12.1639 57.8637 11.2715L57.435 12.7397H58.7209C59.4638 10.4942 59.3495 9.88962 59.9782 8.91082C61.0069 7.78807 62.6928 6.40623 63.2643 6.40623C63.6357 6.40623 63.7215 6.57896 63.7215 6.80927C63.7215 6.86685 63.6929 7.06837 63.6072 7.32746L62.6071 10.5805C62.407 11.3578 62.1499 11.9624 62.1499 12.1639C62.1499 12.5669 62.4928 12.7397 62.8928 12.7397C63.6072 12.7397 64.1787 12.3654 65.4074 11.0987L65.3216 10.8108ZM48.5198 8.27747C49.2341 6.46381 50.3485 5.77289 51.3486 5.77289C51.863 5.77289 52.0344 6.20472 52.0344 6.57897C52.0344 7.06837 51.6344 7.55777 51.0915 8.01838C50.4343 8.56536 49.7485 8.91082 48.2054 8.99718L48.5198 8.27747ZM22.9169 11.5881C22.6312 11.876 22.4026 12.1063 22.0025 12.1063C21.631 12.1063 21.4882 11.7896 21.4882 11.5018C21.4882 11.2427 21.8311 10.1487 22.0597 9.16991C22.4311 8.10475 22.4883 7.81686 22.8598 7.18352C23.2312 6.57897 23.6027 6.40623 23.9456 6.40623C24.3742 6.40623 24.5457 6.95321 24.5457 7.52898C24.5742 7.98959 23.8313 10.6957 22.9169 11.5881ZM34.9468 6.83806C34.9182 7.75928 34.2039 9.51537 33.9753 10.0623C33.7181 10.6381 33.0895 11.4442 32.6323 11.4442C32.1751 11.4442 31.9751 11.1851 31.9751 10.523C31.9751 9.97598 32.2037 8.91082 32.7751 7.81686C33.2609 6.982 33.661 6.0032 34.4039 6.0032C34.7754 6.0032 34.9468 6.43502 34.9468 6.83806ZM18.3164 5.91683C17.3448 3.70014 13.4301 3.21074 9.20108 4.70773C8.62959 4.44863 7.51518 3.64256 7.51518 3.64256C6.85796 3.12437 6.05787 3.61377 6.05787 4.2759V6.14714C2.4289 8.27748 0.314372 11.3002 1.25733 13.4306C2.3146 15.8776 7.00083 16.1943 11.7156 14.1215C16.4019 12.0487 19.3736 8.39263 18.3164 5.91683ZM7.00083 5.42743C7.00083 4.96682 7.54375 4.62136 8.00095 4.99561L12.4014 7.61534C12.9444 7.87444 12.8872 8.36384 12.4014 8.62293L7.88665 11.2427C7.4866 11.473 7.00083 11.1851 7.00083 10.7245V5.42743ZM7.00083 14.87C5.8007 15.1003 4.45769 14.87 4.02907 14.5533C2.34317 13.373 3.14326 11.7609 3.14326 11.7609C3.14326 11.7609 3.11469 13.2291 4.88631 13.8336C7.68663 14.8124 11.287 12.9988 11.3728 13.1427C11.4299 13.2291 9.00106 14.4957 7.00083 14.87ZM11.9442 11.9624C9.20108 13.776 6.00072 14.3518 4.91489 12.8836C4.28625 12.02 4.77201 10.523 6.0293 9.11233V12.02C6.0293 12.6821 6.74366 13.0851 7.28658 12.7397L13.8016 8.91082C14.4874 8.53657 14.5445 7.81686 13.773 7.44261C13.773 7.44261 11.8299 6.43502 11.1442 5.94562C12.8301 5.48501 14.3445 5.60016 15.0017 6.52139C15.9161 7.75928 14.6874 10.1487 11.9442 11.9624ZM16.6876 6.60775C16.6591 6.72291 16.6019 6.72291 16.5448 6.60775C16.3447 6.20472 15.3732 5.16834 13.3158 5.13955C12.4014 5.13955 11.4013 5.31228 10.6298 5.48501C10.4869 5.36986 10.3155 5.2547 10.144 5.13955C10.5155 4.99561 11.0299 4.82288 11.7442 4.62136C13.0872 4.24711 14.5731 4.30469 15.116 4.50621C16.4305 5.05319 16.7734 6.11835 16.6876 6.60775Z" fill="#F7F7F7"/>
</svg>
