<svg width="109" height="70" viewBox="0 0 109 70" fill="none" xmlns="http://www.w3.org/2000/svg">
<g clip-path="url(#clip0_472_55779)">
<path d="M8.43156 69.0227C4.26048 69.0227 0.865234 65.6274 0.865234 61.4563V7.68547C0.865234 3.51439 4.26048 0.119141 8.43156 0.119141H100.61C104.781 0.119141 108.177 3.51439 108.177 7.68547V61.4563C108.177 65.6274 104.781 69.0227 100.61 69.0227H8.43156Z" fill="url(#paint0_linear_472_55779)"/>
<path d="M100.61 0.235329C102.592 0.235329 104.459 1.01117 105.872 2.42457C107.285 3.83798 108.061 5.7046 108.061 7.68644V61.4573C108.061 63.4391 107.285 65.3058 105.872 66.7192C104.459 68.1326 102.592 68.9084 100.61 68.9084H8.43155C6.44971 68.9084 4.5831 68.1326 3.16969 66.7192C1.75628 65.3058 0.980447 63.4391 0.980447 61.4573V7.68644C0.980447 5.7046 1.75628 3.83798 3.16969 2.42457C4.5831 1.01117 6.44971 0.235329 8.43155 0.235329H100.61ZM100.61 0.00488281H8.43155C4.2067 0.00488281 0.75 3.46158 0.75 7.68644V61.4573C0.75 65.6822 4.2067 69.1389 8.43155 69.1389H100.61C104.835 69.1389 108.292 65.6822 108.292 61.4573V7.68644C108.292 3.46158 104.835 0.00488281 100.61 0.00488281Z" fill="#BCBEC0"/>
<path d="M53.53 48.4401C54.7821 47.9869 56.0112 47.0421 57.0789 46.0742C60.0747 43.3472 63.2318 38.7152 62.986 33.077C62.7325 27.1391 59.5447 23.3368 55.3045 20.9632C56.5335 21.232 57.5398 22.0463 58.477 22.8068C61.1962 25.0114 63.2626 28.4143 63.3547 33.2229C63.47 39.6063 60.0747 43.9618 56.7102 46.9576C57.7626 46.4352 58.5845 45.4596 59.368 44.5225C61.5957 41.857 63.6543 38.0546 63.6543 33.2998C63.6543 26.6014 59.8673 22.753 55.4581 20.2258C56.9176 20.6482 58.2158 21.5162 59.2989 22.4457C61.9644 24.7118 64.3457 28.6985 64.023 33.968C63.7081 39.1838 61.3959 43.2934 58.2619 46.2969C55.1278 49.3081 50.8338 51.4513 45.8562 51.9122C45.3569 51.9582 44.5887 51.9582 44.0126 51.9122C36.3003 51.2746 30.7081 46.3353 30.132 38.769C30.0706 37.9701 30.0706 37.2097 30.132 36.4031C30.47 31.6252 32.6132 27.8228 35.4477 24.8808C38.528 21.6852 42.4225 19.2732 47.8534 18.8968C47.984 18.3054 48.1453 17.6217 48.2221 17.1992C50.0119 19.0966 52.1858 21.1706 54.4211 23.4059C51.7172 24.7886 49.0901 26.2481 46.4476 27.6922C46.5091 27.1468 46.632 26.5323 46.6627 26.1405C42.1229 26.9394 38.3052 30.2348 37.5063 34.8591C36.5384 40.4897 40.3024 44.799 45.7025 44.8298C51.1641 44.8605 55.8038 40.6433 56.6334 35.8193C57.3017 31.9248 55.5887 29.1978 53.3841 27.4003C55.4351 28.76 57.6627 31.2104 57.3708 34.8591C56.9176 40.5588 51.5482 45.306 45.9253 45.3444C42.8527 45.3675 40.1257 43.9925 38.1669 41.7264C40.0105 44.3996 43.2214 45.813 46.8855 45.5672C49.7584 45.3751 52.1858 43.9617 53.9756 42.2411C55.8038 40.482 57.2249 38.047 57.5936 35.5197C57.7318 34.5672 57.7472 33.4995 57.5936 32.4932C57.148 29.5358 55.3506 28.1685 53.7144 26.2711C56.0496 28.1377 58.5 30.6189 58.3387 34.6363C58.0929 40.5051 52.4777 45.6824 46.5936 46.0819C42.7375 46.343 40.3562 45.0295 38.3206 43.1245C40.2486 45.5672 43.8897 46.827 47.6997 46.2278C53.1306 45.3752 57.97 40.843 58.5538 35.2278C59.0838 30.1503 56.5182 27.7998 54.0677 25.3109C56.6795 27.2851 58.9071 29.482 59.0684 33.5225C59.2144 37.0407 57.4937 40.482 55.3045 42.6789C51.794 46.1971 44.9574 48.5092 39.6495 45.2676C44.1739 48.7243 51.2025 46.7425 54.9358 43.3472C57.6397 40.8891 59.6215 37.6091 59.2912 32.716C59.03 28.7753 56.7947 26.7704 54.2675 24.6657C56.8638 26.0023 59.3757 28.6601 59.7367 32.4932C60.2053 37.5169 57.8932 41.2425 55.0817 43.7159C51.6788 46.7194 46.8932 48.5016 41.493 47.1112C50.419 49.8919 58.7689 43.2627 59.9518 35.5889C60.8045 30.0735 57.993 26.8242 55.2968 24.5121C55.0203 24.2739 54.8666 24.1049 54.4902 23.7746C58.3233 25.7718 61.5112 30.181 60.2514 36.4031C58.7842 43.6545 51.5252 49.5309 42.1537 47.9946C43.5133 48.54 45.1034 48.4247 46.4784 48.3479C50.7416 48.1098 54.5978 45.982 56.6641 43.6852C59.1683 40.9045 61.1578 37.3863 60.7737 32.3242C60.4281 27.746 57.8701 25.5491 54.736 23.1217C56.0496 23.5903 57.1865 24.5197 58.139 25.5491C59.7137 27.2544 60.9965 29.5896 61.2116 32.4778C61.5957 37.6936 59.1913 41.5728 56.5566 44.2921C53.7528 47.188 49.9428 49.0469 45.1111 49.093C52.6927 49.3235 57.7318 44.6684 60.1746 39.4911C61.5726 36.526 61.9797 32.3472 60.8429 29.0749C59.7905 26.0637 57.3785 23.9974 55.0049 22.3228C59.1453 24.5351 62.6327 28.6908 61.8722 35.128C61.588 37.5707 60.8045 39.5679 59.7137 41.4038C57.4553 45.1908 53.7528 47.864 49.6124 49.3081C52.6851 48.6398 55.5964 46.8039 57.7395 44.4303C60.3589 41.5344 62.3792 37.8626 62.2409 32.762C62.095 27.2697 58.6997 24.0973 55.2277 21.6084C55.2814 21.6084 55.3506 21.6392 55.3582 21.6468C59.1453 23.4981 62.0105 26.7243 62.6096 31.725C63.5545 39.6601 58.3464 45.4289 53.53 48.4401Z" fill="#26428E"/>
<path d="M15.0376 35.9969C15.1528 36.0122 15.1682 36.0199 15.4447 36.0276C18.1486 36.1275 18.863 35.4592 19.2778 34.9522C19.9154 34.161 19.9307 32.3942 19.9307 30.7657C19.9307 29.4061 19.9845 28.3 18.9936 27.2322C18.3483 26.5332 16.7659 26.2951 15.0222 26.2951L15.0299 26.7944V35.9969H15.0376ZM6.35742 50.6226V20.6952H14.1081C16.9656 20.6952 19.6311 20.6338 20.9985 20.8873C22.3658 21.1331 24.1402 21.786 25.0774 22.3698C26.3141 23.1303 27.2666 24.2595 27.9119 25.7497C28.5648 27.2476 28.8874 29.0297 28.8874 31.1037C28.8874 34.5144 28.1423 37.1875 26.3371 38.962C24.532 40.7364 20.5529 41.4892 17.0655 41.4892H15.0837V50.6226H6.35742ZM86.1688 50.492H66.5424V20.5186H76.2212V41.5046H86.1688V50.492ZM97.1227 50.5381H87.851V30.8579H97.1227V50.5381ZM97.1918 28.7916H87.7204V20.6568H97.1918V28.7916ZM101.309 47.6268H98.5668V48.1952H99.5884V50.3844H100.295V48.1952H101.301L101.309 47.6268ZM104.067 50.4305V49.1016L103.667 49.7776L103.229 49.7545L102.838 49.1016V50.4305H102.146V47.6344H102.822L103.452 48.8635L104.082 47.6344H104.758V50.4305H104.067Z" fill="#131413"/>
</g>
<defs>
<linearGradient id="paint0_linear_472_55779" x1="54.5209" y1="69.0227" x2="54.5209" y2="0.119141" gradientUnits="userSpaceOnUse">
<stop stop-color="#CDCCCC"/>
<stop offset="0.6582" stop-color="white"/>
</linearGradient>
<clipPath id="clip0_472_55779">
<rect width="107.542" height="69.134" fill="white" transform="translate(0.75)"/>
</clipPath>
</defs>
</svg>
