<?xml version="1.0" encoding="utf-8"?><svg viewBox="0 0 213 32" xmlns="http://www.w3.org/2000/svg" xmlns:xlink="http://www.w3.org/1999/xlink"><style>:root>svg{display:none}:root>svg:target{display:block}</style><svg fill="none" viewBox="0 0 33 32" id="18plus" xmlns="http://www.w3.org/2000/svg"><g clip-path="url(#aa)" fill="#fff" fill-opacity=".6"><path d="M16 32C7.186 32 0 24.814 0 16S7.186 0 16 0c1.724 0 3.45.287 5.078.814a1.358 1.358 0 0 1 .862 1.725 1.358 1.358 0 0 1-1.724.862c-1.342-.479-2.779-.67-4.216-.67C8.67 2.683 2.683 8.67 2.683 16c0 7.33 5.988 13.317 13.317 13.317 7.33 0 13.317-5.988 13.317-13.317 0-1.15-.143-2.3-.43-3.401a1.329 1.329 0 0 1 .957-1.629 1.329 1.329 0 0 1 1.63.958c.334 1.341.526 2.73.526 4.12C32 24.814 24.814 32 16 32Z"/><path d="M13.317 22.946h-2.634v-9.964c-.958.91-2.108 1.58-3.402 2.012v-2.395c.671-.24 1.438-.671 2.252-1.294.814-.623 1.341-1.341 1.677-2.203h2.155v13.844h-.048Z"/><path fill-rule="evenodd" clip-rule="evenodd" d="M10.868 8.602h2.997v14.844h-3.682v-9.392a9.757 9.757 0 0 1-2.743 1.414l-.659.22v-3.442l.332-.118c.61-.218 1.33-.62 2.116-1.22.743-.568 1.213-1.212 1.515-1.988l.124-.318Zm.673 1c-.372.81-.92 1.5-1.704 2.1-.718.55-1.413.965-2.056 1.238v1.333a8.382 8.382 0 0 0 2.557-1.654l.845-.802v10.629h1.682V9.602h-1.324Z"/><path d="M17.293 15.473c-.67-.288-1.197-.67-1.485-1.198-.287-.527-.479-1.054-.479-1.676 0-1.006.336-1.869 1.054-2.54.719-.67 1.725-1.005 3.066-1.005 1.293 0 2.347.335 3.066 1.006a3.37 3.37 0 0 1 1.102 2.539c0 .622-.144 1.197-.48 1.724-.335.48-.814.862-1.389 1.15a3.522 3.522 0 0 1 1.725 1.341c.383.575.575 1.246.575 2.06 0 1.294-.383 2.3-1.198 3.114-.814.814-1.868 1.197-3.257 1.197-1.246 0-2.3-.335-3.114-1.005-1.006-.767-1.485-1.82-1.485-3.21 0-.767.191-1.437.575-2.06.335-.575.91-1.054 1.724-1.437Zm.288 3.257c0 .719.191 1.294.575 1.725.383.431.814.623 1.389.623.527 0 1.006-.192 1.341-.575.335-.383.527-.958.527-1.677 0-.623-.192-1.15-.527-1.533a1.843 1.843 0 0 0-1.39-.575c-.622 0-1.149.24-1.436.671-.336.335-.48.814-.48 1.341Zm.24-5.892c0 .527.143.958.43 1.246.288.287.671.43 1.198.43.479 0 .91-.143 1.198-.43.287-.288.43-.719.43-1.246 0-.479-.143-.91-.43-1.197-.288-.288-.671-.432-1.198-.432-.527 0-.91.144-1.198.431-.287.288-.43.72-.43 1.198Z"/><path fill-rule="evenodd" clip-rule="evenodd" d="M19.449 9.554c-1.259 0-2.127.313-2.725.871-.605.566-.895 1.29-.895 2.174 0 .51.154.953.418 1.437.212.388.624.712 1.243.977l1.023.439-1.007.473c-.754.355-1.236.776-1.505 1.237l-.006.01a3.315 3.315 0 0 0-.501 1.798c0 1.255.422 2.152 1.288 2.812l.008.006.007.006c.707.582 1.642.891 2.796.891 1.288 0 2.203-.35 2.904-1.05.707-.708 1.05-1.58 1.05-2.76 0-.731-.17-1.302-.49-1.784a3.024 3.024 0 0 0-1.484-1.15l-1.074-.403 1.026-.512c.512-.257.919-.587 1.197-.98.273-.434.395-.91.395-1.447a2.87 2.87 0 0 0-.943-2.174c-.597-.557-1.511-.871-2.725-.871Zm-3.407.14c.839-.783 1.983-1.14 3.407-1.14 1.373 0 2.566.356 3.407 1.14a3.87 3.87 0 0 1 1.26 2.905c0 .704-.163 1.375-.557 1.993l-.006.009-.006.009c-.217.31-.483.582-.785.816.465.303.841.682 1.127 1.11.446.67.659 1.44.659 2.338 0 1.407-.423 2.546-1.344 3.467-.928.928-2.12 1.344-3.611 1.344-1.334 0-2.505-.36-3.425-1.114-1.14-.873-1.674-2.08-1.674-3.601 0-.856.215-1.616.646-2.317.266-.454.647-.842 1.127-1.171a2.843 2.843 0 0 1-.898-.967c-.31-.57-.54-1.181-.54-1.916 0-1.128.382-2.129 1.213-2.905Zm1.856 1.593c.402-.402.925-.578 1.551-.578.626 0 1.149.176 1.551.578.407.407.578.98.578 1.551 0 .611-.167 1.189-.578 1.6-.407.406-.98.577-1.551.577-.626 0-1.149-.175-1.551-.578-.41-.41-.578-.988-.578-1.599 0-.57.171-1.144.578-1.551Zm1.551.422c-.428 0-.672.113-.844.285-.168.168-.285.457-.285.844 0 .443.12.728.285.892.172.172.416.285.844.285.387 0 .676-.117.844-.285.164-.164.285-.45.285-.892 0-.387-.117-.676-.285-.844-.172-.172-.416-.285-.844-.285Zm-1.777 5.362c.407-.577 1.098-.853 1.825-.853.712 0 1.269.248 1.743.722l.011.011.011.013c.426.487.651 1.136.651 1.862 0 .802-.213 1.506-.65 2.006-.444.506-1.068.746-1.718.746-.717 0-1.284-.252-1.763-.79-.483-.544-.701-1.248-.701-2.058 0-.595.158-1.204.59-1.66Zm1.825.147c-.501 0-.85.19-1.021.448l-.028.042-.035.035c-.212.211-.332.544-.332.987 0 .628.165 1.074.448 1.393.288.323.583.455 1.016.455.403 0 .737-.144.965-.404.233-.267.403-.712.403-1.348 0-.511-.154-.912-.393-1.191a1.342 1.342 0 0 0-1.023-.417Z"/><path d="M30.707 3.832H29.03V2.156c0-.767-.623-1.342-1.341-1.342-.767 0-1.342.623-1.342 1.342v1.676h-1.676c-.767 0-1.342.623-1.342 1.342 0 .718.623 1.341 1.342 1.341h1.676v1.677c0 .766.623 1.341 1.342 1.341.766 0 1.34-.623 1.34-1.341V6.515h1.678c.766 0 1.34-.623 1.34-1.341 0-.719-.622-1.342-1.34-1.342Z"/></g><defs><clipPath id="aa"><path fill="#fff" d="M0 0h32.048v32H0z"/></clipPath></defs></svg><svg fill="none" viewBox="0 0 13 12" id="AE" xmlns="http://www.w3.org/2000/svg"><g clip-path="url(#ba)"><path d="M6.913 12a6 6 0 1 0 0-12 6 6 0 0 0 0 12Z" fill="#F0F0F0"/><path d="m4.304 8.087.522 3.54a6.002 6.002 0 0 0 7.714-3.54H4.304Z" fill="#000"/><path d="m4.304 3.913.522-3.54a6.002 6.002 0 0 1 7.714 3.54H4.304Z" fill="#6DA544"/><path d="M.913 6a6.002 6.002 0 0 0 3.913 5.627V.373A6.002 6.002 0 0 0 .913 6Z" fill="#A2001D"/></g><defs><clipPath id="ba"><path fill="#fff" transform="translate(.913)" d="M0 0h12v12H0z"/></clipPath></defs></svg><svg fill="none" viewBox="0 0 13 12" id="NZ" xmlns="http://www.w3.org/2000/svg"><g clip-path="url(#ca)"><path d="M12.109 6a6 6 0 0 1-12 0l6-6a6 6 0 0 1 6 6Z" fill="#0052B4"/><path d="M6.093 6h.016v-.016L6.093 6ZM6.109 3.13V0h-.001a6 6 0 0 0-6 6H3.24V4.237L5.002 6h1.09l.017-.016v-1.09L4.346 3.13h1.763Z" fill="#F0F0F0"/><path d="M3.144.782A6.029 6.029 0 0 0 .891 3.035V6h1.566V2.348h3.652V.781H3.144Z" fill="#D80027"/><path d="M6.109 5.262 3.977 3.13H3.24L6.11 6v-.738ZM10.5 4.452l.129.399h.419l-.34.246.13.399-.339-.247-.339.247.13-.399-.34-.246h.42l.13-.399ZM9.001 7.321l.195.598h.628l-.508.37.194.598L9 8.517l-.508.37.194-.598-.509-.37h.629l.194-.598ZM9.058 2.626l.162.498h.524l-.424.308.162.498-.424-.308-.424.308.162-.498-.424-.308h.524l.162-.498ZM7.616 4.435l.195.597h.628l-.508.37.194.598-.509-.37-.508.37.194-.598-.509-.37h.63l.193-.597Z" fill="#D80027"/></g><defs><clipPath id="ca"><path fill="#fff" transform="translate(.109)" d="M0 0h12v12H0z"/></clipPath></defs></svg><svg fill="none" viewBox="0 0 18 18" id="RollUp" xmlns="http://www.w3.org/2000/svg"><path d="M2.25 4.5h13.5M2.25 9h13.5m-5.25 4.5h5.25" stroke="#fff" stroke-opacity=".8" stroke-linecap="round" stroke-linejoin="round"/></svg><svg fill="none" viewBox="0 0 12 12" id="SA" xmlns="http://www.w3.org/2000/svg"><g clip-path="url(#ea)"><path d="M6 12A6 6 0 1 0 6 0a6 6 0 0 0 0 12Z" fill="#6DA544"/><path d="M3.391 7.174c0 .432.35.782.783.782h2.348c0 .36.292.653.652.653h.782c.36 0 .653-.292.653-.653v-.782H3.39ZM8.674 3.392v1.826a.522.522 0 0 1-.522.521v.783c.72 0 1.304-.585 1.304-1.304V3.392h-.782ZM3.065 5.218a.522.522 0 0 1-.522.521v.783c.72 0 1.305-.585 1.305-1.304V3.392h-.783v1.826Z" fill="#F0F0F0"/><path d="M7.5 3.392h.783v1.826H7.5V3.392ZM6.326 4.435a.13.13 0 0 1-.26 0V3.392h-.783v1.043a.13.13 0 0 1-.261 0V3.392h-.783v1.043a.914.914 0 0 0 1.435.749.908.908 0 0 0 .637.157.522.522 0 0 1-.507.398v.783c.72 0 1.305-.585 1.305-1.304V3.392h-.783v1.043Z" fill="#F0F0F0"/><path d="M4.24 5.74h1.173v.782H4.24v-.783Z" fill="#F0F0F0"/></g><defs><clipPath id="ea"><path fill="#fff" d="M0 0h12v12H0z"/></clipPath></defs></svg><svg fill="none" viewBox="0 0 12 12" id="arrowDown" xmlns="http://www.w3.org/2000/svg"><path fill-rule="evenodd" clip-rule="evenodd" d="M1.646 4.146a.5.5 0 0 1 .708 0L6 7.793l3.646-3.647a.5.5 0 0 1 .708.708l-4 4a.5.5 0 0 1-.708 0l-4-4a.5.5 0 0 1 0-.708Z" fill="#fff" fill-opacity=".9"/></svg><svg fill="none" viewBox="0 0 17 16" id="checked" xmlns="http://www.w3.org/2000/svg"><g clip-path="url(#ga)"><path d="m16.111 7.057-1.09-1.09c-.26-.26-.472-.772-.472-1.139V3.285c0-.734-.6-1.333-1.333-1.334h-1.544c-.367 0-.879-.212-1.138-.471L9.443.389a1.338 1.338 0 0 0-1.886 0L6.467 1.48c-.26.259-.773.47-1.139.47H3.785c-.733 0-1.333.6-1.333 1.334v1.543c0 .366-.212.88-.471 1.138L.889 7.057a1.338 1.338 0 0 0 0 1.887l1.092 1.09c.259.26.47.773.47 1.138v1.543c0 .734.601 1.334 1.334 1.334h1.543c.367 0 .88.212 1.138.471l1.091 1.092a1.338 1.338 0 0 0 1.886 0l1.091-1.092c.26-.259.771-.47 1.138-.47h1.544c.733 0 1.333-.601 1.333-1.335v-1.543c0-.367.213-.879.471-1.137l1.091-1.091a1.34 1.34 0 0 0 0-1.887ZM7.441 11 4.5 8.058l.943-.943 1.999 2L11.557 5l.943.943L7.442 11Z" fill="#54DB78"/></g><defs><clipPath id="ga"><path fill="#fff" transform="translate(.5)" d="M0 0h16v16H0z"/></clipPath></defs></svg><svg fill="none" viewBox="0 0 75 32" id="dmca-seal" xmlns="http://www.w3.org/2000/svg"><g clip-path="url(#ha)" fill="#fff" fill-opacity=".6"><path d="M63.002 19.23h2.577l-1.307-4.256-1.27 4.256ZM17.672 14.6h-.896v6.46h.896c.747 0 1.307-.075 1.643-.262.336-.187.56-.448.747-.896.186-.41.261-1.12.261-2.054 0-1.27-.187-2.128-.597-2.576-.411-.448-1.083-.672-2.054-.672Z"/><path d="M70.62 4.331H7.44c1.158.934 1.904 2.352 1.942 4.182H7.068C6.993 6.385 5.425 4.704 3.52 4.704 1.765 4.704.272 6.161.01 8.102v1.643h10.344a1.1 1.1 0 0 1 1.12 1.12v13.779c0 .597-.486 1.12-1.12 1.12H.048v2.502A3.745 3.745 0 0 0 3.782 32H70.62a3.745 3.745 0 0 0 3.734-3.734V8.028c0-2.017-1.68-3.697-3.734-3.697ZM23.572 20.723c-.299.71-.672 1.27-1.195 1.755-.523.485-1.046.784-1.643.934-.784.224-1.531.336-2.166.336h-5.451V11.91h5.451c1.083 0 1.942.15 2.614.448.672.299 1.195.71 1.643 1.27a4.79 4.79 0 0 1 .934 1.904c.186.71.298 1.493.298 2.278-.037 1.232-.186 2.24-.485 2.912Zm14.786 3.025h-2.987V14.71l-2.315 9.037H30.33l-2.277-9.037v9.037h-2.988V11.91h4.817l1.867 7.207 1.83-7.207h4.817v11.837h-.038Zm15.123 2.09a9.146 9.146 0 0 1-4.63 1.233 9.146 9.146 0 0 1-4.63-1.232c-1.42-.822-2.577-1.942-3.398-3.398a9.147 9.147 0 0 1-1.233-4.63c0-1.643.411-3.212 1.233-4.63.821-1.457 1.979-2.577 3.398-3.398a9.147 9.147 0 0 1 4.63-1.233c1.643 0 3.21.411 4.63 1.233 1.419.821 2.576 1.941 3.398 3.398.821 1.456 1.232 2.987 1.232 4.63 0 1.643-.41 3.21-1.232 4.63-.822 1.419-1.942 2.576-3.398 3.398Zm13.48-2.09-.598-1.942h-4.145l-.56 1.942h-3.734l4.444-11.837h3.995l4.443 11.837H66.96Z"/><path d="M48.85 10.306c-2.053 0-3.845.747-5.302 2.203-1.456 1.456-2.203 3.21-2.203 5.302 0 2.054.747 3.846 2.203 5.302 1.457 1.456 3.212 2.203 5.303 2.203 2.09 0 3.846-.747 5.302-2.203 1.456-1.456 2.203-3.211 2.203-5.302 0-2.054-.747-3.846-2.203-5.302-1.456-1.457-3.249-2.203-5.302-2.203Zm3.399 11.5c-.86.822-1.98 1.232-3.324 1.232-1.493 0-2.688-.485-3.659-1.456-.933-.97-1.419-2.24-1.419-3.808 0-1.494.486-2.726 1.456-3.697.971-.97 2.166-1.456 3.622-1.456 1.158 0 2.166.298 2.95.933.784.635 1.307 1.42 1.531 2.427l-2.39.374c-.149-.672-.41-1.158-.784-1.457a2.246 2.246 0 0 0-1.419-.485c-.634 0-1.157.261-1.605.822-.448.522-.635 1.381-.635 2.539 0 1.157.15 1.979.448 2.464.41.71 1.046 1.083 1.83 1.083.485 0 .933-.187 1.344-.56.41-.374.672-.971.859-1.793l2.502.598c-.337.933-.785 1.718-1.307 2.24ZM3.222.037h1.643c.373 0 .634.075.821.261.187.187.261.411.261.747s-.112.56-.298.747c-.187.187-.486.261-.896.261h-.56v1.195h-.971V.038ZM4.23 1.42h.261c.187 0 .336-.038.411-.112a.339.339 0 0 0 .112-.262.339.339 0 0 0-.112-.261C4.827.709 4.715.672 4.529.672h-.3v.747ZM6.545 3.248V.038h1.643c.299 0 .523.036.71.074.186.037.298.15.373.299.074.149.15.298.15.522a.796.796 0 0 1-.113.448 1.136 1.136 0 0 1-.299.3 1.736 1.736 0 0 1-.336.111c.112.037.187.075.262.112.037.037.074.075.149.187.075.074.112.15.15.186l.485.934h-1.12l-.523-.97c-.075-.113-.112-.225-.187-.262-.075-.038-.15-.075-.261-.075h-.112v1.307h-.971v.037Zm.97-1.904h.411c.038 0 .15 0 .262-.037.075 0 .112-.038.15-.112.037-.075.074-.112.074-.187 0-.112-.037-.187-.112-.224a.803.803 0 0 0-.374-.075h-.41v.635ZM9.868 1.643c0-.523.15-.934.448-1.232.299-.299.672-.411 1.195-.411s.934.15 1.232.448c.299.299.448.672.448 1.195 0 .373-.074.672-.186.933-.112.262-.336.411-.56.523a2 2 0 0 1-.897.187 2 2 0 0 1-.896-.187 1.396 1.396 0 0 1-.56-.485c-.15-.224-.224-.56-.224-.971Zm.971.037c0 .336.075.56.187.71.112.15.298.224.485.224.224 0 .373-.075.486-.224.111-.15.186-.374.186-.747 0-.299-.075-.523-.187-.672-.112-.15-.26-.224-.485-.224a.602.602 0 0 0-.485.224c-.112.15-.187.373-.187.71ZM13.415.037h3.025v.784h-1.008v2.427h-1.008V.858h-1.009v-.82ZM16.963.037h2.65v.71h-1.68v.522h1.531v.672h-1.53v.635h1.717v.71h-2.688V.037ZM22.377 1.942l.859.261c-.075.261-.15.448-.262.597-.112.15-.298.3-.485.374-.187.075-.41.15-.71.15-.336 0-.634-.038-.858-.15a1.25 1.25 0 0 1-.56-.523c-.15-.261-.224-.597-.224-.97 0-.523.149-.934.41-1.233C20.846.15 21.22 0 21.742 0c.41 0 .71.075.97.261.262.187.412.411.524.747l-.86.187a.606.606 0 0 0-.111-.224.45.45 0 0 0-.187-.187c-.075-.037-.187-.037-.299-.037-.224 0-.41.074-.522.261-.075.15-.15.336-.15.635 0 .373.038.597.15.747.112.15.261.186.448.186.186 0 .336-.037.448-.149.112-.112.187-.261.224-.485ZM23.572.037h2.987v.784H25.55v2.427h-1.008V.858h-.971v-.82ZM27.081.037h2.652v.71h-1.68v.522h1.53v.672h-1.53v.635h1.717v.71h-2.689V.037ZM30.405.037h1.456c.299 0 .523.037.71.112.186.075.336.224.448.374.112.149.186.336.26.522.076.187.076.411.076.635 0 .336-.038.597-.112.784a1.02 1.02 0 0 1-.337.448c-.149.112-.298.224-.447.262-.225.074-.411.074-.598.074h-1.456V.038Zm.97.747v1.755h.262c.224 0 .336-.037.448-.075.112-.037.15-.112.224-.224.075-.112.075-.299.075-.56 0-.336-.038-.56-.15-.71-.112-.149-.298-.186-.56-.186h-.298ZM38.022 1.718l.71.149a2.572 2.572 0 0 1-.112.299c-.038.074-.075.186-.15.261l.336.224a.516.516 0 0 0 .15.112l-.486.56c-.074-.037-.186-.112-.261-.15-.075-.036-.187-.111-.261-.148-.15.112-.3.186-.449.224a2.245 2.245 0 0 1-.746.112c-.411 0-.747-.075-.971-.262a.788.788 0 0 1-.299-.635c0-.186.075-.373.187-.522.112-.15.336-.3.597-.411-.112-.15-.186-.261-.224-.373A1.091 1.091 0 0 1 35.97.82c0-.224.074-.41.26-.56.188-.149.412-.261.785-.261.373 0 .635.075.784.224.15.15.262.299.262.485a.704.704 0 0 1-.075.3 1.133 1.133 0 0 1-.187.26c-.075.075-.187.15-.373.3.15.149.336.298.485.447.038-.112.075-.224.112-.298Zm-1.344.186c-.112.075-.187.15-.261.224-.075.075-.075.112-.075.187 0 .112.037.187.15.299.111.112.223.112.373.112s.336-.075.523-.187c-.187-.112-.411-.336-.71-.635Zm.299-.746c.112-.075.186-.15.261-.187.075-.038.112-.15.112-.224 0-.075-.037-.112-.075-.187-.037-.075-.112-.075-.224-.075-.074 0-.149.038-.224.075-.074.037-.074.112-.074.187 0 .074.074.224.224.41ZM41.047.037h1.306l.486 1.942.485-1.942h1.307v3.211h-.821V.821l-.635 2.465h-.747L41.868.82v2.465h-.821V.037ZM45.229 1.643c0-.523.15-.934.448-1.232.298-.299.672-.411 1.195-.411s.933.15 1.232.448c.299.299.448.672.448 1.195 0 .373-.075.672-.187.933-.112.262-.298.411-.56.56-.261.15-.523.187-.896.187a2 2 0 0 1-.896-.186 1.498 1.498 0 0 1-.56-.523c-.15-.224-.224-.56-.224-.971Zm1.008.037c0 .336.075.56.187.71.112.15.298.224.485.224.224 0 .373-.075.486-.224.111-.15.186-.374.186-.747 0-.299-.075-.523-.187-.672-.112-.15-.298-.224-.522-.224a.602.602 0 0 0-.486.224c-.112.15-.15.373-.15.71ZM49.15.037h.933l1.195 1.792V.037h.933v3.211h-.933l-1.195-1.755v1.755h-.934V.038ZM52.995.037h1.009v3.211h-1.009V.038ZM54.526.037h3.025v.784h-1.009v2.427h-1.008V.858h-1.008v-.82ZM57.775 1.643c0-.523.149-.934.448-1.232C58.52.112 58.895 0 59.418 0c.522 0 .933.15 1.232.448.299.299.448.672.448 1.195 0 .373-.075.672-.187.933-.112.262-.299.411-.56.56-.261.15-.523.187-.896.187a2 2 0 0 1-.896-.186 1.347 1.347 0 0 1-.56-.56c-.15-.262-.224-.523-.224-.934Zm.97.037c0 .336.075.56.187.71.112.15.299.224.486.224.224 0 .373-.075.485-.224.112-.15.187-.374.187-.747 0-.299-.075-.523-.187-.672a.602.602 0 0 0-.485-.224.602.602 0 0 0-.486.224c-.112.15-.187.373-.187.71ZM61.695 3.248V.038h1.643c.299 0 .523.036.71.074.186.037.298.15.373.299.075.149.15.298.15.522a.796.796 0 0 1-.113.448 1.135 1.135 0 0 1-.298.3 1.737 1.737 0 0 1-.336.111c.112.037.186.075.261.112.037.037.075.075.15.187.074.074.111.15.149.186l.485.934h-1.12l-.523-.97c-.074-.113-.112-.225-.187-.262a.54.54 0 0 0-.26-.075h-.076v1.307h-1.008v.037Zm.971-1.904h.41c.038 0 .15 0 .262-.037.075 0 .112-.038.15-.112.037-.075.074-.112.074-.187 0-.112-.037-.187-.112-.224a.803.803 0 0 0-.373-.075h-.448v.635h.037ZM65.205.037h2.651v.71h-1.68v.522h1.531v.672h-1.53v.635h1.717v.71h-2.689V.037ZM68.529.037h1.456c.299 0 .523.037.71.112.186.075.335.187.447.336.112.15.187.336.262.523.074.187.074.41.074.635 0 .336-.037.597-.112.784a1.42 1.42 0 0 1-.336.485.939.939 0 0 1-.448.262c-.224.074-.41.074-.597.074h-1.456V.038Zm.97.747v1.755h.262c.224 0 .336-.037.448-.075.112-.037.15-.112.224-.224.075-.112.075-.299.075-.56 0-.336-.038-.56-.15-.71-.112-.149-.299-.186-.56-.186H69.5ZM5.91 21.956l-1.68-4.518c.672-.337 1.12-1.046 1.12-1.867a2.088 2.088 0 0 0-2.091-2.091 2.088 2.088 0 0 0-2.091 2.09c0 .897.56 1.643 1.344 1.942l-1.381 4.444h4.78Z"/></g><defs><clipPath id="ha"><path fill="#fff" transform="translate(.048)" d="M0 0h74.306v32H0z"/></clipPath></defs></svg><svg fill="none" viewBox="0 0 16 16" id="facebook" xmlns="http://www.w3.org/2000/svg"><path d="M6.464 8.832H4.88c-.256 0-.336-.096-.336-.336V6.56c0-.256.096-.336.336-.336h1.584V4.816c0-.64.112-1.248.432-1.808.336-.576.816-.96 1.424-1.184.4-.144.8-.208 1.232-.208h1.568c.224 0 .32.096.32.32V3.76c0 .224-.096.32-.32.32a35 35 0 0 0-1.296.016c-.432 0-.656.208-.656.656-.016.48 0 .944 0 1.44h1.856c.256 0 .352.096.352.352V8.48c0 .256-.08.336-.352.336H9.168v5.216c0 .272-.08.368-.368.368h-2c-.24 0-.336-.096-.336-.336V8.832Z" fill="#fff"/></svg><svg fill="none" viewBox="0 0 213 32" id="gambleaware" xmlns="http://www.w3.org/2000/svg"><g clip-path="url(#ja)" fill="#fff" fill-opacity=".6"><path d="M4.766 15.788c0 3.31 1.442 5.178 4.074 5.178 2.461 0 4.329-2.207 4.329-5.348 0-2.97-1.698-5.177-3.99-5.177-2.716.085-4.413 2.122-4.413 5.347Zm8.318 6.281c-.764.85-2.292 2.716-5.602 2.716-4.33 0-7.47-3.734-7.47-9.082 0-5.347 3.226-9.082 7.81-9.082 1.782 0 3.225.68 5.347 2.377V7.046h6.28v3.564h-1.697v14.26c0 4.414-3.31 7.046-8.912 7.046-2.716 0-4.838-.595-6.366-1.868-1.189-.933-1.698-1.867-2.207-4.074h4.499c.594 1.698 1.867 2.461 3.989 2.461 2.631 0 4.414-1.358 4.414-3.48-.085 0-.085-2.886-.085-2.886ZM32.267 16.807c-4.33.424-7.215.764-7.215 3.395 0 1.528 1.188 2.546 3.056 2.546 2.376 0 4.159-1.782 4.159-4.074v-1.867Zm4.329 5.177h1.612v3.565h-5.771v-2.207c-1.868 1.953-3.31 2.547-5.603 2.547-3.734 0-6.535-2.462-6.535-5.772 0-5.432 6.111-6.027 12.053-6.62 0-2.887-.764-3.566-3.396-3.566-1.867 0-3.225 1.104-3.31 2.801l-4.499-.17c.255-3.734 3.226-6.11 7.64-6.11 5.093 0 7.894 2.29 7.894 6.535l-.085 8.997ZM45.593 9.252c1.952-2.122 3.226-2.63 5.348-2.63s3.225.763 4.413 2.885c.934-.934 2.632-2.886 5.603-2.886 2.97 0 5.008 2.122 5.008 5.263v10.185h1.697v3.565h-6.281V13.072c0-1.613-.764-2.631-1.952-2.631-1.868 0-3.65 2.461-3.65 5.008v6.45h1.782v3.566h-6.366V13.242c0-1.868-.594-2.801-1.952-2.801-2.037 0-3.82 2.461-3.735 5.432V21.9h1.783v3.565h-7.894V21.9h1.528V10.61h-1.613V7.046h6.111v2.206h.17ZM74.962 16.382c0 3.82 1.528 5.857 4.498 5.857 2.547 0 4.16-2.292 4.16-5.942 0-3.65-1.613-5.942-4.16-5.942-2.885 0-4.498 2.207-4.498 6.027ZM68.765 0h6.282v9.082c1.867-1.867 3.31-2.631 5.262-2.631 4.669 0 7.979 3.99 7.979 9.591 0 5.942-3.14 9.931-7.724 9.931-2.292 0-3.565-.594-5.687-2.461v2.037h-6.281v-3.565h1.952V3.565h-1.782V0ZM89.392 0h6.28v21.984h1.783v3.565h-8.063v-3.565h1.782V3.565h-1.782V0ZM111.036 14.006c-.339-2.377-1.698-3.65-3.904-3.65-2.038 0-3.565 1.358-4.16 3.65h8.064Zm4.753 5.517c-.848 3.99-4.159 6.536-8.742 6.536-5.178 0-8.998-4.075-8.998-9.762 0-5.602 3.82-9.76 9.083-9.76 2.97 0 5.517 1.357 7.13 3.819 1.697 2.631 1.782 5.093 1.867 6.96h-13.411c.424 4.838 3.565 5.093 4.498 5.093 1.868 0 3.056-.849 3.82-2.801l4.753-.085ZM129.54 16.128l-1.613.254c-3.395.51-4.838 1.019-5.772 1.952-.509.51-.763 1.189-.763 1.783 0 1.697 1.443 3.14 3.225 3.14 2.546 0 4.923-2.291 4.923-4.583v-2.546Zm0 6.96c-1.697 1.528-3.225 2.886-6.281 2.886-3.48 0-6.027-2.377-6.027-5.602 0-1.443.51-2.632 1.359-3.65 1.442-1.443 3.48-2.122 8.403-2.632l2.461-.254v-1.189c0-2.122-1.358-3.31-3.904-3.31-2.292 0-3.396.849-3.82 3.056h-3.82c.255-1.952.764-2.971 1.783-3.99 1.443-1.273 3.48-1.952 6.111-1.952 4.584 0 7.3 2.292 7.3 6.196v9.931h2.207v2.971h-5.857l.085-2.461ZM135.057 6.96h7.13v2.97h-2.037l3.056 12.563 3.565-15.533h3.48l3.565 15.533 3.056-12.562h-2.037V6.96h7.045v2.97h-1.868l-4.244 15.619h-3.904l-3.395-13.92-3.311 13.92h-3.989L136.84 9.93h-1.783V6.96ZM174.866 16.128l-1.612.254c-3.396.51-4.839 1.019-5.772 1.952-.51.51-.764 1.189-.764 1.783 0 1.697 1.443 3.14 3.225 3.14 2.547 0 4.923-2.291 4.923-4.583v-2.546Zm0 6.96c-1.697 1.528-3.225 2.886-6.196 2.886-3.48 0-6.026-2.377-6.026-5.602 0-1.443.509-2.632 1.358-3.65 1.443-1.443 3.48-2.122 8.403-2.632l2.461-.254v-1.189c0-2.122-1.358-3.31-3.904-3.31-2.292 0-3.395.849-3.82 3.056h-3.819c.254-1.952.764-2.971 1.782-3.99 1.443-1.273 3.48-1.952 6.111-1.952 4.584 0 7.3 2.292 7.3 6.196v9.931h2.207v2.971h-5.857v-2.461ZM187.683 11.12c1.019-2.207 2.122-4.584 5.433-4.584.679 0 1.018.085 1.782.255v3.48c-.933-.17-1.273-.255-1.782-.255-4.159 0-5.348 4.16-5.348 5.518v7.045h2.122v2.97h-7.894v-2.97h2.122V9.847h-2.122V6.96h5.687v4.159ZM208.309 14.43c-.17-3.056-1.612-4.753-4.159-4.753-3.82 0-4.923 4.244-4.923 4.753h9.082Zm3.82 5.432c-.764 1.868-2.631 6.112-7.979 6.112-5.263 0-8.827-3.99-8.827-9.931 0-5.518 3.819-9.507 8.912-9.507 2.971 0 8.233 1.698 8.233 10.44h-13.411c.17 4.16 2.801 5.857 5.263 5.857 1.952 0 3.14-.933 3.819-3.055h3.99v.084Z"/></g><defs><clipPath id="ja"><path fill="#fff" transform="translate(.012)" d="M0 0h212.371v32H0z"/></clipPath></defs></svg><svg fill="none" viewBox="0 0 52 32" id="gamblers-anonymous" xmlns="http://www.w3.org/2000/svg"><g clip-path="url(#ka)"><path fill-rule="evenodd" clip-rule="evenodd" d="M39.492 18.261h-7.85v8.619H27.63V0h6.4l14.507 26.88h-4.352l-4.694-8.619Zm-7.85-3.413h5.973L31.642 4.011v10.837ZM.154 32h51.2l-2.22-4.096H2.373L.154 32Zm22.528-9.216v-4.523H15.94l1.792-3.413H26.522V26.88H2.97L17.476 0h9.046v11.52h-3.84V3.584h-2.048l-10.582 19.2h12.63Z" fill="#fff" fill-opacity=".6"/></g><defs><clipPath id="ka"><path fill="#fff" transform="translate(.154)" d="M0 0h51.2v32H0z"/></clipPath></defs></svg><svg fill="none" viewBox="0 0 100 32" id="gambling-helpline" xmlns="http://www.w3.org/2000/svg"><g clip-path="url(#la)" fill="#fff" fill-opacity=".6"><path d="M90.606 24.849c-.549 0-1.066-.01-1.583.009-.077 0-.198.12-.217.2-.172.745-.325 1.495-.484 2.242-.023.106-.05.21-.076.317h-2.299l.566-2.75h-3.195c-.143.67-.292 1.346-.432 2.023-.153.745-.15.747-.897.746-.478 0-.956-.002-1.434-.005a.798.798 0 0 1-.126-.032l.56-2.726h-2.038c-.142.646-.293 1.301-.428 1.96-.163.802-.157.804-.971.803-.478 0-.957-.002-1.435-.007a.367.367 0 0 1-.086-.029l.587-2.75c-.725 0-1.42-.006-2.116.01-.06 0-.152.135-.171.22-.19.843-.37 1.687-.554 2.543h-2.306l.585-2.771c-.56 0-1.092-.009-1.623.01-.068 0-.152.136-.196.225-.418.851-.956 1.614-1.74 2.167-1.017.722-2.113.951-3.295.462-.457-.19-.577-.353-1.008-1.076l-1.126 5.245h-2.31l1.505-7.037h-1.53c-.582 0-.577 0-.69.557-.135.663-.274 1.32-.424 1.978-.02.083-.12.211-.18.212-.705.016-1.41.01-2.166.01l.577-2.76c-.436 0-.85.031-1.26-.008-.447-.043-.68.085-.891.526-.864 1.794-2.69 2.768-4.66 2.538-.429-.05-.87-.135-1.267-.3-1.01-.418-1.455-1.27-1.614-2.304l-.067-.45c-.579 0-1.154-.008-1.727.011-.066 0-.164.148-.185.24-.169.745-.332 1.494-.478 2.243-.04.21-.125.272-.334.268-.718-.013-1.432-.005-2.202-.005l.571-2.76h-.325c-1.614 0-3.228.004-4.842-.005-.234 0-.321.06-.365.303a50.227 50.227 0 0 1-.466 2.212c-.02.089-.105.233-.162.234-.774.016-1.548.01-2.35.01l.628-2.954h62.653c-.034.12-.055.222-.093.318-.797 2.004-2.717 3.157-4.864 2.944-.906-.09-1.714-.35-2.288-1.106-.347-.455-.515-.981-.598-1.54-.018-.12-.036-.248-.058-.411Zm5.505.016h-3.223c-.08.772.378 1.323 1.122 1.365.13.008.258.008.387 0 .818-.043 1.581-.672 1.714-1.365Zm-42.51 0h-3.229c-.07.798.386 1.332 1.153 1.366.12.005.24.005.359 0 .79-.038 1.538-.624 1.717-1.365Zm11.12 0c.022.86.529 1.38 1.302 1.364.671-.015 1.487-.645 1.743-1.364h-3.044ZM12.964 4.443h-2.476c-.117-.433-.189-.858-.344-1.25-.292-.735-.885-1.11-1.656-1.184-1.503-.145-2.778.36-3.763 1.489C3.2 5.245 2.653 7.272 3.192 9.55c.292 1.23 1.14 1.906 2.405 1.907 1.708 0 3.023-.737 3.93-2.187.06-.091.1-.19.175-.334H7.31l.432-2.006h4.716l-.487 2.284c-.258 1.204-.521 2.407-.767 3.614-.039.188-.104.246-.29.239-.427-.012-.855-.003-1.326-.003l.126-1.598c-.054.027-.084.033-.099.05-1.295 1.607-3.017 2.106-4.997 1.92-.927-.086-1.783-.393-2.53-.961C1.023 11.665.5 10.546.39 9.246.158 6.538 1.052 4.205 2.9 2.25 4.18.9 5.795.182 7.657.032c.851-.07 1.689-.033 2.517.179 1.495.376 2.34 1.36 2.627 2.844.086.443.11.9.164 1.388ZM34.377 13.056h-2.308c.131-.642.263-1.269.389-1.897.259-1.295.523-2.59.766-3.887.028-.205.01-.415-.053-.613-.127-.45-.502-.624-1.027-.508a1.774 1.774 0 0 0-.974.598c-.52.598-.745 1.323-.902 2.081-.275 1.333-.558 2.663-.837 3.995-.016.075-.04.15-.06.226H27.14c.12-.593.24-1.165.355-1.734l.777-3.795a1.89 1.89 0 0 0 .033-.266c.02-.402-.018-.797-.413-1.016-.405-.225-.814-.129-1.19.094-.506.299-.81.777-.967 1.321-.239.818-.418 1.654-.606 2.486-.216.967-.41 1.938-.613 2.913h-2.312L23.96 4.78h2.128l-.149.926.538-.573c.778-.823 2.251-.903 3.064-.574.548.222.847.666.99 1.263.659-.784 1.49-1.206 2.446-1.368a3.919 3.919 0 0 1 1.185-.022c.884.124 1.415.77 1.49 1.682.065.8-.144 1.559-.303 2.326-.317 1.535-.646 3.068-.972 4.617ZM72.072 5.688l.2-.916h2.2c-.09.423-.176.825-.259 1.227-.488 2.363-.965 4.727-1.465 7.087-.532 2.51-2.31 3.903-4.903 3.807a6.226 6.226 0 0 1-1.773-.332c-1.017-.35-1.548-1.31-1.402-2.365.01-.082.13-.21.202-.213.696-.016 1.393-.009 2.093-.009.02.04.033.084.041.128 0 .658.463.957 1.123.949a4.74 4.74 0 0 0 .77-.06c.591-.106 1.033-.444 1.25-.998.223-.567.38-1.161.58-1.794-.465.33-.827.658-1.248.872-1.064.542-2.132.538-3.116-.203-.668-.505-.976-1.238-1.036-2.044-.131-1.772.299-3.402 1.425-4.8.802-.996 1.82-1.619 3.147-1.626.902-.006 1.593.358 2.058 1.136.022.038.053.074.113.154Zm-4.388 4.1c-.008.478.073.934.313 1.351.275.479.696.702 1.222.555.314-.087.652-.243.875-.47 1.07-1.096 1.521-2.426 1.307-3.95-.12-.85-.686-1.299-1.45-1.196-.465.06-.834.318-1.13.67-.737.879-1.066 1.912-1.137 3.04ZM38.778 12.125l-.167.915h-2.204c.883-4.23 1.769-8.46 2.656-12.693h2.31L40.26 5.633c.18-.16.294-.268.413-.373.79-.702 1.719-1.01 2.755-.837 1.117.187 1.734.966 2.02 2.002.445 1.614.06 3.112-.768 4.513-.598 1.004-1.375 1.838-2.485 2.279-.925.369-1.847.293-2.674-.27-.295-.2-.495-.54-.742-.822ZM43.18 7.82c-.064-.254-.131-.688-.288-1.087a1.032 1.032 0 0 0-1.05-.642c-.438.044-.837.195-1.146.516-1.096 1.143-1.456 2.532-1.243 4.065.112.81.686 1.182 1.49 1.017.329-.073.63-.233.875-.465.903-.875 1.252-2 1.362-3.406v.002ZM37.901 14.935h2.44c-.35 1.66-.694 3.297-1.047 4.963.137.006.243.015.35.015 1.584 0 3.169-.011 4.752.007.316.003.418-.1.478-.395.29-1.45.6-2.896.906-4.344.017-.077.044-.152.071-.245h2.46c-.201.965-.398 1.924-.598 2.88-.412 1.952-.83 3.904-1.237 5.86-.04.195-.114.26-.312.258-.725-.01-1.45-.004-2.222-.004l.393-1.938c-.12-.006-.205-.014-.293-.014-1.624 0-3.248.004-4.87-.005-.24 0-.325.07-.364.303-.079.479-.186.957-.3 1.428-.02.088-.136.215-.21.217-.745.016-1.49.01-2.293.01.63-3.01 1.258-5.985 1.896-8.996ZM20.76 13.05h-2.48c-.03-.334-.057-.654-.086-.995-.322.272-.598.545-.913.762-1.009.695-2.107.786-3.242.378-.732-.262-1.1-.844-1.155-1.596-.133-1.831 1.008-3.228 2.827-3.487.855-.122 1.712-.232 2.566-.358.186-.035.367-.092.538-.17.353-.146.53-.398.509-.695-.026-.371-.222-.666-.61-.708a6.583 6.583 0 0 0-1.476.008c-.523.06-.742.478-.86.957h-2.153c.06-.218.09-.419.164-.606.435-1.097 1.273-1.742 2.391-2.003 1.208-.282 2.415-.247 3.554.299.734.353 1.173.945 1.084 1.79-.095.908-.235 1.811-.395 2.709-.157.88-.366 1.749-.546 2.624-.094.47-.06.596.284 1.09ZM18.9 8.722a1.268 1.268 0 0 0-.155.056 5.353 5.353 0 0 1-1.99.664c-.94.12-1.44.683-1.438 1.495 0 .398.174.624.562.735a2.121 2.121 0 0 0 2.352-.866c.425-.62.53-1.334.67-2.084ZM59.14 4.73l-.148.991.05.033c.156-.163.299-.338.47-.486 1.041-.915 2.254-1.076 3.544-.722.787.217 1.26.883 1.212 1.783-.044.837-.191 1.674-.349 2.502-.255 1.346-.555 2.683-.837 4.023a1.89 1.89 0 0 1-.068.202h-2.29l.91-4.383c.079-.38.14-.762.228-1.136.269-1.136-.602-1.7-1.634-1.361-.704.23-1.176.734-1.425 1.394-.244.646-.396 1.328-.55 2.003-.262 1.151-.494 2.31-.741 3.479h-2.307c.107-.53.21-1.051.318-1.57.452-2.169.906-4.336 1.362-6.502.019-.09.1-.239.155-.239.693-.018 1.386-.01 2.1-.01ZM48.557 13.057h-2.312L48.955.349h2.313l-2.711 12.708ZM48.072 23.93c.139-.505.223-.964.389-1.392.625-1.615 1.674-2.838 3.357-3.408a4.477 4.477 0 0 1 2.674-.052c1.263.352 2.025 1.392 2.01 2.77-.006.633-.112 1.265-.163 1.899-.015.196-.138.182-.27.179h-7.997v.003Zm2.842-1.678h3.468c-.016-.23-.01-.44-.047-.64-.12-.663-.425-.945-1.1-.996a3.137 3.137 0 0 0-.77.054c-.766.136-1.441.827-1.551 1.582ZM98.868 23.911H90.65c.016-.184.041-.367.077-.548.462-1.853 1.452-3.301 3.243-4.096.97-.43 1.99-.459 3.008-.196 1.24.32 2.012 1.326 2.033 2.69.01.711-.092 1.424-.143 2.15Zm-5.441-1.659h3.446c0-.209.02-.399-.005-.583-.053-.385-.184-.73-.57-.92-1.096-.54-2.664.274-2.873 1.503h.002ZM89.011 23.912h-2.286c.126-.652.265-1.28.367-1.913.152-.957-.446-1.505-1.406-1.316-.742.147-1.271.598-1.565 1.264-.25.566-.381 1.186-.577 1.778-.026.08-.12.194-.187.196-.705.014-1.41.009-2.164.009.092-.45.18-.866.262-1.28.217-1.04.43-2.082.658-3.12.02-.087.126-.22.194-.222.676-.016 1.352-.01 2.05-.01l-.157 1.073c.127-.135.195-.212.267-.285 1.052-1.082 2.332-1.366 3.753-.99.973.259 1.34 1.01 1.276 2.04-.056.896-.288 1.78-.443 2.67a.536.536 0 0 1-.041.106ZM64.666 23.915h-2.2l1-4.663h2.218l-.232.977c.213-.18.359-.315.52-.435.88-.663 1.847-1.041 2.956-.761.998.253 1.51 1.016 1.808 1.94.292.907.235 1.825 0 2.735-.022.085-.123.211-.19.213-.755.015-1.51.01-2.244.01.06-.508.15-.995.168-1.484a2.859 2.859 0 0 0-.139-.908c-.233-.777-.82-1.076-1.602-.845-.565.169-.978.535-1.27 1.026-.2.332-.366.682-.498 1.046-.13.36-.195.746-.295 1.15ZM72.256 23.932l1.924-9.024h2.309c-.107.51-.207 1.003-.312 1.495-.515 2.407-1.033 4.813-1.54 7.221-.05.24-.14.323-.392.315-.645-.023-1.291-.007-1.99-.007ZM59.953 14.935h2.312l-.428 2.019c-.479 2.242-.957 4.484-1.425 6.726-.042.205-.12.256-.31.253-.666-.009-1.332-.003-2.056-.003l1.907-8.995ZM52.594 4.745h2.326l-.259 1.21c-.495 2.29-.994 4.58-1.494 6.87-.02.09-.12.228-.186.23-.718.016-1.431.01-2.184.01l1.797-8.32ZM80.144 19.311l-.636 2.97c-.105.485-.21.969-.327 1.45-.018.075-.104.19-.16.192-.718.013-1.43.008-2.2.008l.996-4.62h2.327ZM55.2 3.255h-2.332L53.37.958h2.325c-.166.775-.33 1.532-.497 2.297ZM80.416 17.836H78.09l.502-2.293h2.327l-.503 2.293Z"/><path d="M71.323 29.62h.402l.09 1.7.06.02 1.037-1.435c.052-.073.09-.168.161-.212a.49.49 0 0 1 .295-.076c.048.006.107.125.12.2.088.508.165 1.016.26 1.614.185-.292.331-.521.474-.753.172-.28.352-.554.507-.843.112-.21.254-.285.514-.195-.136.217-.263.425-.394.632-.308.488-.61.98-.932 1.458a.409.409 0 0 1-.303.156c-.06 0-.145-.157-.165-.255-.099-.493-.18-.99-.282-1.574l-.86 1.177c-.105.145-.219.285-.31.439-.116.194-.26.294-.514.194-.05-.73-.104-1.479-.16-2.247ZM93.625 31.867c-.289.093-.456.01-.604-.239-.31-.517-.658-1.013-1.024-1.573-.159.564-.311 1.055-.43 1.555-.06.239-.151.352-.425.27 0-.071.006-.142.018-.212.161-.604.322-1.209.495-1.81.028-.095.13-.245.189-.241.128.01.294.069.367.165.337.456.647.932.968 1.4.045.064.095.124.18.239.125-.454.239-.859.347-1.264.026-.096.044-.194.07-.29.074-.274.075-.274.444-.239-.202.752-.401 1.501-.595 2.24ZM94.529 31.892c.198-.742.38-1.442.576-2.138a.246.246 0 0 1 .18-.147c.456 0 .918-.02 1.37.037.683.086.956.597.7 1.237-.239.598-.687.953-1.327 1.004-.482.038-.968.007-1.5.007Zm.463-.281h.844a1.23 1.23 0 0 0 1.149-.76c.183-.44.018-.818-.448-.912-.346-.07-.708-.063-1.08-.092l-.465 1.764ZM67.163 31.44c.153-.573.3-1.077.419-1.58.056-.235.158-.327.438-.212-.196.734-.393 1.475-.591 2.212-.276.088-.447.027-.598-.226-.31-.519-.658-1.016-1.029-1.584l-.516 1.831h-.375l.598-2.24c.267-.119.426-.013.572.211.336.517.691 1.018 1.082 1.587ZM79.537 29.682c-.085.109-.151.24-.257.324-.58.452-1.168.892-1.754 1.338-.085.063-.165.132-.319.255h1.734l.052.105c-.088.065-.179.184-.266.186-.705.016-1.41.008-2.219.008.14-.172.213-.31.325-.397.597-.463 1.203-.914 1.805-1.37.084-.063.166-.13.314-.246h-1.64l-.06-.094c.086-.064.17-.183.256-.184.657-.016 1.31-.009 1.965-.009.023.028.042.057.064.084ZM82.136 29.6c.07.214-.011.275-.193.271-.328-.005-.658.018-.985-.006-.258-.019-.389.063-.412.323-.018.116-.043.23-.074.343h1.247c.024.245-.081.31-.29.3-.268-.014-.538.008-.805-.008-.185-.012-.272.06-.304.234-.033.175-.073.346-.116.55h1.443l-.049.28h-1.853c.18-.729.352-1.44.538-2.152.015-.06.124-.131.191-.132.556-.007 1.112-.003 1.662-.003ZM68.827 31.61h1.435l.053.08c-.074.07-.146.197-.222.199-.565.017-1.131.01-1.719.01.18-.728.355-1.43.538-2.13.017-.067.11-.16.17-.161.566-.012 1.132-.007 1.693-.007.066.223-.03.272-.206.27-.426-.004-.853 0-1.301 0l-.168.666h1.282l-.08.29c-.345 0-.684.015-1.02-.005-.22-.014-.3.078-.333.274-.025.154-.072.305-.122.514ZM84.792 31.888h-.35c-.02-.027-.037-.04-.042-.06-.134-.548-.022-.44-.564-.455-.14-.004-.28.013-.419 0-.38-.044-.69.027-.906.395-.06.103-.27.12-.411.173l-.05-.085.422-.526c.419-.518.829-1.045 1.262-1.55.086-.1.263-.156.4-.162.06 0 .155.171.18.278.167.651.317 1.308.478 1.992Zm-.802-1.994-.927 1.224h1.184l-.257-1.224ZM90.476 31.867c-.268.077-.418.033-.433-.248-.008-.192-.115-.266-.315-.25a3.213 3.213 0 0 1-.654 0c-.38-.045-.658.064-.874.398-.066.103-.268.12-.407.173-.015-.029-.03-.06-.046-.086.164-.207.325-.418.49-.623.4-.494.793-.994 1.208-1.474a.514.514 0 0 1 .378-.14c.068.004.154.171.18.278.166.652.316 1.307.473 1.972Zm-.532-.742-.27-1.219-.93 1.219h1.2ZM85.912 31.613h1.442l.05.08c-.077.068-.152.194-.232.196-.564.018-1.13.01-1.728.01.199-.741.383-1.458.593-2.167.025-.08.199-.117.303-.173l.088.075c-.165.643-.333 1.285-.516 1.979Z"/></g><defs><clipPath id="la"><path fill="#fff" transform="translate(.354)" d="M0 0h98.659v32H0z"/></clipPath></defs></svg><svg fill="none" viewBox="0 0 30 32" id="gamcare" xmlns="http://www.w3.org/2000/svg"><g clip-path="url(#ma)" fill="#fff" fill-opacity=".6"><path d="M28.341 15.332a3.27 3.27 0 0 0-.382-.144H18.98a1.08 1.08 0 0 0-1.098 1.099c0 .62.477 1.099 1.098 1.099h3.344c.095 0 .19.095.19.19 0 .048-.047.096-.095.144-1.863 1.003-4.203 1.576-6.83 1.576a24.3 24.3 0 0 1-1.862-.096v2.532c.525.047 1.05.047 1.576.047 3.63 0 6.925-.86 9.36-2.34.049 0 .049-.047.096-.047.144 0 .24.095.24.238v.048l-.526 1.385c-.287.716.095 1.529.86 1.815.143.048.334.096.477.096.573 0 1.099-.335 1.338-.908l1.862-5.063c.287-.62 0-1.337-.669-1.671ZM15.637 5.827c2.627 0 5.015.621 6.878 1.624 0 0 1.194.86 1.72.048.62-.955-.622-1.529-.622-1.529-2.292-1.098-5.158-1.719-8.215-1.719-.525 0-1.05 0-1.576.048v1.624c.573-.096 1.194-.096 1.815-.096Z"/><path d="M2.312 0C1.26 0 .354.86.354 1.958v21.35c0 1.098.86 1.958 1.958 1.958h11.462V21.73c-6.877-.477-12.226-4.203-12.226-8.74s5.349-8.215 12.226-8.74V0H2.312Z"/><path d="M4.986 12.562c0 3.343 3.773 6.113 8.788 6.639V5.923c-4.967.525-8.788 3.295-8.788 6.639ZM4.843 29.708C4.795 31.093 3.84 32 2.598 32c-.668 0-1.241-.239-1.671-.764-.382-.43-.573-.955-.573-1.576 0-.621.238-1.194.668-1.624.43-.43.955-.621 1.624-.621.908 0 1.624.43 1.958 1.194h-.812c-.286-.382-.716-.573-1.194-.573-.43 0-.812.143-1.098.477a1.658 1.658 0 0 0-.478 1.195c0 .477.143.907.43 1.194.287.334.716.477 1.146.477.669 0 1.194-.334 1.529-1.05H2.12v-.621h2.722ZM5.56 31.905h-.67l1.72-4.442h.621l1.72 4.442h-.717l-.477-1.29h-1.72l-.477 1.29Zm1.337-3.582-.621 1.671h1.242l-.621-1.671ZM9.19 31.905v-4.442h.955l1.29 3.439 1.289-3.44h.955v4.443h-.62l.047-3.821-1.433 3.82h-.478l-1.432-3.82.047 3.82h-.62ZM16.497 32c-.669 0-1.194-.239-1.624-.716-.43-.43-.621-1.003-.621-1.624 0-.621.239-1.194.669-1.624a2.275 2.275 0 0 1 1.623-.669c1.051 0 1.91.669 2.197 1.767h-1.194c-.238-.43-.573-.668-1.05-.668-.669 0-1.194.525-1.194 1.146 0 .716.525 1.242 1.146 1.242.43 0 .764-.24 1.003-.621h1.194C18.407 31.33 17.547 32 16.496 32ZM19.792 31.905h-1.194l1.72-4.442h.907l1.72 4.442H21.75l-.24-.621h-1.48l-.239.62Zm.956-2.962-.43 1.433h.86l-.43-1.433ZM22.945 31.905v-4.442h1.48c.478 0 .812.048 1.099.239.382.286.62.668.62 1.241 0 .717-.381 1.242-1.002 1.433l1.098 1.529h-1.337l-.86-1.433v1.433h-1.098Zm1.337-2.388c.525 0 .812-.144.812-.526s-.239-.525-.717-.525h-.286v1.05h.19ZM26.718 31.905v-4.442h2.388v.955h-1.338v.716h1.338v1.003h-1.338v.765h1.338v.955h-2.388v.048Z"/></g><defs><clipPath id="ma"><path fill="#fff" transform="translate(.354)" d="M0 0h28.8v32H0z"/></clipPath></defs></svg><svg fill="none" viewBox="0 0 14 14" id="goldChek" xmlns="http://www.w3.org/2000/svg"><path fill-rule="evenodd" clip-rule="evenodd" d="M12.147 2.924a.75.75 0 0 1 .096 1.056l-5.833 7a.75.75 0 0 1-1.107.05l-3.5-3.5a.75.75 0 0 1 1.06-1.06l2.92 2.919 5.308-6.37a.75.75 0 0 1 1.056-.095Z" fill="url(#na)"/><defs><linearGradient id="na" x1="1.583" y1="6.981" x2="12.417" y2="6.981" gradientUnits="userSpaceOnUse"><stop stop-color="#F0C645"/><stop offset=".495" stop-color="#FAF283"/><stop offset="1" stop-color="#EBC944"/></linearGradient></defs></svg><svg fill="none" viewBox="0 0 20 20" id="instagram" xmlns="http://www.w3.org/2000/svg"><path d="M15.34 3.46a1.2 1.2 0 1 0 0 2.4 1.2 1.2 0 0 0 0-2.4Zm4.6 2.42a7.588 7.588 0 0 0-.46-2.43 4.94 4.94 0 0 0-1.16-1.77A4.7 4.7 0 0 0 16.55.53a7.3 7.3 0 0 0-2.43-.47C13.06 0 12.72 0 10 0S6.94 0 5.88.06a7.3 7.3 0 0 0-2.43.47 4.78 4.78 0 0 0-1.77 1.15A4.7 4.7 0 0 0 .53 3.45a7.3 7.3 0 0 0-.47 2.43C0 6.94 0 7.28 0 10s0 3.06.06 4.12a7.3 7.3 0 0 0 .47 2.43 4.7 4.7 0 0 0 1.15 1.77 4.78 4.78 0 0 0 1.77 1.15 7.3 7.3 0 0 0 2.43.47C6.94 20 7.28 20 10 20s3.06 0 4.12-.06a7.3 7.3 0 0 0 2.43-.47 4.7 4.7 0 0 0 1.77-1.15 4.85 4.85 0 0 0 1.16-1.77c.285-.78.44-1.6.46-2.43 0-1.06.06-1.4.06-4.12s0-3.06-.06-4.12ZM18.14 14a5.61 5.61 0 0 1-.34 1.86 3.06 3.06 0 0 1-.75 1.15c-.324.33-.717.586-1.15.75a5.61 5.61 0 0 1-1.86.34c-1 .05-1.37.06-4 .06s-3 0-4-.06a5.73 5.73 0 0 1-1.94-.3 3.27 3.27 0 0 1-1.1-.75 3 3 0 0 1-.74-1.15 5.54 5.54 0 0 1-.4-1.9c0-1-.06-1.37-.06-4s0-3 .06-4a5.54 5.54 0 0 1 .35-1.9A3 3 0 0 1 3 3a3.14 3.14 0 0 1 1.1-.8A5.73 5.73 0 0 1 6 1.86c1 0 1.37-.06 4-.06s3 0 4 .06a5.61 5.61 0 0 1 1.86.34 3.06 3.06 0 0 1 1.19.8c.328.307.584.683.75 1.1.222.609.337 1.252.34 1.9.05 1 .06 1.37.06 4s-.01 3-.06 4ZM10 4.87A5.13 5.13 0 1 0 15.14 10 5.12 5.12 0 0 0 10 4.87Zm0 8.46a3.33 3.33 0 1 1 0-6.66 3.33 3.33 0 0 1 0 6.66Z" fill="#F5EFDB"/></svg><svg fill="none" viewBox="0 0 14 14" id="pinterest" xmlns="http://www.w3.org/2000/svg"><path d="M7.19 0C3.353 0 1.313 2.459 1.313 5.14c0 1.243.695 2.794 1.807 3.286.169.076.26.044.298-.113.033-.12.18-.692.25-.963a.247.247 0 0 0-.06-.243c-.368-.427-.662-1.205-.662-1.935 0-1.87 1.487-3.685 4.017-3.685 2.187 0 3.718 1.42 3.718 3.453 0 2.297-1.216 3.887-2.795 3.887-.874 0-1.525-.687-1.319-1.535.25-1.011.739-2.098.739-2.827 0-.653-.37-1.194-1.124-1.194-.89 0-1.611.881-1.611 2.064 0 .752.266 1.26.266 1.26l-1.044 4.22c-.277 1.124.037 2.945.064 3.102.017.086.114.113.168.043.087-.114 1.151-1.632 1.45-2.73.108-.4.553-2.021.553-2.021.293.53 1.14.973 2.04.973 2.682 0 4.62-2.357 4.62-5.28C12.677 2.096 10.277 0 7.19 0Z" fill="#fff"/></svg><svg fill="none" viewBox="0 0 18 18" id="search" xmlns="http://www.w3.org/2000/svg"><path d="m15.75 15.75-3.364-3.37m1.864-4.505a6.375 6.375 0 1 1-12.75 0 6.375 6.375 0 0 1 12.75 0Z" stroke="#fff" stroke-opacity=".8" stroke-linecap="round" stroke-linejoin="round"/></svg><svg fill="none" viewBox="0 0 14 9" id="select-arrow" xmlns="http://www.w3.org/2000/svg"><path d="m7.576 8.488 5.433-5.922a1.054 1.054 0 0 0 0-1.455c-.388-.415-.97-.415-1.358 0L6.8 6.202l-4.85-5.09C1.56.695.98.695.59 1.111a.976.976 0 0 0-.291.727c0 .311.097.52.291.727l5.433 5.922c.485.416 1.067.416 1.552 0-.097 0-.097 0 0 0Z" fill="#AAA"/></svg><svg fill="none" viewBox="0 0 14 14" id="twitter" xmlns="http://www.w3.org/2000/svg"><g clip-path="url(#sa)"><path d="M8.304 5.928 13.404 0h-1.21L7.768 5.147 4.23 0H.15L5.5 7.784.15 14h1.21l4.676-5.436L9.77 14h4.079L8.304 5.928Z" fill="#fff"/></g><defs><clipPath id="sa"><path fill="#fff" d="M0 0h14v14H0z"/></clipPath></defs></svg><svg fill="none" viewBox="0 0 16 16" id="youtube" xmlns="http://www.w3.org/2000/svg"><path d="M15.183 4.25a1.879 1.879 0 0 0-1.322-1.321c-1.174-.322-5.869-.322-5.869-.322s-4.695 0-5.869.31c-.63.172-1.15.691-1.322 1.334C.492 5.424.492 7.859.492 7.859s0 2.446.31 3.607a1.88 1.88 0 0 0 1.321 1.323c1.186.32 5.87.32 5.87.32s4.694 0 5.868-.308a1.88 1.88 0 0 0 1.322-1.322c.31-1.174.31-3.608.31-3.608s.011-2.447-.31-3.62Zm-8.686 5.857V5.61l3.905 2.249-3.905 2.248Z" fill="#fff"/></svg></svg>