<?xml version="1.0" encoding="utf-8"?><svg viewBox="0 0 213 33" xmlns="http://www.w3.org/2000/svg" xmlns:xlink="http://www.w3.org/1999/xlink"><style>:root>svg{display:none}:root>svg:target{display:block}</style><svg fill="none" viewBox="0 0 33 32" id="18plus" xmlns="http://www.w3.org/2000/svg"><g clip-path="url(#aaa)" fill="#fff" fill-opacity=".6"><path d="M16 32C7.186 32 0 24.814 0 16S7.186 0 16 0c1.724 0 3.45.287 5.078.814a1.358 1.358 0 0 1 .862 1.725 1.358 1.358 0 0 1-1.724.862c-1.342-.479-2.779-.67-4.216-.67C8.67 2.683 2.683 8.67 2.683 16c0 7.33 5.988 13.317 13.317 13.317 7.33 0 13.317-5.988 13.317-13.317 0-1.15-.143-2.3-.43-3.401a1.329 1.329 0 0 1 .957-1.629 1.329 1.329 0 0 1 1.63.958c.334 1.341.526 2.73.526 4.12C32 24.814 24.814 32 16 32Z"/><path d="M13.317 22.946h-2.634v-9.964c-.958.91-2.108 1.58-3.402 2.012v-2.395c.671-.24 1.438-.671 2.252-1.294.814-.623 1.341-1.341 1.677-2.203h2.155v13.844h-.048Z"/><path fill-rule="evenodd" clip-rule="evenodd" d="M10.868 8.602h2.997v14.844h-3.682v-9.392a9.757 9.757 0 0 1-2.743 1.414l-.659.22v-3.442l.332-.118c.61-.218 1.33-.62 2.116-1.22.743-.568 1.213-1.212 1.515-1.988l.124-.318Zm.673 1c-.372.81-.92 1.5-1.704 2.1-.718.55-1.413.965-2.056 1.238v1.333a8.382 8.382 0 0 0 2.557-1.654l.845-.802v10.629h1.682V9.602h-1.324Z"/><path d="M17.293 15.473c-.67-.288-1.197-.67-1.485-1.198-.287-.527-.479-1.054-.479-1.676 0-1.006.336-1.869 1.054-2.54.719-.67 1.725-1.005 3.066-1.005 1.293 0 2.347.335 3.066 1.006a3.37 3.37 0 0 1 1.102 2.539c0 .622-.144 1.197-.48 1.724-.335.48-.814.862-1.389 1.15a3.522 3.522 0 0 1 1.725 1.341c.383.575.575 1.246.575 2.06 0 1.294-.383 2.3-1.198 3.114-.814.814-1.868 1.197-3.257 1.197-1.246 0-2.3-.335-3.114-1.005-1.006-.767-1.485-1.82-1.485-3.21 0-.767.191-1.437.575-2.06.335-.575.91-1.054 1.724-1.437Zm.288 3.257c0 .719.191 1.294.575 1.725.383.431.814.623 1.389.623.527 0 1.006-.192 1.341-.575.335-.383.527-.958.527-1.677 0-.623-.192-1.15-.527-1.533a1.843 1.843 0 0 0-1.39-.575c-.622 0-1.149.24-1.436.671-.336.335-.48.814-.48 1.341Zm.24-5.892c0 .527.143.958.43 1.246.288.287.671.43 1.198.43.479 0 .91-.143 1.198-.43.287-.288.43-.719.43-1.246 0-.479-.143-.91-.43-1.197-.288-.288-.671-.432-1.198-.432-.527 0-.91.144-1.198.431-.287.288-.43.72-.43 1.198Z"/><path fill-rule="evenodd" clip-rule="evenodd" d="M19.449 9.554c-1.259 0-2.127.313-2.725.871-.605.566-.895 1.29-.895 2.174 0 .51.154.953.418 1.437.212.388.624.712 1.243.977l1.023.439-1.007.473c-.754.355-1.236.776-1.505 1.237l-.006.01a3.315 3.315 0 0 0-.501 1.798c0 1.255.422 2.152 1.288 2.812l.008.006.007.006c.707.582 1.642.891 2.796.891 1.288 0 2.203-.35 2.904-1.05.707-.708 1.05-1.58 1.05-2.76 0-.731-.17-1.302-.49-1.784a3.024 3.024 0 0 0-1.484-1.15l-1.074-.403 1.026-.512c.512-.257.919-.587 1.197-.98.273-.434.395-.91.395-1.447a2.87 2.87 0 0 0-.943-2.174c-.597-.557-1.511-.871-2.725-.871Zm-3.407.14c.839-.783 1.983-1.14 3.407-1.14 1.373 0 2.566.356 3.407 1.14a3.87 3.87 0 0 1 1.26 2.905c0 .704-.163 1.375-.557 1.993l-.006.009-.006.009c-.217.31-.483.582-.785.816.465.303.841.682 1.127 1.11.446.67.659 1.44.659 2.338 0 1.407-.423 2.546-1.344 3.467-.928.928-2.12 1.344-3.611 1.344-1.334 0-2.505-.36-3.425-1.114-1.14-.873-1.674-2.08-1.674-3.601 0-.856.215-1.616.646-2.317.266-.454.647-.842 1.127-1.171a2.843 2.843 0 0 1-.898-.967c-.31-.57-.54-1.181-.54-1.916 0-1.128.382-2.129 1.213-2.905Zm1.856 1.593c.402-.402.925-.578 1.551-.578.626 0 1.149.176 1.551.578.407.407.578.98.578 1.551 0 .611-.167 1.189-.578 1.6-.407.406-.98.577-1.551.577-.626 0-1.149-.175-1.551-.578-.41-.41-.578-.988-.578-1.599 0-.57.171-1.144.578-1.551Zm1.551.422c-.428 0-.672.113-.844.285-.168.168-.285.457-.285.844 0 .443.12.728.285.892.172.172.416.285.844.285.387 0 .676-.117.844-.285.164-.164.285-.45.285-.892 0-.387-.117-.676-.285-.844-.172-.172-.416-.285-.844-.285Zm-1.777 5.362c.407-.577 1.098-.853 1.825-.853.712 0 1.269.248 1.743.722l.011.011.011.013c.426.487.651 1.136.651 1.862 0 .802-.213 1.506-.65 2.006-.444.506-1.068.746-1.718.746-.717 0-1.284-.252-1.763-.79-.483-.544-.701-1.248-.701-2.058 0-.595.158-1.204.59-1.66Zm1.825.147c-.501 0-.85.19-1.021.448l-.028.042-.035.035c-.212.211-.332.544-.332.987 0 .628.165 1.074.448 1.393.288.323.583.455 1.016.455.403 0 .737-.144.965-.404.233-.267.403-.712.403-1.348 0-.511-.154-.912-.393-1.191a1.342 1.342 0 0 0-1.023-.417Z"/><path d="M30.707 3.832H29.03V2.156c0-.767-.623-1.342-1.341-1.342-.767 0-1.342.623-1.342 1.342v1.676h-1.676c-.767 0-1.342.623-1.342 1.342 0 .718.623 1.341 1.342 1.341h1.676v1.677c0 .766.623 1.341 1.342 1.341.766 0 1.34-.623 1.34-1.341V6.515h1.678c.766 0 1.34-.623 1.34-1.341 0-.719-.622-1.342-1.34-1.342Z"/></g><defs><clipPath id="aaa"><path fill="#fff" d="M0 0h32.048v32H0z"/></clipPath></defs></svg><svg fill="none" viewBox="0 0 13 12" id="AE" xmlns="http://www.w3.org/2000/svg"><g clip-path="url(#aba)"><path d="M6.913 12a6 6 0 1 0 0-12 6 6 0 0 0 0 12Z" fill="#F0F0F0"/><path d="m4.304 8.087.522 3.54a6.002 6.002 0 0 0 7.714-3.54H4.304Z" fill="#000"/><path d="m4.304 3.913.522-3.54a6.002 6.002 0 0 1 7.714 3.54H4.304Z" fill="#6DA544"/><path d="M.913 6a6.002 6.002 0 0 0 3.913 5.627V.373A6.002 6.002 0 0 0 .913 6Z" fill="#A2001D"/></g><defs><clipPath id="aba"><path fill="#fff" transform="translate(.913)" d="M0 0h12v12H0z"/></clipPath></defs></svg><svg fill="none" viewBox="0 0 13 12" id="NZ" xmlns="http://www.w3.org/2000/svg"><g clip-path="url(#aca)"><path d="M12.109 6a6 6 0 0 1-12 0l6-6a6 6 0 0 1 6 6Z" fill="#0052B4"/><path d="M6.093 6h.016v-.016L6.093 6ZM6.109 3.13V0h-.001a6 6 0 0 0-6 6H3.24V4.237L5.002 6h1.09l.017-.016v-1.09L4.346 3.13h1.763Z" fill="#F0F0F0"/><path d="M3.144.782A6.029 6.029 0 0 0 .891 3.035V6h1.566V2.348h3.652V.781H3.144Z" fill="#D80027"/><path d="M6.109 5.262 3.977 3.13H3.24L6.11 6v-.738ZM10.5 4.452l.129.399h.419l-.34.246.13.399-.339-.247-.339.247.13-.399-.34-.246h.42l.13-.399ZM9.001 7.321l.195.598h.628l-.508.37.194.598L9 8.517l-.508.37.194-.598-.509-.37h.629l.194-.598ZM9.058 2.626l.162.498h.524l-.424.308.162.498-.424-.308-.424.308.162-.498-.424-.308h.524l.162-.498ZM7.616 4.435l.195.597h.628l-.508.37.194.598-.509-.37-.508.37.194-.598-.509-.37h.63l.193-.597Z" fill="#D80027"/></g><defs><clipPath id="aca"><path fill="#fff" transform="translate(.109)" d="M0 0h12v12H0z"/></clipPath></defs></svg><svg fill="none" viewBox="0 0 18 18" id="RollUp" xmlns="http://www.w3.org/2000/svg"><path d="M2.25 4.5h13.5M2.25 9h13.5m-5.25 4.5h5.25" stroke="#fff" stroke-opacity=".8" stroke-linecap="round" stroke-linejoin="round"/></svg><svg fill="none" viewBox="0 0 12 12" id="SA" xmlns="http://www.w3.org/2000/svg"><g clip-path="url(#aea)"><path d="M6 12A6 6 0 1 0 6 0a6 6 0 0 0 0 12Z" fill="#6DA544"/><path d="M3.391 7.174c0 .432.35.782.783.782h2.348c0 .36.292.653.652.653h.782c.36 0 .653-.292.653-.653v-.782H3.39ZM8.674 3.392v1.826a.522.522 0 0 1-.522.521v.783c.72 0 1.304-.585 1.304-1.304V3.392h-.782ZM3.065 5.218a.522.522 0 0 1-.522.521v.783c.72 0 1.305-.585 1.305-1.304V3.392h-.783v1.826Z" fill="#F0F0F0"/><path d="M7.5 3.392h.783v1.826H7.5V3.392ZM6.326 4.435a.13.13 0 0 1-.26 0V3.392h-.783v1.043a.13.13 0 0 1-.261 0V3.392h-.783v1.043a.914.914 0 0 0 1.435.749.908.908 0 0 0 .637.157.522.522 0 0 1-.507.398v.783c.72 0 1.305-.585 1.305-1.304V3.392h-.783v1.043Z" fill="#F0F0F0"/><path d="M4.24 5.74h1.173v.782H4.24v-.783Z" fill="#F0F0F0"/></g><defs><clipPath id="aea"><path fill="#fff" d="M0 0h12v12H0z"/></clipPath></defs></svg><svg fill="none" viewBox="0 0 16 16" id="android" xmlns="http://www.w3.org/2000/svg"><g clip-path="url(#afa)" fill="#fff"><path d="M9.67 16c.535 0 1.002-.467 1.002-1.002V12.66h.668c.402 0 .67-.268.67-.67V5.31H3.99v6.68c0 .402.267.67.669.67h.668v2.338c0 .536.467 1.002 1.002 1.002.535 0 1.001-.466 1.001-1.002V12.66H8.67v2.338c0 .535.466 1.002 1.001 1.002ZM13.68 11.99c.534 0 1-.466 1-1V6.311c0-.533-.466-1.001-1-1.001-.536 0-1.002.468-1.002 1v4.678c0 .535.466 1.002 1.002 1.002ZM2.32 11.99c.536 0 1.002-.466 1.002-1V6.311c0-.533-.466-1.001-1.001-1.001-.535 0-1.002.468-1.002 1v4.678c0 .535.467 1.002 1.002 1.002ZM11.207.1a.32.32 0 0 0-.467 0l-.897.895-.041.041C9.27.77 8.674.636 8.01.636h-.02c-.664 0-1.26.134-1.792.4L6.157.995 5.26.1a.32.32 0 0 0-.467 0 .32.32 0 0 0 0 .466l.868.868c-.28.186-.533.415-.753.676a3.926 3.926 0 0 0-.911 2.322l-.002.027c-.003.06-.004.12-.004.181h8.018c0-.06-.001-.12-.004-.18l-.002-.028a3.925 3.925 0 0 0-.91-2.322 3.61 3.61 0 0 0-.754-.676l.868-.868a.32.32 0 0 0 0-.466ZM6.329 3.475a.501.501 0 1 1 0-1.002.501.501 0 0 1 0 1.002Zm3.342 0a.501.501 0 1 1 0-1.002.501.501 0 0 1 0 1.002Z"/></g><defs><clipPath id="afa"><path fill="#fff" d="M0 0h16v16H0z"/></clipPath></defs></svg><svg fill="none" viewBox="0 0 16 16" id="apple" xmlns="http://www.w3.org/2000/svg"><g clip-path="url(#aga)" fill="#fff"><path d="M11 0c-.854.059-1.85.605-2.432 1.316-.53.645-.966 1.603-.796 2.534.932.029 1.895-.53 2.453-1.253.522-.673.917-1.625.774-2.597Z"/><path d="M14.37 5.367c-.819-1.027-1.97-1.623-3.057-1.623-1.435 0-2.042.687-3.039.687-1.028 0-1.809-.685-3.05-.685-1.219 0-2.517.745-3.34 2.02-1.157 1.793-.959 5.166.916 8.04.671 1.027 1.567 2.183 2.74 2.193 1.042.01 1.336-.669 2.75-.676 1.412-.008 1.68.685 2.721.674 1.173-.009 2.118-1.29 2.79-2.318.48-.737.66-1.108 1.032-1.94-2.713-1.033-3.148-4.89-.463-6.372Z"/></g><defs><clipPath id="aga"><path fill="#fff" d="M0 0h16v16H0z"/></clipPath></defs></svg><svg fill="none" viewBox="0 0 16 17" id="arrowCycle" xmlns="http://www.w3.org/2000/svg"><path fill-rule="evenodd" clip-rule="evenodd" d="M14.667 8.333a.5.5 0 0 1 .5.5c0 4.283-3.157 7.167-7.038 7.167-3.112 0-5.696-1.661-6.603-4.34a.5.5 0 0 1 .948-.32C3.22 13.547 5.373 15 8.129 15c3.341 0 6.038-2.45 6.038-6.167a.5.5 0 0 1 .5-.5ZM7.87 2.667c-3.34 0-6.037 2.449-6.037 6.166a.5.5 0 0 1-1 0c0-4.282 3.157-7.167 7.038-7.167 3.113 0 5.696 1.661 6.603 4.34a.5.5 0 1 1-.948.32c-.747-2.207-2.898-3.66-5.655-3.66Z" fill="#fff"/><path fill-rule="evenodd" clip-rule="evenodd" d="M1.515 11.379a.5.5 0 0 1 .606-.364l2.667.666a.5.5 0 0 1-.243.97l-2.181-.545-.546 2.182a.5.5 0 1 1-.97-.243l.667-2.666ZM14.788 3.015a.5.5 0 0 1 .364.606l-.667 2.667a.5.5 0 0 1-.606.364l-2.667-.667a.5.5 0 1 1 .243-.97l2.181.545.546-2.181a.5.5 0 0 1 .606-.364Z" fill="#fff"/></svg><svg fill="none" viewBox="0 0 12 12" id="arrowDown" xmlns="http://www.w3.org/2000/svg"><path fill-rule="evenodd" clip-rule="evenodd" d="M1.646 4.146a.5.5 0 0 1 .708 0L6 7.793l3.646-3.647a.5.5 0 0 1 .708.708l-4 4a.5.5 0 0 1-.708 0l-4-4a.5.5 0 0 1 0-.708Z" fill="#fff" fill-opacity=".9"/></svg><svg fill="none" viewBox="0 0 40 12" id="betsoft" xmlns="http://www.w3.org/2000/svg"><g clip-path="url(#aja)"><path d="M7.5 5.752c.224-.312.341-.68.336-1.054l-.005-2.736a1.006 1.006 0 0 0 0-.171A1.842 1.842 0 0 0 7.164.52 2.133 2.133 0 0 0 5.73.006H3.767v5.746H7.5ZM6.194 1.48c.13.11.21.264.22.428l.004.054.005 2.736c0 .085-.017.17-.053.249a.645.645 0 0 1-.152.21.705.705 0 0 1-.228.141.749.749 0 0 1-.269.049h-.565V1.309h.556a.718.718 0 0 1 .482.17ZM7.973 7.136a1.8 1.8 0 0 0-.322-.888H3.772v5.742h2.1c.277.004.552-.045.808-.143.256-.098.487-.245.679-.43.198-.18.354-.394.46-.631a1.79 1.79 0 0 0 .159-.748l-.005-2.735a.952.952 0 0 0 0-.167Zm-1.409 2.902a.598.598 0 0 1-.053.252.64.64 0 0 1-.156.213.717.717 0 0 1-.482.19h-.698v-4.04h.702a.698.698 0 0 1 .468.172c.13.112.21.264.224.428l.005.054-.01 2.731Z" fill="#fff"/><path d="M34.328 5.739h1.403v-4.43h1.267l.005-1.303h-4.074l-.005 1.302h1.404v4.43ZM34.327 6.234v5.756h1.404V6.234h-1.404ZM32.388 5.739v-.392h-2.261V1.308h2.26l.006-1.302-3.675.004V5.74h3.67ZM28.718 6.234v5.756h1.413l.005-5.341h2.262l-.005-.415h-3.675ZM24.976 5.739l.005-3.777c-.001-.086.017-.172.053-.252a.64.64 0 0 1 .156-.212.724.724 0 0 1 .479-.19.728.728 0 0 1 .486.172c.13.112.21.264.224.428l.005.054V5.74h1.394V1.958a1 1 0 0 0 0-.172 1.861 1.861 0 0 0-.668-1.27 2.127 2.127 0 0 0-1.423-.51 2.133 2.133 0 0 0-.8.144 2.002 2.002 0 0 0-.672.428 1.93 1.93 0 0 0-.459.632c-.106.237-.16.491-.16.748v3.776l1.38.005ZM26.38 6.234v3.804a.63.63 0 0 1-.205.459.736.736 0 0 1-.493.195.724.724 0 0 1-.48-.17.622.622 0 0 1-.222-.43c0-.018-.004-.036-.004-.054l.004-3.804h-1.384v3.804a1.02 1.02 0 0 0 0 .171c.04.487.278.942.668 1.271.396.34.92.525 1.46.514a2.163 2.163 0 0 0 1.435-.572c.197-.18.353-.396.46-.632.105-.237.16-.491.159-.747V6.239h-1.399v-.005ZM19.235 5.738h2.29c-.253-.193-.507-.392-.76-.585a2.091 2.091 0 0 1-.76-1.46 2.916 2.916 0 0 1-.015-.303L20 1.957c0-.125.038-.248.112-.354a.687.687 0 0 1 .303-.24.751.751 0 0 1 .755.112c.13.112.21.264.224.428l.005.054v.91h1.393v-.905a1 1 0 0 0 0-.172 1.842 1.842 0 0 0-.667-1.27 2.178 2.178 0 0 0-1.46-.514c-.54.011-1.055.216-1.435.572-.198.18-.355.395-.462.632-.107.237-.162.49-.162.747l-.005 1.825c-.005.145 0 .289.01.429.058.613.263 1.117.624 1.527ZM22.115 6.234H19.82c.263.203.53.41.799.613.453.383.687.87.74 1.46.01.095.005.307.005.298l.005 1.433a.585.585 0 0 1-.054.253.733.733 0 0 1-.64.4.737.737 0 0 1-.49-.17.613.613 0 0 1-.22-.429c0-.018-.004-.036-.004-.054l.015-.91h-1.394v.91a.999.999 0 0 0 0 .171c.035.487.272.943.662 1.271.302.253.677.42 1.079.48.401.06.814.011 1.186-.141s.689-.401.912-.716c.222-.316.341-.684.342-1.06l.005-1.826c.005-.144 0-.288-.01-.428-.058-.626-.273-1.144-.643-1.555Z" fill="#FDE100"/><path d="M15.02 5.739h1.398v-4.43h1.262l.005-1.303-4.06.004-.004 1.303h1.399v4.426ZM15.02 6.234l-.005 5.756h1.398l.005-5.756H15.02ZM12.627 5.739v-.392H10.38V1.308l2.237.005.005-1.303-3.63-.004-.006 5.733h3.64ZM10.39 6.649l2.232.005v-.42H8.986v5.756h3.63l.01-1.298-2.241-.005.005-4.038Z" fill="#fff"/><path d="M0 8.213V3.711l2.456 2.271L0 8.213ZM40 8.24V3.739l-2.456 2.254L40 8.24Z" fill="#FDE100"/></g><defs><clipPath id="aja"><path fill="#fff" d="M0 0h40v12H0z"/></clipPath></defs></svg><svg fill="none" viewBox="0 0 32 32" id="certificate" xmlns="http://www.w3.org/2000/svg"><g clip-path="url(#aka)"><path d="M23.25 14a5.506 5.506 0 0 0-5.5 5.5c0 3.032 2.467 5.5 5.5 5.5 3.032 0 5.5-2.468 5.5-5.5 0-3.033-2.468-5.5-5.5-5.5Zm2.331 4.617-2 3a1 1 0 0 1-1.386.277l-1.5-1a1 1 0 0 1 1.11-1.664l.667.445c1.595-2.392 1.51-2.326 1.778-2.479.91-.527 1.917.542 1.331 1.42Zm-6.831 6.878V31a1 1 0 0 0 1.496.868l3.004-1.716 3.003 1.716a1 1 0 0 0 1.497-.868v-5.504a7.482 7.482 0 0 1-9 0Zm6.5-13.224V2.17A2.174 2.174 0 0 0 23.078 0H5.422A2.174 2.174 0 0 0 3.25 2.172v23.155c0 1.198.975 2.172 2.172 2.172H16.75c0-4.303-.007-4.037.016-4.235-3.348-5.739 1.983-12.799 8.484-10.993ZM9.25 5h8.5a1 1 0 1 1 0 2h-8.5a1 1 0 1 1 0-2Zm5 10h-5a1 1 0 1 1 0-2h5a1 1 0 1 1 0 2Zm-5-4a1 1 0 1 1 0-2h8.5a1 1 0 1 1 0 2h-8.5Z" fill="url(#akb)"/></g><defs><linearGradient id="akb" x1="3.25" y1="15.93" x2="28.75" y2="15.93" gradientUnits="userSpaceOnUse"><stop stop-color="#F0C645"/><stop offset=".495" stop-color="#FAF283"/><stop offset="1" stop-color="#EBC944"/></linearGradient><clipPath id="aka"><path fill="#fff" d="M0 0h32v32H0z"/></clipPath></defs></svg><svg fill="none" viewBox="0 0 17 16" id="checked" xmlns="http://www.w3.org/2000/svg"><g clip-path="url(#ala)"><path d="m16.111 7.057-1.09-1.09c-.26-.26-.472-.772-.472-1.139V3.285c0-.734-.6-1.333-1.333-1.334h-1.544c-.367 0-.879-.212-1.138-.471L9.443.389a1.338 1.338 0 0 0-1.886 0L6.467 1.48c-.26.259-.773.47-1.139.47H3.785c-.733 0-1.333.6-1.333 1.334v1.543c0 .366-.212.88-.471 1.138L.889 7.057a1.338 1.338 0 0 0 0 1.887l1.092 1.09c.259.26.47.773.47 1.138v1.543c0 .734.601 1.334 1.334 1.334h1.543c.367 0 .88.212 1.138.471l1.091 1.092a1.338 1.338 0 0 0 1.886 0l1.091-1.092c.26-.259.771-.47 1.138-.47h1.544c.733 0 1.333-.601 1.333-1.335v-1.543c0-.367.213-.879.471-1.137l1.091-1.091a1.34 1.34 0 0 0 0-1.887ZM7.441 11 4.5 8.058l.943-.943 1.999 2L11.557 5l.943.943L7.442 11Z" fill="#54DB78"/></g><defs><clipPath id="ala"><path fill="#fff" transform="translate(.5)" d="M0 0h16v16H0z"/></clipPath></defs></svg><svg fill="none" viewBox="0 0 32 32" id="choice" xmlns="http://www.w3.org/2000/svg"><path d="M12.648 6.563h4.683c.517 0 .936-.42.936-.938V.937A.937.937 0 0 0 17.331 0h-4.683a.937.937 0 0 0-.937.938v4.687c0 .518.42.938.937.938Z" fill="url(#ama)"/><path d="M26.731 18.553c-1.08 0-1.957.877-1.957 1.958v-1.763a1.958 1.958 0 1 0-3.913 0V16.79a1.958 1.958 0 1 0-3.913 0v-6.136a1.959 1.959 0 0 0-2.004-1.958c-1.07.025-1.91.927-1.91 1.997v11.33l-1.983-1.986a1.957 1.957 0 0 0-2.796.029c-.742.774-.702 2.01.056 2.768l2.768 2.77c1.29 1.292 1.773 2.867 2.218 4.596.084.295.143.646.19.99.062.464.459.81.927.81h11.485c.426 0 .799-.288.905-.702.272-1.055.645-2.243.987-2.82a6.378 6.378 0 0 0 .897-3.245V20.51a1.958 1.958 0 0 0-1.957-1.958Z" fill="url(#amb)"/><path d="M21.143 10.558h6.302c.715.023 1.192-.845.79-1.438l-3.142-4.983c-.34-.585-1.257-.585-1.597 0L20.352 9.12c-.4.593.077 1.46.791 1.438Z" fill="url(#amc)"/><path d="M9.868 8.125c0-1.81-1.47-3.281-3.277-3.281H6.59a3.283 3.283 0 0 0-3.277 3.281c0 1.81 1.47 3.28 3.277 3.281a3.283 3.283 0 0 0 3.278-3.281Z" fill="url(#amd)"/><defs><linearGradient id="ama" x1="11.711" y1="3.267" x2="18.267" y2="3.267" gradientUnits="userSpaceOnUse"><stop stop-color="#F0C645"/><stop offset=".495" stop-color="#FAF283"/><stop offset="1" stop-color="#EBC944"/></linearGradient><linearGradient id="amb" x1="7.72" y1="20.297" x2="28.688" y2="20.297" gradientUnits="userSpaceOnUse"><stop stop-color="#F0C645"/><stop offset=".495" stop-color="#FAF283"/><stop offset="1" stop-color="#EBC944"/></linearGradient><linearGradient id="amc" x1="20.206" y1="7.113" x2="28.382" y2="7.113" gradientUnits="userSpaceOnUse"><stop stop-color="#F0C645"/><stop offset=".495" stop-color="#FAF283"/><stop offset="1" stop-color="#EBC944"/></linearGradient><linearGradient id="amd" x1="3.313" y1="8.111" x2="9.868" y2="8.111" gradientUnits="userSpaceOnUse"><stop stop-color="#F0C645"/><stop offset=".495" stop-color="#FAF283"/><stop offset="1" stop-color="#EBC944"/></linearGradient></defs></svg><svg fill="none" viewBox="0 0 32 33" id="costumer-service" xmlns="http://www.w3.org/2000/svg"><path d="M31 13.614v5c0 1.38-1.121 2.5-2.5 2.5h-.68c-.957 5.666-5.885 10-11.82 10a1 1 0 1 1 0-2c5.514 0 10-4.486 10-10v-6c0-5.513-4.486-10-10-10s-10 4.487-10 10v7a1 1 0 0 1-1 1H3.5a2.502 2.502 0 0 1-2.5-2.5v-5c0-1.379 1.121-2.5 2.5-2.5h.68c.957-5.666 5.885-10 11.82-10 5.935 0 10.863 4.334 11.82 10h.68c1.379 0 2.5 1.121 2.5 2.5Zm-15-8.5c-4.411 0-8 3.59-8 8v5c0 4.411 3.589 8 8 8s8-3.589 8-8v-5c0-4.41-3.589-8-8-8Z" fill="url(#ana)"/><defs><linearGradient id="ana" x1="1" y1="16.048" x2="31" y2="16.048" gradientUnits="userSpaceOnUse"><stop stop-color="#F0C645"/><stop offset=".495" stop-color="#FAF283"/><stop offset="1" stop-color="#EBC944"/></linearGradient></defs></svg><svg fill="none" viewBox="0 0 16 16" id="dice" xmlns="http://www.w3.org/2000/svg"><g clip-path="url(#aoa)" fill="#fff"><path d="M8.114 5.481a2.65 2.65 0 0 1 1.22-.697v-3.45A1.333 1.333 0 0 0 8 0H2A1.333 1.333 0 0 0 .667 1.333v6A1.333 1.333 0 0 0 2 8.667h2.93L8.113 5.48ZM6.667 2a.667.667 0 1 1 0 1.333.667.667 0 0 1 0-1.333Zm0 2.667a.667.667 0 1 1 0 1.333.667.667 0 0 1 0-1.333ZM3.333 2a.667.667 0 1 1 0 1.333.667.667 0 0 1 0-1.333Zm0 4.667a.667.667 0 1 1 0-1.334.667.667 0 0 1 0 1.334ZM14.714 9.253 11.303 5.84a1.33 1.33 0 0 0-.39-.271c-.845-.383-1.738-.207-2.327.383L5.174 9.364a1.331 1.331 0 0 0-.271.39c-.383.845-.207 1.738.383 2.327l3.412 3.412c.112.113.245.205.39.271.844.383 1.737.207 2.327-.383l3.41-3.412a1.33 1.33 0 0 0 .272-.39c.383-.844.207-1.737-.383-2.326ZM10 11.333a.666.666 0 1 1 0-1.332.666.666 0 0 1 0 1.333Z"/></g><defs><clipPath id="aoa"><path fill="#fff" d="M0 0h16v16H0z"/></clipPath></defs></svg><svg fill="none" viewBox="0 0 75 32" id="dmca-seal" xmlns="http://www.w3.org/2000/svg"><g clip-path="url(#apa)" fill="#fff" fill-opacity=".6"><path d="M63.002 19.23h2.577l-1.307-4.256-1.27 4.256ZM17.672 14.6h-.896v6.46h.896c.747 0 1.307-.075 1.643-.262.336-.187.56-.448.747-.896.186-.41.261-1.12.261-2.054 0-1.27-.187-2.128-.597-2.576-.411-.448-1.083-.672-2.054-.672Z"/><path d="M70.62 4.331H7.44c1.158.934 1.904 2.352 1.942 4.182H7.068C6.993 6.385 5.425 4.704 3.52 4.704 1.765 4.704.272 6.161.01 8.102v1.643h10.344a1.1 1.1 0 0 1 1.12 1.12v13.779c0 .597-.486 1.12-1.12 1.12H.048v2.502A3.745 3.745 0 0 0 3.782 32H70.62a3.745 3.745 0 0 0 3.734-3.734V8.028c0-2.017-1.68-3.697-3.734-3.697ZM23.572 20.723c-.299.71-.672 1.27-1.195 1.755-.523.485-1.046.784-1.643.934-.784.224-1.531.336-2.166.336h-5.451V11.91h5.451c1.083 0 1.942.15 2.614.448.672.299 1.195.71 1.643 1.27a4.79 4.79 0 0 1 .934 1.904c.186.71.298 1.493.298 2.278-.037 1.232-.186 2.24-.485 2.912Zm14.786 3.025h-2.987V14.71l-2.315 9.037H30.33l-2.277-9.037v9.037h-2.988V11.91h4.817l1.867 7.207 1.83-7.207h4.817v11.837h-.038Zm15.123 2.09a9.146 9.146 0 0 1-4.63 1.233 9.146 9.146 0 0 1-4.63-1.232c-1.42-.822-2.577-1.942-3.398-3.398a9.147 9.147 0 0 1-1.233-4.63c0-1.643.411-3.212 1.233-4.63.821-1.457 1.979-2.577 3.398-3.398a9.147 9.147 0 0 1 4.63-1.233c1.643 0 3.21.411 4.63 1.233 1.419.821 2.576 1.941 3.398 3.398.821 1.456 1.232 2.987 1.232 4.63 0 1.643-.41 3.21-1.232 4.63-.822 1.419-1.942 2.576-3.398 3.398Zm13.48-2.09-.598-1.942h-4.145l-.56 1.942h-3.734l4.444-11.837h3.995l4.443 11.837H66.96Z"/><path d="M48.85 10.306c-2.053 0-3.845.747-5.302 2.203-1.456 1.456-2.203 3.21-2.203 5.302 0 2.054.747 3.846 2.203 5.302 1.457 1.456 3.212 2.203 5.303 2.203 2.09 0 3.846-.747 5.302-2.203 1.456-1.456 2.203-3.211 2.203-5.302 0-2.054-.747-3.846-2.203-5.302-1.456-1.457-3.249-2.203-5.302-2.203Zm3.399 11.5c-.86.822-1.98 1.232-3.324 1.232-1.493 0-2.688-.485-3.659-1.456-.933-.97-1.419-2.24-1.419-3.808 0-1.494.486-2.726 1.456-3.697.971-.97 2.166-1.456 3.622-1.456 1.158 0 2.166.298 2.95.933.784.635 1.307 1.42 1.531 2.427l-2.39.374c-.149-.672-.41-1.158-.784-1.457a2.246 2.246 0 0 0-1.419-.485c-.634 0-1.157.261-1.605.822-.448.522-.635 1.381-.635 2.539 0 1.157.15 1.979.448 2.464.41.71 1.046 1.083 1.83 1.083.485 0 .933-.187 1.344-.56.41-.374.672-.971.859-1.793l2.502.598c-.337.933-.785 1.718-1.307 2.24ZM3.222.037h1.643c.373 0 .634.075.821.261.187.187.261.411.261.747s-.112.56-.298.747c-.187.187-.486.261-.896.261h-.56v1.195h-.971V.038ZM4.23 1.42h.261c.187 0 .336-.038.411-.112a.339.339 0 0 0 .112-.262.339.339 0 0 0-.112-.261C4.827.709 4.715.672 4.529.672h-.3v.747ZM6.545 3.248V.038h1.643c.299 0 .523.036.71.074.186.037.298.15.373.299.074.149.15.298.15.522a.796.796 0 0 1-.113.448 1.136 1.136 0 0 1-.299.3 1.736 1.736 0 0 1-.336.111c.112.037.187.075.262.112.037.037.074.075.149.187.075.074.112.15.15.186l.485.934h-1.12l-.523-.97c-.075-.113-.112-.225-.187-.262-.075-.038-.15-.075-.261-.075h-.112v1.307h-.971v.037Zm.97-1.904h.411c.038 0 .15 0 .262-.037.075 0 .112-.038.15-.112.037-.075.074-.112.074-.187 0-.112-.037-.187-.112-.224a.803.803 0 0 0-.374-.075h-.41v.635ZM9.868 1.643c0-.523.15-.934.448-1.232.299-.299.672-.411 1.195-.411s.934.15 1.232.448c.299.299.448.672.448 1.195 0 .373-.074.672-.186.933-.112.262-.336.411-.56.523a2 2 0 0 1-.897.187 2 2 0 0 1-.896-.187 1.396 1.396 0 0 1-.56-.485c-.15-.224-.224-.56-.224-.971Zm.971.037c0 .336.075.56.187.71.112.15.298.224.485.224.224 0 .373-.075.486-.224.111-.15.186-.374.186-.747 0-.299-.075-.523-.187-.672-.112-.15-.26-.224-.485-.224a.602.602 0 0 0-.485.224c-.112.15-.187.373-.187.71ZM13.415.037h3.025v.784h-1.008v2.427h-1.008V.858h-1.009v-.82ZM16.963.037h2.65v.71h-1.68v.522h1.531v.672h-1.53v.635h1.717v.71h-2.688V.037ZM22.377 1.942l.859.261c-.075.261-.15.448-.262.597-.112.15-.298.3-.485.374-.187.075-.41.15-.71.15-.336 0-.634-.038-.858-.15a1.25 1.25 0 0 1-.56-.523c-.15-.261-.224-.597-.224-.97 0-.523.149-.934.41-1.233C20.846.15 21.22 0 21.742 0c.41 0 .71.075.97.261.262.187.412.411.524.747l-.86.187a.606.606 0 0 0-.111-.224.45.45 0 0 0-.187-.187c-.075-.037-.187-.037-.299-.037-.224 0-.41.074-.522.261-.075.15-.15.336-.15.635 0 .373.038.597.15.747.112.15.261.186.448.186.186 0 .336-.037.448-.149.112-.112.187-.261.224-.485ZM23.572.037h2.987v.784H25.55v2.427h-1.008V.858h-.971v-.82ZM27.081.037h2.652v.71h-1.68v.522h1.53v.672h-1.53v.635h1.717v.71h-2.689V.037ZM30.405.037h1.456c.299 0 .523.037.71.112.186.075.336.224.448.374.112.149.186.336.26.522.076.187.076.411.076.635 0 .336-.038.597-.112.784a1.02 1.02 0 0 1-.337.448c-.149.112-.298.224-.447.262-.225.074-.411.074-.598.074h-1.456V.038Zm.97.747v1.755h.262c.224 0 .336-.037.448-.075.112-.037.15-.112.224-.224.075-.112.075-.299.075-.56 0-.336-.038-.56-.15-.71-.112-.149-.298-.186-.56-.186h-.298ZM38.022 1.718l.71.149a2.572 2.572 0 0 1-.112.299c-.038.074-.075.186-.15.261l.336.224a.516.516 0 0 0 .15.112l-.486.56c-.074-.037-.186-.112-.261-.15-.075-.036-.187-.111-.261-.148-.15.112-.3.186-.449.224a2.245 2.245 0 0 1-.746.112c-.411 0-.747-.075-.971-.262a.788.788 0 0 1-.299-.635c0-.186.075-.373.187-.522.112-.15.336-.3.597-.411-.112-.15-.186-.261-.224-.373A1.091 1.091 0 0 1 35.97.82c0-.224.074-.41.26-.56.188-.149.412-.261.785-.261.373 0 .635.075.784.224.15.15.262.299.262.485a.704.704 0 0 1-.075.3 1.133 1.133 0 0 1-.187.26c-.075.075-.187.15-.373.3.15.149.336.298.485.447.038-.112.075-.224.112-.298Zm-1.344.186c-.112.075-.187.15-.261.224-.075.075-.075.112-.075.187 0 .112.037.187.15.299.111.112.223.112.373.112s.336-.075.523-.187c-.187-.112-.411-.336-.71-.635Zm.299-.746c.112-.075.186-.15.261-.187.075-.038.112-.15.112-.224 0-.075-.037-.112-.075-.187-.037-.075-.112-.075-.224-.075-.074 0-.149.038-.224.075-.074.037-.074.112-.074.187 0 .074.074.224.224.41ZM41.047.037h1.306l.486 1.942.485-1.942h1.307v3.211h-.821V.821l-.635 2.465h-.747L41.868.82v2.465h-.821V.037ZM45.229 1.643c0-.523.15-.934.448-1.232.298-.299.672-.411 1.195-.411s.933.15 1.232.448c.299.299.448.672.448 1.195 0 .373-.075.672-.187.933-.112.262-.298.411-.56.56-.261.15-.523.187-.896.187a2 2 0 0 1-.896-.186 1.498 1.498 0 0 1-.56-.523c-.15-.224-.224-.56-.224-.971Zm1.008.037c0 .336.075.56.187.71.112.15.298.224.485.224.224 0 .373-.075.486-.224.111-.15.186-.374.186-.747 0-.299-.075-.523-.187-.672-.112-.15-.298-.224-.522-.224a.602.602 0 0 0-.486.224c-.112.15-.15.373-.15.71ZM49.15.037h.933l1.195 1.792V.037h.933v3.211h-.933l-1.195-1.755v1.755h-.934V.038ZM52.995.037h1.009v3.211h-1.009V.038ZM54.526.037h3.025v.784h-1.009v2.427h-1.008V.858h-1.008v-.82ZM57.775 1.643c0-.523.149-.934.448-1.232C58.52.112 58.895 0 59.418 0c.522 0 .933.15 1.232.448.299.299.448.672.448 1.195 0 .373-.075.672-.187.933-.112.262-.299.411-.56.56-.261.15-.523.187-.896.187a2 2 0 0 1-.896-.186 1.347 1.347 0 0 1-.56-.56c-.15-.262-.224-.523-.224-.934Zm.97.037c0 .336.075.56.187.71.112.15.299.224.486.224.224 0 .373-.075.485-.224.112-.15.187-.374.187-.747 0-.299-.075-.523-.187-.672a.602.602 0 0 0-.485-.224.602.602 0 0 0-.486.224c-.112.15-.187.373-.187.71ZM61.695 3.248V.038h1.643c.299 0 .523.036.71.074.186.037.298.15.373.299.075.149.15.298.15.522a.796.796 0 0 1-.113.448 1.135 1.135 0 0 1-.298.3 1.737 1.737 0 0 1-.336.111c.112.037.186.075.261.112.037.037.075.075.15.187.074.074.111.15.149.186l.485.934h-1.12l-.523-.97c-.074-.113-.112-.225-.187-.262a.54.54 0 0 0-.26-.075h-.076v1.307h-1.008v.037Zm.971-1.904h.41c.038 0 .15 0 .262-.037.075 0 .112-.038.15-.112.037-.075.074-.112.074-.187 0-.112-.037-.187-.112-.224a.803.803 0 0 0-.373-.075h-.448v.635h.037ZM65.205.037h2.651v.71h-1.68v.522h1.531v.672h-1.53v.635h1.717v.71h-2.689V.037ZM68.529.037h1.456c.299 0 .523.037.71.112.186.075.335.187.447.336.112.15.187.336.262.523.074.187.074.41.074.635 0 .336-.037.597-.112.784a1.42 1.42 0 0 1-.336.485.939.939 0 0 1-.448.262c-.224.074-.41.074-.597.074h-1.456V.038Zm.97.747v1.755h.262c.224 0 .336-.037.448-.075.112-.037.15-.112.224-.224.075-.112.075-.299.075-.56 0-.336-.038-.56-.15-.71-.112-.149-.299-.186-.56-.186H69.5ZM5.91 21.956l-1.68-4.518c.672-.337 1.12-1.046 1.12-1.867a2.088 2.088 0 0 0-2.091-2.091 2.088 2.088 0 0 0-2.091 2.09c0 .897.56 1.643 1.344 1.942l-1.381 4.444h4.78Z"/></g><defs><clipPath id="apa"><path fill="#fff" transform="translate(.048)" d="M0 0h74.306v32H0z"/></clipPath></defs></svg><svg fill="none" viewBox="0 0 32 33" id="easy-to-use" xmlns="http://www.w3.org/2000/svg"><path d="M24.68 7.997a.937.937 0 0 0 1.326 0l2.21-2.21A.938.938 0 1 0 26.89 4.46l-2.21 2.21a.937.937 0 0 0 0 1.326Z" fill="url(#aqa)"/><path d="M25.764 10.67c.134.5.648.797 1.148.663l3.018-.81a.937.937 0 0 0-.485-1.81l-3.018.809a.937.937 0 0 0-.663 1.148Z" fill="url(#aqb)"/><path d="M22.007 6.914a.938.938 0 0 0 1.148-.663l.81-3.019a.938.938 0 1 0-1.812-.485l-.809 3.018a.937.937 0 0 0 .663 1.149Z" fill="url(#aqc)"/><path d="M29.89 13.302H19.086a.937.937 0 0 1-.906-1.18l1.089-4.062a2.11 2.11 0 0 0-4.075-1.092l-.518 1.933a5.937 5.937 0 0 1-5.736 4.401H6.25v14.375h1.719l.468.625a4.688 4.688 0 0 0 3.75 1.875h8.204a2.11 2.11 0 1 0 0-4.219h1.25a2.11 2.11 0 1 0 0-4.218h1.25a2.11 2.11 0 1 0 0-4.22h7a2.11 2.11 0 1 0 0-4.218Z" fill="url(#aqd)"/><path d="M3.438 11.427h-2.5a.937.937 0 0 0-.938.937v16.25c0 .518.42.938.938.938h2.5c.517 0 .937-.42.937-.938v-16.25a.937.937 0 0 0-.938-.937Z" fill="url(#aqe)"/><defs><linearGradient id="aqa" x1="24.406" y1="6.22" x2="28.49" y2="6.22" gradientUnits="userSpaceOnUse"><stop stop-color="#F0C645"/><stop offset=".495" stop-color="#FAF283"/><stop offset="1" stop-color="#EBC944"/></linearGradient><linearGradient id="aqb" x1="25.731" y1="10.017" x2="30.625" y2="10.017" gradientUnits="userSpaceOnUse"><stop stop-color="#F0C645"/><stop offset=".495" stop-color="#FAF283"/><stop offset="1" stop-color="#EBC944"/></linearGradient><linearGradient id="aqc" x1="21.312" y1="4.488" x2="23.996" y2="4.488" gradientUnits="userSpaceOnUse"><stop stop-color="#F0C645"/><stop offset=".495" stop-color="#FAF283"/><stop offset="1" stop-color="#EBC944"/></linearGradient><linearGradient id="aqd" x1="6.25" y1="17.736" x2="32" y2="17.736" gradientUnits="userSpaceOnUse"><stop stop-color="#F0C645"/><stop offset=".495" stop-color="#FAF283"/><stop offset="1" stop-color="#EBC944"/></linearGradient><linearGradient id="aqe" x1="0" y1="20.449" x2="4.375" y2="20.449" gradientUnits="userSpaceOnUse"><stop stop-color="#F0C645"/><stop offset=".495" stop-color="#FAF283"/><stop offset="1" stop-color="#EBC944"/></linearGradient></defs></svg><svg fill="none" viewBox="0 0 16 16" id="facebook" xmlns="http://www.w3.org/2000/svg"><path d="M6.464 8.832H4.88c-.256 0-.336-.096-.336-.336V6.56c0-.256.096-.336.336-.336h1.584V4.816c0-.64.112-1.248.432-1.808.336-.576.816-.96 1.424-1.184.4-.144.8-.208 1.232-.208h1.568c.224 0 .32.096.32.32V3.76c0 .224-.096.32-.32.32a35 35 0 0 0-1.296.016c-.432 0-.656.208-.656.656-.016.48 0 .944 0 1.44h1.856c.256 0 .352.096.352.352V8.48c0 .256-.08.336-.352.336H9.168v5.216c0 .272-.08.368-.368.368h-2c-.24 0-.336-.096-.336-.336V8.832Z" fill="#fff"/></svg><svg fill="none" viewBox="0 0 213 32" id="gambleaware" xmlns="http://www.w3.org/2000/svg"><g clip-path="url(#asa)" fill="#fff" fill-opacity=".6"><path d="M4.766 15.788c0 3.31 1.442 5.178 4.074 5.178 2.461 0 4.329-2.207 4.329-5.348 0-2.97-1.698-5.177-3.99-5.177-2.716.085-4.413 2.122-4.413 5.347Zm8.318 6.281c-.764.85-2.292 2.716-5.602 2.716-4.33 0-7.47-3.734-7.47-9.082 0-5.347 3.226-9.082 7.81-9.082 1.782 0 3.225.68 5.347 2.377V7.046h6.28v3.564h-1.697v14.26c0 4.414-3.31 7.046-8.912 7.046-2.716 0-4.838-.595-6.366-1.868-1.189-.933-1.698-1.867-2.207-4.074h4.499c.594 1.698 1.867 2.461 3.989 2.461 2.631 0 4.414-1.358 4.414-3.48-.085 0-.085-2.886-.085-2.886ZM32.267 16.807c-4.33.424-7.215.764-7.215 3.395 0 1.528 1.188 2.546 3.056 2.546 2.376 0 4.159-1.782 4.159-4.074v-1.867Zm4.329 5.177h1.612v3.565h-5.771v-2.207c-1.868 1.953-3.31 2.547-5.603 2.547-3.734 0-6.535-2.462-6.535-5.772 0-5.432 6.111-6.027 12.053-6.62 0-2.887-.764-3.566-3.396-3.566-1.867 0-3.225 1.104-3.31 2.801l-4.499-.17c.255-3.734 3.226-6.11 7.64-6.11 5.093 0 7.894 2.29 7.894 6.535l-.085 8.997ZM45.593 9.252c1.952-2.122 3.226-2.63 5.348-2.63s3.225.763 4.413 2.885c.934-.934 2.632-2.886 5.603-2.886 2.97 0 5.008 2.122 5.008 5.263v10.185h1.697v3.565h-6.281V13.072c0-1.613-.764-2.631-1.952-2.631-1.868 0-3.65 2.461-3.65 5.008v6.45h1.782v3.566h-6.366V13.242c0-1.868-.594-2.801-1.952-2.801-2.037 0-3.82 2.461-3.735 5.432V21.9h1.783v3.565h-7.894V21.9h1.528V10.61h-1.613V7.046h6.111v2.206h.17ZM74.962 16.382c0 3.82 1.528 5.857 4.498 5.857 2.547 0 4.16-2.292 4.16-5.942 0-3.65-1.613-5.942-4.16-5.942-2.885 0-4.498 2.207-4.498 6.027ZM68.765 0h6.282v9.082c1.867-1.867 3.31-2.631 5.262-2.631 4.669 0 7.979 3.99 7.979 9.591 0 5.942-3.14 9.931-7.724 9.931-2.292 0-3.565-.594-5.687-2.461v2.037h-6.281v-3.565h1.952V3.565h-1.782V0ZM89.392 0h6.28v21.984h1.783v3.565h-8.063v-3.565h1.782V3.565h-1.782V0ZM111.036 14.006c-.339-2.377-1.698-3.65-3.904-3.65-2.038 0-3.565 1.358-4.16 3.65h8.064Zm4.753 5.517c-.848 3.99-4.159 6.536-8.742 6.536-5.178 0-8.998-4.075-8.998-9.762 0-5.602 3.82-9.76 9.083-9.76 2.97 0 5.517 1.357 7.13 3.819 1.697 2.631 1.782 5.093 1.867 6.96h-13.411c.424 4.838 3.565 5.093 4.498 5.093 1.868 0 3.056-.849 3.82-2.801l4.753-.085ZM129.54 16.128l-1.613.254c-3.395.51-4.838 1.019-5.772 1.952-.509.51-.763 1.189-.763 1.783 0 1.697 1.443 3.14 3.225 3.14 2.546 0 4.923-2.291 4.923-4.583v-2.546Zm0 6.96c-1.697 1.528-3.225 2.886-6.281 2.886-3.48 0-6.027-2.377-6.027-5.602 0-1.443.51-2.632 1.359-3.65 1.442-1.443 3.48-2.122 8.403-2.632l2.461-.254v-1.189c0-2.122-1.358-3.31-3.904-3.31-2.292 0-3.396.849-3.82 3.056h-3.82c.255-1.952.764-2.971 1.783-3.99 1.443-1.273 3.48-1.952 6.111-1.952 4.584 0 7.3 2.292 7.3 6.196v9.931h2.207v2.971h-5.857l.085-2.461ZM135.057 6.96h7.13v2.97h-2.037l3.056 12.563 3.565-15.533h3.48l3.565 15.533 3.056-12.562h-2.037V6.96h7.045v2.97h-1.868l-4.244 15.619h-3.904l-3.395-13.92-3.311 13.92h-3.989L136.84 9.93h-1.783V6.96ZM174.866 16.128l-1.612.254c-3.396.51-4.839 1.019-5.772 1.952-.51.51-.764 1.189-.764 1.783 0 1.697 1.443 3.14 3.225 3.14 2.547 0 4.923-2.291 4.923-4.583v-2.546Zm0 6.96c-1.697 1.528-3.225 2.886-6.196 2.886-3.48 0-6.026-2.377-6.026-5.602 0-1.443.509-2.632 1.358-3.65 1.443-1.443 3.48-2.122 8.403-2.632l2.461-.254v-1.189c0-2.122-1.358-3.31-3.904-3.31-2.292 0-3.395.849-3.82 3.056h-3.819c.254-1.952.764-2.971 1.782-3.99 1.443-1.273 3.48-1.952 6.111-1.952 4.584 0 7.3 2.292 7.3 6.196v9.931h2.207v2.971h-5.857v-2.461ZM187.683 11.12c1.019-2.207 2.122-4.584 5.433-4.584.679 0 1.018.085 1.782.255v3.48c-.933-.17-1.273-.255-1.782-.255-4.159 0-5.348 4.16-5.348 5.518v7.045h2.122v2.97h-7.894v-2.97h2.122V9.847h-2.122V6.96h5.687v4.159ZM208.309 14.43c-.17-3.056-1.612-4.753-4.159-4.753-3.82 0-4.923 4.244-4.923 4.753h9.082Zm3.82 5.432c-.764 1.868-2.631 6.112-7.979 6.112-5.263 0-8.827-3.99-8.827-9.931 0-5.518 3.819-9.507 8.912-9.507 2.971 0 8.233 1.698 8.233 10.44h-13.411c.17 4.16 2.801 5.857 5.263 5.857 1.952 0 3.14-.933 3.819-3.055h3.99v.084Z"/></g><defs><clipPath id="asa"><path fill="#fff" transform="translate(.012)" d="M0 0h212.371v32H0z"/></clipPath></defs></svg><svg fill="none" viewBox="0 0 52 32" id="gamblers-anonymous" xmlns="http://www.w3.org/2000/svg"><g clip-path="url(#ata)"><path fill-rule="evenodd" clip-rule="evenodd" d="M39.492 18.261h-7.85v8.619H27.63V0h6.4l14.507 26.88h-4.352l-4.694-8.619Zm-7.85-3.413h5.973L31.642 4.011v10.837ZM.154 32h51.2l-2.22-4.096H2.373L.154 32Zm22.528-9.216v-4.523H15.94l1.792-3.413H26.522V26.88H2.97L17.476 0h9.046v11.52h-3.84V3.584h-2.048l-10.582 19.2h12.63Z" fill="#fff" fill-opacity=".6"/></g><defs><clipPath id="ata"><path fill="#fff" transform="translate(.154)" d="M0 0h51.2v32H0z"/></clipPath></defs></svg><svg fill="none" viewBox="0 0 100 32" id="gambling-helpline" xmlns="http://www.w3.org/2000/svg"><g clip-path="url(#aua)" fill="#fff" fill-opacity=".6"><path d="M90.606 24.849c-.549 0-1.066-.01-1.583.009-.077 0-.198.12-.217.2-.172.745-.325 1.495-.484 2.242-.023.106-.05.21-.076.317h-2.299l.566-2.75h-3.195c-.143.67-.292 1.346-.432 2.023-.153.745-.15.747-.897.746-.478 0-.956-.002-1.434-.005a.798.798 0 0 1-.126-.032l.56-2.726h-2.038c-.142.646-.293 1.301-.428 1.96-.163.802-.157.804-.971.803-.478 0-.957-.002-1.435-.007a.367.367 0 0 1-.086-.029l.587-2.75c-.725 0-1.42-.006-2.116.01-.06 0-.152.135-.171.22-.19.843-.37 1.687-.554 2.543h-2.306l.585-2.771c-.56 0-1.092-.009-1.623.01-.068 0-.152.136-.196.225-.418.851-.956 1.614-1.74 2.167-1.017.722-2.113.951-3.295.462-.457-.19-.577-.353-1.008-1.076l-1.126 5.245h-2.31l1.505-7.037h-1.53c-.582 0-.577 0-.69.557-.135.663-.274 1.32-.424 1.978-.02.083-.12.211-.18.212-.705.016-1.41.01-2.166.01l.577-2.76c-.436 0-.85.031-1.26-.008-.447-.043-.68.085-.891.526-.864 1.794-2.69 2.768-4.66 2.538-.429-.05-.87-.135-1.267-.3-1.01-.418-1.455-1.27-1.614-2.304l-.067-.45c-.579 0-1.154-.008-1.727.011-.066 0-.164.148-.185.24-.169.745-.332 1.494-.478 2.243-.04.21-.125.272-.334.268-.718-.013-1.432-.005-2.202-.005l.571-2.76h-.325c-1.614 0-3.228.004-4.842-.005-.234 0-.321.06-.365.303a50.227 50.227 0 0 1-.466 2.212c-.02.089-.105.233-.162.234-.774.016-1.548.01-2.35.01l.628-2.954h62.653c-.034.12-.055.222-.093.318-.797 2.004-2.717 3.157-4.864 2.944-.906-.09-1.714-.35-2.288-1.106-.347-.455-.515-.981-.598-1.54-.018-.12-.036-.248-.058-.411Zm5.505.016h-3.223c-.08.772.378 1.323 1.122 1.365.13.008.258.008.387 0 .818-.043 1.581-.672 1.714-1.365Zm-42.51 0h-3.229c-.07.798.386 1.332 1.153 1.366.12.005.24.005.359 0 .79-.038 1.538-.624 1.717-1.365Zm11.12 0c.022.86.529 1.38 1.302 1.364.671-.015 1.487-.645 1.743-1.364h-3.044ZM12.964 4.443h-2.476c-.117-.433-.189-.858-.344-1.25-.292-.735-.885-1.11-1.656-1.184-1.503-.145-2.778.36-3.763 1.489C3.2 5.245 2.653 7.272 3.192 9.55c.292 1.23 1.14 1.906 2.405 1.907 1.708 0 3.023-.737 3.93-2.187.06-.091.1-.19.175-.334H7.31l.432-2.006h4.716l-.487 2.284c-.258 1.204-.521 2.407-.767 3.614-.039.188-.104.246-.29.239-.427-.012-.855-.003-1.326-.003l.126-1.598c-.054.027-.084.033-.099.05-1.295 1.607-3.017 2.106-4.997 1.92-.927-.086-1.783-.393-2.53-.961C1.023 11.665.5 10.546.39 9.246.158 6.538 1.052 4.205 2.9 2.25 4.18.9 5.795.182 7.657.032c.851-.07 1.689-.033 2.517.179 1.495.376 2.34 1.36 2.627 2.844.086.443.11.9.164 1.388ZM34.377 13.056h-2.308c.131-.642.263-1.269.389-1.897.259-1.295.523-2.59.766-3.887.028-.205.01-.415-.053-.613-.127-.45-.502-.624-1.027-.508a1.774 1.774 0 0 0-.974.598c-.52.598-.745 1.323-.902 2.081-.275 1.333-.558 2.663-.837 3.995-.016.075-.04.15-.06.226H27.14c.12-.593.24-1.165.355-1.734l.777-3.795a1.89 1.89 0 0 0 .033-.266c.02-.402-.018-.797-.413-1.016-.405-.225-.814-.129-1.19.094-.506.299-.81.777-.967 1.321-.239.818-.418 1.654-.606 2.486-.216.967-.41 1.938-.613 2.913h-2.312L23.96 4.78h2.128l-.149.926.538-.573c.778-.823 2.251-.903 3.064-.574.548.222.847.666.99 1.263.659-.784 1.49-1.206 2.446-1.368a3.919 3.919 0 0 1 1.185-.022c.884.124 1.415.77 1.49 1.682.065.8-.144 1.559-.303 2.326-.317 1.535-.646 3.068-.972 4.617ZM72.072 5.688l.2-.916h2.2c-.09.423-.176.825-.259 1.227-.488 2.363-.965 4.727-1.465 7.087-.532 2.51-2.31 3.903-4.903 3.807a6.226 6.226 0 0 1-1.773-.332c-1.017-.35-1.548-1.31-1.402-2.365.01-.082.13-.21.202-.213.696-.016 1.393-.009 2.093-.009.02.04.033.084.041.128 0 .658.463.957 1.123.949a4.74 4.74 0 0 0 .77-.06c.591-.106 1.033-.444 1.25-.998.223-.567.38-1.161.58-1.794-.465.33-.827.658-1.248.872-1.064.542-2.132.538-3.116-.203-.668-.505-.976-1.238-1.036-2.044-.131-1.772.299-3.402 1.425-4.8.802-.996 1.82-1.619 3.147-1.626.902-.006 1.593.358 2.058 1.136.022.038.053.074.113.154Zm-4.388 4.1c-.008.478.073.934.313 1.351.275.479.696.702 1.222.555.314-.087.652-.243.875-.47 1.07-1.096 1.521-2.426 1.307-3.95-.12-.85-.686-1.299-1.45-1.196-.465.06-.834.318-1.13.67-.737.879-1.066 1.912-1.137 3.04ZM38.778 12.125l-.167.915h-2.204c.883-4.23 1.769-8.46 2.656-12.693h2.31L40.26 5.633c.18-.16.294-.268.413-.373.79-.702 1.719-1.01 2.755-.837 1.117.187 1.734.966 2.02 2.002.445 1.614.06 3.112-.768 4.513-.598 1.004-1.375 1.838-2.485 2.279-.925.369-1.847.293-2.674-.27-.295-.2-.495-.54-.742-.822ZM43.18 7.82c-.064-.254-.131-.688-.288-1.087a1.032 1.032 0 0 0-1.05-.642c-.438.044-.837.195-1.146.516-1.096 1.143-1.456 2.532-1.243 4.065.112.81.686 1.182 1.49 1.017.329-.073.63-.233.875-.465.903-.875 1.252-2 1.362-3.406v.002ZM37.901 14.935h2.44c-.35 1.66-.694 3.297-1.047 4.963.137.006.243.015.35.015 1.584 0 3.169-.011 4.752.007.316.003.418-.1.478-.395.29-1.45.6-2.896.906-4.344.017-.077.044-.152.071-.245h2.46c-.201.965-.398 1.924-.598 2.88-.412 1.952-.83 3.904-1.237 5.86-.04.195-.114.26-.312.258-.725-.01-1.45-.004-2.222-.004l.393-1.938c-.12-.006-.205-.014-.293-.014-1.624 0-3.248.004-4.87-.005-.24 0-.325.07-.364.303-.079.479-.186.957-.3 1.428-.02.088-.136.215-.21.217-.745.016-1.49.01-2.293.01.63-3.01 1.258-5.985 1.896-8.996ZM20.76 13.05h-2.48c-.03-.334-.057-.654-.086-.995-.322.272-.598.545-.913.762-1.009.695-2.107.786-3.242.378-.732-.262-1.1-.844-1.155-1.596-.133-1.831 1.008-3.228 2.827-3.487.855-.122 1.712-.232 2.566-.358.186-.035.367-.092.538-.17.353-.146.53-.398.509-.695-.026-.371-.222-.666-.61-.708a6.583 6.583 0 0 0-1.476.008c-.523.06-.742.478-.86.957h-2.153c.06-.218.09-.419.164-.606.435-1.097 1.273-1.742 2.391-2.003 1.208-.282 2.415-.247 3.554.299.734.353 1.173.945 1.084 1.79-.095.908-.235 1.811-.395 2.709-.157.88-.366 1.749-.546 2.624-.094.47-.06.596.284 1.09ZM18.9 8.722a1.268 1.268 0 0 0-.155.056 5.353 5.353 0 0 1-1.99.664c-.94.12-1.44.683-1.438 1.495 0 .398.174.624.562.735a2.121 2.121 0 0 0 2.352-.866c.425-.62.53-1.334.67-2.084ZM59.14 4.73l-.148.991.05.033c.156-.163.299-.338.47-.486 1.041-.915 2.254-1.076 3.544-.722.787.217 1.26.883 1.212 1.783-.044.837-.191 1.674-.349 2.502-.255 1.346-.555 2.683-.837 4.023a1.89 1.89 0 0 1-.068.202h-2.29l.91-4.383c.079-.38.14-.762.228-1.136.269-1.136-.602-1.7-1.634-1.361-.704.23-1.176.734-1.425 1.394-.244.646-.396 1.328-.55 2.003-.262 1.151-.494 2.31-.741 3.479h-2.307c.107-.53.21-1.051.318-1.57.452-2.169.906-4.336 1.362-6.502.019-.09.1-.239.155-.239.693-.018 1.386-.01 2.1-.01ZM48.557 13.057h-2.312L48.955.349h2.313l-2.711 12.708ZM48.072 23.93c.139-.505.223-.964.389-1.392.625-1.615 1.674-2.838 3.357-3.408a4.477 4.477 0 0 1 2.674-.052c1.263.352 2.025 1.392 2.01 2.77-.006.633-.112 1.265-.163 1.899-.015.196-.138.182-.27.179h-7.997v.003Zm2.842-1.678h3.468c-.016-.23-.01-.44-.047-.64-.12-.663-.425-.945-1.1-.996a3.137 3.137 0 0 0-.77.054c-.766.136-1.441.827-1.551 1.582ZM98.868 23.911H90.65c.016-.184.041-.367.077-.548.462-1.853 1.452-3.301 3.243-4.096.97-.43 1.99-.459 3.008-.196 1.24.32 2.012 1.326 2.033 2.69.01.711-.092 1.424-.143 2.15Zm-5.441-1.659h3.446c0-.209.02-.399-.005-.583-.053-.385-.184-.73-.57-.92-1.096-.54-2.664.274-2.873 1.503h.002ZM89.011 23.912h-2.286c.126-.652.265-1.28.367-1.913.152-.957-.446-1.505-1.406-1.316-.742.147-1.271.598-1.565 1.264-.25.566-.381 1.186-.577 1.778-.026.08-.12.194-.187.196-.705.014-1.41.009-2.164.009.092-.45.18-.866.262-1.28.217-1.04.43-2.082.658-3.12.02-.087.126-.22.194-.222.676-.016 1.352-.01 2.05-.01l-.157 1.073c.127-.135.195-.212.267-.285 1.052-1.082 2.332-1.366 3.753-.99.973.259 1.34 1.01 1.276 2.04-.056.896-.288 1.78-.443 2.67a.536.536 0 0 1-.041.106ZM64.666 23.915h-2.2l1-4.663h2.218l-.232.977c.213-.18.359-.315.52-.435.88-.663 1.847-1.041 2.956-.761.998.253 1.51 1.016 1.808 1.94.292.907.235 1.825 0 2.735-.022.085-.123.211-.19.213-.755.015-1.51.01-2.244.01.06-.508.15-.995.168-1.484a2.859 2.859 0 0 0-.139-.908c-.233-.777-.82-1.076-1.602-.845-.565.169-.978.535-1.27 1.026-.2.332-.366.682-.498 1.046-.13.36-.195.746-.295 1.15ZM72.256 23.932l1.924-9.024h2.309c-.107.51-.207 1.003-.312 1.495-.515 2.407-1.033 4.813-1.54 7.221-.05.24-.14.323-.392.315-.645-.023-1.291-.007-1.99-.007ZM59.953 14.935h2.312l-.428 2.019c-.479 2.242-.957 4.484-1.425 6.726-.042.205-.12.256-.31.253-.666-.009-1.332-.003-2.056-.003l1.907-8.995ZM52.594 4.745h2.326l-.259 1.21c-.495 2.29-.994 4.58-1.494 6.87-.02.09-.12.228-.186.23-.718.016-1.431.01-2.184.01l1.797-8.32ZM80.144 19.311l-.636 2.97c-.105.485-.21.969-.327 1.45-.018.075-.104.19-.16.192-.718.013-1.43.008-2.2.008l.996-4.62h2.327ZM55.2 3.255h-2.332L53.37.958h2.325c-.166.775-.33 1.532-.497 2.297ZM80.416 17.836H78.09l.502-2.293h2.327l-.503 2.293Z"/><path d="M71.323 29.62h.402l.09 1.7.06.02 1.037-1.435c.052-.073.09-.168.161-.212a.49.49 0 0 1 .295-.076c.048.006.107.125.12.2.088.508.165 1.016.26 1.614.185-.292.331-.521.474-.753.172-.28.352-.554.507-.843.112-.21.254-.285.514-.195-.136.217-.263.425-.394.632-.308.488-.61.98-.932 1.458a.409.409 0 0 1-.303.156c-.06 0-.145-.157-.165-.255-.099-.493-.18-.99-.282-1.574l-.86 1.177c-.105.145-.219.285-.31.439-.116.194-.26.294-.514.194-.05-.73-.104-1.479-.16-2.247ZM93.625 31.867c-.289.093-.456.01-.604-.239-.31-.517-.658-1.013-1.024-1.573-.159.564-.311 1.055-.43 1.555-.06.239-.151.352-.425.27 0-.071.006-.142.018-.212.161-.604.322-1.209.495-1.81.028-.095.13-.245.189-.241.128.01.294.069.367.165.337.456.647.932.968 1.4.045.064.095.124.18.239.125-.454.239-.859.347-1.264.026-.096.044-.194.07-.29.074-.274.075-.274.444-.239-.202.752-.401 1.501-.595 2.24ZM94.529 31.892c.198-.742.38-1.442.576-2.138a.246.246 0 0 1 .18-.147c.456 0 .918-.02 1.37.037.683.086.956.597.7 1.237-.239.598-.687.953-1.327 1.004-.482.038-.968.007-1.5.007Zm.463-.281h.844a1.23 1.23 0 0 0 1.149-.76c.183-.44.018-.818-.448-.912-.346-.07-.708-.063-1.08-.092l-.465 1.764ZM67.163 31.44c.153-.573.3-1.077.419-1.58.056-.235.158-.327.438-.212-.196.734-.393 1.475-.591 2.212-.276.088-.447.027-.598-.226-.31-.519-.658-1.016-1.029-1.584l-.516 1.831h-.375l.598-2.24c.267-.119.426-.013.572.211.336.517.691 1.018 1.082 1.587ZM79.537 29.682c-.085.109-.151.24-.257.324-.58.452-1.168.892-1.754 1.338-.085.063-.165.132-.319.255h1.734l.052.105c-.088.065-.179.184-.266.186-.705.016-1.41.008-2.219.008.14-.172.213-.31.325-.397.597-.463 1.203-.914 1.805-1.37.084-.063.166-.13.314-.246h-1.64l-.06-.094c.086-.064.17-.183.256-.184.657-.016 1.31-.009 1.965-.009.023.028.042.057.064.084ZM82.136 29.6c.07.214-.011.275-.193.271-.328-.005-.658.018-.985-.006-.258-.019-.389.063-.412.323-.018.116-.043.23-.074.343h1.247c.024.245-.081.31-.29.3-.268-.014-.538.008-.805-.008-.185-.012-.272.06-.304.234-.033.175-.073.346-.116.55h1.443l-.049.28h-1.853c.18-.729.352-1.44.538-2.152.015-.06.124-.131.191-.132.556-.007 1.112-.003 1.662-.003ZM68.827 31.61h1.435l.053.08c-.074.07-.146.197-.222.199-.565.017-1.131.01-1.719.01.18-.728.355-1.43.538-2.13.017-.067.11-.16.17-.161.566-.012 1.132-.007 1.693-.007.066.223-.03.272-.206.27-.426-.004-.853 0-1.301 0l-.168.666h1.282l-.08.29c-.345 0-.684.015-1.02-.005-.22-.014-.3.078-.333.274-.025.154-.072.305-.122.514ZM84.792 31.888h-.35c-.02-.027-.037-.04-.042-.06-.134-.548-.022-.44-.564-.455-.14-.004-.28.013-.419 0-.38-.044-.69.027-.906.395-.06.103-.27.12-.411.173l-.05-.085.422-.526c.419-.518.829-1.045 1.262-1.55.086-.1.263-.156.4-.162.06 0 .155.171.18.278.167.651.317 1.308.478 1.992Zm-.802-1.994-.927 1.224h1.184l-.257-1.224ZM90.476 31.867c-.268.077-.418.033-.433-.248-.008-.192-.115-.266-.315-.25a3.213 3.213 0 0 1-.654 0c-.38-.045-.658.064-.874.398-.066.103-.268.12-.407.173-.015-.029-.03-.06-.046-.086.164-.207.325-.418.49-.623.4-.494.793-.994 1.208-1.474a.514.514 0 0 1 .378-.14c.068.004.154.171.18.278.166.652.316 1.307.473 1.972Zm-.532-.742-.27-1.219-.93 1.219h1.2ZM85.912 31.613h1.442l.05.08c-.077.068-.152.194-.232.196-.564.018-1.13.01-1.728.01.199-.741.383-1.458.593-2.167.025-.08.199-.117.303-.173l.088.075c-.165.643-.333 1.285-.516 1.979Z"/></g><defs><clipPath id="aua"><path fill="#fff" transform="translate(.354)" d="M0 0h98.659v32H0z"/></clipPath></defs></svg><svg fill="none" viewBox="0 0 30 32" id="gamcare" xmlns="http://www.w3.org/2000/svg"><g clip-path="url(#ava)" fill="#fff" fill-opacity=".6"><path d="M28.341 15.332a3.27 3.27 0 0 0-.382-.144H18.98a1.08 1.08 0 0 0-1.098 1.099c0 .62.477 1.099 1.098 1.099h3.344c.095 0 .19.095.19.19 0 .048-.047.096-.095.144-1.863 1.003-4.203 1.576-6.83 1.576a24.3 24.3 0 0 1-1.862-.096v2.532c.525.047 1.05.047 1.576.047 3.63 0 6.925-.86 9.36-2.34.049 0 .049-.047.096-.047.144 0 .24.095.24.238v.048l-.526 1.385c-.287.716.095 1.529.86 1.815.143.048.334.096.477.096.573 0 1.099-.335 1.338-.908l1.862-5.063c.287-.62 0-1.337-.669-1.671ZM15.637 5.827c2.627 0 5.015.621 6.878 1.624 0 0 1.194.86 1.72.048.62-.955-.622-1.529-.622-1.529-2.292-1.098-5.158-1.719-8.215-1.719-.525 0-1.05 0-1.576.048v1.624c.573-.096 1.194-.096 1.815-.096Z"/><path d="M2.312 0C1.26 0 .354.86.354 1.958v21.35c0 1.098.86 1.958 1.958 1.958h11.462V21.73c-6.877-.477-12.226-4.203-12.226-8.74s5.349-8.215 12.226-8.74V0H2.312Z"/><path d="M4.986 12.562c0 3.343 3.773 6.113 8.788 6.639V5.923c-4.967.525-8.788 3.295-8.788 6.639ZM4.843 29.708C4.795 31.093 3.84 32 2.598 32c-.668 0-1.241-.239-1.671-.764-.382-.43-.573-.955-.573-1.576 0-.621.238-1.194.668-1.624.43-.43.955-.621 1.624-.621.908 0 1.624.43 1.958 1.194h-.812c-.286-.382-.716-.573-1.194-.573-.43 0-.812.143-1.098.477a1.658 1.658 0 0 0-.478 1.195c0 .477.143.907.43 1.194.287.334.716.477 1.146.477.669 0 1.194-.334 1.529-1.05H2.12v-.621h2.722ZM5.56 31.905h-.67l1.72-4.442h.621l1.72 4.442h-.717l-.477-1.29h-1.72l-.477 1.29Zm1.337-3.582-.621 1.671h1.242l-.621-1.671ZM9.19 31.905v-4.442h.955l1.29 3.439 1.289-3.44h.955v4.443h-.62l.047-3.821-1.433 3.82h-.478l-1.432-3.82.047 3.82h-.62ZM16.497 32c-.669 0-1.194-.239-1.624-.716-.43-.43-.621-1.003-.621-1.624 0-.621.239-1.194.669-1.624a2.275 2.275 0 0 1 1.623-.669c1.051 0 1.91.669 2.197 1.767h-1.194c-.238-.43-.573-.668-1.05-.668-.669 0-1.194.525-1.194 1.146 0 .716.525 1.242 1.146 1.242.43 0 .764-.24 1.003-.621h1.194C18.407 31.33 17.547 32 16.496 32ZM19.792 31.905h-1.194l1.72-4.442h.907l1.72 4.442H21.75l-.24-.621h-1.48l-.239.62Zm.956-2.962-.43 1.433h.86l-.43-1.433ZM22.945 31.905v-4.442h1.48c.478 0 .812.048 1.099.239.382.286.62.668.62 1.241 0 .717-.381 1.242-1.002 1.433l1.098 1.529h-1.337l-.86-1.433v1.433h-1.098Zm1.337-2.388c.525 0 .812-.144.812-.526s-.239-.525-.717-.525h-.286v1.05h.19ZM26.718 31.905v-4.442h2.388v.955h-1.338v.716h1.338v1.003h-1.338v.765h1.338v.955h-2.388v.048Z"/></g><defs><clipPath id="ava"><path fill="#fff" transform="translate(.354)" d="M0 0h28.8v32H0z"/></clipPath></defs></svg><svg fill="none" viewBox="0 0 14 14" id="goldChek" xmlns="http://www.w3.org/2000/svg"><path fill-rule="evenodd" clip-rule="evenodd" d="M12.147 2.924a.75.75 0 0 1 .096 1.056l-5.833 7a.75.75 0 0 1-1.107.05l-3.5-3.5a.75.75 0 0 1 1.06-1.06l2.92 2.919 5.308-6.37a.75.75 0 0 1 1.056-.095Z" fill="url(#awa)"/><defs><linearGradient id="awa" x1="1.583" y1="6.981" x2="12.417" y2="6.981" gradientUnits="userSpaceOnUse"><stop stop-color="#F0C645"/><stop offset=".495" stop-color="#FAF283"/><stop offset="1" stop-color="#EBC944"/></linearGradient></defs></svg><svg fill="none" viewBox="0 0 16 16" id="heartFilled" xmlns="http://www.w3.org/2000/svg"><path d="M4.667 2C2.826 2 1.333 3.477 1.333 5.3c0 1.471.584 4.963 6.326 8.493a.656.656 0 0 0 .682 0c5.742-3.53 6.326-7.022 6.326-8.493 0-1.823-1.493-3.3-3.334-3.3C9.493 2 8 4 8 4S6.507 2 4.667 2Z" fill="#EEC221"/></svg><svg fill="none" viewBox="0 0 16 16" id="heartOutline" xmlns="http://www.w3.org/2000/svg"><path d="M4.667 2C2.826 2 1.333 3.477 1.333 5.3c0 1.471.584 4.963 6.326 8.493a.656.656 0 0 0 .682 0c5.742-3.53 6.326-7.022 6.326-8.493 0-1.823-1.493-3.3-3.334-3.3C9.493 2 8 4 8 4S6.507 2 4.667 2Z" stroke="#EEC221" stroke-linecap="round" stroke-linejoin="round"/></svg><svg fill="none" viewBox="0 0 14 14" id="infoFill" xmlns="http://www.w3.org/2000/svg"><g clip-path="url(#aza)"><path fill-rule="evenodd" clip-rule="evenodd" d="M7 .584a6.417 6.417 0 1 0 0 12.834A6.417 6.417 0 0 0 7 .584Zm-.292 2.917a.583.583 0 0 0 0 1.166H7a.583.583 0 0 0 0-1.166h-.292Zm-.875 2.333a.583.583 0 0 0 0 1.167h.584v1.75h-.584a.583.583 0 0 0 0 1.166h2.334a.583.583 0 1 0 0-1.166h-.584V6.417A.583.583 0 0 0 7 5.834H5.833Z" fill="#fff"/></g><defs><clipPath id="aza"><path fill="#fff" d="M0 0h14v14H0z"/></clipPath></defs></svg><svg fill="none" viewBox="0 0 20 20" id="instagram" xmlns="http://www.w3.org/2000/svg"><path d="M15.34 3.46a1.2 1.2 0 1 0 0 2.4 1.2 1.2 0 0 0 0-2.4Zm4.6 2.42a7.588 7.588 0 0 0-.46-2.43 4.94 4.94 0 0 0-1.16-1.77A4.7 4.7 0 0 0 16.55.53a7.3 7.3 0 0 0-2.43-.47C13.06 0 12.72 0 10 0S6.94 0 5.88.06a7.3 7.3 0 0 0-2.43.47 4.78 4.78 0 0 0-1.77 1.15A4.7 4.7 0 0 0 .53 3.45a7.3 7.3 0 0 0-.47 2.43C0 6.94 0 7.28 0 10s0 3.06.06 4.12a7.3 7.3 0 0 0 .47 2.43 4.7 4.7 0 0 0 1.15 1.77 4.78 4.78 0 0 0 1.77 1.15 7.3 7.3 0 0 0 2.43.47C6.94 20 7.28 20 10 20s3.06 0 4.12-.06a7.3 7.3 0 0 0 2.43-.47 4.7 4.7 0 0 0 1.77-1.15 4.85 4.85 0 0 0 1.16-1.77c.285-.78.44-1.6.46-2.43 0-1.06.06-1.4.06-4.12s0-3.06-.06-4.12ZM18.14 14a5.61 5.61 0 0 1-.34 1.86 3.06 3.06 0 0 1-.75 1.15c-.324.33-.717.586-1.15.75a5.61 5.61 0 0 1-1.86.34c-1 .05-1.37.06-4 .06s-3 0-4-.06a5.73 5.73 0 0 1-1.94-.3 3.27 3.27 0 0 1-1.1-.75 3 3 0 0 1-.74-1.15 5.54 5.54 0 0 1-.4-1.9c0-1-.06-1.37-.06-4s0-3 .06-4a5.54 5.54 0 0 1 .35-1.9A3 3 0 0 1 3 3a3.14 3.14 0 0 1 1.1-.8A5.73 5.73 0 0 1 6 1.86c1 0 1.37-.06 4-.06s3 0 4 .06a5.61 5.61 0 0 1 1.86.34 3.06 3.06 0 0 1 1.19.8c.328.307.584.683.75 1.1.222.609.337 1.252.34 1.9.05 1 .06 1.37.06 4s-.01 3-.06 4ZM10 4.87A5.13 5.13 0 1 0 15.14 10 5.12 5.12 0 0 0 10 4.87Zm0 8.46a3.33 3.33 0 1 1 0-6.66 3.33 3.33 0 0 1 0 6.66Z" fill="#F5EFDB"/></svg><svg fill="none" viewBox="0 0 16 16" id="linkedin" xmlns="http://www.w3.org/2000/svg"><path d="M14.4 14.4V9.71c0-2.304-.496-4.064-3.184-4.064-1.296 0-2.16.704-2.512 1.376h-.032V5.855H6.128V14.4h2.656v-4.24c0-1.12.208-2.192 1.584-2.192 1.36 0 1.376 1.264 1.376 2.256v4.16H14.4v.017ZM1.808 5.855h2.656V14.4H1.808V5.855ZM3.136 1.6c-.848 0-1.536.688-1.536 1.536a1.55 1.55 0 0 0 1.536 1.552 1.55 1.55 0 0 0 1.536-1.552c0-.848-.688-1.536-1.536-1.536Z" fill="#fff"/></svg><svg fill="none" viewBox="0 0 16 16" id="lock" xmlns="http://www.w3.org/2000/svg"><path d="M13.667 6h-1V4.667A4.672 4.672 0 0 0 8 0a4.672 4.672 0 0 0-4.667 4.667V6h-1A.333.333 0 0 0 2 6.333v8.334C2 15.402 2.598 16 3.333 16h9.334c.735 0 1.333-.598 1.333-1.333V6.333A.333.333 0 0 0 13.667 6Zm-4.669 6.963a.334.334 0 0 1-.331.37H7.333a.333.333 0 0 1-.331-.37l.21-1.89A1.319 1.319 0 0 1 6.667 10c0-.735.598-1.333 1.333-1.333S9.333 9.265 9.333 10c0 .431-.204.824-.545 1.072l.21 1.891ZM10.667 6H5.333V4.667A2.67 2.67 0 0 1 8 2a2.67 2.67 0 0 1 2.667 2.667V6Z" fill="#fff" fill-opacity=".44"/></svg><svg fill="none" viewBox="0 0 20 20" id="lockAd" xmlns="http://www.w3.org/2000/svg"><g clip-path="url(#bda)" fill="#FAA7A7"><path d="M4.667 13.394A.582.582 0 0 0 5.212 13l.424-1.212h2.637L8.697 13c.09.242.303.394.545.394a.579.579 0 0 0 .546-.758l-.485-1.272-1.818-1.819.454 1.334H5.97l.728-2.091L5.909 8l-1.757 4.667c-.03.06-.03.151-.03.212-.031.273.211.515.545.515ZM11.334 13.394l-.485-.485c0 .243.212.455.485.485ZM14.424 7c-.454-.272-1-.394-1.606-.394h-1.454a.575.575 0 0 0-.576.576v1.576L11.97 9.94V7.546h.818c.606 0 1.091.182 1.394.576.333.394.485.939.485 1.697v.363c0 .727-.182 1.273-.515 1.667l-.121.121.727.727c.303-.242.515-.515.697-.878.272-.485.394-1.061.394-1.697v-.334c0-.636-.122-1.212-.394-1.697-.182-.454-.546-.818-1.03-1.09Z"/><path d="M16.849 3.151c-3.788-3.787-9.94-3.787-13.728 0-3.788 3.788-3.788 9.94 0 13.728 3.788 3.788 9.91 3.788 13.728 0 3.787-3.819 3.787-9.94 0-13.728ZM4.606 15.394c-2.788-2.758-2.97-7.152-.576-10.152L14.757 15.97c-3 2.394-7.393 2.212-10.151-.576Zm11.364-.636L5.242 4.03c3-2.394 7.394-2.212 10.152.576 2.788 2.758 2.97 7.152.576 10.152Z"/></g><defs><clipPath id="bda"><path fill="#fff" d="M0 0h20v20H0z"/></clipPath></defs></svg><svg fill="none" viewBox="0 0 36 24" id="mastercard" xmlns="http://www.w3.org/2000/svg"><g clip-path="url(#bea)"><path d="M36 .46H0v23.078h36V.46Z" fill="#16366F"/><path d="M20.723 12a8.285 8.285 0 0 1-8.285 8.284 8.285 8.285 0 1 1 0-16.57A8.285 8.285 0 0 1 20.723 12Z" fill="#D9222A"/><path d="M23.561 3.715c-2.14 0-4.091.812-5.561 2.144-.3.272-.58.565-.837.877h1.674c.23.279.44.572.631.878h-2.936a8.255 8.255 0 0 0-.478.877h3.892c.133.285.25.578.35.877h-4.593c-.096.288-.176.58-.24.877h5.074a8.329 8.329 0 0 1-.24 4.386h-4.594c.1.3.217.592.35.878h3.892c-.141.302-.3.595-.477.877H16.53c.192.306.403.6.632.877h1.673a8.289 8.289 0 0 1-.836.877 8.285 8.285 0 1 0 5.562-14.425" fill="#EE9F2D"/><path d="M30.743 16.62a.268.268 0 1 1 .535-.001.268.268 0 0 1-.535 0Zm.267.203a.204.204 0 0 0 0-.407.203.203 0 0 0 0 .407Zm-.036-.086h-.055v-.235h.1c.02 0 .041 0 .06.011a.07.07 0 0 1 .03.06.064.064 0 0 1-.041.06l.043.104h-.06l-.037-.093h-.04v.093Zm0-.134h.03c.012 0 .024.001.034-.004a.032.032 0 0 0 .014-.027.03.03 0 0 0-.014-.024c-.01-.006-.024-.005-.035-.005h-.029v.06Zm-20.47-3.695a1.495 1.495 0 0 0-.2-.014c-.51 0-.768.175-.768.52 0 .213.126.348.323.348.366 0 .63-.348.646-.854Zm.655 1.523h-.745l.017-.354c-.227.28-.53.413-.943.413-.487 0-.822-.381-.822-.934 0-.832.582-1.317 1.58-1.317.102 0 .232.01.366.026a.838.838 0 0 0 .035-.221c0-.227-.156-.311-.577-.311a2.98 2.98 0 0 0-.951.153l.124-.768c.448-.132.744-.181 1.077-.181.772 0 1.181.347 1.18 1.002.002.176-.027.392-.073.677-.078.495-.245 1.556-.268 1.815Zm-2.869 0h-.9l.516-3.23-1.15 3.23h-.613l-.076-3.212-.542 3.212h-.842l.704-4.202H6.68l.078 2.352.79-2.352h1.438L8.29 14.43Zm16.384-1.523a1.487 1.487 0 0 0-.2-.014c-.51 0-.768.175-.768.52 0 .213.125.348.322.348.366 0 .63-.348.646-.854Zm.654 1.523h-.745l.017-.354c-.227.28-.53.413-.942.413-.488 0-.822-.381-.822-.934 0-.832.581-1.317 1.58-1.317.101 0 .232.01.365.026a.843.843 0 0 0 .036-.221c0-.227-.157-.311-.577-.311a2.984 2.984 0 0 0-.952.153l.125-.768c.448-.132.743-.181 1.076-.181.772 0 1.181.347 1.18 1.002.002.176-.027.392-.072.677-.078.495-.246 1.556-.269 1.815Zm-10.171-.052c-.247.078-.439.11-.647.11-.46 0-.71-.264-.71-.75-.007-.151.066-.548.123-.911.052-.32.39-2.332.39-2.332h.894l-.105.517h.54l-.121.822h-.542c-.104.65-.252 1.46-.254 1.566 0 .177.094.254.308.254.103 0 .182-.01.242-.033l-.119.757Zm2.74-.028a3.05 3.05 0 0 1-.917.139c-1-.001-1.522-.524-1.522-1.525 0-1.168.663-2.028 1.564-2.028.737 0 1.208.481 1.208 1.237 0 .25-.032.495-.11.84h-1.78c-.06.496.257.703.777.703.32 0 .608-.067.93-.216l-.15.85Zm-.502-2.026c.005-.071.095-.61-.416-.61-.285 0-.488.217-.571.61h.987Zm-5.696-.231c0 .432.21.73.685.954.364.171.42.222.42.377 0 .213-.16.31-.516.31-.268 0-.518-.043-.806-.136l-.124.79c.205.044.387.086.936.1.95 0 1.388-.36 1.388-1.142 0-.47-.184-.745-.634-.952-.377-.173-.42-.212-.42-.371 0-.185.149-.28.44-.28.176 0 .417.02.646.052l.128-.792a6.084 6.084 0 0 0-.792-.067c-1.006 0-1.354.526-1.351 1.157Zm10.573-1.067c.25 0 .483.065.804.227l.147-.912c-.132-.052-.595-.356-.988-.356-.602 0-1.111.299-1.469.792-.522-.173-.737.176-1 .524l-.233.055c.017-.115.033-.228.028-.344h-.826c-.113 1.058-.313 2.13-.47 3.188l-.04.23h.9c.15-.976.232-1.6.282-2.023l.339-.189c.05-.188.209-.252.527-.244a3.83 3.83 0 0 0-.064.7c0 1.119.603 1.815 1.572 1.815.249 0 .463-.033.794-.123l.159-.958c-.298.147-.543.216-.765.216-.522 0-.839-.386-.839-1.024 0-.925.47-1.574 1.142-1.574Z" fill="#000"/><path d="M8.549 14.18h-.9l.516-3.23-1.15 3.23H6.4l-.076-3.211-.541 3.212h-.842l.703-4.202h1.293l.037 2.6.872-2.6h1.397L8.55 14.18Z" fill="#fff"/><path d="m29.886 10.229-.2 1.214c-.246-.324-.51-.558-.859-.558-.454 0-.867.344-1.137.85a7.464 7.464 0 0 1-.766-.21v.003c.03-.283.042-.456.04-.515h-.827c-.112 1.058-.312 2.13-.468 3.188l-.042.23h.9c.122-.789.215-1.444.283-1.964.308-.277.461-.52.772-.504a2.93 2.93 0 0 0-.218 1.109c0 .854.432 1.418 1.086 1.418.33 0 .582-.114.83-.377l-.043.318h.85l.686-4.202h-.887ZM28.76 13.64c-.306 0-.46-.226-.46-.674 0-.671.289-1.148.697-1.148.309 0 .476.236.476.67 0 .678-.294 1.152-.713 1.152Z" fill="#000"/><path d="M10.763 12.658a1.508 1.508 0 0 0-.2-.014c-.51 0-.769.175-.769.52 0 .213.126.348.322.348.367 0 .631-.348.647-.854Zm.654 1.522h-.745l.017-.354c-.227.28-.531.414-.943.414-.487 0-.821-.381-.821-.934 0-.832.58-1.317 1.579-1.317.102 0 .232.009.366.026a.84.84 0 0 0 .035-.222c0-.226-.156-.31-.576-.31a3.003 3.003 0 0 0-.953.153l.125-.768c.448-.132.744-.181 1.076-.181.773 0 1.182.347 1.181 1.001.002.177-.027.393-.073.678-.078.495-.245 1.556-.268 1.814Zm12.064-4.089-.148.913c-.32-.162-.553-.227-.803-.227-.672 0-1.142.648-1.142 1.574 0 .638.316 1.023.839 1.023.221 0 .466-.068.764-.215l-.158.957c-.331.09-.545.124-.795.124-.968 0-1.572-.697-1.572-1.815 0-1.502.834-2.552 2.026-2.552.393 0 .857.167.989.218Zm1.45 2.567a1.506 1.506 0 0 0-.2-.014c-.51 0-.767.175-.767.52 0 .213.126.348.322.348.366 0 .63-.348.646-.854Zm.655 1.522h-.745l.017-.354c-.227.28-.53.414-.942.414-.488 0-.822-.381-.822-.934 0-.832.581-1.317 1.579-1.317.102 0 .233.009.366.026a.848.848 0 0 0 .036-.222c0-.226-.157-.31-.577-.31a3.004 3.004 0 0 0-.952.153l.125-.768c.448-.132.743-.181 1.076-.181.772 0 1.181.347 1.18 1.001a4.34 4.34 0 0 1-.072.678c-.078.495-.246 1.556-.269 1.814Zm-10.171-.052a2.055 2.055 0 0 1-.647.112c-.46 0-.71-.265-.71-.751-.007-.152.066-.549.123-.911.052-.32.39-2.332.39-2.332h.894l-.105.517h.46l-.123.821h-.46c-.104.65-.252 1.46-.254 1.567 0 .177.094.253.308.253a.73.73 0 0 0 .242-.032l-.118.756Zm2.74-.027a3.06 3.06 0 0 1-.917.139c-1-.001-1.522-.524-1.522-1.525 0-1.169.663-2.028 1.564-2.028.737 0 1.208.48 1.208 1.237 0 .25-.032.495-.11.84h-1.78c-.06.496.257.703.777.703.32 0 .608-.067.93-.216l-.15.85Zm-.502-2.027c.005-.07.095-.61-.416-.61-.285 0-.488.218-.571.61h.987Zm-5.696-.23c0 .432.21.73.685.954.364.17.42.222.42.377 0 .213-.16.309-.516.309-.269 0-.518-.042-.806-.135l-.123.79c.203.044.386.085.935.1.95 0 1.388-.36 1.388-1.142 0-.47-.184-.745-.634-.952-.377-.173-.421-.211-.421-.371 0-.185.15-.28.44-.28.177 0 .418.02.647.052l.128-.793a6.075 6.075 0 0 0-.792-.066c-1.006 0-1.354.525-1.351 1.157Zm18.39 2.336h-.851l.042-.318c-.247.264-.5.378-.83.378-.653 0-1.085-.564-1.085-1.418 0-1.137.67-2.095 1.463-2.095.35 0 .613.142.859.465l.2-1.214h.887l-.685 4.202Zm-1.327-.79c.419 0 .713-.474.713-1.151 0-.434-.168-.67-.477-.67-.407 0-.697.476-.697 1.148 0 .447.155.674.46.674Zm-2.624-2.627c-.112 1.058-.312 2.13-.469 3.188l-.04.23h.899c.322-2.09.4-2.498.904-2.447.08-.428.23-.803.341-.992-.376-.078-.587.135-.862.54.022-.176.061-.345.054-.519h-.827Zm-7.404 0c-.113 1.058-.313 2.13-.469 3.188l-.04.23h.9c.32-2.09.398-2.498.902-2.447.081-.428.23-.803.342-.992-.376-.078-.587.135-.862.54.022-.176.061-.345.053-.519h-.826Zm11.75 3.15a.267.267 0 1 1 .535-.001.268.268 0 0 1-.535 0Zm.267.203a.203.203 0 0 0 0-.407.204.204 0 0 0 0 .407Zm-.036-.086h-.055v-.235h.1c.02 0 .042 0 .06.012a.07.07 0 0 1 .03.059.064.064 0 0 1-.041.06l.043.104h-.06l-.037-.093h-.04v.093Zm0-.133h.03c.012 0 .024 0 .034-.005a.032.032 0 0 0 .014-.027.031.031 0 0 0-.014-.024c-.01-.006-.025-.004-.035-.004h-.029v.06Z" fill="#fff"/></g><defs><clipPath id="bea"><path fill="#fff" d="M0 0h36v24H0z"/></clipPath></defs></svg><svg fill="none" viewBox="0 0 40 11" id="microgaming" xmlns="http://www.w3.org/2000/svg"><g clip-path="url(#bfa)"><path d="M4.965.027C2.236.027.033 2.367.033 5.263c0 .515.073 1.03.22 1.515.093-.134.18-.267.26-.415.345-.536.678-1.072 1.011-1.621l.246-.416c.08-.134.16-.275.233-.416.16-.275.32-.556.46-.831.073-.141.146-.275.226-.423.08-.141.146-.275.22-.423.073-.148.146-.289.206-.423l.2-.43.02-.028a.445.445 0 0 1 .598-.218c.16.098.26.275.253.479 0 .247-.046.507-.066.754-.02.247-.027.507-.047.768-.02.507-.026 1.029-.026 1.536 0 .508.026 1.015.073 1.508.026.24.066.48.106.72.033.21.1.422.193.612a.839.839 0 0 0 .107.162c.026.021.006.007.026.007h.02l.02-.007H4.6l.027-.007c.006-.007.026-.02.033-.028.073-.056.133-.127.2-.204a5.33 5.33 0 0 0 .399-.564c.126-.204.246-.423.36-.641.232-.444.452-.895.658-1.353.1-.233.206-.458.306-.698.1-.233.2-.472.293-.698a.444.444 0 0 1 .58-.26c.146.056.245.19.272.352 0 .056.007.134.02.211l.027.219c.02.14.033.289.066.43.047.289.1.578.173.852.073.275.16.557.273.825.107.268.246.514.42.747.033.056.026.134-.02.169-.047.035-.107.035-.147 0a3.992 3.992 0 0 1-.599-.712 6.45 6.45 0 0 1-.453-.817c-.093-.19-.16-.38-.246-.578-.053.113-.1.232-.153.338-.22.472-.433.937-.685 1.41-.127.246-.253.479-.4.711-.146.24-.306.472-.479.684-.1.127-.22.232-.333.338a.518.518 0 0 1-.12.078l-.08.049-.046.021h-.007l-.026.007h-.02l-.034.007c-.026.007-.046.021-.073.021-.053.007-.106.022-.16.029a.844.844 0 0 1-.352-.05 1.117 1.117 0 0 1-.3-.183 1.465 1.465 0 0 1-.332-.451 3.426 3.426 0 0 1-.273-.853 8.64 8.64 0 0 1-.12-.817 18.381 18.381 0 0 1-.08-1.6v-.754c-.093.183-.18.367-.273.536-.073.14-.146.289-.226.43l-.226.43a42.364 42.364 0 0 1-.959 1.705c-.206.366-.426.726-.645 1.085 1.49 2.417 4.552 3.087 6.835 1.508 2.283-1.578 2.915-4.82 1.424-7.237C8.18.915 6.636.027 4.965.027Z" fill="url(#bfb)"/><path d="M14.176 7.139V3.665h-.08l-1.051 3.488h-.26l-1.051-3.481h-.08v3.474h-.433V3.313h.772l.932 3.05.912-3.05h.779V7.16h-.44V7.14Z" fill="url(#bfc)"/><path d="M15.248 3.805v-.5h.473v.5h-.473Zm.007 3.333v-2.96h.459v2.96h-.46Z" fill="url(#bfd)"/><path d="M18.516 6.173c0 .578-.206 1.015-1.112 1.015-1.138 0-1.204-.69-1.204-1.537 0-.845.066-1.536 1.204-1.536.905 0 1.112.444 1.112 1.015h-.433c0-.472-.153-.698-.679-.698-.705 0-.745.402-.745 1.205 0 .804.033 1.205.745 1.205.526 0 .68-.232.68-.697l.432.028Z" fill="url(#bfe)"/><path d="M19.415 4.497c.22-.141.499-.338.758-.345.054-.007.107-.007.16-.007.073 0 .133 0 .22.007l-.034.352c-.073-.007-.133-.007-.2-.007-.053 0-.106 0-.172.007-.247.007-.506.204-.7.317v2.333h-.459V4.18h.36l.067.317Z" fill="url(#bff)"/><path d="M23.141 5.665c0 .846-.066 1.536-1.224 1.536s-1.225-.69-1.225-1.536c0-.845.067-1.536 1.225-1.536 1.158 0 1.224.69 1.224 1.536Zm-1.983 0c0 .803.033 1.205.759 1.205.725 0 .758-.394.758-1.205 0-.81-.033-1.205-.758-1.205-.726 0-.759.388-.759 1.205Z" fill="url(#bfg)"/><path d="M23.987 7.83c.173.02.4.028.652.028.706 0 .799-.204.805-.987-.206.127-.499.268-.798.275-1.025.021-1.085-.564-1.085-1.487 0-.923.053-1.536 1.038-1.536.333 0 .646.162.885.324l.047-.268h.36v2.629c0 1.064-.227 1.388-1.152 1.388a5.04 5.04 0 0 1-.806-.07l.054-.296Zm1.457-3.108c-.2-.134-.452-.268-.698-.268-.68 0-.726.402-.726 1.205 0 .79.047 1.163.726 1.163.246 0 .505-.14.698-.247V4.722Z" fill="url(#bfh)"/><path d="m28.406 7.14-.047-.269c-.226.155-.525.325-.852.325-1.024.02-1.084-.592-1.084-1.537 0-.937.053-1.536 1.071-1.536.333 0 .632.162.859.31l.046-.26h.36v2.96h-.353v.006Zm-.093-2.432c-.193-.113-.453-.247-.699-.247-.679 0-.726.402-.726 1.205 0 .804.047 1.205.726 1.205.246 0 .5-.14.699-.267V4.708Z" fill="url(#bfi)"/><path d="M29.737 4.44c.206-.135.486-.297.785-.31.473-.022.713.112.832.323.22-.14.506-.317.826-.324.958-.028 1.025.486 1.025 1.205v1.804h-.46V5.362c0-.613-.033-.909-.659-.909-.226 0-.459.141-.652.268.047.212.067.43.053.655v1.776h-.399V5.37c0-.613-.033-.909-.659-.909-.22 0-.452.141-.632.247v2.438h-.46v-2.96h.36l.04.254Z" fill="url(#bfj)"/><path d="M33.77 3.805v-.5h.473v.5h-.473Zm.014 3.333v-2.96h.459v2.96h-.46Z" fill="url(#bfk)"/><path d="M35.221 4.44c.227-.134.526-.296.852-.31 1.025-.028 1.085.486 1.085 1.205v1.804H36.7V5.363c0-.613-.047-.909-.725-.909-.247 0-.506.141-.7.26v2.44h-.459V4.178h.36l.046.261Z" fill="url(#bfl)"/><path d="M38.057 7.83c.173.02.399.028.652.028.705 0 .798-.204.805-.987-.206.127-.499.268-.799.275-1.025.021-1.084-.564-1.084-1.487 0-.923.053-1.536 1.038-1.536.333 0 .646.162.885.324l.047-.268h.36v2.629c0 1.064-.227 1.388-1.152 1.388-.273 0-.546-.028-.806-.07l.054-.296Zm1.45-3.108c-.2-.134-.452-.268-.698-.268-.68 0-.726.402-.726 1.205 0 .79.047 1.163.726 1.163.246 0 .506-.14.699-.247V4.722Z" fill="url(#bfm)"/></g><defs><linearGradient id="bfb" x1="-.736" y1="6.698" x2="39.344" y2="-2.421" gradientUnits="userSpaceOnUse"><stop stop-color="#21E418"/><stop offset=".3" stop-color="#31B6E9"/><stop offset=".976" stop-color="#21E418"/></linearGradient><linearGradient id="bfc" x1="-.304" y1="8.6" x2="39.777" y2="-.519" gradientUnits="userSpaceOnUse"><stop stop-color="#21E418"/><stop offset=".3" stop-color="#31B6E9"/><stop offset=".976" stop-color="#21E418"/></linearGradient><linearGradient id="bfd" x1="-.163" y1="9.214" x2="39.917" y2=".094" gradientUnits="userSpaceOnUse"><stop stop-color="#21E418"/><stop offset=".3" stop-color="#31B6E9"/><stop offset=".976" stop-color="#21E418"/></linearGradient><linearGradient id="bfe" x1=".034" y1="10.084" x2="40.115" y2=".965" gradientUnits="userSpaceOnUse"><stop stop-color="#21E418"/><stop offset=".3" stop-color="#31B6E9"/><stop offset=".976" stop-color="#21E418"/></linearGradient><linearGradient id="bff" x1=".136" y1="10.532" x2="40.217" y2="1.413" gradientUnits="userSpaceOnUse"><stop stop-color="#21E418"/><stop offset=".3" stop-color="#31B6E9"/><stop offset=".976" stop-color="#21E418"/></linearGradient><linearGradient id="bfg" x1=".284" y1="11.182" x2="40.365" y2="2.063" gradientUnits="userSpaceOnUse"><stop stop-color="#21E418"/><stop offset=".3" stop-color="#31B6E9"/><stop offset=".976" stop-color="#21E418"/></linearGradient><linearGradient id="bfh" x1=".546" y1="12.333" x2="40.626" y2="3.214" gradientUnits="userSpaceOnUse"><stop stop-color="#21E418"/><stop offset=".3" stop-color="#31B6E9"/><stop offset=".976" stop-color="#21E418"/></linearGradient><linearGradient id="bfi" x1=".612" y1="12.623" x2="40.692" y2="3.503" gradientUnits="userSpaceOnUse"><stop stop-color="#21E418"/><stop offset=".3" stop-color="#31B6E9"/><stop offset=".976" stop-color="#21E418"/></linearGradient><linearGradient id="bfj" x1=".796" y1="13.431" x2="40.876" y2="4.312" gradientUnits="userSpaceOnUse"><stop stop-color="#21E418"/><stop offset=".3" stop-color="#31B6E9"/><stop offset=".976" stop-color="#21E418"/></linearGradient><linearGradient id="bfk" x1=".852" y1="13.68" x2="40.933" y2="4.561" gradientUnits="userSpaceOnUse"><stop stop-color="#21E418"/><stop offset=".3" stop-color="#31B6E9"/><stop offset=".976" stop-color="#21E418"/></linearGradient><linearGradient id="bfl" x1="1.055" y1="14.57" x2="41.135" y2="5.451" gradientUnits="userSpaceOnUse"><stop stop-color="#21E418"/><stop offset=".3" stop-color="#31B6E9"/><stop offset=".976" stop-color="#21E418"/></linearGradient><linearGradient id="bfm" x1="1.318" y1="15.726" x2="41.398" y2="6.606" gradientUnits="userSpaceOnUse"><stop stop-color="#21E418"/><stop offset=".3" stop-color="#31B6E9"/><stop offset=".976" stop-color="#21E418"/></linearGradient><clipPath id="bfa"><path fill="#fff" d="M0 0h40v10.5H0z"/></clipPath></defs></svg><svg fill="none" viewBox="0 0 16 16" id="money" xmlns="http://www.w3.org/2000/svg"><path d="M13.5 10h-1.035c-.34.385-.73.72-1.155 1-.95.635-2.085 1-3.31 1a5.925 5.925 0 0 1-3.31-1 5.788 5.788 0 0 1-1.155-1H2.5c-.825 0-1.5.675-1.5 1.5v2c0 .825.675 1.5 1.5 1.5h11c.825 0 1.5-.675 1.5-1.5v-2c0-.825-.675-1.5-1.5-1.5ZM12 13.5H4a.501.501 0 0 1-.5-.5c0-.275.225-.5.5-.5h8c.275 0 .5.225.5.5s-.225.5-.5.5ZM8 1C5.245 1 3 3.245 3 6c0 1.635.79 3.09 2.005 4 .835.63 1.87 1 2.995 1s2.16-.37 2.995-1A4.993 4.993 0 0 0 13 6c0-2.755-2.245-5-5-5Zm-.25 4.5h.47c.69 0 1.25.56 1.25 1.25 0 .61-.415 1.11-.97 1.24v.51c0 .275-.225.5-.5.5a.501.501 0 0 1-.5-.5v-.48H7c-.275 0-.5-.22-.5-.5 0-.275.225-.5.5-.5h1.22c.14 0 .25-.11.25-.25 0-.16-.11-.27-.25-.27h-.47a1.25 1.25 0 0 1-.25-2.475V3.5c0-.275.225-.5.5-.5s.5.225.5.5V4h.47c.275 0 .5.225.5.5s-.225.5-.5.5H7.75c-.14 0-.25.11-.25.25s.11.25.25.25Z" fill="#89ECA3"/></svg><svg fill="none" viewBox="0 0 36 28" id="neteller" xmlns="http://www.w3.org/2000/svg"><g clip-path="url(#bha)" fill="#8DC549"><path d="M33.6.8H2.4A2.402 2.402 0 0 0 0 3.2v21.6c0 1.324 1.076 2.4 2.4 2.4h31.2c1.324 0 2.4-1.076 2.4-2.4V3.2C36 1.878 34.924.8 33.6.8Zm-1.508 13.065c-.204.26-.498.432-.875.514l-.17.036.747 1.986h-1.632l-.72-2.43-.448 2.43H13.622l.71-3.85h-.914l-.71 3.85H6.865l-1.08-3.133-.554 3.133H3.6l.92-4.977h1.706l1.112 3.05.558-3.05h9.808l-.204 1.128H15.93l-.16.87 1.51.003-.179.974H15.59l-.158.874h2.516l.71-3.849h1.645l-.678 3.65h1.125l.672-3.65h1.647l-.678 3.65h1.154l.672-3.65h3.149l-.206 1.128h-1.55l-.16.87 1.503-.003-.179.98H25.27l-.161.874h2.498l.708-3.849h1.908c.729 0 1.284.126 1.65.378.355.243.528.588.527 1.06 0 .404-.104.74-.308 1.003Z"/><path d="M29.964 12.43h-.237l-.248 1.337h.323c.325 0 .564-.057.727-.172.124-.085.27-.255.27-.568a.523.523 0 0 0-.231-.465c-.137-.088-.334-.132-.604-.132Zm-20.816.985h1.55l-.179.984H8.954l-.162.872h2.497l.5-2.72H9.298l-.15.864Z"/></g><defs><clipPath id="bha"><path fill="#fff" d="M0 0h36v28H0z"/></clipPath></defs></svg><svg fill="none" viewBox="0 0 36 14" id="netent" xmlns="http://www.w3.org/2000/svg"><g clip-path="url(#bia)"><path d="M18.834.5h-.366v13h.366v-2.501h4.632V9.484h-3.564V7.74h3.047V6.214h-3.047V4.527h3.564V3.001h-4.632V.5Z" fill="#78BD1F"/><path d="M4.418 7.906 3.102 5.727 1.415 3.03l-.017-.027H0v7.997h1.552V6.084l1.157 1.915 1.861 3h1.41V3.002H4.418v4.904ZM6.853 11h5.125V9.484H8.414V7.74h3.046V6.215H8.414V4.528h3.564V3.002H6.853v7.997ZM12.606 4.54h1.792V11h1.562V4.54h1.78V3.001h-5.134v1.537Z" fill="#fff"/><path d="M28.665 7.918 27.35 5.74l-1.687-2.698-.017-.028h-1.398v7.997h1.55V6.095l1.157 1.916 1.863 3h1.41V3.014h-1.562v4.904ZM30.865 3.014V4.55h1.792v6.46h1.561v-6.46h1.78V3.014h-5.133Z" fill="#78BD1F"/></g><defs><clipPath id="bia"><path fill="#fff" transform="translate(0 .5)" d="M0 0h36v13H0z"/></clipPath></defs></svg><svg fill="none" viewBox="0 0 16 16" id="pinterest" xmlns="http://www.w3.org/2000/svg"><path d="M7.878 1C4.04 1 2 3.459 2 6.14c0 1.243.695 2.794 1.807 3.286.169.076.26.044.298-.113.034-.12.18-.692.25-.963a.247.247 0 0 0-.059-.243c-.37-.427-.662-1.205-.662-1.935 0-1.87 1.486-3.685 4.016-3.685 2.188 0 3.718 1.42 3.718 3.453 0 2.297-1.215 3.887-2.795 3.887-.874 0-1.525-.687-1.318-1.535.249-1.011.738-2.098.738-2.827 0-.653-.37-1.194-1.123-1.194-.89 0-1.612.881-1.612 2.064 0 .752.266 1.26.266 1.26l-1.044 4.22c-.277 1.124.037 2.945.065 3.102.016.086.113.113.168.043.086-.114 1.15-1.632 1.449-2.73.108-.4.554-2.021.554-2.021.293.53 1.139.973 2.04.973 2.681 0 4.619-2.357 4.619-5.28C13.365 3.096 10.965 1 7.878 1Z" fill="#fff"/></svg><svg fill="none" viewBox="0 0 16 16" id="poker-cards" xmlns="http://www.w3.org/2000/svg"><g clip-path="url(#bka)" fill="#fff"><path d="M14.969 1.083 8.935.019A1.248 1.248 0 0 0 7.49 1.031l-.057.324c.872.108 1.61.736 1.842 1.602l.368 1.376a1.124 1.124 0 0 1 1.52.695 1.124 1.124 0 0 1 2 .88c-.235 1.329-1.66 2.397-2.338 2.836l1.034 3.857c.055.207.078.415.073.619l.87.153a1.248 1.248 0 0 0 1.445-1.012l1.734-9.833a1.248 1.248 0 0 0-1.012-1.445Z"/><path d="M8.37 3.199a1.248 1.248 0 0 0-1.527-.883L.925 3.902A1.248 1.248 0 0 0 .043 5.43l2.584 9.644a1.248 1.248 0 0 0 1.528.882l5.918-1.585a1.248 1.248 0 0 0 .882-1.529L8.37 3.2ZM3.767 9.79a.331.331 0 0 1-.095-.355l.905-2.68a.331.331 0 0 1 .533-.142l2.123 1.868c.1.088.138.228.095.355l-.905 2.679a.331.331 0 0 1-.533.143L3.766 9.79Z"/></g><defs><clipPath id="bka"><path fill="#fff" d="M0 0h16v16H0z"/></clipPath></defs></svg><svg fill="none" viewBox="0 0 37 18" id="pragmaticplay" xmlns="http://www.w3.org/2000/svg"><g clip-path="url(#bla)"><path d="M31.825 7.124c-1.837.114-1.012 2.51 1.018 2.384 1.987-.124.939-2.506-1.018-2.384Z" fill="#F19021"/><path d="M31.05 5.643a5.91 5.91 0 0 0-3.288.999 5.926 5.926 0 0 0-2.517 6.085 5.931 5.931 0 0 0 1.62 3.036 5.915 5.915 0 0 0 6.449 1.285 5.935 5.935 0 0 0 1.92-9.669 5.912 5.912 0 0 0-4.185-1.736Zm0 11.235a5.29 5.29 0 0 1-4.894-3.275 5.314 5.314 0 0 1 1.147-5.782 5.293 5.293 0 0 1 5.772-1.15 5.299 5.299 0 0 1 3.27 4.901 5.31 5.31 0 0 1-1.551 3.752 5.291 5.291 0 0 1-3.745 1.554Zm-.18-15.373C29.467 2.567 29.71 4.2 29.71 4.2s-.883-2.296-2.03-3.7c-.154 1.807.41 4.201.41 4.201s-.717-1.484-2.477-1.567c1.46.84 2.026 2.354 2.155 2.76a5.875 5.875 0 0 1 2.886-.875c-.115-.378-.524-1.971.217-3.514Z" fill="#F19021"/><path d="M.515 12.152v1.241H0v-3.196h1.085c.368 0 .644.087.83.262.184.175.277.415.279.72 0 .302-.095.54-.285.713-.19.174-.464.26-.822.26H.515Zm1.153-.973c0-.181-.05-.32-.152-.414-.1-.096-.263-.143-.485-.143H.515v1.11h.516c.424 0 .636-.185.637-.553Zm2.653 2.214-.796-1.277H3.16v1.277h-.515v-3.196H3.77c.364 0 .64.089.829.267.189.178.283.413.282.706 0 .25-.07.454-.21.616-.14.161-.342.264-.606.308l.84 1.299H4.32Zm-1.162-1.644h.569c.416 0 .624-.184.624-.552a.546.546 0 0 0-.152-.41c-.101-.098-.258-.147-.472-.147h-.569v1.11Zm4.09.951H5.904l-.244.693h-.552l1.175-3.147h.593l1.17 3.147h-.552L7.25 12.7Zm-.144-.398-.529-1.493-.529 1.493h1.058Zm3.543-1.852c.253.187.431.459.502.766h-.542a.867.867 0 0 0-.342-.413 1.01 1.01 0 0 0-.562-.154 1.032 1.032 0 0 0-.536.14.965.965 0 0 0-.37.399c-.092.189-.137.398-.131.608-.006.218.04.434.135.63a.943.943 0 0 0 .382.4c.175.096.372.144.572.14.25.005.493-.084.681-.25.19-.164.304-.39.344-.677H9.609v-.38h1.604v.493c-.034.23-.12.45-.25.641a1.433 1.433 0 0 1-.52.46 1.553 1.553 0 0 1-.739.172 1.601 1.601 0 0 1-.823-.208 1.42 1.42 0 0 1-.551-.578 1.932 1.932 0 0 1 0-1.689c.124-.24.315-.44.549-.575.25-.14.533-.211.82-.206.38 0 .697.094.95.281Zm4.204-.204v3.147h-.52v-2.359l-.908 2.359h-.452l-.914-2.359v2.359h-.514v-3.147h.623l1.04 2.513 1.02-2.513h.625Zm2.522 2.454h-1.345l-.244.693h-.553l1.175-3.147h.591l1.171 3.147h-.551l-.244-.693Zm-.145-.398L16.7 10.81l-.529 1.493h1.058Zm3.146-2.105v.416h-.89v2.78h-.52v-2.78h-.886v-.416h2.296Zm.79 0v3.196h-.514v-3.196h.515Zm2.916.267c.261.202.446.488.524.81h-.547a.97.97 0 0 0-.36-.46 1.038 1.038 0 0 0-.602-.17.939.939 0 0 0-.509.14.97.97 0 0 0-.353.401 1.495 1.495 0 0 0 0 1.214.97.97 0 0 0 .353.4.938.938 0 0 0 .509.14 1.04 1.04 0 0 0 .603-.169.974.974 0 0 0 .36-.455h.546a1.447 1.447 0 0 1-.524.808c-.26.198-.584.297-.976.297a1.542 1.542 0 0 1-.8-.206 1.393 1.393 0 0 1-.538-.575 1.971 1.971 0 0 1 0-1.69c.12-.239.307-.44.538-.576a1.53 1.53 0 0 1 .8-.209c.391 0 .717.1.976.3Zm2.955 1.688v1.241h-.515v-3.196h1.085c.367 0 .643.087.83.262.185.175.278.415.279.72 0 .302-.095.54-.285.713-.19.174-.464.26-.822.26h-.572Zm1.154-.973c0-.181-.05-.32-.151-.414-.101-.096-.263-.143-.486-.143h-.517v1.11h.515c.426 0 .64-.185.64-.553ZM29.6 12.99h1.103v.403h-1.619v-3.196h.516v2.793Zm3.462-.29h-1.347l-.244.693h-.552l1.176-3.147h.592l1.17 3.147h-.551l-.244-.693Zm-.145-.398-.528-1.493-.53 1.493h1.058Zm3.009-2.105-1.062 2.032v1.164h-.519v-1.164l-1.066-2.032h.597l.732 1.48.732-1.48h.586Z" fill="#fff"/></g><defs><clipPath id="bla"><path fill="#fff" transform="translate(0 .5)" d="M0 0h37v17H0z"/></clipPath></defs></svg><svg fill="none" viewBox="0 0 32 32" id="profit" xmlns="http://www.w3.org/2000/svg"><g clip-path="url(#bma)"><path d="M23.5 11.313c-4.653 0-8.438 3.784-8.438 8.437 0 4.652 3.785 8.437 8.438 8.437 4.652 0 8.5-3.785 8.5-8.437 0-4.653-3.847-8.438-8.5-8.438Zm.962 12.955c-.008.003-.017.002-.025.004v1.103a.937.937 0 1 1-1.875 0v-1.109c-.617-.209-1.209-.604-1.715-1.207a.936.936 0 0 1 .116-1.32.935.935 0 0 1 1.32.115c.496.59 1.057.825 1.537.652a.938.938 0 0 0-.32-1.82 2.816 2.816 0 0 1-2.813-2.811c0-1.133.674-2.15 1.717-2.59.052-.023.106-.022.158-.04v-1.12a.937.937 0 1 1 1.875 0v1.121c.486.165.96.425 1.382.835a.937.937 0 1 1-1.306 1.345c-.456-.442-.96-.594-1.378-.415a.937.937 0 0 0 .365 1.802 2.816 2.816 0 0 1 2.812 2.812 2.82 2.82 0 0 1-1.85 2.643Z" fill="url(#bmb)"/><path d="M.938 20.688a.937.937 0 0 0-.938.937v9.437c0 .519.42.938.938.938H3.75V20.687H.938Z" fill="url(#bmc)"/><path d="M22.235 5.852 15.672.227a.934.934 0 0 0-1.22 0L7.89 5.852A.936.936 0 0 0 8.5 7.5h2.812V32h6.563c.518 0 .937-.42.937-.938v-2.139c-3.334-1.71-5.625-5.176-5.625-9.174 0-3.997 2.292-7.463 5.625-9.174V7.5h2.813a.936.936 0 0 0 .61-1.648Z" fill="url(#bmd)"/><path d="M6.625 13.188a.937.937 0 0 0-.938.937V32h3.75V13.187H6.625Z" fill="url(#bme)"/></g><defs><linearGradient id="bmb" x1="15.063" y1="19.713" x2="32" y2="19.713" gradientUnits="userSpaceOnUse"><stop stop-color="#F0C645"/><stop offset=".495" stop-color="#FAF283"/><stop offset="1" stop-color="#EBC944"/></linearGradient><linearGradient id="bmc" x1="0" y1="26.319" x2="3.75" y2="26.319" gradientUnits="userSpaceOnUse"><stop stop-color="#F0C645"/><stop offset=".495" stop-color="#FAF283"/><stop offset="1" stop-color="#EBC944"/></linearGradient><linearGradient id="bmd" x1="7.563" y1="15.93" x2="22.562" y2="15.93" gradientUnits="userSpaceOnUse"><stop stop-color="#F0C645"/><stop offset=".495" stop-color="#FAF283"/><stop offset="1" stop-color="#EBC944"/></linearGradient><linearGradient id="bme" x1="5.688" y1="22.552" x2="9.437" y2="22.552" gradientUnits="userSpaceOnUse"><stop stop-color="#F0C645"/><stop offset=".495" stop-color="#FAF283"/><stop offset="1" stop-color="#EBC944"/></linearGradient><clipPath id="bma"><path fill="#fff" d="M0 0h32v32H0z"/></clipPath></defs></svg><svg fill="none" viewBox="0 0 16 16" id="quality" xmlns="http://www.w3.org/2000/svg"><path d="M6.515 12.96a2.178 2.178 0 0 1-1.083-.708 3.319 3.319 0 0 0-.164-.162c-.054-.012-.157-.023-.229-.03a2.15 2.15 0 0 1-1.205-.42 1.74 1.74 0 0 1-.444-.558l-1.3 2.252a.666.666 0 0 0 .678.992l1.16-.176.428 1.094a.662.662 0 0 0 .623.423.662.662 0 0 0 .576-.333l1.348-2.336-.03.002c-.12 0-.24-.013-.358-.04ZM12.61 11.082a1.744 1.744 0 0 1-.444.558c-.35.259-.77.405-1.205.42-.072.008-.175.019-.23.03-.041.037-.113.111-.163.163-.28.34-.657.586-1.08.707-.119.027-.24.04-.362.04L9.098 13l1.348 2.335a.66.66 0 0 0 .627.332.663.663 0 0 0 .571-.422l.428-1.094 1.16.176a.666.666 0 0 0 .678-.992l-1.3-2.252ZM8 3a3.333 3.333 0 1 0 0 6.667A3.333 3.333 0 0 0 8 3Zm1.61 2.518-1.333 2a.333.333 0 0 1-.513.051l-1-1a.333.333 0 0 1 .472-.471l.712.712 1.108-1.662a.333.333 0 0 1 .555.37Z" fill="#fff" fill-opacity=".44"/><path d="M9.337 12.31c.296-.096.557-.277.75-.52.1-.117.217-.219.347-.3.146-.055.299-.086.454-.093.306-.005.604-.1.856-.274a1.62 1.62 0 0 0 .449-.79c.04-.153.104-.3.19-.434.107-.112.23-.207.367-.282.276-.14.504-.357.658-.625.107-.288.13-.6.068-.901a1.608 1.608 0 0 1-.012-.485c.048-.147.118-.285.208-.411.19-.25.303-.549.328-.861a1.643 1.643 0 0 0-.328-.861 1.533 1.533 0 0 1-.209-.411 1.606 1.606 0 0 1 .013-.485c.063-.3.04-.613-.068-.9a1.595 1.595 0 0 0-.657-.626 1.514 1.514 0 0 1-.368-.282 1.581 1.581 0 0 1-.19-.435c-.071-.3-.227-.575-.448-.79a1.555 1.555 0 0 0-.856-.273 1.488 1.488 0 0 1-.455-.092 1.52 1.52 0 0 1-.346-.302 1.585 1.585 0 0 0-.751-.52c-.3-.042-.605.004-.879.134A1.52 1.52 0 0 1 8 .61a1.516 1.516 0 0 1-.458-.12 1.539 1.539 0 0 0-.879-.133 1.583 1.583 0 0 0-.75.519c-.1.117-.217.219-.347.301-.146.054-.299.086-.454.093-.306.005-.604.1-.856.273a1.62 1.62 0 0 0-.449.79c-.04.153-.105.3-.19.434a1.513 1.513 0 0 1-.367.282c-.276.14-.504.358-.658.626-.107.288-.13.6-.068.9.028.16.033.324.012.485a1.532 1.532 0 0 1-.208.412 1.64 1.64 0 0 0-.328.86c.025.313.138.612.327.861.09.126.161.265.21.412.02.161.016.324-.013.484-.063.301-.04.613.068.901.154.268.382.485.657.626.137.074.26.17.369.282.084.135.148.281.19.435.07.3.226.574.448.79.252.172.55.268.855.273.156.006.31.038.455.092.13.082.247.184.346.301.194.244.455.424.751.52.3.043.605-.004.879-.133.145-.064.3-.105.458-.121.158.016.313.057.458.12.212.091.437.145.667.158a.922.922 0 0 0 .212-.024ZM8 10.334a4 4 0 1 1 0-8 4 4 0 0 1 0 8Z" fill="#fff" fill-opacity=".44"/></svg><svg fill="none" viewBox="0 0 14 14" id="qualityCard" xmlns="http://www.w3.org/2000/svg"><path d="M5.7 11.34a1.906 1.906 0 0 1-.948-.619c-.044-.046-.106-.11-.142-.142-.048-.01-.138-.02-.2-.027a1.882 1.882 0 0 1-1.055-.367 1.525 1.525 0 0 1-.389-.488l-1.137 1.97a.583.583 0 0 0 .593.869l1.015-.155.375.958a.579.579 0 0 0 .544.37.58.58 0 0 0 .504-.291l1.18-2.044-.026.002c-.105 0-.21-.012-.314-.035ZM11.034 9.695a1.525 1.525 0 0 1-.389.489 1.883 1.883 0 0 1-1.054.367c-.063.007-.154.017-.201.027-.037.031-.1.096-.143.142a1.907 1.907 0 0 1-.945.618 1.41 1.41 0 0 1-.317.036l-.025-.002 1.18 2.044a.578.578 0 0 0 .549.29.58.58 0 0 0 .5-.37l.374-.956 1.015.154a.583.583 0 0 0 .593-.868l-1.137-1.97ZM7 2.625a2.917 2.917 0 1 0 0 5.833 2.917 2.917 0 0 0 0-5.833Zm1.41 2.203-1.167 1.75a.292.292 0 0 1-.45.045l-.874-.875a.292.292 0 0 1 .412-.413l.624.624.969-1.454a.292.292 0 0 1 .485.323Z" fill="#1A9F3E"/><path d="M8.17 10.77c.258-.083.487-.24.657-.454.087-.103.189-.191.303-.263.127-.048.261-.075.397-.081a1.36 1.36 0 0 0 .75-.24c.193-.187.33-.427.392-.69a1.38 1.38 0 0 1 .165-.38c.095-.099.203-.182.323-.247.24-.123.44-.313.575-.548.094-.251.115-.525.06-.788a1.406 1.406 0 0 1-.011-.424c.042-.128.104-.25.182-.36.166-.218.265-.48.287-.753a1.438 1.438 0 0 0-.287-.753 1.34 1.34 0 0 1-.182-.36 1.404 1.404 0 0 1 .01-.424 1.428 1.428 0 0 0-.059-.789 1.396 1.396 0 0 0-.575-.547 1.324 1.324 0 0 1-.322-.247 1.382 1.382 0 0 1-.166-.38 1.416 1.416 0 0 0-.393-.691 1.36 1.36 0 0 0-.748-.24 1.302 1.302 0 0 1-.398-.08 1.332 1.332 0 0 1-.303-.263A1.387 1.387 0 0 0 8.17.312 1.351 1.351 0 0 0 7.4.43 1.33 1.33 0 0 1 7 .535a1.327 1.327 0 0 1-.4-.106 1.347 1.347 0 0 0-.77-.116 1.385 1.385 0 0 0-.657.454c-.087.103-.189.192-.303.264a1.302 1.302 0 0 1-.397.08 1.36 1.36 0 0 0-.75.24c-.193.188-.33.428-.392.69a1.38 1.38 0 0 1-.165.381 1.324 1.324 0 0 1-.323.247c-.24.122-.44.313-.575.547a1.425 1.425 0 0 0-.06.788c.025.14.03.283.011.425-.042.128-.104.25-.182.36-.166.218-.265.48-.287.753.022.273.121.534.287.753.078.11.14.231.182.36.018.14.014.284-.01.424-.055.263-.035.536.059.788.135.234.334.424.575.547.12.066.228.149.322.247.074.118.13.246.166.38.062.264.199.503.393.692.22.151.48.234.748.239.136.006.27.033.398.08.114.073.216.162.303.264.17.213.398.371.657.455.263.037.53-.003.769-.117.127-.056.263-.091.401-.105.138.014.274.05.4.105.186.08.383.126.585.138a.805.805 0 0 0 .185-.021ZM7 9.043a3.5 3.5 0 1 1 0-7 3.5 3.5 0 0 1 0 7Z" fill="#1A9F3E"/></svg><svg fill="none" viewBox="0 0 32 33" id="reputation" xmlns="http://www.w3.org/2000/svg"><g clip-path="url(#bpa)"><path fill-rule="evenodd" clip-rule="evenodd" d="M29.563 32.115H2.437c-.993 0-.993-1.5 0-1.5h1.125V20.173c0-.412.337-.75.75-.75h5.68c.412 0 .75.338.75.75v10.442h1.63v-13.76c0-.412.338-.75.75-.75h5.756c.412 0 .75.338.75.75v13.76h1.612V12.244c0-.413.337-.75.75-.75h5.698c.413 0 .75.337.75.75v18.371h1.125c.975 0 .975 1.5 0 1.5ZM4.743 18.674a.746.746 0 0 1-.731-.863l.375-2.306-1.669-1.668c-.43-.431-.187-1.181.413-1.275l2.305-.318 1.069-2.156c.262-.544 1.069-.563 1.35.019l1.012 2.137 2.287.318c.6.075.844.844.412 1.275l-1.668 1.668.375 2.306c.113.619-.525 1.069-1.087.788L7.16 17.53l-2.1 1.069c-.074.056-.187.075-.318.075ZM15.316 5.926c.281-.581 1.087-.581 1.35 0l1.012 2.118 2.362.32a.757.757 0 0 1 .412 1.293l-1.706 1.65.431 2.286c.113.619-.543 1.088-1.087.806l-2.1-1.068-2.08 1.068a.754.754 0 0 1-1.088-.806l.432-2.287-1.706-1.65a.753.753 0 0 1 .412-1.293l2.343-.319 1.013-2.118Zm9.504 1.987L22.796 9.02a.75.75 0 0 1-1.106-.768l.374-2.362-1.65-1.613c-.468-.45-.187-1.18.394-1.274l2.306-.375 1.013-2.1c.28-.544 1.068-.562 1.35 0l1.068 2.1 2.324.375c.6.093.844.843.394 1.274l-1.65 1.613.375 2.362a.752.752 0 0 1-1.106.768L24.82 7.913Z" fill="url(#bpb)"/></g><defs><linearGradient id="bpb" x1="1.692" y1="16.043" x2="30.294" y2="16.043" gradientUnits="userSpaceOnUse"><stop stop-color="#F0C645"/><stop offset=".495" stop-color="#FAF283"/><stop offset="1" stop-color="#EBC944"/></linearGradient><clipPath id="bpa"><path fill="#fff" transform="translate(0 .114)" d="M0 0h32v32H0z"/></clipPath></defs></svg><svg fill="none" viewBox="0 0 32 32" id="responsive" xmlns="http://www.w3.org/2000/svg"><g clip-path="url(#bqa)"><path d="M17.625 20.625H0v.938a2.812 2.812 0 0 0 2.813 2.812h14.812v-3.75Z" fill="url(#bqb)"/><path d="M17.625 26.25h-4.75v2H11.05a.937.937 0 0 0-.889.641l-.625 1.875a.937.937 0 0 0 .89 1.234h7.703a3.726 3.726 0 0 1-.504-1.875V26.25Z" fill="url(#bqc)"/><path d="M29.188 0H2.813C2.377 0 1.966.099 1.6.274L6.875 5.55v-.862a.938.938 0 0 1 1.875 0v3.125c0 .518-.42.938-.938.938H4.688a.938.938 0 0 1 0-1.875h.862L.274 1.6A2.802 2.802 0 0 0 0 2.812V18.75h17.625v-4.875a3.754 3.754 0 0 1 3.75-3.75h8.75c.683 0 1.323.184 1.875.505V2.812A2.812 2.812 0 0 0 29.187 0Z" fill="url(#bqd)"/><path d="M30.125 12h-8.75c-.168 0-.33.022-.485.064l4.547 4.548v-.862a.937.937 0 1 1 1.875 0v3.125c0 .518-.42.938-.937.938H23.25a.937.937 0 1 1 0-1.875h.862l-4.548-4.548a1.876 1.876 0 0 0-.064.485v16.25c0 1.036.84 1.875 1.875 1.875h8.75C31.161 32 32 31.16 32 30.125v-16.25C32 12.839 31.16 12 30.125 12Z" fill="url(#bqe)"/></g><defs><linearGradient id="bqb" x1="0" y1="22.492" x2="17.625" y2="22.492" gradientUnits="userSpaceOnUse"><stop stop-color="#F0C645"/><stop offset=".495" stop-color="#FAF283"/><stop offset="1" stop-color="#EBC944"/></linearGradient><linearGradient id="bqc" x1="9.487" y1="29.112" x2="18.129" y2="29.112" gradientUnits="userSpaceOnUse"><stop stop-color="#F0C645"/><stop offset=".495" stop-color="#FAF283"/><stop offset="1" stop-color="#EBC944"/></linearGradient><linearGradient id="bqd" x1="0" y1="9.334" x2="32" y2="9.334" gradientUnits="userSpaceOnUse"><stop stop-color="#F0C645"/><stop offset=".495" stop-color="#FAF283"/><stop offset="1" stop-color="#EBC944"/></linearGradient><linearGradient id="bqe" x1="19.5" y1="21.956" x2="32" y2="21.956" gradientUnits="userSpaceOnUse"><stop stop-color="#F0C645"/><stop offset=".495" stop-color="#FAF283"/><stop offset="1" stop-color="#EBC944"/></linearGradient><clipPath id="bqa"><path fill="#fff" d="M0 0h32v32H0z"/></clipPath></defs></svg><svg fill="none" viewBox="0 0 36 24" id="scrill" xmlns="http://www.w3.org/2000/svg"><g clip-path="url(#bra)" fill-rule="evenodd" clip-rule="evenodd"><path d="M35.996 22.646c0 .702-.534 1.276-1.197 1.276H1.201c-.663 0-1.197-.574-1.197-1.276V1.356C.004.654.538.08 1.2.08h33.592c.67 0 1.203.574 1.203 1.276v21.29Z" fill="#872165"/><path d="m24.276 6.809 1.786-.337v7.252h-1.786V6.81Zm2.604 0v6.915h1.785V6.472l-1.785.337Zm-5.14 6.915h1.779V8.421H21.74v5.303ZM9.952 9.167c-.23-.015-.75-.05-.75-.545 0-.602.75-.602 1.034-.602.494 0 1.136.15 1.596.301 0 0 .257.093.473.193l.02.008V6.873l-.026-.007c-.542-.2-1.17-.394-2.34-.394-2.009 0-2.72 1.24-2.72 2.3 0 .617.244 2.057 2.55 2.229.197.007.71.043.71.552 0 .43-.419.68-1.136.68a5.335 5.335 0 0 1-2.001-.415v1.698c.69.187 1.467.287 2.38.287 1.968 0 2.847-1.175 2.847-2.336 0-1.326-.987-2.179-2.637-2.3Zm10.78-.824c-1.65.057-2.482.838-2.482 2.393v2.988h1.793v-2.437c0-.93.121-1.332 1.163-1.368V8.37c-.176-.043-.474-.028-.474-.028Zm-4.836.071c-.04.108-.33.96-1.02 1.85V6.471l-1.84.387v6.865h1.84v-2.121c.534.845.798 2.121.798 2.121h2.204c-.216-.96-1.17-2.73-1.17-2.73A8.98 8.98 0 0 0 18 8.414h-2.104Zm6.73-.502c.487 0 .879-.415.879-.931s-.392-.932-.879-.932c-.48 0-.872.416-.872.932s.392.931.872.931ZM9.282 17.292v-1.118c0-.128-.047-.222-.169-.222-.095 0-.182.065-.277.158v1.182h-.52v-1.118c0-.128-.041-.222-.163-.222-.095 0-.183.065-.277.158v1.182h-.521v-1.79h.46l.04.242c.15-.157.305-.28.521-.28.23 0 .359.123.42.28.155-.157.317-.28.527-.28.311 0 .48.209.48.56v1.268h-.52ZM10.872 17.328c-.467 0-.805-.358-.805-.924 0-.573.345-.94.811-.94.467 0 .812.36.812.933 0 .573-.352.931-.818.931Zm.006-1.412c-.203 0-.31.187-.31.48 0 .287.114.488.31.488.197 0 .305-.194.305-.48 0-.294-.108-.488-.305-.488ZM12.941 17.292v-1.118c0-.128-.047-.222-.169-.222-.101 0-.196.065-.29.165v1.175h-.522v-1.79h.46l.04.242c.15-.15.312-.28.529-.28.31 0 .473.209.473.56v1.268h-.52ZM15.26 16.533h-1.014c.034.286.19.394.42.394.182 0 .365-.071.554-.187l.048.388c-.183.121-.406.2-.67.2-.507 0-.865-.286-.865-.924 0-.58.33-.94.79-.94.521 0 .751.41.751.933 0 .05-.006.107-.013.136Zm-.75-.71c-.142 0-.25.136-.264.409h.528c-.014-.265-.101-.409-.264-.409ZM16.458 17.33c-.148.465-.358.623-.724.623a.601.601 0 0 1-.196-.021l-.068-.438c.055.015.108.029.21.029.115 0 .216-.05.271-.172l.02-.057-.609-1.749.555-.065.325 1.126.31-1.104h.508l-.602 1.827ZM17.986 17.315c-.27 0-.527-.05-.724-.129v-2.444l.522-.086v1.047c.108-.115.25-.237.453-.237.345 0 .601.28.601.882 0 .666-.33.967-.852.967Zm.081-1.354c-.108 0-.195.072-.283.172v.71a.528.528 0 0 0 .19.028c.202 0 .344-.13.344-.487 0-.294-.102-.423-.25-.423ZM19.846 17.328c-.46 0-.805-.358-.805-.924 0-.573.345-.94.812-.94.467 0 .812.36.812.933 0 .573-.345.931-.819.931Zm.007-1.412c-.203 0-.305.187-.305.48 0 .287.109.488.305.488s.311-.194.311-.48c0-.294-.115-.488-.31-.488ZM21.666 17.328c-.467 0-.812-.358-.812-.924 0-.573.345-.94.812-.94.467 0 .811.36.811.933 0 .573-.344.931-.811.931Zm0-1.412c-.196 0-.304.187-.304.48 0 .287.108.488.304.488.203 0 .31-.194.31-.48 0-.294-.107-.488-.31-.488ZM23.762 17.315l-.487-.853v.832h-.52v-2.552l.52-.086v1.584l.454-.737h.554l-.527.816.548.917-.542.08ZM25.872 16.533h-1.014c.027.286.19.394.412.394.19 0 .372-.071.561-.187l.048.388a1.19 1.19 0 0 1-.67.2c-.507 0-.865-.286-.865-.924 0-.58.338-.94.79-.94.522 0 .752.41.752.933 0 .05-.007.107-.014.136Zm-.75-.71c-.142 0-.25.136-.264.409h.527c-.013-.265-.1-.409-.263-.409ZM26.684 16.296v.996h-.52v-1.79h.452l.055.357c.1-.208.243-.373.493-.394l.088.566a.804.804 0 0 0-.568.265ZM28.07 17.322c-.27 0-.52-.078-.696-.179l.06-.423c.203.137.447.215.636.215.15 0 .217-.05.217-.136 0-.093-.047-.129-.284-.193-.427-.115-.602-.237-.602-.573 0-.33.23-.553.642-.553.23 0 .447.044.622.13l-.06.423a1.174 1.174 0 0 0-.555-.173c-.129 0-.183.05-.183.122s.048.108.284.18c.454.128.61.25.61.58 0 .372-.244.58-.69.58Z" fill="#fff"/></g><defs><clipPath id="bra"><path fill="#fff" d="M0 0h36v24H0z"/></clipPath></defs></svg><svg fill="none" viewBox="0 0 18 18" id="search" xmlns="http://www.w3.org/2000/svg"><path d="m15.75 15.75-3.364-3.37m1.864-4.505a6.375 6.375 0 1 1-12.75 0 6.375 6.375 0 0 1 12.75 0Z" stroke="#fff" stroke-opacity=".8" stroke-linecap="round" stroke-linejoin="round"/></svg><svg fill="none" viewBox="0 0 14 9" id="select-arrow" xmlns="http://www.w3.org/2000/svg"><path d="m7.576 8.488 5.433-5.922a1.054 1.054 0 0 0 0-1.455c-.388-.415-.97-.415-1.358 0L6.8 6.202l-4.85-5.09C1.56.695.98.695.59 1.111a.976.976 0 0 0-.291.727c0 .311.097.52.291.727l5.433 5.922c.485.416 1.067.416 1.552 0-.097 0-.097 0 0 0Z" fill="#AAA"/></svg><svg fill="none" viewBox="0 0 16 16" id="star" xmlns="http://www.w3.org/2000/svg"><g clip-path="url(#bua)" fill="#fff" fill-opacity=".44"><path d="m12.939 4.677-2.642-.384-1.181-2.394C8.66.975 7.34.975 6.884 1.9L5.703 4.293l-2.642.384c-1.02.148-1.428 1.403-.69 2.122l1.912 1.864-.451 2.63c-.175 1.016.893 1.792 1.805 1.312L8 11.363l2.363 1.242c.914.48 1.979-.298 1.805-1.312l-.451-2.63 1.911-1.864c.738-.72.331-1.974-.69-2.122ZM4.21 1.474 3.574.596a.533.533 0 0 0-.863.627l.638.878a.533.533 0 1 0 .863-.627ZM2.094 9.34a.533.533 0 0 0-.672-.342L.369 9.34a.533.533 0 1 0 .33 1.015l1.052-.343a.533.533 0 0 0 .343-.672ZM13.173.478a.533.533 0 0 0-.745.118l-.638.878a.533.533 0 1 0 .863.627l.638-.878a.533.533 0 0 0-.118-.745ZM15.631 9.34l-1.053-.342a.533.533 0 1 0-.33 1.014l1.054.343a.533.533 0 0 0 .33-1.015ZM8 13.476a.533.533 0 0 0-.533.533v1.082a.533.533 0 1 0 1.066 0V14.01A.533.533 0 0 0 8 13.476Z"/></g><defs><clipPath id="bua"><path fill="#fff" d="M0 0h16v16H0z"/></clipPath></defs></svg><svg fill="none" viewBox="0 0 14 14" id="starCard" xmlns="http://www.w3.org/2000/svg"><g clip-path="url(#bva)"><path d="M6.003 1.33c.366-.895 1.657-.884 2.004.028l.003.007 1.205 3.339c.01.025.038.045.072.045h2.968c1.003 0 1.476 1.26.679 1.9l-2.1 1.889a.51.51 0 0 1-.03.024.065.065 0 0 0-.021.073.535.535 0 0 1 .015.053l.766 3.245c.327.992-.81 1.775-1.637 1.208l-2.86-1.815a.655.655 0 0 1-.02-.013.083.083 0 0 0-.095 0 .668.668 0 0 1-.02.013l-2.86 1.815c-.826.568-1.964-.217-1.637-1.208l.766-3.245a.5.5 0 0 1 .015-.053.065.065 0 0 0-.021-.073.497.497 0 0 1-.03-.024l-2.1-1.89c-.798-.64-.322-1.899.679-1.899h2.969a.077.077 0 0 0 .07-.046l1.205-3.338a.502.502 0 0 1 .015-.035Z" fill="url(#bvb)"/></g><defs><linearGradient id="bvb" x1=".663" y1="6.971" x2="13.336" y2="6.971" gradientUnits="userSpaceOnUse"><stop stop-color="#F0C645"/><stop offset=".495" stop-color="#FAF283"/><stop offset="1" stop-color="#EBC944"/></linearGradient><clipPath id="bva"><path fill="#fff" d="M0 0h14v14H0z"/></clipPath></defs></svg><svg fill="none" viewBox="0 0 16 16" id="stopwatch" xmlns="http://www.w3.org/2000/svg"><path d="M11.5.375H9a.375.375 0 0 0-.375.375v.75c0 .207.168.375.375.375h2.5a.375.375 0 0 0 .375-.375V.75A.375.375 0 0 0 11.5.375ZM4.25 5.875h-2.5a.375.375 0 0 0 0 .75h2.5a.375.375 0 1 0 0-.75ZM4.125 9.25a.375.375 0 0 0-.375-.375h-2.5a.375.375 0 0 0 0 .75h2.5a.375.375 0 0 0 .375-.375ZM4 10.375H2.25a.375.375 0 1 0 0 .75H4a.375.375 0 1 0 0-.75ZM4.125 7.75a.375.375 0 0 0-.375-.375H.5a.375.375 0 0 0 0 .75h3.25a.375.375 0 0 0 .375-.375ZM10.25 8.5V4.25A4.255 4.255 0 0 0 6 8.5a4.255 4.255 0 0 0 4.25 4.25A4.255 4.255 0 0 0 14.5 8.5h-4.25Z" fill="#57EAEA"/><path d="m14.363 4.667.402-.402a.376.376 0 1 0-.53-.53l-.419.418A5.601 5.601 0 0 0 11 2.925V2.25H9.5v.675a5.602 5.602 0 0 0-2.816 1.228l-.419-.418a.375.375 0 1 0-.53.53l.402.402A5.604 5.604 0 0 0 4.625 8.5a5.631 5.631 0 0 0 5.625 5.625A5.631 5.631 0 0 0 15.875 8.5a5.604 5.604 0 0 0-1.512-3.833Zm-4.113 8.458a4.625 4.625 0 1 1 0-9.25 4.625 4.625 0 0 1 0 9.25Z" fill="#57EAEA"/></svg><svg fill="none" viewBox="0 0 16 16" id="trusted" xmlns="http://www.w3.org/2000/svg"><path fill-rule="evenodd" clip-rule="evenodd" d="M6.584 1.483a3.167 3.167 0 0 1 2.832 0l3.404 1.702c.62.31 1.013.945 1.013 1.64v5.03a3.167 3.167 0 0 1-1.488 2.686l-3.373 2.108a1.833 1.833 0 0 1-1.944 0l-3.373-2.108a3.167 3.167 0 0 1-1.488-2.685V4.824c0-.694.392-1.329 1.013-1.64l3.404-1.701Zm3.77 5.538a.5.5 0 0 0-.708-.708L7.333 8.627l-.98-.98a.5.5 0 0 0-.707.707L6.98 9.687a.5.5 0 0 0 .707 0l2.666-2.666Z" fill="#fff" fill-opacity=".44"/></svg><svg fill="none" viewBox="0 0 16 16" id="twitter" xmlns="http://www.w3.org/2000/svg"><path d="M9.21 7.005 13.945 1.5h-1.122L8.712 6.28 5.427 1.5H1.64l4.966 7.228L1.64 14.5h1.122l4.342-5.047 3.468 5.047h3.788L9.21 7.005Z" fill="#fff"/></svg><svg fill="none" viewBox="0 0 36 23" id="visa" xmlns="http://www.w3.org/2000/svg"><g clip-path="url(#bza)"><path d="M36 .027H0v22.948h36V.027Z" fill="#0E4595"/><path d="m13.532 16.031 1.54-8.984h2.463l-1.54 8.984h-2.463Zm11.36-8.79a6.391 6.391 0 0 0-2.208-.378c-2.433 0-4.148 1.219-4.162 2.965-.014 1.291 1.224 2.011 2.158 2.441.959.44 1.28.721 1.276 1.115-.006.602-.765.877-1.473.877-.986 0-1.51-.136-2.318-.472l-.318-.142-.345 2.01c.575.252 1.639.469 2.743.48 2.589 0 4.27-1.205 4.288-3.07.01-1.021-.646-1.8-2.067-2.44-.861-.416-1.388-.693-1.383-1.114 0-.374.447-.773 1.41-.773a4.567 4.567 0 0 1 1.844.344l.22.104.334-1.947Zm6.337-.194h-1.903c-.59 0-1.031.16-1.29.745l-3.657 8.233h2.586s.422-1.107.518-1.35l3.154.004c.074.315.3 1.346.3 1.346h2.285l-1.993-8.978Zm-3.02 5.801c.204-.517.982-2.511.982-2.511-.015.024.202-.52.326-.858l.166.775.57 2.594H28.21ZM11.442 7.047 9.03 13.174l-.257-1.245c-.45-1.436-1.848-2.99-3.411-3.77l2.205 7.858 2.605-.003 3.877-8.967h-2.608" fill="#fff"/><path d="M6.78 7.047H2.81l-.032.187c3.09.744 5.134 2.54 5.983 4.7l-.864-4.129c-.149-.568-.581-.738-1.116-.758" fill="#F2AE14"/></g><defs><clipPath id="bza"><path fill="#fff" d="M0 0h36v23H0z"/></clipPath></defs></svg><svg fill="none" viewBox="0 0 16 16" id="wallet" xmlns="http://www.w3.org/2000/svg"><path d="M2.244 4.006a.5.5 0 0 0-.5.494v7c0 .424.084.85.348 1.201.263.352.72.571 1.232.571h9.017c1.025 0 1.914-.768 1.914-1.771V7.044c0-1.003-.89-1.771-1.914-1.771H3.659c-.538 0-.915-.37-.915-.773a.5.5 0 0 0-.5-.494Zm5.757 2.558a2.709 2.709 0 1 1 0 5.418 2.709 2.709 0 0 1 0-5.418Z" fill="#fff"/><path d="M3.66 2.727c-1.025 0-1.915.77-1.915 1.774 0 1.003.89 1.771 1.914 1.771a.5.5 0 0 0 0-.999c-.538 0-.915-.37-.915-.772 0-.403.377-.773.915-.773h7.562c.348 0 .62.272.62.62v1.425a.5.5 0 0 0 .999 0V4.348c0-.888-.73-1.621-1.62-1.621H3.66ZM7.676 10.767 6.509 9.598a.457.457 0 1 1 .648-.647l.383.383V8.109c0-.266.211-.46.46-.46.268 0 .459.224.459.46v1.226l.363-.364a.462.462 0 0 1 .717.034c.104.154.144.402-.047.593L8.31 10.78a.46.46 0 0 1-.633-.012Z" fill="#fff"/></svg><svg fill="none" viewBox="0 0 32 32" id="withdrawal" xmlns="http://www.w3.org/2000/svg"><path d="M9 10h14v5H9v-5Z" fill="url(#cba)"/><path d="M26 3H6a3 3 0 0 0-3 3v6a3 3 0 0 0 3 3h1v-5H6a1 1 0 0 1 0-2h20a1 1 0 1 1 0 2h-1v5h1a3 3 0 0 0 3-3V6a3 3 0 0 0-3-3Z" fill="url(#cbb)"/><path d="M22.25 10H9.75a.838.838 0 0 0-.75.9v15.386A2.518 2.518 0 0 0 11.25 29h9.5A2.518 2.518 0 0 0 23 26.286V10.905a.837.837 0 0 0-.75-.905ZM16 19a2.5 2.5 0 0 1 1 4.788V24a1 1 0 1 1-2 0h-.5a1 1 0 0 1 0-2H16a.5.5 0 0 0 0-1 2.5 2.5 0 0 1-1-4.788V16a1 1 0 0 1 2 0h.5a1 1 0 1 1 0 2H16a.5.5 0 0 0 0 1Z" fill="url(#cbc)"/><defs><linearGradient id="cba" x1="9" y1="12.489" x2="23" y2="12.489" gradientUnits="userSpaceOnUse"><stop stop-color="#F0C645"/><stop offset=".495" stop-color="#FAF283"/><stop offset="1" stop-color="#EBC944"/></linearGradient><linearGradient id="cbb" x1="3" y1="8.974" x2="29" y2="8.974" gradientUnits="userSpaceOnUse"><stop stop-color="#F0C645"/><stop offset=".495" stop-color="#FAF283"/><stop offset="1" stop-color="#EBC944"/></linearGradient><linearGradient id="cbc" x1="8.991" y1="19.458" x2="23.009" y2="19.458" gradientUnits="userSpaceOnUse"><stop stop-color="#F0C645"/><stop offset=".495" stop-color="#FAF283"/><stop offset="1" stop-color="#EBC944"/></linearGradient></defs></svg><svg fill="none" viewBox="0 0 16 16" id="youtube" xmlns="http://www.w3.org/2000/svg"><path d="M15.183 4.25a1.879 1.879 0 0 0-1.322-1.321c-1.174-.322-5.869-.322-5.869-.322s-4.695 0-5.869.31c-.63.172-1.15.691-1.322 1.334C.492 5.424.492 7.859.492 7.859s0 2.446.31 3.607a1.88 1.88 0 0 0 1.321 1.323c1.186.32 5.87.32 5.87.32s4.694 0 5.868-.308a1.88 1.88 0 0 0 1.322-1.322c.31-1.174.31-3.608.31-3.608s.011-2.447-.31-3.62Zm-8.686 5.857V5.61l3.905 2.249-3.905 2.248Z" fill="#fff"/></svg></svg>